<?xml version="1.0" standalone="no"?>
<!DOCTYPE svg PUBLIC "-//W3C//DTD SVG 1.1//EN" "http://www.w3.org/Graphics/SVG/1.1/DTD/svg11.dtd" >
<svg>
<metadata>
Created by FontForge 20090914 at Wed Jun  7 04:43:34 2017
 By www-data
Copyright (c) 2008 by Ramiz Guseynov. All rights reserved.
</metadata>
<defs>
<font id="DecimaNovaW01-Light" horiz-adv-x="569" >
  <font-face 
    font-family="DecimaNovaW01-Light"
    font-weight="300"
    font-stretch="normal"
    units-per-em="1000"
    panose-1="2 0 5 6 0 0 0 2 0 4"
    ascent="750"
    descent="-250"
    x-height="500"
    cap-height="700"
    bbox="-59 -209.999 1102 921"
    underline-thickness="50"
    underline-position="-100"
    unicode-range="U+0002-U+2122"
  />
<missing-glyph horiz-adv-x="220" 
 />
    <glyph glyph-name=".notdef" horiz-adv-x="220" 
 />
    <glyph glyph-name="uni0002" horiz-adv-x="0" 
 />
    <glyph glyph-name="uni0009" unicode="&#x9;" horiz-adv-x="220" 
 />
    <glyph glyph-name="uni000A" unicode="&#xa;" horiz-adv-x="0" 
 />
    <glyph glyph-name="uni000D" unicode="&#xd;" horiz-adv-x="220" 
 />
    <glyph glyph-name="space" unicode=" " horiz-adv-x="220" 
 />
    <glyph glyph-name="exclam" unicode="!" horiz-adv-x="242" 
d="M144 189h-45l-9 511h62zM91 79h61v-79h-61v79z" />
    <glyph glyph-name="quotedbl" unicode="&#x22;" horiz-adv-x="292" 
d="M60 700h54l-15 -208h-39v208zM178 700h54l-15 -208h-39v208z" />
    <glyph glyph-name="numbersign" unicode="#" horiz-adv-x="682" 
d="M103 487h114l31 213h41l-31 -213h206l31 213h41l-31 -213h107v-48h-114l-25 -178h107v-48h-114l-31 -213h-41l31 213h-206l-31 -213h-41l31 213h-108v48h114l26 178h-107v48zM226 261h205l26 178h-206z" />
    <glyph glyph-name="dollar" unicode="$" horiz-adv-x="558" 
d="M244 4c-26 0 -49.332 1.16895 -69.999 3.50195s-38.334 4.83301 -53.001 7.5c-17.333 2.66699 -32.333 6 -45 10l3 47c15.333 -4.66699 32.333 -8.33398 51 -11.001c15.333 -2.66699 33.666 -5 54.999 -7s44 -3 68 -3c67.333 0 114.833 10 142.5 30s41.5 53 41.5 99
c0 26 -5.33301 47.5 -16 64.5s-24.667 31 -42 42s-37.166 20 -59.499 27l-68.5 20.5c-23.333 6.66699 -46.166 14.167 -68.499 22.5s-42.166 19.5 -59.499 33.5s-31.333 31.333 -42 52s-16 47 -16 79c0 28 4.5 52.5 13.5 73.5s21.333 38.5 37 52.5s34.5 25 56.5 33
s46 13 72 15v53h52v-53c20.667 -1.33301 40 -2.83301 58 -4.5s33.667 -3.5 47 -5.5c16 -2.66699 30.333 -5.33398 43 -8.00098l-4 -47c-18 3.33301 -36.333 6.33301 -55 9c-16 2.66699 -34 5 -54 7s-39.667 3 -59 3c-22.667 0 -43.334 -2.33301 -62.001 -7
s-34.834 -12 -48.501 -22s-24.167 -23 -31.5 -39s-11 -35.333 -11 -58c0 -34.667 9.16699 -61 27.5 -79s41.5 -32.333 69.5 -43s58 -19.834 90 -27.501s62 -18.334 90 -32.001s51.167 -32.667 69.5 -57s27.5 -58.166 27.5 -101.499c0 -52.667 -15.5 -94.167 -46.5 -124.5
s-81.167 -48.166 -150.5 -53.499v-53h-52v52z" />
    <glyph glyph-name="percent" unicode="%" horiz-adv-x="839" 
d="M369 480c0 -20 -3.83301 -38.333 -11.5 -55s-18 -30.834 -31 -42.501s-28.333 -20.667 -46 -27s-36.5 -9.5 -56.5 -9.5s-38.667 3.33301 -56 10s-32.5 15.834 -45.5 27.501s-23.333 25.667 -31 42s-11.5 34.5 -11.5 54.5v94c0 20 3.83301 38.333 11.5 55
s18 30.834 31 42.501s28.167 20.667 45.5 27s36 9.5 56 9.5s38.833 -3.16699 56.5 -9.5s33 -15.333 46 -27s23.333 -25.834 31 -42.501s11.5 -35 11.5 -55v-94zM319 578c0 30 -8.83301 52.332 -26.5 66.999s-40.5 22 -68.5 22c-28.667 0 -51.667 -7.33301 -69 -22
s-26 -37 -26 -67v-102c0 -29.333 8.66699 -51.333 26 -66s40.333 -22 69 -22c28 0 50.833 7.33301 68.5 22s26.5 36.334 26.5 65.001v103zM552 699.999h50l-316 -700h-49zM759 123.999c0 -20 -3.83301 -38.333 -11.5 -55s-18 -30.834 -31 -42.501s-28.333 -20.667 -46 -27
s-36.5 -9.5 -56.5 -9.5s-38.833 3.33301 -56.5 10s-33 15.834 -46 27.501s-23.167 25.667 -30.5 42s-11 34.5 -11 54.5v94c0 20 3.66699 38.333 11 55s17.5 30.834 30.5 42.501s28.333 20.667 46 27s36.5 9.5 56.5 9.5s38.833 -3.16699 56.5 -9.5s33 -15.333 46 -27
s23.333 -25.834 31 -42.501s11.5 -35 11.5 -55v-94zM709 221.999c0 30 -8.83301 52.332 -26.5 66.999s-40.5 22 -68.5 22c-28.667 0 -51.667 -7.33301 -69 -22s-26 -37 -26 -67v-102c0 -29.333 8.66699 -51.333 26 -66s40.333 -22 69 -22c28 0 50.833 7.33301 68.5 22
s26.5 36.334 26.5 65.001v103z" />
    <glyph glyph-name="ampersand" unicode="&#x26;" horiz-adv-x="560" 
d="M455 313h50v-90c0 -28 -2.5 -52.167 -7.5 -72.5s-10.5 -37.166 -16.5 -50.499c-7.33301 -16 -15.333 -29.333 -24 -40l31 -60h-57l-12 23c-10 -6.66699 -21.667 -12.334 -35 -17.001c-11.333 -4 -25.5 -7.66699 -42.5 -11s-37.167 -5 -60.5 -5
c-24 0 -48.833 3.33301 -74.5 10s-49 18.667 -70 36s-38.167 41 -51.5 71s-20 68.667 -20 116c0 29.333 3.83301 55.833 11.5 79.5s18.167 44.167 31.5 61.5s29 31.5 47 42.5s37.333 18.833 58 23.5l-108 214v56h362v-49h-306v-5l273 -540c4 7.33301 7.33301 17 10 29
c2.66699 10 5.16699 22.333 7.5 37s3.5 32.667 3.5 54v87zM283 39c20.667 0 38.333 1.33301 53 4s26.667 5.66699 36 9c10.667 3.33301 19.334 7.66602 26.001 12.999l-163 320c-15.333 -2.66699 -29.833 -7.16699 -43.5 -13.5s-25.834 -15.666 -36.501 -27.999
s-19 -28 -25 -47s-9 -42.5 -9 -70.5c0 -27.333 2.33301 -52.5 7 -75.5s13 -42.833 25 -59.5s28.5 -29.5 49.5 -38.5s47.833 -13.5 80.5 -13.5z" />
    <glyph glyph-name="quotesingle" unicode="'" horiz-adv-x="169" 
d="M60 700h54l-14 -208h-40v208z" />
    <glyph glyph-name="parenleft" unicode="(" horiz-adv-x="302" 
d="M257 -190c-25.333 0 -48.666 5.00293 -69.999 15.0029s-39.5 23.167 -54.5 39.5s-26.667 35.5 -35 57.5s-12.5 45 -12.5 69v542c0 23.333 4.16699 45.666 12.5 66.999s20 40.166 35 56.499s33.167 29.333 54.5 39s44.666 14.5 69.999 14.5v-53
c-17.333 0 -33 -3.33301 -47 -10s-26.167 -15.834 -36.5 -27.501s-18.333 -25 -24 -40s-8.5 -30.833 -8.5 -47.5v-542c0 -16.667 2.83301 -32.667 8.5 -48s13.667 -29 24 -41s22.5 -21.5 36.5 -28.5s29.667 -10.5 47 -10.5v-52z" />
    <glyph glyph-name="parenright" unicode=")" horiz-adv-x="302" 
d="M45 -138c16.667 0 32.167 3.49707 46.5 10.4971s26.666 16.5 36.999 28.5s18.333 25.667 24 41s8.5 31.333 8.5 48v542c0 16.667 -2.83301 32.5 -8.5 47.5s-13.667 28.333 -24 40s-22.666 20.834 -36.999 27.501s-29.833 10 -46.5 10v53
c25.333 0 48.666 -4.83301 69.999 -14.5s39.5 -22.667 54.5 -39s26.667 -35.166 35 -56.499s12.5 -43.666 12.5 -66.999v-542c0 -24 -4.16699 -47 -12.5 -69s-20 -41.167 -35 -57.5s-33.167 -29.5 -54.5 -39.5s-44.666 -15 -69.999 -15v52z" />
    <glyph glyph-name="asterisk" unicode="*" horiz-adv-x="433" 
d="M239 560l131 44l13 -40l-132 -43l82 -113l-34 -25l-81 113l-81 -113l-34 24l81 114l-132 43l14 40l131 -44v140h42v-140z" />
    <glyph glyph-name="plus" unicode="+" 
d="M308 496v-190h191v-48h-191v-190h-48v190h-190v48h190v190h48z" />
    <glyph glyph-name="comma" unicode="," horiz-adv-x="221" 
d="M78 79l63 0.00195312v-68c0 -20.667 -2.5 -37.834 -7.5 -51.501s-11 -24.5 -18 -32.5s-14.5 -13.5 -22.5 -16.5s-15 -4.5 -21 -4.5v27c11.333 0 19.833 5.66699 25.5 17s8.5 23.666 8.5 36.999c0 1.33301 -0.166992 2.83301 -0.5 4.5s-0.5 3.16699 -0.5 4.5v4h-27v79z
" />
    <glyph glyph-name="hyphen" unicode="-" horiz-adv-x="358" 
d="M293 271h-228v48h228v-48z" />
    <glyph glyph-name="period" unicode="." horiz-adv-x="221" 
d="M80 79h61v-79h-61v79z" />
    <glyph glyph-name="slash" unicode="/" horiz-adv-x="295" 
d="M221 700h54l-201 -700h-54z" />
    <glyph glyph-name="zero" unicode="0" horiz-adv-x="581" 
d="M519 495c1.33301 -46 2.00098 -94.167 2.00098 -144.5s-0.666992 -98.833 -2 -145.5c-0.666992 -30.667 -6.5 -59.167 -17.5 -85.5s-26.5 -49.166 -46.5 -68.499s-43.833 -34.5 -71.5 -45.5s-58.5 -16.5 -92.5 -16.5c-34.667 0 -66 5.5 -94 16.5s-52 26.167 -72 45.5
s-35.333 42.166 -46 68.499s-16.334 54.833 -17.001 85.5c-1.33301 46.667 -2 95 -2 145s0.666992 98.333 2 145c0.666992 30.667 6.5 59.334 17.5 86.001s26.5 49.5 46.5 68.5s44 34 72 45s59 16.5 93 16.5s65 -5.5 93 -16.5s51.833 -26 71.5 -45s35 -41.833 46 -68.5
s16.833 -55.334 17.5 -86.001zM460.001 205c1.33301 47.333 1.99609 95.5 1.99609 144.5s-0.666992 97.5 -2 145.5c-0.666992 22.667 -4.66699 44.167 -12 64.5s-18.166 38 -32.499 53s-32 26.833 -53 35.5s-44.833 13 -71.5 13c-27.333 0 -51.5 -4.33301 -72.5 -13
s-38.833 -20.5 -53.5 -35.5s-26 -32.667 -34 -53s-12.333 -41.833 -13 -64.5c-1.33301 -46.667 -2 -94.667 -2 -144s0.666992 -98 2 -146c0.666992 -22.667 4.83398 -44 12.501 -64s18.834 -37.5 33.501 -52.5s32.667 -27 54 -36s45.666 -13.5 72.999 -13.5
c26.667 0 50.334 4.33301 71.001 13s38.167 20.5 52.5 35.5s25.333 32.5 33 52.5s11.834 41.667 12.501 65z" />
    <glyph glyph-name="one" unicode="1" horiz-adv-x="292" 
d="M25 647l110 53h66v-700h-57v649l-119 -55v53z" />
    <glyph glyph-name="two" unicode="2" horiz-adv-x="508" 
d="M58 686c15.333 4.66699 32.332 8.66699 50.999 12c16 3.33301 34.667 6.33301 56 9s44.666 4 69.999 4c32.667 0 62.334 -3.66699 89.001 -11s49.334 -18.833 68.001 -34.5s33 -36 43 -61s15 -54.833 15 -89.5c0 -26 -2 -48 -6 -66s-10 -34.5 -18 -49.5s-18 -29 -30 -42
l-42 -43.5l-262 -260v-5h361v-49h-423v64l269 271c17.333 18 32 33.833 44 47.5s21.667 27.167 29 40.5s12.5 27.5 15.5 42.5s4.5 32.5 4.5 52.5c0 26 -4 48.167 -12 66.5s-19.333 33.166 -34 44.499s-32.167 19.5 -52.5 24.5s-42.833 7.5 -67.5 7.5
c-18.667 0 -37.667 -1.16699 -57 -3.5s-37 -5.16602 -53 -8.49902c-18.667 -3.33301 -37 -7 -55 -11z" />
    <glyph glyph-name="three" unicode="3" horiz-adv-x="505" 
d="M39 700h380.997v-55l-184 -228c23.333 -0.666992 47.5 -3.5 72.5 -8.5s48 -14.667 69 -29s38.333 -34.5 52 -60.5s20.5 -60 20.5 -102c0 -47.333 -7.83301 -85.666 -23.5 -114.999s-35.5 -52.333 -59.5 -69s-50 -28 -78 -34s-54 -9 -78 -9c-28 0 -52.667 1.16699 -74 3.5
s-39.666 5.16602 -54.999 8.49902c-17.333 3.33301 -33 7.66602 -47 12.999l3 48c16 -4.66699 33 -8.66699 51 -12c15.333 -3.33301 33 -6.16602 53 -8.49902s41.333 -3.5 64 -3.5c34.667 0 63.834 4.33301 87.501 13s42.834 20.834 57.501 36.501s25.167 34.667 31.5 57
s9.5 47.166 9.5 74.499c0 36.667 -5.83301 65.167 -17.5 85.5s-26.334 35 -44.001 44s-37.167 14.333 -58.5 16s-41.666 2.5 -60.999 2.5h-33v54l177 225v4h-316v49z" />
    <glyph glyph-name="four" unicode="4" horiz-adv-x="512" 
d="M20 220l255 480h61l-262 -492h294v195h57v-195h72v-49h-72v-159h-57v159h-348v61z" />
    <glyph glyph-name="five" unicode="5" horiz-adv-x="535" 
d="M67 60c16.667 -4.66699 33.999 -8.33301 51.999 -11c15.333 -2.66699 32.833 -5 52.5 -7s39.834 -3 60.501 -3c38 0 69.333 3.66699 94 11s44.167 18.5 58.5 33.5s24.333 33.833 30 56.5s8.5 49.667 8.5 81c0 26.667 -2.5 50.167 -7.5 70.5s-13.667 37.5 -26 51.5
s-29.333 24.5 -51 31.5s-49.5 10.5 -83.5 10.5c-20.667 0 -40.834 -2 -60.501 -6s-37.167 -8.33301 -52.5 -13c-18 -5.33301 -35 -11.333 -51 -18l-31 42l24 310h359v-49h-310l-20 -246c12.667 5.33301 27 10 43 14c13.333 3.33301 29.5 6.66602 48.5 9.99902
s40.167 5 63.5 5c67.333 0 119.5 -16.667 156.5 -50s55.5 -87.333 55.5 -162c0 -32.667 -3.83301 -63.167 -11.5 -91.5s-20.834 -52.833 -39.501 -73.5s-43.5 -37 -74.5 -49s-69.5 -18 -115.5 -18c-27.333 0 -51.666 1 -72.999 3s-39.666 4.33301 -54.999 7
c-17.333 2.66699 -33 6.33398 -47 11.001z" />
    <glyph glyph-name="six" unicode="6" 
d="M454 643c-14.667 3.33301 -30.666 6.33203 -47.999 8.99902c-14.667 2 -31.5 4 -50.5 6s-39.167 3 -60.5 3c-30 0 -55.833 -4.83301 -77.5 -14.5s-39.667 -22.5 -54 -38.5s-25.166 -34.5 -32.499 -55.5s-11.333 -43.167 -12 -66.5c-0.666992 -7.33301 -1 -16.5 -1 -27.5
v-33.5v-40c16 8.66699 34 16.667 54 24c16.667 6 36.334 11.5 59.001 16.5s47 7.5 73 7.5c68.667 0 120.834 -17.5 156.501 -52.5s53.5 -88.833 53.5 -161.5c0 -36.667 -5.5 -69.167 -16.5 -97.5s-26.333 -52.333 -46 -72s-43.334 -34.667 -71.001 -45
s-57.834 -15.5 -90.501 -15.5c-37.333 0 -70 5.83301 -98 17.5s-51.5 27.834 -70.5 48.501s-33.5 44.667 -43.5 72s-15.333 57 -16 89c-1.33301 46.667 -2 91.167 -2 133.5s0.666992 87.5 2 135.5c0.666992 30 6 58.667 16 86s24.667 51.333 44 72s43.5 37 72.5 49
s62.5 18 100.5 18c21.333 0 41.666 -1 60.999 -3s36.666 -4.33301 51.999 -7c17.333 -2.66699 34 -5.66699 50 -9zM297.001 383.999c-24 0 -46.833 -2.66602 -68.5 -7.99902s-40.834 -11 -57.501 -17c-19.333 -7.33301 -37 -15.666 -53 -24.999v-44v-38.5
c0 -13.667 0.333008 -25.5 1 -35.5c0.666992 -23.333 4.16699 -45.5 10.5 -66.5s16.333 -39.833 30 -56.5s31.167 -29.834 52.5 -39.501s47 -14.5 77 -14.5c56.667 0 98.834 14.5 126.501 43.5s41.5 74.5 41.5 136.5c0 59.333 -13 101.666 -39 126.999s-66.333 38 -121 38z
" />
    <glyph glyph-name="seven" unicode="7" horiz-adv-x="427" 
d="M20 700h387v-51l-279 -649h-55l278 646v5h-331v49z" />
    <glyph glyph-name="eight" unicode="8" horiz-adv-x="585" 
d="M513 524c0 -31.333 -5.50098 -57.3311 -16.501 -77.998s-23.167 -37.334 -36.5 -50.001c-15.333 -14.667 -32.666 -26.334 -51.999 -35.001c22.667 -8.66699 43 -21 61 -37c15.333 -13.333 29.333 -31.166 42 -53.499s19 -50.166 19 -83.499s-6.5 -62.333 -19.5 -87
s-30.333 -45.167 -52 -61.5s-46.667 -28.5 -75 -36.5s-58.166 -12 -89.499 -12c-32 0 -62.5 4 -91.5 12s-54.5 20.167 -76.5 36.5s-39.333 36.833 -52 61.5s-19 53.667 -19 87s6.16699 61.166 18.5 83.499s26.166 40.166 41.499 53.499c17.333 16 37.666 28.333 60.999 37
c-19.333 8.66699 -36.666 20.334 -51.999 35.001c-13.333 12.667 -25.333 29.334 -36 50.001s-16 46.667 -16 78c0 26 5.16699 50.333 15.5 73s25 42.167 44 58.5s42.333 29.333 70 39s58.5 14.5 92.5 14.5c33.333 0 63.5 -4.83301 90.5 -14.5s50 -22.834 69 -39.501
s33.667 -36.334 44 -59.001s15.5 -46.667 15.5 -72zM293.999 39.002c22.667 0 44.832 2.83301 66.499 8.5s40.834 14.667 57.501 27s30 28 40 47s15 41.5 15 67.5s-5.16699 48.333 -15.5 67s-24 33.834 -41 45.501s-36.167 20.334 -57.5 26.001s-43 8.5 -65 8.5
s-44 -2.83301 -66 -8.5s-41.5 -14.334 -58.5 -26.001s-30.833 -26.834 -41.5 -45.501s-16 -41 -16 -67s5 -48.5 15 -67.5s23.5 -34.667 40.5 -47s36.5 -21.333 58.5 -27s44.667 -8.5 68 -8.5zM457.997 524.002c0 40 -15 72.5 -45 97.5s-69.667 37.5 -119 37.5
c-52.667 0 -93.667 -12.5 -123 -37.5s-44 -57.5 -44 -97.5c0 -44 14.667 -78.167 44 -102.5s70.333 -36.5 123 -36.5c49.333 0 89 12.167 119 36.5s45 58.5 45 102.5z" />
    <glyph glyph-name="nine" unicode="9" 
d="M115 56c14.667 -3.33301 30.667 -6.33105 48 -8.99805c14.667 -2.66699 31.5 -4.83398 50.5 -6.50098s39.167 -2.5 60.5 -2.5c30 0 55.833 4.83301 77.5 14.5s39.667 22.5 54 38.5s25.166 34.5 32.499 55.5s11.333 43.167 12 66.5c0 6.66699 0.166992 15.667 0.5 27
s0.5 22.666 0.5 33.999v40c-16.667 -8.66699 -34.667 -16.667 -54 -24c-17.333 -6 -37.166 -11.5 -59.499 -16.5s-46.5 -7.5 -72.5 -7.5c-68.667 0 -120.834 17.5 -156.501 52.5s-53.5 88.833 -53.5 161.5c0 36.667 5.5 69.167 16.5 97.5s26.333 52.333 46 72
s43.167 34.667 70.5 45s57.666 15.5 90.999 15.5c36.667 0 69.167 -5.83301 97.5 -17.5s52 -27.834 71 -48.501s33.5 -44.667 43.5 -72s15.333 -57 16 -89c1.33301 -46.667 2 -91.167 2 -133.5s-0.666992 -87.5 -2 -135.5c-0.666992 -30 -6 -58.667 -16 -86
s-24.667 -51.333 -44 -72s-43.5 -37 -72.5 -49s-62.5 -18 -100.5 -18c-21.333 0 -41.666 0.833008 -60.999 2.5s-36.666 3.83398 -51.999 6.50098c-17.333 2.66699 -34 6 -50 10zM272 315.002c24 0 46.668 2.49902 68.001 7.49902s40.333 10.833 57 17.5
c19.333 7.33301 37.333 15.666 54 24.999v44c0 12 -0.166992 24.667 -0.5 38s-0.5 25.333 -0.5 36c-0.666992 22.667 -4.33398 44.667 -11.001 66s-16.667 40.333 -30 57s-30.666 29.834 -51.999 39.501s-47 14.5 -77 14.5c-56.667 0 -98.834 -14.5 -126.501 -43.5
s-41.5 -74.5 -41.5 -136.5c0 -59.333 12.833 -101.666 38.5 -126.999s66.167 -38 121.5 -38z" />
    <glyph glyph-name="colon" unicode=":" horiz-adv-x="221" 
d="M80 79h61v-79h-61v79zM80 500h61v-79h-61v79z" />
    <glyph glyph-name="semicolon" unicode=";" horiz-adv-x="221" 
d="M80 500h61v-79h-61v79zM78 79h63v-85l-38 -101h-27l30 107h-28v79z" />
    <glyph glyph-name="less" unicode="&#x3c;" 
d="M65 318l424 213v-56l-378 -183l378 -184v-56l-424 213v53z" />
    <glyph glyph-name="equal" unicode="=" 
d="M499 166h-429v48h429v-48zM499 370h-429v48h429v-48z" />
    <glyph glyph-name="greater" unicode="&#x3e;" 
d="M504 265l-424 -213v56l378 184l-378 183v56l424 -213v-53z" />
    <glyph glyph-name="question" unicode="?" horiz-adv-x="502" 
d="M50 685c14.667 4.66699 31.3369 8.66504 50.0039 11.998c15.333 3.33301 34 6.33301 56 9s45.667 4 71 4c31.333 0 60.666 -3.5 87.999 -10.5s51.166 -17.833 71.499 -32.5s36.333 -33.5 48 -56.5s17.5 -50.5 17.5 -82.5c0 -41.333 -6 -73.166 -18 -95.499
s-27.167 -39.833 -45.5 -52.5s-38 -22.667 -59 -30s-40.667 -16.666 -59 -27.999s-33.5 -27 -45.5 -47s-18 -49 -18 -87h-50c0 44.667 5.83301 79.5 17.5 104.5s26.167 44.333 43.5 58s36.333 24.167 57 31.5s39.667 16.166 57 26.499s31.833 24.166 43.5 41.499
s17.5 43 17.5 77c0 24.667 -4.33301 45.5 -13 62.5s-20.667 30.833 -36 41.5s-33.333 18.334 -54 23.001s-43.334 7 -68.001 7c-21.333 0 -41.833 -1.16699 -61.5 -3.5s-37.5 -5.16602 -53.5 -8.49902c-18.667 -3.33301 -36.334 -7 -53.001 -11zM152.003 78.998h61v-79h-61
v79z" />
    <glyph glyph-name="at" unicode="@" horiz-adv-x="856" 
d="M660 18c-20 0 -36.167 2.66309 -48.5 7.99609s-22.166 11.333 -29.499 18c-8 7.33301 -14.333 16 -19 26c-18.667 -10.667 -37.667 -20 -57 -28c-16.667 -7.33301 -34.5 -13.666 -53.5 -18.999s-36.833 -8 -53.5 -8c-24.667 0 -46.334 3.83301 -65.001 11.5
s-34.167 18 -46.5 31s-21.666 28 -27.999 45s-9.83301 34.833 -10.5 53.5c-2 62.667 -2 125.334 0 188.001c0.666992 18.667 4.5 36.834 11.5 54.501s17.5 33.167 31.5 46.5s31.167 24 51.5 32s44.5 12 72.5 12c20 0 40.833 -1.66699 62.5 -5s41.5 -7 59.5 -11
c21.333 -4.66699 41.666 -9.66699 60.999 -15v-318c0 -25.333 4 -45 12 -59s24.333 -21 49 -21c13.333 0 24.5 2.83301 33.5 8.5s16.5 13.167 22.5 22.5s10.333 20 13 32s4.33398 24 5.00098 36c1.33301 42 2 85.833 2 131.5s-0.666992 91.5 -2 137.5
c-1.33301 28.667 -8.66602 57.167 -21.999 85.5s-32.666 53.5 -57.999 75.5s-56.833 39.833 -94.5 53.5s-81.167 20.5 -130.5 20.5c-48 0 -90.667 -6.83301 -128 -20.5s-69 -31.5 -95 -53.5s-46.167 -47 -60.5 -75s-21.833 -56.333 -22.5 -85
c-0.666992 -24 -1.16699 -50.167 -1.5 -78.5s-0.5 -57.333 -0.5 -87s0.166992 -58.834 0.5 -87.501s0.833008 -55 1.5 -79c0.666992 -28.667 8 -56.834 22 -84.501s34 -52.167 60 -73.5s57.667 -38.666 95 -51.999s80.333 -20 129 -20c24.667 0 47.834 1 69.501 3
s41.167 4.66699 58.5 8c19.333 3.33301 37.666 7.33301 54.999 12l8 -43c-20 -4.66699 -40.667 -8.66699 -62 -12c-18.667 -3.33301 -39.167 -6.16602 -61.5 -8.49902s-44.833 -3.5 -67.5 -3.5c-54 0 -102.667 7.33301 -146 22s-80.5 34.667 -111.5 60s-55 54.833 -72 88.5
s-25.833 69.5 -26.5 107.5c-1.33301 54 -2 108.667 -2 164s0.666992 110 2 164c0.666992 38 9.66699 73.833 27 107.5s41.5 63.167 72.5 88.5s68.167 45.5 111.5 60.5s91.666 22.5 144.999 22.5c52.667 0 100.667 -7.5 144 -22.5s80.5 -35.167 111.5 -60.5
s55.167 -54.833 72.5 -88.5s26.333 -69.167 27 -106.5c1.33301 -45.333 2 -91 2 -137s-0.666992 -87 -2 -123c-0.666992 -26.667 -4.83398 -49.667 -12.501 -69s-17.334 -35.166 -29.001 -47.499s-24.667 -21.333 -39 -27s-28.833 -8.5 -43.5 -8.5zM295 339.996
c-3.33301 -59.333 -3.33301 -118.997 0 -178.997c0.666992 -14 3.33398 -27.333 8.00098 -40s11.167 -23.834 19.5 -33.501s19 -17.334 32 -23.001s28.167 -8.5 45.5 -8.5s34.833 2.66699 52.5 8s34.167 11.333 49.5 18c17.333 7.33301 34.333 16.333 51 27v315
c-11.333 4 -24 7.66699 -38 11c-12 3.33301 -26.333 6.16602 -43 8.49902s-35.334 3.5 -56.001 3.5c-20 0 -37.5 -3 -52.5 -9s-27.5 -13.833 -37.5 -23.5s-17.5 -21 -22.5 -34s-7.83301 -26.5 -8.5 -40.5z" />
    <glyph glyph-name="A" unicode="A" horiz-adv-x="575" 
d="M330 700l225 -700h-56l-69 217h-284l-69 -217h-57l225 700h85zM291 652h-7l-123 -388h254z" />
    <glyph glyph-name="B" unicode="B" 
d="M318 700c62.667 0 109.666 -15.5 140.999 -46.5s47 -74.5 47 -130.5c0 -32 -5.16699 -58 -15.5 -78s-21.833 -35.667 -34.5 -47c-14.667 -13.333 -31 -23.333 -49 -30c20.667 -5.33301 39.334 -15 56.001 -29c14 -12 26.833 -29.333 38.5 -52s17.5 -53.667 17.5 -93
c0 -61.333 -17.333 -109 -52 -143s-92 -51 -172 -51h-215v700h238zM136.999 651v-262.001h180c40 0 72.667 10.833 98 32.5s38 54.834 38 99.501c0 40.667 -10.333 72.5 -31 95.5s-51.667 34.5 -93 34.5h-192zM136.999 48.999h163c32 0 58.5 3 79.5 9s37.667 15 50 27
s20.833 27 25.5 45s7 39.333 7 64c0 20 -2.33301 38.833 -7 56.5s-12.5 33.167 -23.5 46.5s-25.833 24 -44.5 32s-42 12 -70 12h-180v-292z" />
    <glyph glyph-name="C" unicode="C" horiz-adv-x="520" 
d="M475 10c-18 -4 -36 -7.33105 -54 -9.99805c-15.333 -2.66699 -32.333 -5 -51 -7s-36 -3 -52 -3c-37.333 0 -71.166 6 -101.499 18s-56.5 28 -78.5 48s-39.167 43.5 -51.5 70.5s-18.833 55.5 -19.5 85.5c-2 91.333 -2 183.333 0 276c0.666992 30 7.16699 58.5 19.5 85.5
s29.5 50.5 51.5 70.5s48.333 36 79 48s64.334 18 101.001 18c19.333 0 38.166 -1 56.499 -3s34.5 -4 48.5 -6c16.667 -2.66699 32.334 -5.66699 47.001 -9l-3 -50c-16 3.33301 -32.667 6.33301 -50 9c-14.667 2 -30.834 4 -48.501 6s-34.5 3 -50.5 3
c-30 0 -56.833 -4.66699 -80.5 -14s-43.5 -22 -59.5 -38s-28.333 -34.333 -37 -55s-13.334 -42.334 -14.001 -65.001c-2 -92 -2 -184 0 -276c0.666992 -22.667 5.16699 -44.334 13.5 -65.001s20.5 -39 36.5 -55s35.833 -28.667 59.5 -38s50.834 -14 81.501 -14
c16.667 0 34 1 52 3s34.667 4.33301 50 7c17.333 2.66699 34.666 6 51.999 10z" />
    <glyph glyph-name="D" unicode="D" horiz-adv-x="603" 
d="M80 700h204.998c36.667 0 70.167 -5.5 100.5 -16.5s56.5 -26 78.5 -45s39.333 -41.333 52 -67s19.334 -53.5 20.001 -83.5c2 -92.667 2 -184.667 0 -276c-0.666992 -30 -7.16699 -58 -19.5 -84s-29.5 -48.5 -51.5 -67.5s-48.167 -33.833 -78.5 -44.5
s-64.166 -16 -101.499 -16h-205v700zM136.998 651l0.000976562 -602h148c30.667 0 57.834 4.16699 81.501 12.5s43.667 19.833 60 34.5s28.833 32 37.5 52s13.334 41.333 14.001 64c2 92 2 184 0 276c-0.666992 22.667 -5.33398 44 -14.001 64s-21.334 37.333 -38.001 52
s-36.834 26.167 -60.501 34.5s-50.5 12.5 -80.5 12.5h-148z" />
    <glyph glyph-name="E" unicode="E" horiz-adv-x="551" 
d="M491 700v-49h-354v-263h321v-48h-321v-291h364v-49h-421v700h411z" />
    <glyph glyph-name="F" unicode="F" horiz-adv-x="501" 
d="M471 700v-50h-335v-274h302v-49h-302v-327h-56v700h391z" />
    <glyph glyph-name="G" unicode="G" horiz-adv-x="600" 
d="M343 345l187.001 0.00292969v-322c-22 -6.66699 -44.667 -12.334 -68 -17.001c-20.667 -4 -43.667 -7.66699 -69 -11s-51.666 -5 -78.999 -5c-37.333 0 -71 6 -101 18s-55.5 28 -76.5 48s-37.5 43.5 -49.5 70.5s-18.333 55.5 -19 85.5
c-2.66699 91.333 -2.66699 183.333 0 276c0.666992 30 7 58.5 19 85.5s28.667 50.5 50 70.5s46.833 36 76.5 48s63.167 18 100.5 18c29.333 0 56.333 -1.16699 81 -3.5s46 -4.83301 64 -7.5c21.333 -2.66699 40.666 -6 57.999 -10l-4 -49c-21.333 4 -43 7.33301 -65 10
c-19.333 2.66699 -40.833 5 -64.5 7s-46.834 3 -69.501 3c-30 0 -56.5 -4.66699 -79.5 -14s-42.333 -22 -58 -38s-27.667 -34.333 -36 -55s-12.833 -42.334 -13.5 -65.001c-2 -92 -2 -184 0 -276c0.666992 -22.667 5.16699 -44.334 13.5 -65.001s20.5 -39 36.5 -55
s35.5 -28.667 58.5 -38s49.5 -14 79.5 -14c22 0 42.5 1 61.5 3s35.833 4.33301 50.5 7c17.333 2.66699 33 6 47 10v236h-131v49z" />
    <glyph glyph-name="H" unicode="H" horiz-adv-x="631" 
d="M551 700v-700h-57v340h-357v-340h-57v700h57v-311h357v311h57z" />
    <glyph glyph-name="I" unicode="I" horiz-adv-x="217" 
d="M137 0h-57v700h57v-700z" />
    <glyph glyph-name="J" unicode="J" horiz-adv-x="275" 
d="M16 42c3.33301 -0.666992 7.33496 -1.33203 12.002 -1.99902c4 -0.666992 8.83301 -1 14.5 -1h20.5c18.667 0 33.334 3.33301 44.001 10s18.667 15.667 24 27s8.66602 24.833 9.99902 40.5s2 32.167 2 49.5v534h57v-554c0 -29.333 -3.33301 -54 -10 -74
s-15.834 -36 -27.501 -48s-25.334 -20.667 -41.001 -26s-32.5 -8 -50.5 -8c-17.333 0 -31 1 -41 3c-6 1.33301 -11 2.66602 -15 3.99902z" />
    <glyph glyph-name="K" unicode="K" horiz-adv-x="519" 
d="M204 367l295 -367h-70l-291 367l275 333h68zM137 0h-57v700h57v-700z" />
    <glyph glyph-name="L" unicode="L" horiz-adv-x="473" 
d="M137 700v-651h316v-49h-373v700h57z" />
    <glyph glyph-name="M" unicode="M" horiz-adv-x="737" 
d="M657 0h-56v632l-22 -53l-179 -306h-63l-179 307l-22 52v-632h-56v700h72l217 -379l215 379h73v-700z" />
    <glyph glyph-name="N" unicode="N" horiz-adv-x="629" 
d="M549 700v-700h-78l-314 583l-21 52v-635h-56v700h78l314 -583l21 -53v636h56z" />
    <glyph glyph-name="O" unicode="O" horiz-adv-x="622" 
d="M311 710c36.667 0 69.832 -6 99.499 -18s55.167 -28 76.5 -48s37.833 -43.5 49.5 -70.5s17.834 -55.5 18.501 -85.5c2 -92.667 2 -184.667 0 -276c-0.666992 -30 -6.83398 -58.5 -18.501 -85.5s-28 -50.5 -49 -70.5s-46.333 -36 -76 -48s-63.167 -18 -100.5 -18
s-70.833 6 -100.5 18s-55 28 -76 48s-37.333 43.5 -49 70.5s-17.834 55.5 -18.501 85.5c-2 91.333 -2 183.333 0 276c0.666992 30 6.83398 58.5 18.501 85.5s28.167 50.5 49.5 70.5s46.833 36 76.5 48s62.834 18 99.501 18zM310.998 39c30.667 0 57.5 4.66699 80.5 14
s42 22 57 38s26.333 34.5 34 55.5s11.834 42.833 12.501 65.5c2 92 2 184 0 276c-0.666992 22.667 -4.83398 44.5 -12.501 65.5s-19.167 39.5 -34.5 55.5s-34.5 28.667 -57.5 38s-49.5 14 -79.5 14s-56.5 -4.66699 -79.5 -14s-42.167 -22 -57.5 -38
s-26.833 -34.5 -34.5 -55.5s-11.834 -42.833 -12.501 -65.5c-2 -92 -2 -184 0 -276c0.666992 -22.667 4.83398 -44.5 12.501 -65.5s19 -39.5 34 -55.5s34 -28.667 57 -38s49.833 -14 80.5 -14z" />
    <glyph glyph-name="P" unicode="P" horiz-adv-x="547" 
d="M80 700l254 0.000976562c26.667 0 50.5 -3.83301 71.5 -11.5s38.833 -18.334 53.5 -32.001s25.834 -29.5 33.501 -47.5s11.834 -37 12.501 -57c2 -49.333 2 -99 0 -149c-0.666992 -20.667 -4.83398 -40 -12.501 -58s-18.834 -33.667 -33.501 -47
s-32.5 -23.833 -53.5 -31.5s-44.833 -11.5 -71.5 -11.5h-197v-255h-57v700zM448 398.001c2 52.667 2 105.331 0 157.998c-0.666992 12.667 -3.16699 24.834 -7.5 36.501s-10.833 21.834 -19.5 30.501s-20 15.5 -34 20.5s-31 7.5 -51 7.5h-199v-347h199c20 0 37 2.5 51 7.5
s25.5 11.833 34.5 20.5s15.5 18.667 19.5 30s6.33301 23.333 7 36z" />
    <glyph glyph-name="Q" unicode="Q" horiz-adv-x="624" 
d="M310 710c36.667 0 69.8301 -6 99.4971 -18s55.167 -28 76.5 -48s37.833 -43.5 49.5 -70.5s17.834 -55.5 18.501 -85.5c2 -92.667 2 -184.667 0 -276c-1.33301 -48 -14.666 -89.333 -39.999 -124l20.5 -22.5l18.5 -20.5c6.66699 -7.33301 12.667 -14.333 18 -21l-41 -33
l-21 23l-17 19c-6 6.66699 -10.667 11.667 -14 15c-20.667 -18.667 -45 -33 -73 -43s-59.667 -15 -95 -15c-37.333 0 -70.833 6 -100.5 18s-55 28 -76 48s-37.333 43.5 -49 70.5s-17.834 55.5 -18.501 85.5c-2 91.333 -2 183.333 0 276
c0.666992 30 6.83398 58.5 18.501 85.5s28.167 50.5 49.5 70.5s46.833 36 76.5 48s62.834 18 99.501 18zM125.996 212c0 -32 7.66895 -61.667 23.002 -89c2.66699 2.66699 8.33398 7.5 17.001 14.5s19.834 14 33.501 21s29.667 13.333 48 19s39.166 8.5 62.499 8.5
c32.667 0 61.167 -5.16699 85.5 -15.5s49.833 -25.5 76.5 -45.5c13.333 25.333 20.666 54.333 21.999 87c2 92 2 184 0 276c-0.666992 22.667 -4.83398 44.334 -12.501 65.001s-19.167 39 -34.5 55s-34.5 28.667 -57.5 38s-49.5 14 -79.5 14s-56.5 -4.66699 -79.5 -14
s-42.167 -22 -57.5 -38s-26.833 -34.333 -34.5 -55s-11.834 -42.334 -12.501 -65.001c-2 -92 -2 -184 0 -276zM309.998 40c22.667 0 42.166 2.33301 58.499 7s29.833 9.66699 40.5 15c12 6.66699 22.333 14.334 31 23.001c-12 10 -24.667 19 -38 27
c-11.333 6.66699 -24.833 12.834 -40.5 18.501s-32.167 8.5 -49.5 8.5c-19.333 0 -37 -2.83301 -53 -8.5s-30 -11.834 -42 -18.501c-14 -8 -26.667 -17 -38 -27c8.66699 -8.66699 19.334 -16.334 32.001 -23.001c11.333 -5.33301 25 -10.333 41 -15s35.333 -7 58 -7z" />
    <glyph glyph-name="R" unicode="R" horiz-adv-x="578" 
d="M320 266l-183 0.00195312v-266h-57v700h257c27.333 0 51.333 -3.83301 72 -11.5s38.167 -18.167 52.5 -31.5s25.333 -29 33 -47s12.167 -37.333 13.5 -58c1.33301 -24.667 2 -47.334 2 -68.001s-0.666992 -43.334 -2 -68.001c-1.33301 -34.667 -12.5 -65.667 -33.5 -93
s-53.167 -45.333 -96.5 -54l150 -269h-65zM451 411.002c1.33301 26 1.99902 50.168 1.99902 72.501s-0.666992 46.5 -2 72.5c-0.666992 12.667 -3 24.834 -7 36.501s-10.5 21.667 -19.5 30s-20.5 15 -34.5 20s-31 7.5 -51 7.5h-202v-333h206c20 0 36.833 2.5 50.5 7.5
s24.667 11.667 33 20s14.333 18.166 18 29.499s5.83398 23.666 6.50098 36.999z" />
    <glyph glyph-name="S" unicode="S" horiz-adv-x="549" 
d="M449 642c-18.667 3.33301 -38.332 6.33398 -58.999 9.00098c-17.333 2.66699 -36.666 5 -57.999 7s-42.333 3 -63 3c-24.667 0 -47.167 -2.33301 -67.5 -7s-38 -12.167 -53 -22.5s-26.667 -23.666 -35 -39.999s-12.5 -36.5 -12.5 -60.5
c0 -27.333 5.83301 -49.5 17.5 -66.5s26.834 -31 45.501 -42s40.167 -20 64.5 -27l74 -21c25 -7 49.667 -14.833 74 -23.5s45.833 -20.334 64.5 -35.001s33.834 -33 45.501 -55s17.5 -50 17.5 -84c0 -60 -19.5 -106.167 -58.5 -138.5s-102.833 -48.5 -191.5 -48.5
c-30.667 0 -58 1 -82 3s-44.667 4.33301 -62 7c-20 2.66699 -37.667 6.33398 -53 11.001l3 49c16.667 -4.66699 35 -8.33398 55 -11.001c17.333 -2.66699 37.166 -5 59.499 -7s46.166 -3 71.499 -3c73.333 0 125 10.5 155 31.5s45 55.167 45 102.5
c0 27.333 -5.66699 49.666 -17 66.999s-26.5 31.833 -45.5 43.5s-40.5 21.167 -64.5 28.5l-73.5 21.5c-25 7 -49.5 14.833 -73.5 23.5s-45.5 20.167 -64.5 34.5s-34.167 32.333 -45.5 54s-17 49.167 -17 82.5c0 32 5.5 59.333 16.5 82s26.5 41.5 46.5 56.5s43.667 26 71 33
s57.333 10.5 90 10.5c25.333 0 49.166 -1 71.499 -3s42.166 -4.33301 59.499 -7c20 -2.66699 38.333 -5.66699 55 -9z" />
    <glyph glyph-name="T" unicode="T" horiz-adv-x="483" 
d="M20 700h443v-49h-193v-651h-57v651h-193v49z" />
    <glyph glyph-name="U" unicode="U" horiz-adv-x="634" 
d="M559 700l-0.000976562 -488c0 -30.667 -5.66699 -59.5 -17 -86.5s-27.5 -50.5 -48.5 -70.5s-46.333 -35.833 -76 -47.5s-63.167 -17.5 -100.5 -17.5c-38 0 -71.833 5.83301 -101.5 17.5s-55 27.5 -76 47.5s-37 43.5 -48 70.5s-16.5 55.833 -16.5 86.5v488h57v-488
c0 -22.667 3.83301 -44.5 11.5 -65.5s19.334 -39.5 35.001 -55.5s35 -28.667 58 -38s49.833 -14 80.5 -14c30 0 56.5 4.66699 79.5 14s42.333 22 58 38s27.5 34.5 35.5 55.5s12 42.833 12 65.5v488h57z" />
    <glyph glyph-name="V" unicode="V" horiz-adv-x="560" 
d="M278 48h4l199 652h59l-216 -700h-87l-217 700h59z" />
    <glyph glyph-name="W" unicode="W" horiz-adv-x="863" 
d="M763 700h60l-138 -700h-93l-159 648h-4l-158 -648h-93l-138 700h60l123 -652h6l157 652h91l157 -652h6z" />
    <glyph glyph-name="X" unicode="X" horiz-adv-x="578" 
d="M289 403l189 297h64l-220 -338l236 -362h-64l-205 317l-205 -317h-64l236 362l-220 338h64z" />
    <glyph glyph-name="Y" unicode="Y" horiz-adv-x="555" 
d="M275 335h4l195 365h66l-234 -422v-278h-57v278l-234 422h66z" />
    <glyph glyph-name="Z" unicode="Z" horiz-adv-x="562" 
d="M111 53v-4h401v-49h-462v57l391 590v4h-379v49h443v-57z" />
    <glyph glyph-name="bracketleft" unicode="[" horiz-adv-x="301" 
d="M256 -180h-171v880h171v-54h-115v-774h115v-52z" />
    <glyph glyph-name="backslash" unicode="\" horiz-adv-x="295" 
d="M275 0h-54l-201 700h54z" />
    <glyph glyph-name="bracketright" unicode="]" horiz-adv-x="301" 
d="M45 -128h115v774h-115v54h171v-880h-171v52z" />
    <glyph glyph-name="asciicircum" unicode="^" horiz-adv-x="474" 
d="M263 700l161 -361h-49l-138 316l-138 -316h-49l161 361h52z" />
    <glyph glyph-name="underscore" unicode="_" horiz-adv-x="553" 
d="M552 -75v-40h-552v40h552z" />
    <glyph glyph-name="grave" unicode="`" horiz-adv-x="188" 
d="M130 575l-130 125h80l108 -125h-58z" />
    <glyph glyph-name="a" unicode="a" horiz-adv-x="477" 
d="M362 59c-16.667 -13.333 -34.0059 -24.998 -52.0059 -34.998c-15.333 -8.66699 -33.166 -16.5 -53.499 -23.5s-41.166 -10.5 -62.499 -10.5c-22.667 0 -43 3.83301 -61 11.5s-33.167 18.167 -45.5 31.5s-21.666 29.166 -27.999 47.499s-9.5 38.5 -9.5 60.5
c0 20.667 2.83301 40.5 8.5 59.5s14.5 35.5 26.5 49.5s27 25.167 45 33.5s39.333 12.5 64 12.5h168v52c0 15.333 -2.33301 30.166 -7 44.499s-11.834 27 -21.501 38s-21.667 19.667 -36 26s-31.166 9.5 -50.499 9.5s-38.666 -1 -57.999 -3s-36.666 -4.33301 -51.999 -7
c-18 -2.66699 -35.333 -5.66699 -52 -9l-5 44c18 3.33301 36.333 6.33301 55 9c16 2.66699 33.667 5 53 7s38.333 3 57 3c28.667 0 53.5 -4.16699 74.5 -12.5s38.333 -19.5 52 -33.5s23.834 -30.5 30.501 -49.5s10 -39.167 10 -60.5v-354h-45zM196.994 34.002
c21.333 0 41.832 4.16699 61.499 12.5s37.167 17.5 52.5 27.5c18 12 35 25.667 51 41v137h-164c-18 0 -33.333 -3 -46 -9s-22.667 -14 -30 -24s-12.666 -21.667 -15.999 -35s-5 -27.333 -5 -42s1.66699 -28.5 5 -41.5s8.83301 -24.5 16.5 -34.5s17.5 -17.833 29.5 -23.5
s27 -8.5 45 -8.5z" />
    <glyph glyph-name="b" unicode="b" horiz-adv-x="498" 
d="M70 700l49.999 0.00195312v-242c16 8.66699 32.667 16.667 50 24c15.333 6 32.333 11.667 51 17s38.334 8 59.001 8c26 0 48.667 -4 68 -12s35.5 -18.833 48.5 -32.5s22.667 -29.834 29 -48.501s9.83301 -38.667 10.5 -60c2 -68.667 2 -138 0 -208
c-0.666992 -21.333 -4.5 -41.5 -11.5 -60.5s-17.667 -35.5 -32 -49.5s-32.5 -25.167 -54.5 -33.5s-48 -12.5 -78 -12.5c-27.333 0 -52.5 1.16699 -75.5 3.5s-43.167 5.16602 -60.5 8.49902c-20 3.33301 -38 7.33301 -54 12v686zM384.999 151.002
c2 65.333 2.00195 131.001 0.00195312 197.001c-0.666992 15.333 -3 30 -7 44s-10.333 26.333 -19 37s-19.667 19.167 -33 25.5s-29.333 9.5 -48 9.5c-19.333 0 -38.333 -2.66699 -57 -8s-35.667 -11.333 -51 -18c-17.333 -7.33301 -34 -16 -50 -26v-362
c10 -2.66699 22 -5.33398 36 -8.00098c12 -2 26.667 -3.83301 44 -5.5s37.333 -2.5 60 -2.5c21.333 0 39.666 3.16699 54.999 9.5s28.166 15 38.499 26s18 23.5 23 37.5s7.83301 28.667 8.5 44z" />
    <glyph glyph-name="c" unicode="c" horiz-adv-x="399" 
d="M369 6c-12.667 -2.66699 -25.998 -5.33301 -39.998 -8c-12 -2 -25.5 -3.83301 -40.5 -5.5s-30.5 -2.5 -46.5 -2.5c-28.667 0 -54.167 4.16699 -76.5 12.5s-41 19.5 -56 33.5s-26.5 30.5 -34.5 49.5s-12.333 39.167 -13 60.5c-2 69.333 -2 138.666 0 207.999
c0.666992 21.333 5 41.5 13 60.5s19.667 35.5 35 49.5s34.166 25.167 56.499 33.5s47.833 12.5 76.5 12.5c13.333 0 27.166 -0.666992 41.499 -2s27.166 -2.66602 38.499 -3.99902c13.333 -2 26 -4 38 -6l-5 -43c-12.667 1.33301 -25.667 3 -39 5
c-11.333 1.33301 -23.833 2.66602 -37.5 3.99902s-26.167 2 -37.5 2c-20 0 -37.833 -3.16699 -53.5 -9.5s-29 -14.833 -40 -25.5s-19.5 -23 -25.5 -37s-9.33301 -28.667 -10 -44c-1.33301 -32.667 -2 -66.167 -2 -100.5s0.666992 -67.833 2 -100.5
c0.666992 -15.333 3.83398 -30 9.50098 -44s14 -26.167 25 -36.5s24.5 -18.666 40.5 -24.999s34 -9.5 54 -9.5c16.667 0 32.167 0.666992 46.5 2s27.166 3 38.499 5c12.667 2 24.334 4.33301 35.001 7z" />
    <glyph glyph-name="d" unicode="d" horiz-adv-x="497" 
d="M427 0h-46.001l-4 48c-17.333 -11.333 -35 -21 -53 -29c-15.333 -7.33301 -32.666 -14 -51.999 -20s-38.666 -9 -57.999 -9c-26 0 -48.5 3.83301 -67.5 11.5s-34.667 18.334 -47 32.001s-21.5 29.667 -27.5 48s-9.33301 38.166 -10 59.499c-2 69.333 -2 139 0 209
c0.666992 21.333 4.5 41.666 11.5 60.999s17.5 36.333 31.5 51s32 26.334 54 35.001s48 13 78 13c18 0 35.333 -1.33301 52 -4s31.667 -5.66699 45 -9c15.333 -4 29.666 -8.33301 42.999 -13v216h50v-700zM112.999 345c-2 -66.667 -2.00195 -132.664 -0.00195312 -197.997
c0.666992 -15.333 2.83398 -29.833 6.50098 -43.5s9.5 -25.667 17.5 -36s18.5 -18.5 31.5 -24.5s28.833 -9 47.5 -9c20 0 39.5 3.16699 58.5 9.5s36.167 13.166 51.5 20.499c17.333 8.66699 34.333 19 51 31v342c-10 5.33301 -22 10 -36 14
c-12 3.33301 -26.667 6.66602 -44 9.99902s-37.333 5 -60 5c-21.333 0 -39.666 -3.5 -54.999 -10.5s-28 -16.167 -38 -27.5s-17.5 -24.333 -22.5 -39s-7.83301 -29.334 -8.5 -44.001z" />
    <glyph glyph-name="e" unicode="e" horiz-adv-x="462" 
d="M395 13c-12 -4.66699 -25.9961 -8.66602 -41.9961 -11.999c-13.333 -3.33301 -29.833 -6 -49.5 -8s-41.5 -3 -65.5 -3c-28.667 0 -53.834 4.16699 -75.501 12.5s-39.834 19.5 -54.501 33.5s-25.834 30.5 -33.501 49.5s-11.834 39.167 -12.501 60.5
c-2 68.667 -2 138 0 208c0.666992 21.333 5 41.5 13 60.5s19.5 35.5 34.5 49.5s33.333 25.167 55 33.5s46.167 12.5 73.5 12.5c26.667 0 50.834 -4.16699 72.501 -12.5s40 -19.5 55 -33.5s26.5 -30.5 34.5 -49.5s12 -39.167 12 -60.5v-120h-300v-31v-27.5
c0 -9.66699 0.333008 -17.834 1 -24.501c0.666992 -15.333 3.66699 -30 9 -44s13 -26.5 23 -37.5s22.833 -19.667 38.5 -26s34.5 -9.5 56.5 -9.5c21.333 0 40.833 1 58.5 3s33.167 4.33301 46.5 7c15.333 2.66699 29.666 6 42.999 10zM113.004 349.001
c-0.666992 -4.66699 -1 -10.8311 -1 -18.498v-23.5v-29h250v28c0 7.33301 -0.166992 15 -0.5 23s-0.5 14.667 -0.5 20c-0.666992 15.333 -4 30.166 -10 44.499s-14.167 26.833 -24.5 37.5s-22.833 19.167 -37.5 25.5s-31 9.5 -49 9.5c-41.333 0 -72.5 -11.333 -93.5 -34
s-32.167 -50.334 -33.5 -83.001z" />
    <glyph glyph-name="f" unicode="f" horiz-adv-x="323" 
d="M20 500l79.998 -0.000976562v80c0 38 10.5 69.167 31.5 93.5s52.5 36.5 94.5 36.5c8 0 16.833 -0.333008 26.5 -1s18.5 -1.66699 26.5 -3l29 -4l-5 -40c-8 0.666992 -16 1.66699 -24 3c-7.33301 0.666992 -15.666 1.33398 -24.999 2.00098s-19 1 -29 1
c-23.333 0 -41.666 -7.16699 -54.999 -21.5s-20 -38.833 -20 -73.5v-73h143v-44h-143v-456h-50v456h-80v44z" />
    <glyph glyph-name="g" unicode="g" horiz-adv-x="450" 
d="M380 293c0 -33.333 -12.832 -62.666 -38.499 -87.999s-60.5 -41.333 -104.5 -48v-29c0 -15.333 3.33301 -26.5 10 -33.5s13.667 -12.5 21 -16.5l98 -54c18.667 -10.667 32.5 -23.167 41.5 -37.5s13.5 -34.166 13.5 -59.499c0 -23.333 -5.66699 -42.5 -17 -57.5
s-26.333 -27 -45 -36s-40 -15.167 -64 -18.5s-48.667 -5 -74 -5c-27.333 0 -51.833 1.83301 -73.5 5.5s-40.167 8.16699 -55.5 13.5c-18 6 -33.667 12.667 -47 20l12 41c15.333 -6.66699 31.666 -12.667 48.999 -18c15.333 -4.66699 32.833 -8.83398 52.5 -12.501
s40.5 -5.5 62.5 -5.5c22.667 0 43.167 1.16699 61.5 3.5s34 6.16602 47 11.499s23.167 12.833 30.5 22.5s11 21.5 11 35.5c0 19.333 -2.83301 32.5 -8.5 39.5s-14.834 14.167 -27.501 21.5l-115 63c-11.333 6.66699 -19.833 16 -25.5 28s-8.5 26 -8.5 42v36
c-46 6.66699 -80.667 22.834 -104 48.501s-35 54.834 -35 87.501v71c0 18 4 35.333 12 52s19.333 31.167 34 43.5s32.334 22.166 53.001 29.499s43.334 11 68.001 11c13.333 0 25.166 -0.833008 35.499 -2.5s23.166 -5.16699 38.499 -10.5l30 38c8 10 17.667 16.833 29 20.5
s21.666 5.5 30.999 5.5c4.66699 0 9.83398 -0.166992 15.501 -0.5s10.834 -0.833008 15.501 -1.5l16 -2l-6 -40h-35c-8 0 -14.833 -1.16699 -20.5 -3.5s-11.5 -6.83301 -17.5 -13.5l-19 -24c17.333 -12.667 30.5 -28.334 39.5 -47.001s13.5 -37 13.5 -55v-71zM331.001 359
c0 28 -10.166 51.167 -30.499 69.5s-49.5 27.5 -87.5 27.5s-67 -9.16699 -87 -27.5s-30 -41.5 -30 -69.5v-63c0 -28 10.333 -51 31 -69s49.667 -27 87 -27s66.166 9 86.499 27s30.5 41 30.5 69v63z" />
    <glyph glyph-name="h" unicode="h" horiz-adv-x="500" 
d="M70 0v700h50v-248c17.333 10.667 35 20 53 28c15.333 7.33301 32.666 13.833 51.999 19.5s38.666 8.5 57.999 8.5c26.667 0 49.667 -4 69 -12s35.166 -19 47.499 -33s21.333 -30.333 27 -49s8.5 -38.667 8.5 -60v-354h-50v348c0 15.333 -1.83301 30 -5.5 44
s-9.66699 26.333 -18 37s-19.166 19.167 -32.499 25.5s-29.333 9.5 -48 9.5c-19.333 0 -38.666 -3.16699 -57.999 -9.5s-36.666 -13.166 -51.999 -20.499c-18 -8.66699 -35 -18.334 -51 -29.001v-405h-50z" />
    <glyph glyph-name="i" unicode="i" horiz-adv-x="195" 
d="M72 500h50v-500h-50v500zM70 700h55v-98h-55v98z" />
    <glyph glyph-name="j" unicode="j" horiz-adv-x="210" 
d="M84 700h56v-98h-56v98zM136 -56c0 -38.667 -10.499 -70.668 -31.499 -96.001s-52.5 -38 -94.5 -38c-14 0 -27 1 -39 3c-7.33301 0.666992 -14.333 1.66699 -21 3l4 43c6 -1.33301 12.333 -2.33301 19 -3c5.33301 -0.666992 11.5 -1.16699 18.5 -1.5s13.5 -0.5 19.5 -0.5
c23.333 0 41.666 7.33301 54.999 22s20 39.334 20 74.001v550h50v-556z" />
    <glyph glyph-name="k" unicode="k" horiz-adv-x="418" 
d="M70 700h50v-700h-50v700zM121 264l209 236h63l-213 -234l228 -266h-64z" />
    <glyph glyph-name="l" unicode="l" horiz-adv-x="190" 
d="M70 700h50v-700h-50v700z" />
    <glyph glyph-name="m" unicode="m" horiz-adv-x="722" 
d="M340 0l0.000976562 363c0 13.333 -1.66699 26 -5 38s-8.5 22.667 -15.5 32s-15.833 16.833 -26.5 22.5s-23.667 8.5 -39 8.5c-16 0 -31.833 -3.33301 -47.5 -10s-30.167 -13.667 -43.5 -21c-15.333 -8.66699 -29.666 -18.667 -42.999 -30v-403h-50v500h46l4 -48
c14 10.667 28.667 20 44 28c13.333 7.33301 28.166 13.833 44.499 19.5s32.5 8.5 48.5 8.5c21.333 0 39.166 -3.33301 53.499 -10s26.166 -13.667 35.499 -21c10.667 -8.66699 19.334 -18.667 26.001 -30c12.667 11.333 26.667 21.333 42 30
c13.333 7.33301 28.5 14.333 45.5 21s35.5 10 55.5 10c44.667 0 79.5 -13.333 104.5 -40s37.5 -64.667 37.5 -114v-354h-50v346c0 36 -8 64.667 -24 86s-40 32 -72 32c-16 0 -31.333 -3 -46 -9s-27.667 -12.667 -39 -20c-12.667 -8 -24.667 -17.333 -36 -28v-407h-50z" />
    <glyph glyph-name="n" unicode="n" horiz-adv-x="520" 
d="M70 0v500h46l4 -48c17.333 10.667 35 20 53 28c15.333 7.33301 32.666 13.833 51.999 19.5s38.666 8.5 57.999 8.5c26.667 0 49.667 -4 69 -12s35.166 -19 47.499 -33s21.333 -30.333 27 -49s8.5 -38.667 8.5 -60v-354h-50v348c0 15.333 -1.83301 30 -5.5 44
s-9.66699 26.333 -18 37s-19.166 19.167 -32.499 25.5s-29.333 9.5 -48 9.5c-19.333 0 -38.666 -3.16699 -57.999 -9.5s-36.666 -13.166 -51.999 -20.499c-18 -8.66699 -35 -18.334 -51 -29.001v-405h-50z" />
    <glyph glyph-name="o" unicode="o" horiz-adv-x="493" 
d="M431 146c-0.666992 -22 -5.33203 -42.499 -13.999 -61.499s-20.667 -35.5 -36 -49.5s-34.333 -25 -57 -33s-48.334 -12 -77.001 -12c-30.667 0 -57.5 4.16699 -80.5 12.5s-42.167 19.5 -57.5 33.5s-26.833 30.5 -34.5 49.5s-11.834 39.167 -12.501 60.5
c-2 69.333 -2 138.666 0 207.999c0.666992 21.333 4.83398 41.5 12.501 60.5s19.167 35.5 34.5 49.5s34.5 25.167 57.5 33.5s49.833 12.5 80.5 12.5c28.667 0 54.167 -4.16699 76.5 -12.5s41.5 -19.5 57.5 -33.5s28.167 -30.5 36.5 -49.5s12.833 -39.167 13.5 -60.5
c2 -70 2 -139.333 0 -208zM380.002 350.001c-1.33301 33.333 -12.832 60.999 -34.499 82.999s-54.834 33 -99.501 33c-43.333 0 -76 -11.167 -98 -33.5s-33.667 -49.5 -35 -81.5c-1.33301 -32.667 -2 -66.167 -2 -100.5s0.666992 -68.166 2 -101.499
c1.33301 -32 13 -59.167 35 -81.5s55 -33.5 99 -33.5s76.833 11 98.5 33s33.167 49.333 34.5 82s2 66.167 2 100.5s-0.666992 67.833 -2 100.5z" />
    <glyph glyph-name="p" unicode="p" horiz-adv-x="497" 
d="M70 500h46.001l4 -48c17.333 10.667 35 20.334 53 29.001c15.333 7.33301 32.666 14 51.999 20s38.666 9 57.999 9c26 0 48.5 -3.83301 67.5 -11.5s34.667 -18.334 47 -32.001s21.5 -29.667 27.5 -48s9.33301 -38.166 10 -59.499c2 -70 2 -139.667 0 -209
c-0.666992 -21.333 -4.5 -41.666 -11.5 -60.999s-17.5 -36.333 -31.5 -51s-32 -26.334 -54 -35.001s-48 -13 -78 -13c-18 0 -35.333 1.33301 -52 4s-31.667 5.66699 -45 9c-15.333 3.33301 -29.666 7.66602 -42.999 12.999v-196h-50v680zM384.001 155
c2 66.667 2.00098 132.669 0.000976562 198.002c-0.666992 15.333 -2.83398 29.833 -6.50098 43.5s-9.5 25.667 -17.5 36s-18.5 18.5 -31.5 24.5s-28.833 9 -47.5 9c-20 0 -39.667 -3.33301 -59 -10s-36.666 -13.667 -51.999 -21c-17.333 -8.66699 -34 -18.667 -50 -30v-342
c10 -6 22 -11 36 -15c12 -3.33301 26.667 -6.5 44 -9.5s37.333 -4.5 60 -4.5c21.333 0 39.666 3.5 54.999 10.5s28 16.167 38 27.5s17.5 24.166 22.5 38.499s7.83301 29.166 8.5 44.499z" />
    <glyph glyph-name="q" unicode="q" horiz-adv-x="498" 
d="M428 -180l-50 -0.00292969v222c-16 -9.33301 -32.667 -17.666 -50 -24.999c-15.333 -6 -32.5 -11.5 -51.5 -16.5s-38.5 -7.5 -58.5 -7.5c-26 0 -48.667 4 -68 12s-35.5 18.833 -48.5 32.5s-22.667 29.834 -29 48.501s-9.83301 38.667 -10.5 60c-2 68.667 -2 138 0 208
c0.666992 21.333 4.5 41.5 11.5 60.5s17.667 35.5 32 49.5s32.5 25.167 54.5 33.5s48 12.5 78 12.5c27.333 0 52.333 -1.16699 75 -3.5s42.667 -5.16602 60 -8.49902c20 -3.33301 38.333 -7.33301 55 -12v-666zM113 348.997c-2 -66 -2 -131.668 0 -197.001
c0.666992 -15.333 3 -30 7 -44s10.167 -26.333 18.5 -37s19.166 -19.167 32.499 -25.5s29.666 -9.5 48.999 -9.5s38.333 2.66699 57 8s35.667 11.333 51 18c17.333 7.33301 34 16 50 26v362c-10 2.66699 -22 5.33398 -36 8.00098c-12 2 -26.667 3.83301 -44 5.5
s-37.333 2.5 -60 2.5c-21.333 0 -39.666 -3.16699 -54.999 -9.5s-28.166 -15 -38.499 -26s-18 -23.5 -23 -37.5s-7.83301 -28.667 -8.5 -44z" />
    <glyph glyph-name="r" unicode="r" horiz-adv-x="293" 
d="M276 466c-21.333 0 -41.167 -5.16699 -59.5 -15.5s-34.833 -21.5 -49.5 -33.5c-17.333 -14.667 -33 -31 -47 -49v-368h-50v500h45l5 -72c14 15.333 29.333 29 46 41c14 10 30.5 19.333 49.5 28s39.833 13 62.5 13z" />
    <glyph glyph-name="s" unicode="s" horiz-adv-x="423" 
d="M333 451c-12.667 2 -26.002 4.33203 -40.002 6.99902c-12 2 -25.667 3.83301 -41 5.5s-30.666 2.5 -45.999 2.5c-32 0 -58.5 -6.66699 -79.5 -20s-31.5 -36 -31.5 -68c0 -23.333 6.83301 -41.333 20.5 -54s30.834 -22.834 51.501 -30.501s43 -14.5 67 -20.5
s46.333 -14.167 67 -24.5s37.834 -24.5 51.501 -42.5s20.5 -42.667 20.5 -74c0 -46 -13.333 -81.167 -40 -105.5s-72.334 -36.5 -137.001 -36.5c-19.333 0 -37.833 1 -55.5 3s-33.167 4.33301 -46.5 7c-16 2.66699 -30.333 6.33398 -43 11.001l7 44
c13.333 -4.66699 27.666 -8.33398 42.999 -11.001c12.667 -2.66699 27 -5 43 -7s31.667 -3 47 -3c25.333 0 46.333 1.83301 63 5.5s30 9.33398 40 17.001s17 17.334 21 29.001s6 25.5 6 41.5c0 24.667 -6.83301 43.5 -20.5 56.5s-30.667 23.333 -51 31
s-42.5 14.5 -66.5 20.5s-46.167 14.167 -66.5 24.5s-37.333 24.333 -51 42s-20.5 42.5 -20.5 74.5c0 47.333 14.833 81.5 44.5 102.5s68.5 31.5 116.5 31.5c17.333 0 34 -0.833008 50 -2.5s30.333 -3.5 43 -5.5c14.667 -2.66699 28.334 -5 41.001 -7z" />
    <glyph glyph-name="t" unicode="t" horiz-adv-x="317" 
d="M20 500l81.002 -0.000976562v120h50v-120h146v-44h-146v-329c0 -35.333 6.16699 -59.666 18.5 -72.999s30.166 -20 53.499 -20c17.333 0 32.666 1 45.999 3c7.33301 0.666992 14.666 1.66699 21.999 3l4 -40c-8.66699 -2 -17.667 -3.66699 -27 -5
c-8 -1.33301 -16.667 -2.5 -26 -3.5s-17.666 -1.5 -24.999 -1.5c-40.667 0 -70.167 11.667 -88.5 35s-27.5 52.333 -27.5 87v344h-81v44z" />
    <glyph glyph-name="u" unicode="u" horiz-adv-x="500" 
d="M430 500l-0.000976562 -500h-46l-4 48c-17.333 -10.667 -35 -20 -53 -28c-15.333 -7.33301 -32.666 -13.833 -51.999 -19.5s-38.666 -8.5 -57.999 -8.5c-26.667 0 -49.667 4 -69 12s-35.166 19 -47.499 33s-21.333 30.333 -27 49s-8.5 38.667 -8.5 60v354h50v-348
c0 -15.333 1.83301 -30 5.5 -44s9.66699 -26.333 18 -37s19 -19.167 32 -25.5s29.167 -9.5 48.5 -9.5s38.666 3 57.999 9s36.666 12.667 51.999 20c17.333 8.66699 34.333 18.667 51 30v405h50z" />
    <glyph glyph-name="v" unicode="v" horiz-adv-x="423" 
d="M209 36h4l144 464h51l-158 -500h-78l-157 500h51z" />
    <glyph glyph-name="w" unicode="w" horiz-adv-x="646" 
d="M358 500l125 -461h4l79 461h50l-88 -500h-80l-122 443h-6l-122 -443h-80l-88 500h50l79 -461h4l125 461h70z" />
    <glyph glyph-name="x" unicode="x" horiz-adv-x="434" 
d="M217 295l127 205h57l-156 -239l169 -261h-57l-140 223l-140 -223h-57l169 261l-156 239h57z" />
    <glyph glyph-name="y" unicode="y" horiz-adv-x="456" 
d="M15 500h54l152 -433h4l163 433h53l-260 -680h-52l76 194l-20 8z" />
    <glyph glyph-name="z" unicode="z" horiz-adv-x="409" 
d="M97 48v-4h272v-44h-329v52l269 400v4h-258v44h314v-52z" />
    <glyph glyph-name="braceleft" unicode="{" horiz-adv-x="315" 
d="M270 -190c-25.333 0 -48.5 5.00586 -69.5 15.0059s-39 23.333 -54 40s-26.833 36 -35.5 58s-13 45 -13 69v183c0 6.66699 -1.5 13.5 -4.5 20.5s-7.16699 13.5 -12.5 19.5s-11.5 10.833 -18.5 14.5s-14.5 5.5 -22.5 5.5v50c16 0 29.667 6.83301 41 20.5s17 27.5 17 41.5
v186c0 23.333 4.33301 45.666 13 66.999s20.5 40.166 35.5 56.499s33 29.333 54 39s44.167 14.5 69.5 14.5v-52c-17.333 0 -33.166 -3.5 -47.499 -10.5s-26.5 -16.333 -36.5 -28s-17.667 -25.167 -23 -40.5s-8 -31 -8 -47v-174c0 -18.667 -3.33301 -34.334 -10 -47.001
s-13.667 -22.667 -21 -30c-9.33301 -8.66699 -19.666 -15.667 -30.999 -21c11.333 -4.66699 21.666 -11.334 30.999 -20.001c7.33301 -7.33301 14.333 -17.333 21 -30s10 -28.334 10 -47.001v-172c0 -16.667 2.66699 -32.834 8 -48.501s13 -29.5 23 -41.5
s22.167 -21.5 36.5 -28.5s30.166 -10.5 47.499 -10.5v-52z" />
    <glyph glyph-name="bar" unicode="|" horiz-adv-x="217" 
d="M85 700h47v-880h-47v880z" />
    <glyph glyph-name="braceright" unicode="}" horiz-adv-x="315" 
d="M45 -138c17.333 0 33.166 3.49414 47.499 10.4941s26.5 16.5 36.5 28.5s17.667 25.833 23 41.5s8 31.834 8 48.501v172c0 18.667 3.16699 34.334 9.5 47.001s13.5 22.667 21.5 30c8.66699 8.66699 19 15.334 31 20.001c-12 5.33301 -22.333 12.333 -31 21
c-8 7.33301 -15.167 17.333 -21.5 30s-9.5 28.334 -9.5 47.001v174c0 16 -2.66699 31.667 -8 47s-13 28.833 -23 40.5s-22.167 21 -36.5 28s-30.166 10.5 -47.499 10.5v52c24.667 0 47.667 -4.83301 69 -14.5s39.5 -22.667 54.5 -39s26.833 -35.166 35.5 -56.499
s13 -43.666 13 -66.999v-186c0 -14 5.66699 -27.833 17 -41.5s25 -20.5 41 -20.5v-50c-8 0 -15.5 -1.83301 -22.5 -5.5s-13.167 -8.5 -18.5 -14.5s-9.5 -12.5 -12.5 -19.5s-4.5 -13.833 -4.5 -20.5v-183c0 -24 -4.33301 -47 -13 -69s-20.5 -41.333 -35.5 -58
s-33.167 -30 -54.5 -40s-44.333 -15 -69 -15v52z" />
    <glyph glyph-name="asciitilde" unicode="~" horiz-adv-x="564" 
d="M186 357c14 0 29.5 -4 46.5 -12s34.167 -16.667 51.5 -26s34.5 -18 51.5 -26s32.5 -12 46.5 -12c21.333 0 38.333 7 51 21s25 31.667 37 53l34 -23c-5.33301 -10.667 -12 -21.834 -20 -33.501s-17.167 -22.5 -27.5 -32.5s-21.833 -18.167 -34.5 -24.5s-27 -9.5 -43 -9.5
c-14 0 -29.667 4 -47 12s-34.833 16.667 -52.5 26l-51.5 26c-16.667 8 -31.667 12 -45 12c-21.333 0 -38.5 -7 -51.5 -21s-25.5 -31.667 -37.5 -53l-34 23c5.33301 10.667 12 21.834 20 33.501s17.167 22.5 27.5 32.5s22 18.167 35 24.5s27.5 9.5 43.5 9.5z" />
    <glyph glyph-name="uni00A0" unicode="&#xa0;" horiz-adv-x="220" 
 />
    <glyph glyph-name="exclamdown" unicode="&#xa1;" horiz-adv-x="242" 
d="M152 -200h-62l9 511h45zM91 500h61v-79h-61v79z" />
    <glyph glyph-name="cent" unicode="&#xa2;" horiz-adv-x="439" 
d="M276 570l-0.00488281 -51c11.333 -1.33301 22.333 -2.5 33 -3.5s20.334 -2.16699 29.001 -3.5c10 -1.33301 19.333 -2.66602 28 -3.99902l-5 -43c-12.667 1.33301 -25.667 3 -39 5c-11.333 1.33301 -23.833 2.66602 -37.5 3.99902s-26.167 2 -37.5 2
c-20 0 -37.833 -3.16699 -53.5 -9.5s-29 -14.833 -40 -25.5s-19.5 -23 -25.5 -37s-9.33301 -28.667 -10 -44c-1.33301 -32.667 -2 -66.167 -2 -100.5s0.666992 -67.833 2 -100.5c0.666992 -15.333 3.83398 -30 9.50098 -44s14 -26.167 25 -36.5s24.5 -18.666 40.5 -24.999
s34 -9.5 54 -9.5c16.667 0 32.167 0.666992 46.5 2s27.166 3 38.499 5c12.667 2 24.334 4.33301 35.001 7l7 -42c-9.33301 -2 -19.333 -4 -30 -6c-9.33301 -1.33301 -19.666 -3 -30.999 -5s-23.666 -3.33301 -36.999 -4v-51h-52v51c-25.333 2 -47.666 7.5 -66.999 16.5
s-35.5 20.333 -48.5 34s-23 29.5 -30 47.5s-10.833 37 -11.5 57c-2 69.333 -2 138.666 0 207.999c0.666992 20 4.5 38.833 11.5 56.5s17.167 33.5 30.5 47.5s29.5 25.5 48.5 34.5s41.167 14.5 66.5 16.5v51h52z" />
    <glyph glyph-name="sterling" unicode="&#xa3;" horiz-adv-x="542" 
d="M75 382l57.001 0.00390625c-6.66699 23.333 -12.334 47.5 -17.001 72.5s-7 49.167 -7 72.5c0 34.667 5.83301 63.667 17.5 87s27.667 42.166 48 56.499s44.5 24.5 72.5 30.5s58.333 9 91 9c15.333 0 30.666 -0.833008 45.999 -2.5l43 -4.5c15.333 -2.66699 30 -5 44 -7
l-3 -47l-43 6c-12.667 1.33301 -26.667 2.66602 -42 3.99902s-30.333 2 -45 2c-24 0 -46.5 -2.16699 -67.5 -6.5s-39.333 -11.666 -55 -21.999s-27.834 -24 -36.501 -41s-13 -38.5 -13 -64.5c0 -29.333 2.66699 -55.833 8 -79.5s11.333 -45.5 18 -65.5h254v-45h-244
c4 -16 7.5 -33.833 10.5 -53.5s4.5 -38.167 4.5 -55.5c0 -24 -4.16699 -46.833 -12.5 -68.5s-17.166 -40.834 -26.499 -57.501c-11.333 -19.333 -24 -37 -38 -53h353v-49h-413v57c14.667 15.333 28 32 40 50c10 15.333 19.167 33.833 27.5 55.5s12.5 45.167 12.5 70.5
c0 13.333 -1.66699 29.166 -5 47.499s-7.66602 37.166 -12.999 56.499h-66v45z" />
    <glyph glyph-name="currency" unicode="&#xa4;" horiz-adv-x="560" 
d="M426 405c7.33301 -18 10.999 -37 10.999 -57v-105c0 -21.333 -4 -41 -12 -59l65 -63l-35 -35l-58 57c-14.667 -15.333 -32.167 -26.833 -52.5 -34.5s-42.166 -11.5 -65.499 -11.5s-45 4 -65 12s-37.333 19 -52 33l-57 -56l-35 35l64 63c-8 18 -12 37.667 -12 59v105
c0 20 3.66699 39 11 57l-63 63l35 35l56 -56c14 15.333 31.333 27 52 35s42.667 12 66 12c49.333 0 89 -15.667 119 -47l57 56l35 -35zM382.999 350c0 32 -9.66699 56 -29 72s-44.333 24 -75 24c-31.333 0 -56.5 -8 -75.5 -24s-28.5 -40 -28.5 -72v-109
c0 -32 9.5 -56 28.5 -72s44.167 -24 75.5 -24c30.667 0 55.667 7.83301 75 23.5s29 39.5 29 71.5v110z" />
    <glyph glyph-name="yen" unicode="&#xa5;" horiz-adv-x="564" 
d="M95 370h95l-150 330h59l181 -415h4l181 415h59l-151 -330h96v-45h-116l-40 -87h156v-45h-158v-193h-58v193h-158v45h156l-40 87h-116v45z" />
    <glyph glyph-name="brokenbar" unicode="&#xa6;" horiz-adv-x="217" 
d="M85 700h47v-366h-47v366zM85 186h47v-366h-47v366z" />
    <glyph glyph-name="section" unicode="&#xa7;" horiz-adv-x="563" 
d="M420 138c17.333 -13.333 31 -30.0029 41 -50.0029s15 -45 15 -75c0 -54.667 -18.167 -94.334 -54.5 -119.001s-86.833 -37 -151.5 -37c-19.333 0 -38.833 0.833008 -58.5 2.5s-37.5 3.5 -53.5 5.5l-55 8l3 45l54 -8c15.333 -2 32.666 -3.66699 51.999 -5
s37.666 -2 54.999 -2c54 0 93.167 8.83301 117.5 26.5s36.5 44.834 36.5 81.501c0 23.333 -4.83301 42 -14.5 56s-22.5 25.167 -38.5 33.5s-34.333 14.833 -55 19.5l-62.5 13.5c-21 4.33301 -41.833 9.33301 -62.5 15s-39 13.834 -55 24.501s-28.833 24.834 -38.5 42.501
s-14.5 40.5 -14.5 68.5c0 18.667 3.33301 36.834 10 54.501s14 33.167 22 46.5s15.333 24 22 32s10.334 12 11.001 12c-18 13.333 -32.167 30 -42.5 50s-15.5 45 -15.5 75c0 54.667 18.167 94.334 54.5 119.001s86.833 37 151.5 37c19.333 0 38.833 -0.833008 58.5 -2.5
s37.5 -3.5 53.5 -5.5l55 -8l-3 -45c-18 2 -36 4.33301 -54 7c-16 2 -33.5 3.83301 -52.5 5.5s-37.167 2.5 -54.5 2.5c-54 0 -93.167 -8.83301 -117.5 -26.5s-36.5 -44.834 -36.5 -81.501c0 -23.333 4.83301 -42 14.5 -56s22.5 -25.167 38.5 -33.5s34.333 -14.833 55 -19.5
l62.5 -13.5c21 -4.33301 41.833 -9.33301 62.5 -15s39 -13.834 55 -24.501s28.833 -24.834 38.5 -42.501s14.5 -40.5 14.5 -68.5c0 -19.333 -3.33301 -37.666 -10 -54.999s-14 -32.666 -22 -45.999c-9.33301 -16 -19.666 -30.667 -30.999 -44zM383 154.997
c7.33301 12 14.332 24.333 20.999 37c5.33301 11.333 10.333 23.833 15 37.5s7 28.167 7 43.5c0 30.667 -8.83301 53.5 -26.5 68.5s-39.167 26.167 -64.5 33.5s-52.166 13.166 -80.499 17.499s-53.166 10.833 -74.499 19.5c-8 -12 -15.333 -24.333 -22 -37
c-5.33301 -11.333 -10.166 -24 -14.499 -38s-6.5 -28.333 -6.5 -43c0 -30.667 8.83301 -53.5 26.5 -68.5s39.167 -26.167 64.5 -33.5s52.166 -13.166 80.499 -17.499s53.166 -10.833 74.499 -19.5z" />
    <glyph glyph-name="dieresis" unicode="&#xa8;" horiz-adv-x="231" 
d="M0 670h61v-80h-61v80zM170 670h61v-80h-61v80z" />
    <glyph glyph-name="copyright" unicode="&#xa9;" horiz-adv-x="840" 
d="M60 350c0 50 9.5 96.833 28.5 140.5s44.667 81.834 77 114.501s70.333 58.334 114 77.001s90.5 28 140.5 28s96.833 -9.33301 140.5 -28s81.834 -44.334 114.501 -77.001s58.334 -70.834 77.001 -114.501s28 -90.5 28 -140.5s-9.33301 -96.833 -28 -140.5
s-44.334 -81.667 -77.001 -114s-70.834 -58 -114.501 -77s-90.5 -28.5 -140.5 -28.5s-96.833 9.5 -140.5 28.5s-81.667 44.667 -114 77s-58 70.333 -77 114s-28.5 90.5 -28.5 140.5zM105 350c0 -43.333 8.33301 -84 25 -122s39.334 -71.333 68.001 -100
s62 -51.334 100 -68.001s78.667 -25 122 -25s84.166 8.33301 122.499 25s71.833 39.334 100.5 68.001s51.334 62 68.001 100s25 78.667 25 122s-8.33301 84.166 -25 122.499s-39.334 71.833 -68.001 100.5s-62.167 51.334 -100.5 68.001s-79.166 25 -122.499 25
s-84 -8.33301 -122 -25s-71.333 -39.334 -100 -68.001s-51.334 -62.167 -68.001 -100.5s-25 -79.166 -25 -122.499zM525 172c-8 -2.66699 -17.002 -4.99707 -27.002 -6.99707c-8.66699 -2 -19.167 -3.66699 -31.5 -5s-26.166 -2 -41.499 -2
c-23.333 0 -43.666 3.33301 -60.999 10s-32 15.667 -44 27s-21.167 24.666 -27.5 39.999s-9.83301 31.666 -10.5 48.999c-1.33301 25.333 -2 47.666 -2 66.999s0.666992 41.666 2 66.999c0.666992 16.667 4.16699 32.667 10.5 48s15.5 28.833 27.5 40.5
s26.833 20.834 44.5 27.501s38.167 10 61.5 10c13.333 0 25.833 -0.5 37.5 -1.5s21.834 -2.16699 30.501 -3.5c10 -2 18.667 -3.66699 26 -5l-5 -40c-8.66699 1.33301 -18 2.66602 -28 3.99902c-8.66699 1.33301 -18.334 2.33301 -29.001 3s-22 1 -34 1
c-28 0 -50 -8.16699 -66 -24.5s-24.667 -35.166 -26 -56.499c-1.33301 -25.333 -2 -48.666 -2 -69.999s0.666992 -45.333 2 -72c1.33301 -20.667 9.83301 -39 25.5 -55s37.834 -24 66.501 -24c15.333 0 28.833 0.666992 40.5 2s21.5 2.66602 29.5 3.99902
c9.33301 2 17.666 4 24.999 6z" />
    <glyph glyph-name="ordfeminine" unicode="&#xaa;" horiz-adv-x="354" 
d="M248 417c-10.667 -8 -22 -15 -34 -21c-10 -5.33301 -21.167 -10 -33.5 -14s-24.5 -6 -36.5 -6c-30 0 -53.167 9.16699 -69.5 27.5s-24.5 41.5 -24.5 69.5s8.33301 51.667 25 71s41 29 73 29h99v32c0 18 -6.33301 34.5 -19 49.5s-30.667 22.5 -54 22.5
c-13.333 0 -26.166 -0.833008 -38.499 -2.5l-32.5 -4.5c-11.333 -2 -21.666 -4 -30.999 -6l-4 33c10 2 21 4 33 6l33.5 4.5c12.333 1.66699 25.166 2.5 38.499 2.5c37.333 0 65.166 -9.83301 83.499 -29.5s27.5 -43.5 27.5 -71.5v-226h-33zM146 413
c11.333 0 22.833 2.33203 34.5 6.99902s22.5 9.66699 32.5 15c12 6.66699 23.333 14.334 34 23.001v82h-96c-21.333 0 -36.833 -6.5 -46.5 -19.5s-14.5 -28.5 -14.5 -46.5c0 -17.333 4.16699 -31.833 12.5 -43.5s22.833 -17.5 43.5 -17.5zM60 323.999h224v-34h-224v34z" />
    <glyph glyph-name="guillemotleft" unicode="&#xab;" horiz-adv-x="455" 
d="M185 137l-120 154l120 153h60l-120 -153l120 -154h-60zM325 137l-120 154l120 153h60l-120 -153l120 -154h-60z" />
    <glyph glyph-name="logicalnot" unicode="&#xac;" 
d="M499 78h-53v190h-376v48h429v-238z" />
    <glyph glyph-name="uni00AD" unicode="&#xad;" horiz-adv-x="833" 
 />
    <glyph glyph-name="registered" unicode="&#xae;" horiz-adv-x="528" 
d="M271 461l-40.001 -0.000976562v-78h-38v227h90c18.667 0 33 -5.33301 43 -16s15 -23 15 -37v-41c0 -11.333 -2.66699 -21.666 -8 -30.999s-13.666 -16 -24.999 -20l49 -82h-44zM304.999 557.999c0 3.33301 -1.5 6.33301 -4.5 9s-8.83301 4 -17.5 4h-52v-74h52
c8.66699 0 14.5 1.66699 17.5 5s4.5 7.33301 4.5 12v44zM49.999 495.999c0 29.333 5.66699 57 17 83s26.666 48.667 45.999 68s42 34.666 68 45.999s53.667 17 83 17s57 -5.66699 83 -17s48.667 -26.666 68 -45.999s34.666 -42 45.999 -68s17 -53.667 17 -83
s-5.66699 -57 -17 -83s-26.666 -48.667 -45.999 -68s-42 -34.666 -68 -45.999s-53.667 -17 -83 -17s-57 5.66699 -83 17s-48.667 26.666 -68 45.999s-34.666 42 -45.999 68s-17 53.667 -17 83zM88.999 495.999c0 -24.667 4.5 -47.667 13.5 -69s21.333 -39.833 37 -55.5
s34.167 -28 55.5 -37s44.333 -13.5 69 -13.5s47.667 4.5 69 13.5s39.833 21.333 55.5 37s28 34.167 37 55.5s13.5 44.333 13.5 69s-4.5 47.667 -13.5 69s-21.333 39.833 -37 55.5s-34.167 28 -55.5 37s-44.333 13.5 -69 13.5s-47.667 -4.5 -69 -13.5
s-39.833 -21.333 -55.5 -37s-28 -34.167 -37 -55.5s-13.5 -44.333 -13.5 -69z" />
    <glyph glyph-name="macron" unicode="&#xaf;" horiz-adv-x="277" 
d="M0 645h277v-46h-277v46z" />
    <glyph glyph-name="degree" unicode="&#xb0;" horiz-adv-x="379" 
d="M50 571c0 19.333 3.66699 37.5 11 54.5s17.333 31.667 30 44s27.334 22.166 44.001 29.499s34.667 11 54 11s37.5 -3.66699 54.5 -11s31.833 -17.166 44.5 -29.499s22.667 -27 30 -44s11 -35.167 11 -54.5s-3.66699 -37.333 -11 -54s-17.333 -31.334 -30 -44.001
s-27.5 -22.667 -44.5 -30s-35.167 -11 -54.5 -11s-37.333 3.66699 -54 11s-31.334 17.333 -44.001 30s-22.667 27.334 -30 44.001s-11 34.667 -11 54zM88 571c0 -14 2.66699 -27.167 8 -39.5s12.666 -23.166 21.999 -32.499s20 -16.666 32 -21.999s25 -8 39 -8
s27.333 2.66699 40 8s23.5 12.666 32.5 21.999s16.167 20.166 21.5 32.499s8 25.5 8 39.5s-2.66699 27.167 -8 39.5s-12.5 23.166 -21.5 32.499s-19.833 16.666 -32.5 21.999s-26 8 -40 8s-27 -2.66699 -39 -8s-22.667 -12.666 -32 -21.999s-16.666 -20.166 -21.999 -32.499
s-8 -25.5 -8 -39.5z" />
    <glyph glyph-name="plusminus" unicode="&#xb1;" 
d="M499 0h-429v47h429v-47zM308 500v-157h191v-48h-191v-159h-48v159h-190v48h190v157h48z" />
    <glyph glyph-name="uni00B2" unicode="&#xb2;" horiz-adv-x="380" 
d="M74 696c10.667 2 21.998 4.33301 33.998 7l36 4.5c13.333 1.66699 27 2.5 41 2.5c19.333 0 37.333 -2.33301 54 -7s31 -12 43 -22s21.333 -23 28 -39s10 -35 10 -57c0 -29.333 -5.16699 -52.833 -15.5 -70.5s-24.166 -35.167 -41.499 -52.5l-153 -155h209v-44h-259v52
l160 169c9.33301 10 17.166 18.833 23.499 26.5s11.5 15.167 15.5 22.5s6.83301 15.333 8.5 24s2.5 18.667 2.5 30c0 27.333 -8.66699 47.5 -26 60.5s-38.666 19.5 -63.999 19.5c-11.333 0 -23.166 -0.833008 -35.499 -2.5l-33.5 -4.5l-35 -7z" />
    <glyph glyph-name="uni00B3" unicode="&#xb3;" horiz-adv-x="376" 
d="M64 700l236.998 0.000976562v-48l-102 -127c12 -0.666992 25 -3.16699 39 -7.5s26.667 -11.333 38 -21s20.833 -22.334 28.5 -38.001s11.5 -35.5 11.5 -59.5c0 -29.333 -4.66699 -53.333 -14 -72s-21 -33.5 -35 -44.5s-29.333 -18.667 -46 -23s-32.334 -6.5 -47.001 -6.5
c-17.333 0 -32.833 0.833008 -46.5 2.5s-25.5 3.5 -35.5 5.5c-12 2.66699 -22.667 5.66699 -32 9l2 40c11.333 -2.66699 23 -5 35 -7c10.667 -1.33301 22.334 -2.66602 35.001 -3.99902s25.667 -2 39 -2c36 0 60.833 9.83301 74.5 29.5s20.5 44.167 20.5 73.5
c0 19.333 -3.16699 34.5 -9.5 45.5s-14.166 19.167 -23.499 24.5s-19.666 8.66602 -30.999 9.99902s-22 2 -32 2h-25v42l106 132h-187v44z" />
    <glyph glyph-name="acute" unicode="&#xb4;" horiz-adv-x="188" 
d="M0 575l108 125h80l-130 -125h-58z" />
    <glyph glyph-name="mu" unicode="&#xb5;" horiz-adv-x="505" 
d="M70 500h50.001v-348c0 -15.333 1.83301 -30.166 5.5 -44.499s9.66699 -27 18 -38s19 -19.667 32 -26s29.167 -9.5 48.5 -9.5s38.666 3.16699 57.999 9.5s36.666 13.166 51.999 20.499c17.333 8.66699 34.333 19 51 31v405h50v-500h-46l-4 48
c-17.333 -11.333 -35 -21 -53 -29c-15.333 -7.33301 -32.666 -14 -51.999 -20s-38.666 -9 -57.999 -9c-17.333 0 -32.333 1.83301 -45 5.5s-23.334 8.16699 -32.001 13.5c-10 6 -18.333 12.667 -25 20v-209h-49z" />
    <glyph glyph-name="paragraph" unicode="&#xb6;" horiz-adv-x="489" 
d="M261 319c-29.333 0 -56.6689 5.16602 -82.002 15.499s-47.666 24.166 -66.999 41.499s-34.5 37.333 -45.5 60s-16.5 46.334 -16.5 71.001c0 26.667 5.16699 51.834 15.5 75.501s24.333 44.167 42 61.5s38.334 31 62.001 41s49.167 15 76.5 15h163v-880h-53v831h-51v-831
h-44v499z" />
    <glyph glyph-name="periodcentered" unicode="&#xb7;" horiz-adv-x="221" 
d="M80 333h61v-79h-61v79z" />
    <glyph glyph-name="cedilla" unicode="&#xb8;" horiz-adv-x="220" 
d="M220 -110c0 -27.333 -7.50098 -47.1689 -22.501 -59.502s-34.833 -18.5 -59.5 -18.5c-7.33301 0 -15.166 0.333008 -23.499 1s-16.166 1.66699 -23.499 3c-8.66699 1.33301 -17.334 3 -26.001 5l3 34c6 -1.33301 12.667 -2.66602 20 -3.99902
c5.33301 -1.33301 11.5 -2.16602 18.5 -2.49902s13.167 -0.5 18.5 -0.5c30.667 0 46 14 46 42c0 13.333 -4 22.5 -12 27.5s-19.333 7.5 -34 7.5h-37l17 75h45l-9 -45c22 0 40.667 -4.16699 56 -12.5s23 -25.833 23 -52.5z" />
    <glyph glyph-name="uni00B9" unicode="&#xb9;" horiz-adv-x="237" 
d="M50 664l70 36h47v-437h-45v393l-72 -34v42z" />
    <glyph glyph-name="ordmasculine" unicode="&#xba;" horiz-adv-x="353" 
d="M301 478c-1.33301 -28 -12.6631 -51.9951 -33.9961 -71.9951s-51 -30 -89 -30c-20 0 -37.667 2.83301 -53 8.5s-28.333 13.167 -39 22.5s-18.834 20.166 -24.501 32.499s-8.83398 25.166 -9.50098 38.499c-2 43.333 -2 86.666 0 129.999c0.666992 14 4 27.167 10 39.5
s14.167 23.166 24.5 32.499s23.166 16.666 38.499 21.999s33 8 53 8c38 0 67.667 -9.83301 89 -29.5s32.666 -43.834 33.999 -72.501c2 -43.333 2 -86.666 0 -129.999zM260.003 605.005c-1.33301 19.333 -8.83105 35.668 -22.498 49.001s-33.834 20 -60.501 20
c-24.667 0 -44.334 -6.66699 -59.001 -20s-22.667 -29.333 -24 -48c-1.33301 -20 -2 -41 -2 -63s0.666992 -43 2 -63c1.33301 -18.667 9.33301 -34.5 24 -47.5s34.667 -19.5 60 -19.5s45 6.5 59 19.5s21.667 29.167 23 48.5c2 41.333 2 82.666 0 123.999zM58.0049 324.007
h236v-34h-236v34z" />
    <glyph glyph-name="guillemotright" unicode="&#xbb;" horiz-adv-x="455" 
d="M210 137l120 154l-120 153h60l120 -153l-120 -154h-60zM70 137l120 154l-120 153h60l120 -153l-120 -154h-60z" />
    <glyph glyph-name="onequarter" unicode="&#xbc;" horiz-adv-x="689" 
d="M354 137l151 300h49l-152 -300h152v113h45v-113h40v-39h-40v-98h-45v98h-200v39zM50 664l70 36h47v-437h-45v393l-72 -34v42zM442 700h50l-316 -700h-49z" />
    <glyph glyph-name="onehalf" unicode="&#xbd;" horiz-adv-x="766" 
d="M50 664l70 36h47v-437h-45v393l-72 -34v42zM450 433c10.667 2 21.998 4.33301 33.998 7l36 4.5c13.333 1.66699 27 2.5 41 2.5c19.333 0 37.333 -2.33301 54 -7s31 -12 43 -22s21.333 -23 28 -39s10 -35 10 -57c0 -29.333 -5.16699 -52.833 -15.5 -70.5
s-24.166 -35.167 -41.499 -52.5l-153 -155h209v-44h-259v52l160 169c9.33301 10 17.166 18.833 23.499 26.5s11.5 15.167 15.5 22.5s6.83301 15.333 8.5 24s2.5 18.667 2.5 30c0 27.333 -8.66699 47.5 -26 60.5s-38.666 19.5 -63.999 19.5
c-11.333 0 -23.166 -0.833008 -35.499 -2.5l-33.5 -4.5l-35 -7zM441.998 700h50l-316 -700h-49z" />
    <glyph glyph-name="threequarters" unicode="&#xbe;" horiz-adv-x="810" 
d="M475 137l151 300h49l-152 -300h152v113h45v-113h40v-39h-40v-98h-45v98h-200v39zM74 700l236.998 0.000976562v-48l-102 -127c12 -0.666992 25 -3.16699 39 -7.5s26.667 -11.333 38 -21s20.833 -22.334 28.5 -38.001s11.5 -35.5 11.5 -59.5
c0 -29.333 -4.66699 -53.333 -14 -72s-21 -33.5 -35 -44.5s-29.333 -18.667 -46 -23s-32.334 -6.5 -47.001 -6.5c-17.333 0 -32.833 0.833008 -46.5 2.5s-25.5 3.5 -35.5 5.5c-12 2.66699 -22.667 5.66699 -32 9l2 40c11.333 -2.66699 23 -5 35 -7
c10.667 -1.33301 22.334 -2.66602 35.001 -3.99902s25.667 -2 39 -2c36 0 60.833 9.83301 74.5 29.5s20.5 44.167 20.5 73.5c0 19.333 -3.16699 34.5 -9.5 45.5s-14.166 19.167 -23.499 24.5s-19.666 8.66602 -30.999 9.99902s-22 2 -32 2h-25v42l106 132h-187v44z
M562.998 700.001h50l-316 -700h-49z" />
    <glyph glyph-name="questiondown" unicode="&#xbf;" horiz-adv-x="502" 
d="M452 -185c-15.333 -5.33301 -32.0039 -9.66699 -50.0039 -13c-16 -3.33301 -34.833 -6.16602 -56.5 -8.49902s-45.167 -3.5 -70.5 -3.5c-31.333 0 -60.666 3.5 -87.999 10.5s-51.166 17.833 -71.499 32.5s-36.333 33.5 -48 56.5s-17.5 50.5 -17.5 82.5
c0 41.333 6 73.166 18 95.499s27.167 39.833 45.5 52.5s38 22.667 59 30s40.667 16.666 59 27.999s33.5 27 45.5 47s18 49 18 87h50c0 -44.667 -5.83301 -79.5 -17.5 -104.5s-26.167 -44.333 -43.5 -58s-36.333 -24.167 -57 -31.5s-39.667 -16.166 -57 -26.499
s-31.833 -24.166 -43.5 -41.499s-17.5 -43 -17.5 -77c0 -24.667 4.33301 -45.5 13 -62.5s20.667 -30.833 36 -41.5s33.333 -18.334 54 -23.001s43.334 -7 68.001 -7c20.667 0 41 1 61 3s38 4.66699 54 8c18.667 3.33301 36.334 7.33301 53.001 12zM349.996 420.999h-61v79
h61v-79z" />
    <glyph glyph-name="Agrave" unicode="&#xc0;" horiz-adv-x="575" 
d="M330 700l225 -700h-56l-69 217h-284l-69 -217h-57l225 700h85zM291 652h-7l-123 -388h254zM264 775l-130 125h80l108 -125h-58z" />
    <glyph glyph-name="Aacute" unicode="&#xc1;" horiz-adv-x="575" 
d="M330 700l225 -700h-56l-69 217h-284l-69 -217h-57l225 700h85zM291 652h-7l-123 -388h254zM249 775l108 125h80l-130 -125h-58z" />
    <glyph glyph-name="Acircumflex" unicode="&#xc2;" horiz-adv-x="575" 
d="M330 700l225 -700h-56l-69 217h-284l-69 -217h-57l225 700h85zM291 652h-7l-123 -388h254zM159 775l98 125h60l98 -125h-54l-74 77l-74 -77h-54z" />
    <glyph glyph-name="Atilde" unicode="&#xc3;" horiz-adv-x="575" 
d="M330 700l225 -700h-56l-69 217h-284l-69 -217h-57l225 700h85zM291 652h-7l-123 -388h254zM142 783c0 8 1.83105 17.167 5.49805 27.5s9 20 16 29s15.333 16.667 25 23s20.834 9.5 33.501 9.5c14 0 26.667 -2.5 38 -7.5s22 -10.5 32 -16.5s19.667 -11.5 29 -16.5
s19 -7.5 29 -7.5c11.333 0 20.166 4.33301 26.499 13s10.166 18.667 11.499 30h45c0 -8 -1.83301 -17.167 -5.5 -27.5s-9 -20 -16 -29s-15.333 -16.667 -25 -23s-20.834 -9.5 -33.501 -9.5c-14 0 -26.667 2.5 -38 7.5s-22.166 10.5 -32.499 16.5l-29.5 16.5
c-9.33301 5 -18.666 7.5 -27.999 7.5c-11.333 0 -20.166 -4.33301 -26.499 -13s-10.166 -18.667 -11.499 -30h-45z" />
    <glyph glyph-name="Adieresis" unicode="&#xc4;" horiz-adv-x="575" 
d="M330 700l225 -700h-56l-69 217h-284l-69 -217h-57l225 700h85zM291 652h-7l-123 -388h254zM172 870h61v-80h-61v80zM342 870h61v-80h-61v80z" />
    <glyph glyph-name="Aring" unicode="&#xc5;" horiz-adv-x="575" 
d="M330 700l225 -700h-56l-69 217h-284l-69 -217h-57l225 700h85zM291 652h-7l-123 -388h254zM208 841c0 22.667 7.33301 41.667 22 57s33.334 23 56.001 23c22 0 40.833 -7.66699 56.5 -23s23.5 -34.333 23.5 -57c0 -22 -7.83301 -40.667 -23.5 -56s-34.5 -23 -56.5 -23
c-22.667 0 -41.334 7.66699 -56.001 23s-22 34 -22 56zM246 842c0 -10.667 3.83301 -20 11.5 -28s17.167 -12 28.5 -12s21 4 29 12s12 17.333 12 28c0 11.333 -4 21 -12 29s-17.667 12 -29 12s-20.833 -4 -28.5 -12s-11.5 -17.667 -11.5 -29z" />
    <glyph glyph-name="AE" unicode="&#xc6;" horiz-adv-x="944" 
d="M883 700v-49h-341v-263h309v-48h-309v-291h352v-49h-409v215h-295l-123 -215h-57l400 700h473zM485 652h-47l-221 -390h268v390z" />
    <glyph glyph-name="Ccedilla" unicode="&#xc7;" horiz-adv-x="520" 
d="M475 10c-17.333 -4 -34.667 -7.33398 -52 -10.001c-15.333 -2.66699 -31.666 -5 -48.999 -7s-34 -3 -50 -3l-7 -35c22 0 40.667 -4.16699 56 -12.5s23 -25.833 23 -52.5c0 -27.333 -7.5 -47.166 -22.5 -59.499s-34.833 -18.5 -59.5 -18.5
c-7.33301 0 -15.166 0.333008 -23.499 1s-16.166 1.66699 -23.499 3c-8.66699 1.33301 -17.334 3 -26.001 5l3 34c6 -1.33301 12.667 -2.66602 20 -3.99902c5.33301 -1.33301 11.5 -2.16602 18.5 -2.49902s13.167 -0.5 18.5 -0.5c30.667 0 46 14 46 42
c0 13.333 -4 22.5 -12 27.5s-19.333 7.5 -34 7.5h-37l15 68c-32 4 -60.833 12.5 -86.5 25.5s-47.834 29.167 -66.501 48.5s-33 41.5 -43 66.5s-15.333 51.167 -16 78.5c-2 91.333 -2 183.333 0 276c0.666992 30 7.16699 58.5 19.5 85.5s29.5 50.5 51.5 70.5s48.333 36 79 48
s64.334 18 101.001 18c19.333 0 38.166 -1 56.499 -3s34.5 -4 48.5 -6c16.667 -2.66699 32.334 -5.66699 47.001 -9l-3 -50c-16 3.33301 -32.667 6.33301 -50 9c-14.667 2 -30.834 4 -48.501 6s-34.5 3 -50.5 3c-30 0 -56.833 -4.66699 -80.5 -14s-43.5 -22 -59.5 -38
s-28.333 -34.333 -37 -55s-13.334 -42.334 -14.001 -65.001c-2 -92 -2 -184 0 -276c0.666992 -22.667 5.16699 -44.334 13.5 -65.001s20.5 -39 36.5 -55s35.833 -28.667 59.5 -38s50.834 -14 81.501 -14c16.667 0 34 1 52 3s34.667 4.33301 50 7
c17.333 2.66699 34.666 6 51.999 10z" />
    <glyph glyph-name="Egrave" unicode="&#xc8;" horiz-adv-x="551" 
d="M491 700v-49h-354v-263h321v-48h-321v-291h364v-49h-421v700h411zM270 775l-130 125h80l108 -125h-58z" />
    <glyph glyph-name="Eacute" unicode="&#xc9;" horiz-adv-x="551" 
d="M491 700v-49h-354v-263h321v-48h-321v-291h364v-49h-421v700h411zM258 775l108 125h80l-130 -125h-58z" />
    <glyph glyph-name="Ecircumflex" unicode="&#xca;" horiz-adv-x="551" 
d="M491 700v-49h-354v-263h321v-48h-321v-291h364v-49h-421v700h411zM147 775l98 125h60l98 -125h-54l-74 77l-74 -77h-54z" />
    <glyph glyph-name="Edieresis" unicode="&#xcb;" horiz-adv-x="551" 
d="M491 700v-49h-354v-263h321v-48h-321v-291h364v-49h-421v700h411zM160 870h61v-80h-61v80zM330 870h61v-80h-61v80z" />
    <glyph glyph-name="Igrave" unicode="&#xcc;" horiz-adv-x="217" 
d="M137 0h-57v700h57v-700zM82 775l-130 125h80l108 -125h-58z" />
    <glyph glyph-name="Iacute" unicode="&#xcd;" horiz-adv-x="217" 
d="M137 0h-57v700h57v-700zM78 775l108 125h80l-130 -125h-58z" />
    <glyph glyph-name="Icircumflex" unicode="&#xce;" horiz-adv-x="217" 
d="M137 0h-57v700h57v-700zM-19 775l98 125h60l98 -125h-54l-74 77l-74 -77h-54z" />
    <glyph glyph-name="Idieresis" unicode="&#xcf;" horiz-adv-x="217" 
d="M137 0h-57v700h57v-700zM-7 870h61v-80h-61v80zM163 870h61v-80h-61v80z" />
    <glyph glyph-name="Eth" unicode="&#xd0;" horiz-adv-x="616" 
d="M93 389l-0.00195312 311h205c36.667 0 70.167 -5.5 100.5 -16.5s56.5 -26 78.5 -45s39.333 -41.333 52 -67s19.334 -53.5 20.001 -83.5c2 -92.667 2 -184.667 0 -276c-0.666992 -30 -7.16699 -58 -19.5 -84s-29.5 -48.5 -51.5 -67.5s-48.167 -33.833 -78.5 -44.5
s-64.166 -16 -101.499 -16h-205v340h-63v49h63zM149.998 651l0.000976562 -262h153v-49h-153v-291h148c30.667 0 57.834 4.16699 81.501 12.5s43.667 19.833 60 34.5s28.833 32 37.5 52s13.334 41.333 14.001 64c2 92 2 184 0 276c-0.666992 22.667 -5.33398 44 -14.001 64
s-21.334 37.333 -38.001 52s-36.834 26.167 -60.501 34.5s-50.5 12.5 -80.5 12.5h-148z" />
    <glyph glyph-name="Ntilde" unicode="&#xd1;" horiz-adv-x="631" 
d="M550 700v-700h-78l-314 583l-21 52v-635h-56v700h78l314 -583l21 -53v636h56zM170 783c0 8 1.83105 17.167 5.49805 27.5s9 20 16 29s15.333 16.667 25 23s20.834 9.5 33.501 9.5c14 0 26.667 -2.5 38 -7.5s22 -10.5 32 -16.5s19.667 -11.5 29 -16.5s19 -7.5 29 -7.5
c11.333 0 20.166 4.33301 26.499 13s10.166 18.667 11.499 30h45c0 -8 -1.83301 -17.167 -5.5 -27.5s-9 -20 -16 -29s-15.333 -16.667 -25 -23s-20.834 -9.5 -33.501 -9.5c-14 0 -26.667 2.5 -38 7.5s-22.166 10.5 -32.499 16.5l-29.5 16.5
c-9.33301 5 -18.666 7.5 -27.999 7.5c-11.333 0 -20.166 -4.33301 -26.499 -13s-10.166 -18.667 -11.499 -30h-45z" />
    <glyph glyph-name="Ograve" unicode="&#xd2;" horiz-adv-x="622" 
d="M311 710c36.667 0 69.832 -6 99.499 -18s55.167 -28 76.5 -48s37.833 -43.5 49.5 -70.5s17.834 -55.5 18.501 -85.5c2 -92.667 2 -184.667 0 -276c-0.666992 -30 -6.83398 -58.5 -18.501 -85.5s-28 -50.5 -49 -70.5s-46.333 -36 -76 -48s-63.167 -18 -100.5 -18
s-70.833 6 -100.5 18s-55 28 -76 48s-37.333 43.5 -49 70.5s-17.834 55.5 -18.501 85.5c-2 91.333 -2 183.333 0 276c0.666992 30 6.83398 58.5 18.501 85.5s28.167 50.5 49.5 70.5s46.833 36 76.5 48s62.834 18 99.501 18zM310.998 39c30.667 0 57.5 4.66699 80.5 14
s42 22 57 38s26.333 34.5 34 55.5s11.834 42.833 12.501 65.5c2 92 2 184 0 276c-0.666992 22.667 -4.83398 44.5 -12.501 65.5s-19.167 39.5 -34.5 55.5s-34.5 28.667 -57.5 38s-49.5 14 -79.5 14s-56.5 -4.66699 -79.5 -14s-42.167 -22 -57.5 -38
s-26.833 -34.5 -34.5 -55.5s-11.834 -42.833 -12.501 -65.5c-2 -92 -2 -184 0 -276c0.666992 -22.667 4.83398 -44.5 12.501 -65.5s19 -39.5 34 -55.5s34 -28.667 57 -38s49.833 -14 80.5 -14zM295.998 775l-130 125h80l108 -125h-58z" />
    <glyph glyph-name="Oacute" unicode="&#xd3;" horiz-adv-x="622" 
d="M311 710c36.667 0 69.832 -6 99.499 -18s55.167 -28 76.5 -48s37.833 -43.5 49.5 -70.5s17.834 -55.5 18.501 -85.5c2 -92.667 2 -184.667 0 -276c-0.666992 -30 -6.83398 -58.5 -18.501 -85.5s-28 -50.5 -49 -70.5s-46.333 -36 -76 -48s-63.167 -18 -100.5 -18
s-70.833 6 -100.5 18s-55 28 -76 48s-37.333 43.5 -49 70.5s-17.834 55.5 -18.501 85.5c-2 91.333 -2 183.333 0 276c0.666992 30 6.83398 58.5 18.501 85.5s28.167 50.5 49.5 70.5s46.833 36 76.5 48s62.834 18 99.501 18zM310.998 39c30.667 0 57.5 4.66699 80.5 14
s42 22 57 38s26.333 34.5 34 55.5s11.834 42.833 12.501 65.5c2 92 2 184 0 276c-0.666992 22.667 -4.83398 44.5 -12.501 65.5s-19.167 39.5 -34.5 55.5s-34.5 28.667 -57.5 38s-49.5 14 -79.5 14s-56.5 -4.66699 -79.5 -14s-42.167 -22 -57.5 -38
s-26.833 -34.5 -34.5 -55.5s-11.834 -42.833 -12.501 -65.5c-2 -92 -2 -184 0 -276c0.666992 -22.667 4.83398 -44.5 12.501 -65.5s19 -39.5 34 -55.5s34 -28.667 57 -38s49.833 -14 80.5 -14zM282.998 775l108 125h80l-130 -125h-58z" />
    <glyph glyph-name="Ocircumflex" unicode="&#xd4;" horiz-adv-x="622" 
d="M311 710c36.667 0 69.832 -6 99.499 -18s55.167 -28 76.5 -48s37.833 -43.5 49.5 -70.5s17.834 -55.5 18.501 -85.5c2 -92.667 2 -184.667 0 -276c-0.666992 -30 -6.83398 -58.5 -18.501 -85.5s-28 -50.5 -49 -70.5s-46.333 -36 -76 -48s-63.167 -18 -100.5 -18
s-70.833 6 -100.5 18s-55 28 -76 48s-37.333 43.5 -49 70.5s-17.834 55.5 -18.501 85.5c-2 91.333 -2 183.333 0 276c0.666992 30 6.83398 58.5 18.501 85.5s28.167 50.5 49.5 70.5s46.833 36 76.5 48s62.834 18 99.501 18zM310.998 39c30.667 0 57.5 4.66699 80.5 14
s42 22 57 38s26.333 34.5 34 55.5s11.834 42.833 12.501 65.5c2 92 2 184 0 276c-0.666992 22.667 -4.83398 44.5 -12.501 65.5s-19.167 39.5 -34.5 55.5s-34.5 28.667 -57.5 38s-49.5 14 -79.5 14s-56.5 -4.66699 -79.5 -14s-42.167 -22 -57.5 -38
s-26.833 -34.5 -34.5 -55.5s-11.834 -42.833 -12.501 -65.5c-2 -92 -2 -184 0 -276c0.666992 -22.667 4.83398 -44.5 12.501 -65.5s19 -39.5 34 -55.5s34 -28.667 57 -38s49.833 -14 80.5 -14zM182.998 775l98 125h60l98 -125h-54l-74 77l-74 -77h-54z" />
    <glyph glyph-name="Otilde" unicode="&#xd5;" horiz-adv-x="622" 
d="M311 710c36.667 0 69.832 -6 99.499 -18s55.167 -28 76.5 -48s37.833 -43.5 49.5 -70.5s17.834 -55.5 18.501 -85.5c2 -92.667 2 -184.667 0 -276c-0.666992 -30 -6.83398 -58.5 -18.501 -85.5s-28 -50.5 -49 -70.5s-46.333 -36 -76 -48s-63.167 -18 -100.5 -18
s-70.833 6 -100.5 18s-55 28 -76 48s-37.333 43.5 -49 70.5s-17.834 55.5 -18.501 85.5c-2 91.333 -2 183.333 0 276c0.666992 30 6.83398 58.5 18.501 85.5s28.167 50.5 49.5 70.5s46.833 36 76.5 48s62.834 18 99.501 18zM310.998 39c30.667 0 57.5 4.66699 80.5 14
s42 22 57 38s26.333 34.5 34 55.5s11.834 42.833 12.501 65.5c2 92 2 184 0 276c-0.666992 22.667 -4.83398 44.5 -12.501 65.5s-19.167 39.5 -34.5 55.5s-34.5 28.667 -57.5 38s-49.5 14 -79.5 14s-56.5 -4.66699 -79.5 -14s-42.167 -22 -57.5 -38
s-26.833 -34.5 -34.5 -55.5s-11.834 -42.833 -12.501 -65.5c-2 -92 -2 -184 0 -276c0.666992 -22.667 4.83398 -44.5 12.501 -65.5s19 -39.5 34 -55.5s34 -28.667 57 -38s49.833 -14 80.5 -14zM164.998 783c0 8 1.83105 17.167 5.49805 27.5s9 20 16 29s15.333 16.667 25 23
s20.834 9.5 33.501 9.5c14 0 26.667 -2.5 38 -7.5s22 -10.5 32 -16.5s19.667 -11.5 29 -16.5s19 -7.5 29 -7.5c11.333 0 20.166 4.33301 26.499 13s10.166 18.667 11.499 30h45c0 -8 -1.83301 -17.167 -5.5 -27.5s-9 -20 -16 -29s-15.333 -16.667 -25 -23
s-20.834 -9.5 -33.501 -9.5c-14 0 -26.667 2.5 -38 7.5s-22.166 10.5 -32.499 16.5l-29.5 16.5c-9.33301 5 -18.666 7.5 -27.999 7.5c-11.333 0 -20.166 -4.33301 -26.499 -13s-10.166 -18.667 -11.499 -30h-45z" />
    <glyph glyph-name="Odieresis" unicode="&#xd6;" horiz-adv-x="622" 
d="M311 710c36.667 0 69.832 -6 99.499 -18s55.167 -28 76.5 -48s37.833 -43.5 49.5 -70.5s17.834 -55.5 18.501 -85.5c2 -92.667 2 -184.667 0 -276c-0.666992 -30 -6.83398 -58.5 -18.501 -85.5s-28 -50.5 -49 -70.5s-46.333 -36 -76 -48s-63.167 -18 -100.5 -18
s-70.833 6 -100.5 18s-55 28 -76 48s-37.333 43.5 -49 70.5s-17.834 55.5 -18.501 85.5c-2 91.333 -2 183.333 0 276c0.666992 30 6.83398 58.5 18.501 85.5s28.167 50.5 49.5 70.5s46.833 36 76.5 48s62.834 18 99.501 18zM310.998 39c30.667 0 57.5 4.66699 80.5 14
s42 22 57 38s26.333 34.5 34 55.5s11.834 42.833 12.501 65.5c2 92 2 184 0 276c-0.666992 22.667 -4.83398 44.5 -12.501 65.5s-19.167 39.5 -34.5 55.5s-34.5 28.667 -57.5 38s-49.5 14 -79.5 14s-56.5 -4.66699 -79.5 -14s-42.167 -22 -57.5 -38
s-26.833 -34.5 -34.5 -55.5s-11.834 -42.833 -12.501 -65.5c-2 -92 -2 -184 0 -276c0.666992 -22.667 4.83398 -44.5 12.501 -65.5s19 -39.5 34 -55.5s34 -28.667 57 -38s49.833 -14 80.5 -14zM194.998 870h61v-80h-61v80zM364.998 870h61v-80h-61v80z" />
    <glyph glyph-name="multiply" unicode="&#xd7;" horiz-adv-x="507" 
d="M105 464l148 -148l150 149l34 -33l-150 -150l149 -149l-34 -34l-149 149l-149 -149l-34 33l149 150l-148 148z" />
    <glyph glyph-name="Oslash" unicode="&#xd8;" horiz-adv-x="622" 
d="M116 75c-31.333 38.667 -47.665 84.333 -48.998 137c-2 91.333 -2 183.333 0 276c0.666992 30 6.83398 58.5 18.501 85.5s28.167 50.5 49.5 70.5s46.833 36 76.5 48s62.834 18 99.501 18c32 0 61.333 -4.66699 88 -14s50.334 -22 71.001 -38l26 42h56l-47 -76
c15.333 -19.333 27.166 -40.5 35.499 -63.5s13.166 -47.167 14.499 -72.5c2 -92.667 2 -184.667 0 -276c-0.666992 -30 -6.83398 -58.5 -18.501 -85.5s-28 -50.5 -49 -70.5s-46.333 -36 -76 -48s-63.167 -18 -100.5 -18c-32.667 0 -62.334 4.5 -89.001 13.5
s-50.334 21.5 -71.001 37.5l-25 -41h-56zM311.001 38.999c30.667 0 57.499 4.66699 80.499 14s42 22 57 38s26.333 34.5 34 55.5s11.834 42.833 12.501 65.5c2 92 2 184 0 276c-1.33301 30 -8.33301 58 -21 84l-296 -486c15.333 -14.667 33.833 -26.167 55.5 -34.5
s47.5 -12.5 77.5 -12.5zM127 211.999c0 -15.333 1.83301 -30.001 5.5 -44.001s8.83398 -27.333 15.501 -40l295 485c-15.333 14.667 -34 26.334 -56 35.001s-47.333 13 -76 13c-30 0 -56.5 -4.66699 -79.5 -14s-42.167 -22 -57.5 -38s-26.833 -34.5 -34.5 -55.5
s-11.834 -42.833 -12.501 -65.5c-2 -92 -2 -184 0 -276z" />
    <glyph glyph-name="Ugrave" unicode="&#xd9;" horiz-adv-x="634" 
d="M559 700l-0.000976562 -488c0 -30.667 -5.66699 -59.5 -17 -86.5s-27.5 -50.5 -48.5 -70.5s-46.333 -35.833 -76 -47.5s-63.167 -17.5 -100.5 -17.5c-38 0 -71.833 5.83301 -101.5 17.5s-55 27.5 -76 47.5s-37 43.5 -48 70.5s-16.5 55.833 -16.5 86.5v488h57v-488
c0 -22.667 3.83301 -44.5 11.5 -65.5s19.334 -39.5 35.001 -55.5s35 -28.667 58 -38s49.833 -14 80.5 -14c30 0 56.5 4.66699 79.5 14s42.333 22 58 38s27.5 34.5 35.5 55.5s12 42.833 12 65.5v488h57zM297.999 775l-130 125h80l108 -125h-58z" />
    <glyph glyph-name="Uacute" unicode="&#xda;" horiz-adv-x="634" 
d="M559 700l-0.000976562 -488c0 -30.667 -5.66699 -59.5 -17 -86.5s-27.5 -50.5 -48.5 -70.5s-46.333 -35.833 -76 -47.5s-63.167 -17.5 -100.5 -17.5c-38 0 -71.833 5.83301 -101.5 17.5s-55 27.5 -76 47.5s-37 43.5 -48 70.5s-16.5 55.833 -16.5 86.5v488h57v-488
c0 -22.667 3.83301 -44.5 11.5 -65.5s19.334 -39.5 35.001 -55.5s35 -28.667 58 -38s49.833 -14 80.5 -14c30 0 56.5 4.66699 79.5 14s42.333 22 58 38s27.5 34.5 35.5 55.5s12 42.833 12 65.5v488h57zM290.999 775l108 125h80l-130 -125h-58z" />
    <glyph glyph-name="Ucircumflex" unicode="&#xdb;" horiz-adv-x="634" 
d="M559 700l-0.000976562 -488c0 -30.667 -5.66699 -59.5 -17 -86.5s-27.5 -50.5 -48.5 -70.5s-46.333 -35.833 -76 -47.5s-63.167 -17.5 -100.5 -17.5c-38 0 -71.833 5.83301 -101.5 17.5s-55 27.5 -76 47.5s-37 43.5 -48 70.5s-16.5 55.833 -16.5 86.5v488h57v-488
c0 -22.667 3.83301 -44.5 11.5 -65.5s19.334 -39.5 35.001 -55.5s35 -28.667 58 -38s49.833 -14 80.5 -14c30 0 56.5 4.66699 79.5 14s42.333 22 58 38s27.5 34.5 35.5 55.5s12 42.833 12 65.5v488h57zM188.999 775l98 125h60l98 -125h-54l-74 77l-74 -77h-54z" />
    <glyph glyph-name="Udieresis" unicode="&#xdc;" horiz-adv-x="634" 
d="M559 700l-0.000976562 -488c0 -30.667 -5.66699 -59.5 -17 -86.5s-27.5 -50.5 -48.5 -70.5s-46.333 -35.833 -76 -47.5s-63.167 -17.5 -100.5 -17.5c-38 0 -71.833 5.83301 -101.5 17.5s-55 27.5 -76 47.5s-37 43.5 -48 70.5s-16.5 55.833 -16.5 86.5v488h57v-488
c0 -22.667 3.83301 -44.5 11.5 -65.5s19.334 -39.5 35.001 -55.5s35 -28.667 58 -38s49.833 -14 80.5 -14c30 0 56.5 4.66699 79.5 14s42.333 22 58 38s27.5 34.5 35.5 55.5s12 42.833 12 65.5v488h57zM200.999 870h61v-80h-61v80zM370.999 870h61v-80h-61v80z" />
    <glyph glyph-name="Yacute" unicode="&#xdd;" horiz-adv-x="555" 
d="M275 335h4l195 365h66l-234 -422v-278h-57v278l-234 422h66zM242 775l108 125h80l-130 -125h-58z" />
    <glyph glyph-name="Thorn" unicode="&#xde;" horiz-adv-x="547" 
d="M80 700h57v-100h197c26.667 0 50.5 -3.83301 71.5 -11.5s38.833 -18.334 53.5 -32.001s25.834 -29.5 33.501 -47.5s11.834 -37 12.501 -57c1.33301 -24.667 2 -47.667 2 -69s-0.666992 -44.666 -2 -69.999c-0.666992 -20.667 -4.83398 -40 -12.501 -58
s-18.834 -33.667 -33.501 -47s-32.5 -23.833 -53.5 -31.5s-44.833 -11.5 -71.5 -11.5h-197v-165h-57v700zM448 308c2 49.333 2 98.665 0 147.998c-0.666992 12.667 -3.16699 24.834 -7.5 36.501s-10.833 21.834 -19.5 30.501s-20 15.5 -34 20.5s-31 7.5 -51 7.5h-199v-337
h199c20 0 37 2.5 51 7.5s25.5 11.833 34.5 20.5s15.5 18.667 19.5 30s6.33301 23.333 7 36z" />
    <glyph glyph-name="germandbls" unicode="&#xdf;" horiz-adv-x="519" 
d="M209 44c9.33301 -2 19.334 -3.66016 30.001 -4.99316c9.33301 -1.33301 19.833 -2.5 31.5 -3.5s24.167 -1.5 37.5 -1.5c42.667 0 73.334 8 92.001 24s28 39.667 28 71c0 23.333 -4.16699 42.333 -12.5 57s-18.833 27.167 -31.5 37.5s-26.334 19.666 -41.001 27.999
s-28.334 17.666 -41.001 27.999s-23.167 23.166 -31.5 38.499s-12.5 35 -12.5 59c0 24.667 6.16699 45.667 18.5 63s26.166 31.666 41.499 42.999c17.333 12.667 37.666 23 60.999 31v35c0 34.667 -11.167 62.834 -33.5 84.501s-54.5 32.5 -96.5 32.5
c-22 0 -41 -3.5 -57 -10.5s-29.333 -16.333 -40 -28s-18.667 -25.334 -24 -41.001s-8 -31.834 -8 -48.501v-538h-50v545c0 20.667 3.66699 41 11 61s18.5 37.667 33.5 53s33.667 27.666 56 36.999s48.833 14 79.5 14c26 0 50 -4 72 -12s40.833 -19 56.5 -33
s27.834 -30.333 36.501 -49s13 -38.667 13 -60v-62c-22.667 -7.33301 -42.667 -16.666 -60 -27.999c-15.333 -9.33301 -29.166 -21.5 -41.499 -36.5s-18.5 -32.5 -18.5 -52.5c0 -17.333 4.16699 -31.5 12.5 -42.5s18.833 -20.833 31.5 -29.5s26.5 -17.334 41.5 -26.001
s28.833 -19 41.5 -31s23.167 -27 31.5 -45s12.5 -41 12.5 -69c0 -45.333 -14.167 -80.5 -42.5 -105.5s-74.5 -37.5 -138.5 -37.5c-12.667 0 -24.667 0.666992 -36 2s-21.666 2.66602 -30.999 3.99902c-10.667 2 -20.334 4 -29.001 6z" />
    <glyph glyph-name="agrave" unicode="&#xe0;" horiz-adv-x="477" 
d="M362 59c-16.667 -13.333 -34.0059 -24.998 -52.0059 -34.998c-15.333 -8.66699 -33.166 -16.5 -53.499 -23.5s-41.166 -10.5 -62.499 -10.5c-22.667 0 -43 3.83301 -61 11.5s-33.167 18.167 -45.5 31.5s-21.666 29.166 -27.999 47.499s-9.5 38.5 -9.5 60.5
c0 20.667 2.83301 40.5 8.5 59.5s14.5 35.5 26.5 49.5s27 25.167 45 33.5s39.333 12.5 64 12.5h168v52c0 15.333 -2.33301 30.166 -7 44.499s-11.834 27 -21.501 38s-21.667 19.667 -36 26s-31.166 9.5 -50.499 9.5s-38.666 -1 -57.999 -3s-36.666 -4.33301 -51.999 -7
c-18 -2.66699 -35.333 -5.66699 -52 -9l-5 44c18 3.33301 36.333 6.33301 55 9c16 2.66699 33.667 5 53 7s38.333 3 57 3c28.667 0 53.5 -4.16699 74.5 -12.5s38.333 -19.5 52 -33.5s23.834 -30.5 30.501 -49.5s10 -39.167 10 -60.5v-354h-45zM196.994 34.002
c21.333 0 41.832 4.16699 61.499 12.5s37.167 17.5 52.5 27.5c18 12 35 25.667 51 41v137h-164c-18 0 -33.333 -3 -46 -9s-22.667 -14 -30 -24s-12.666 -21.667 -15.999 -35s-5 -27.333 -5 -42s1.66699 -28.5 5 -41.5s8.83301 -24.5 16.5 -34.5s17.5 -17.833 29.5 -23.5
s27 -8.5 45 -8.5zM225.993 575.002l-130 125h80l108 -125h-58z" />
    <glyph glyph-name="aacute" unicode="&#xe1;" horiz-adv-x="477" 
d="M362 59c-16.667 -13.333 -34.0059 -24.998 -52.0059 -34.998c-15.333 -8.66699 -33.166 -16.5 -53.499 -23.5s-41.166 -10.5 -62.499 -10.5c-22.667 0 -43 3.83301 -61 11.5s-33.167 18.167 -45.5 31.5s-21.666 29.166 -27.999 47.499s-9.5 38.5 -9.5 60.5
c0 20.667 2.83301 40.5 8.5 59.5s14.5 35.5 26.5 49.5s27 25.167 45 33.5s39.333 12.5 64 12.5h168v52c0 15.333 -2.33301 30.166 -7 44.499s-11.834 27 -21.501 38s-21.667 19.667 -36 26s-31.166 9.5 -50.499 9.5s-38.666 -1 -57.999 -3s-36.666 -4.33301 -51.999 -7
c-18 -2.66699 -35.333 -5.66699 -52 -9l-5 44c18 3.33301 36.333 6.33301 55 9c16 2.66699 33.667 5 53 7s38.333 3 57 3c28.667 0 53.5 -4.16699 74.5 -12.5s38.333 -19.5 52 -33.5s23.834 -30.5 30.501 -49.5s10 -39.167 10 -60.5v-354h-45zM196.994 34.002
c21.333 0 41.832 4.16699 61.499 12.5s37.167 17.5 52.5 27.5c18 12 35 25.667 51 41v137h-164c-18 0 -33.333 -3 -46 -9s-22.667 -14 -30 -24s-12.666 -21.667 -15.999 -35s-5 -27.333 -5 -42s1.66699 -28.5 5 -41.5s8.83301 -24.5 16.5 -34.5s17.5 -17.833 29.5 -23.5
s27 -8.5 45 -8.5zM206.993 575.002l108 125h80l-130 -125h-58z" />
    <glyph glyph-name="acircumflex" unicode="&#xe2;" horiz-adv-x="477" 
d="M362 59c-16.667 -13.333 -34.0059 -24.998 -52.0059 -34.998c-15.333 -8.66699 -33.166 -16.5 -53.499 -23.5s-41.166 -10.5 -62.499 -10.5c-22.667 0 -43 3.83301 -61 11.5s-33.167 18.167 -45.5 31.5s-21.666 29.166 -27.999 47.499s-9.5 38.5 -9.5 60.5
c0 20.667 2.83301 40.5 8.5 59.5s14.5 35.5 26.5 49.5s27 25.167 45 33.5s39.333 12.5 64 12.5h168v52c0 15.333 -2.33301 30.166 -7 44.499s-11.834 27 -21.501 38s-21.667 19.667 -36 26s-31.166 9.5 -50.499 9.5s-38.666 -1 -57.999 -3s-36.666 -4.33301 -51.999 -7
c-18 -2.66699 -35.333 -5.66699 -52 -9l-5 44c18 3.33301 36.333 6.33301 55 9c16 2.66699 33.667 5 53 7s38.333 3 57 3c28.667 0 53.5 -4.16699 74.5 -12.5s38.333 -19.5 52 -33.5s23.834 -30.5 30.501 -49.5s10 -39.167 10 -60.5v-354h-45zM196.994 34.002
c21.333 0 41.832 4.16699 61.499 12.5s37.167 17.5 52.5 27.5c18 12 35 25.667 51 41v137h-164c-18 0 -33.333 -3 -46 -9s-22.667 -14 -30 -24s-12.666 -21.667 -15.999 -35s-5 -27.333 -5 -42s1.66699 -28.5 5 -41.5s8.83301 -24.5 16.5 -34.5s17.5 -17.833 29.5 -23.5
s27 -8.5 45 -8.5zM109.993 575.002l98 125h60l98 -125h-54l-74 77l-74 -77h-54z" />
    <glyph glyph-name="atilde" unicode="&#xe3;" horiz-adv-x="477" 
d="M362 59c-16.667 -13.333 -34.0059 -24.998 -52.0059 -34.998c-15.333 -8.66699 -33.166 -16.5 -53.499 -23.5s-41.166 -10.5 -62.499 -10.5c-22.667 0 -43 3.83301 -61 11.5s-33.167 18.167 -45.5 31.5s-21.666 29.166 -27.999 47.499s-9.5 38.5 -9.5 60.5
c0 20.667 2.83301 40.5 8.5 59.5s14.5 35.5 26.5 49.5s27 25.167 45 33.5s39.333 12.5 64 12.5h168v52c0 15.333 -2.33301 30.166 -7 44.499s-11.834 27 -21.501 38s-21.667 19.667 -36 26s-31.166 9.5 -50.499 9.5s-38.666 -1 -57.999 -3s-36.666 -4.33301 -51.999 -7
c-18 -2.66699 -35.333 -5.66699 -52 -9l-5 44c18 3.33301 36.333 6.33301 55 9c16 2.66699 33.667 5 53 7s38.333 3 57 3c28.667 0 53.5 -4.16699 74.5 -12.5s38.333 -19.5 52 -33.5s23.834 -30.5 30.501 -49.5s10 -39.167 10 -60.5v-354h-45zM196.994 34.002
c21.333 0 41.832 4.16699 61.499 12.5s37.167 17.5 52.5 27.5c18 12 35 25.667 51 41v137h-164c-18 0 -33.333 -3 -46 -9s-22.667 -14 -30 -24s-12.666 -21.667 -15.999 -35s-5 -27.333 -5 -42s1.66699 -28.5 5 -41.5s8.83301 -24.5 16.5 -34.5s17.5 -17.833 29.5 -23.5
s27 -8.5 45 -8.5zM92.9932 583.002c0 8 1.83105 17.167 5.49805 27.5s9 20 16 29s15.333 16.667 25 23s20.834 9.5 33.501 9.5c14 0 26.667 -2.5 38 -7.5s22 -10.5 32 -16.5s19.667 -11.5 29 -16.5s19 -7.5 29 -7.5c11.333 0 20.166 4.33301 26.499 13
s10.166 18.667 11.499 30h45c0 -8 -1.83301 -17.167 -5.5 -27.5s-9 -20 -16 -29s-15.333 -16.667 -25 -23s-20.834 -9.5 -33.501 -9.5c-14 0 -26.667 2.5 -38 7.5s-22.166 10.5 -32.499 16.5l-29.5 16.5c-9.33301 5 -18.666 7.5 -27.999 7.5
c-11.333 0 -20.166 -4.33301 -26.499 -13s-10.166 -18.667 -11.499 -30h-45z" />
    <glyph glyph-name="adieresis" unicode="&#xe4;" horiz-adv-x="477" 
d="M362 59c-16.667 -13.333 -34.0059 -24.998 -52.0059 -34.998c-15.333 -8.66699 -33.166 -16.5 -53.499 -23.5s-41.166 -10.5 -62.499 -10.5c-22.667 0 -43 3.83301 -61 11.5s-33.167 18.167 -45.5 31.5s-21.666 29.166 -27.999 47.499s-9.5 38.5 -9.5 60.5
c0 20.667 2.83301 40.5 8.5 59.5s14.5 35.5 26.5 49.5s27 25.167 45 33.5s39.333 12.5 64 12.5h168v52c0 15.333 -2.33301 30.166 -7 44.499s-11.834 27 -21.501 38s-21.667 19.667 -36 26s-31.166 9.5 -50.499 9.5s-38.666 -1 -57.999 -3s-36.666 -4.33301 -51.999 -7
c-18 -2.66699 -35.333 -5.66699 -52 -9l-5 44c18 3.33301 36.333 6.33301 55 9c16 2.66699 33.667 5 53 7s38.333 3 57 3c28.667 0 53.5 -4.16699 74.5 -12.5s38.333 -19.5 52 -33.5s23.834 -30.5 30.501 -49.5s10 -39.167 10 -60.5v-354h-45zM196.994 34.002
c21.333 0 41.832 4.16699 61.499 12.5s37.167 17.5 52.5 27.5c18 12 35 25.667 51 41v137h-164c-18 0 -33.333 -3 -46 -9s-22.667 -14 -30 -24s-12.666 -21.667 -15.999 -35s-5 -27.333 -5 -42s1.66699 -28.5 5 -41.5s8.83301 -24.5 16.5 -34.5s17.5 -17.833 29.5 -23.5
s27 -8.5 45 -8.5zM122.993 670.002h61v-80h-61v80zM292.993 670.002h61v-80h-61v80z" />
    <glyph glyph-name="aring" unicode="&#xe5;" horiz-adv-x="477" 
d="M362 59c-16.667 -13.333 -34.0059 -24.998 -52.0059 -34.998c-15.333 -8.66699 -33.166 -16.5 -53.499 -23.5s-41.166 -10.5 -62.499 -10.5c-22.667 0 -43 3.83301 -61 11.5s-33.167 18.167 -45.5 31.5s-21.666 29.166 -27.999 47.499s-9.5 38.5 -9.5 60.5
c0 20.667 2.83301 40.5 8.5 59.5s14.5 35.5 26.5 49.5s27 25.167 45 33.5s39.333 12.5 64 12.5h168v52c0 15.333 -2.33301 30.166 -7 44.499s-11.834 27 -21.501 38s-21.667 19.667 -36 26s-31.166 9.5 -50.499 9.5s-38.666 -1 -57.999 -3s-36.666 -4.33301 -51.999 -7
c-18 -2.66699 -35.333 -5.66699 -52 -9l-5 44c18 3.33301 36.333 6.33301 55 9c16 2.66699 33.667 5 53 7s38.333 3 57 3c28.667 0 53.5 -4.16699 74.5 -12.5s38.333 -19.5 52 -33.5s23.834 -30.5 30.501 -49.5s10 -39.167 10 -60.5v-354h-45zM196.994 34.002
c21.333 0 41.832 4.16699 61.499 12.5s37.167 17.5 52.5 27.5c18 12 35 25.667 51 41v137h-164c-18 0 -33.333 -3 -46 -9s-22.667 -14 -30 -24s-12.666 -21.667 -15.999 -35s-5 -27.333 -5 -42s1.66699 -28.5 5 -41.5s8.83301 -24.5 16.5 -34.5s17.5 -17.833 29.5 -23.5
s27 -8.5 45 -8.5zM158.993 641.002c0 22.667 7.33301 41.667 22 57s33.334 23 56.001 23c22 0 40.833 -7.66699 56.5 -23s23.5 -34.333 23.5 -57c0 -22 -7.83301 -40.667 -23.5 -56s-34.5 -23 -56.5 -23c-22.667 0 -41.334 7.66699 -56.001 23s-22 34 -22 56z
M196.993 642.002c0 -10.667 3.83301 -20 11.5 -28s17.167 -12 28.5 -12s21 4 29 12s12 17.333 12 28c0 11.333 -4 21 -12 29s-17.667 12 -29 12s-20.833 -4 -28.5 -12s-11.5 -17.667 -11.5 -29z" />
    <glyph glyph-name="ae" unicode="&#xe6;" horiz-adv-x="762" 
d="M695 10c-13.333 -4.66699 -28.3379 -8.33496 -45.0049 -11.002c-14 -2.66699 -30.5 -5 -49.5 -7s-39.5 -3 -61.5 -3c-31.333 0 -57.166 4.16699 -77.499 12.5s-36.5 17.833 -48.5 28.5c-14 12 -25 25.667 -33 41c-18 -15.333 -37 -29 -57 -41
c-17.333 -10.667 -37.166 -20.167 -59.499 -28.5s-45.833 -12.5 -70.5 -12.5c-22.667 0 -42.834 3.66699 -60.501 11s-32.667 17.666 -45 30.999s-21.666 29.166 -27.999 47.499s-9.5 38.5 -9.5 60.5c0 20.667 2.83301 39.834 8.5 57.501s14.334 32.834 26.001 45.501
s26.5 22.667 44.5 30s39.333 11 64 11h168v22c0 6.66699 -0.166992 13.834 -0.5 21.501s-0.5 15.167 -0.5 22.5c-0.666992 15.333 -3.33398 30 -8.00098 44s-11.5 26.5 -20.5 37.5s-20.667 19.833 -35 26.5s-31.166 10 -50.499 10c-15.333 0 -32.166 -1 -50.499 -3
s-35.833 -4.33301 -52.5 -7c-19.333 -2.66699 -38.666 -6 -57.999 -10l-6 44c20.667 4 41.334 7.33301 62.001 10c17.333 2.66699 35.833 5 55.5 7s37.5 3 53.5 3c26 0 47.833 -3.66699 65.5 -11s32.167 -15.666 43.5 -24.999c12.667 -10.667 22.667 -22.667 30 -36
c9.33301 13.333 21 25.333 35 36c12 9.33301 27.333 17.666 46 24.999s41.667 11 69 11s51.666 -4.16699 72.999 -12.5s39.5 -19.666 54.5 -33.999s26.333 -31 34 -50s11.5 -39.167 11.5 -60.5v-115h-300v-34v-28.5c0 -9.66699 0.333008 -18.167 1 -25.5
c0.666992 -15.333 3.83398 -30 9.50098 -44s13.667 -26.5 24 -37.5s23.166 -19.833 38.499 -26.5s33 -10 53 -10c17.333 0 34.833 1 52.5 3s33.834 4.33301 48.501 7c17.333 2.66699 33.666 6 48.999 10zM196.995 33.999c21.333 0 41.834 4.33691 61.501 13.0039
s37.5 18.334 53.5 29.001c18 12 35.667 26.333 53 43c-1.33301 11.333 -2.16602 23.666 -2.49902 36.999s-0.833008 26.333 -1.5 39c-0.666992 14 -1 28.667 -1 44h-162c-37.333 0 -62.833 -8.83301 -76.5 -26.5s-20.5 -41.834 -20.5 -72.501
c0 -14.667 1.66699 -28.334 5 -41.001s8.66602 -23.834 15.999 -33.501s17.166 -17.334 29.499 -23.001s27.5 -8.5 45.5 -8.5zM412.996 349.003c-0.666992 -4.66699 -1.00195 -10.4971 -1.00195 -17.4971v-21.5v-27h250v25c0 7.33301 -0.166992 14.666 -0.5 21.999
s-0.5 13.666 -0.5 18.999c-1.33301 15.333 -4.83301 30.166 -10.5 44.499s-13.5 27 -23.5 38s-22.333 19.667 -37 26s-31 9.5 -49 9.5c-41.333 0 -72.666 -11.5 -93.999 -34.5s-32.666 -50.833 -33.999 -83.5z" />
    <glyph glyph-name="ccedilla" unicode="&#xe7;" horiz-adv-x="399" 
d="M369 6c-12 -2 -24.0029 -4.33496 -36.0029 -7.00195c-11.333 -2 -23.666 -3.83301 -36.999 -5.5s-27.666 -2.83398 -42.999 -3.50098l-7 -35c22 0 40.667 -4.16699 56 -12.5s23 -25.833 23 -52.5c0 -27.333 -7.5 -47.166 -22.5 -59.499s-34.833 -18.5 -59.5 -18.5
c-7.33301 0 -15.166 0.333008 -23.499 1s-16.166 1.66699 -23.499 3c-8.66699 1.33301 -17.334 3 -26.001 5l3 34c6 -1.33301 12.667 -2.66602 20 -3.99902c5.33301 -1.33301 11.5 -2.16602 18.5 -2.49902s13.167 -0.5 18.5 -0.5c30.667 0 46 14 46 42
c0 13.333 -4 22.5 -12 27.5s-19.333 7.5 -34 7.5h-37l15 67c-47.333 6 -83.166 23.5 -107.499 52.5s-37.166 62.833 -38.499 101.5c-2 69.333 -2 138.666 0 207.999c0.666992 21.333 5 41.5 13 60.5s19.667 35.5 35 49.5s34.166 25.167 56.499 33.5s47.833 12.5 76.5 12.5
c13.333 0 27.166 -0.666992 41.499 -2s27.166 -2.66602 38.499 -3.99902c13.333 -2 26 -4 38 -6l-5 -43c-12.667 1.33301 -25.667 3 -39 5c-11.333 1.33301 -23.833 2.66602 -37.5 3.99902s-26.167 2 -37.5 2c-20 0 -37.833 -3.16699 -53.5 -9.5s-29 -14.833 -40 -25.5
s-19.5 -23 -25.5 -37s-9.33301 -28.667 -10 -44c-1.33301 -32.667 -2 -66.167 -2 -100.5s0.666992 -67.833 2 -100.5c0.666992 -15.333 3.83398 -30 9.50098 -44s14 -26.167 25 -36.5s24.5 -18.666 40.5 -24.999s34 -9.5 54 -9.5c16.667 0 32.167 0.666992 46.5 2
s27.166 3 38.499 5c12.667 2 24.334 4.33301 35.001 7z" />
    <glyph glyph-name="egrave" unicode="&#xe8;" horiz-adv-x="462" 
d="M395 13c-12 -4.66699 -25.9961 -8.66602 -41.9961 -11.999c-13.333 -3.33301 -29.833 -6 -49.5 -8s-41.5 -3 -65.5 -3c-28.667 0 -53.834 4.16699 -75.501 12.5s-39.834 19.5 -54.501 33.5s-25.834 30.5 -33.501 49.5s-11.834 39.167 -12.501 60.5
c-2 68.667 -2 138 0 208c0.666992 21.333 5 41.5 13 60.5s19.5 35.5 34.5 49.5s33.333 25.167 55 33.5s46.167 12.5 73.5 12.5c26.667 0 50.834 -4.16699 72.501 -12.5s40 -19.5 55 -33.5s26.5 -30.5 34.5 -49.5s12 -39.167 12 -60.5v-120h-300v-31v-27.5
c0 -9.66699 0.333008 -17.834 1 -24.501c0.666992 -15.333 3.66699 -30 9 -44s13 -26.5 23 -37.5s22.833 -19.667 38.5 -26s34.5 -9.5 56.5 -9.5c21.333 0 40.833 1 58.5 3s33.167 4.33301 46.5 7c15.333 2.66699 29.666 6 42.999 10zM113.004 349.001
c-0.666992 -4.66699 -1 -10.8311 -1 -18.498v-23.5v-29h250v28c0 7.33301 -0.166992 15 -0.5 23s-0.5 14.667 -0.5 20c-0.666992 15.333 -4 30.166 -10 44.499s-14.167 26.833 -24.5 37.5s-22.833 19.167 -37.5 25.5s-31 9.5 -49 9.5c-41.333 0 -72.5 -11.333 -93.5 -34
s-32.167 -50.334 -33.5 -83.001zM229.004 575.004l-130 125h80l108 -125h-58z" />
    <glyph glyph-name="eacute" unicode="&#xe9;" horiz-adv-x="462" 
d="M395 13c-12 -4.66699 -25.9961 -8.66602 -41.9961 -11.999c-13.333 -3.33301 -29.833 -6 -49.5 -8s-41.5 -3 -65.5 -3c-28.667 0 -53.834 4.16699 -75.501 12.5s-39.834 19.5 -54.501 33.5s-25.834 30.5 -33.501 49.5s-11.834 39.167 -12.501 60.5
c-2 68.667 -2 138 0 208c0.666992 21.333 5 41.5 13 60.5s19.5 35.5 34.5 49.5s33.333 25.167 55 33.5s46.167 12.5 73.5 12.5c26.667 0 50.834 -4.16699 72.501 -12.5s40 -19.5 55 -33.5s26.5 -30.5 34.5 -49.5s12 -39.167 12 -60.5v-120h-300v-31v-27.5
c0 -9.66699 0.333008 -17.834 1 -24.501c0.666992 -15.333 3.66699 -30 9 -44s13 -26.5 23 -37.5s22.833 -19.667 38.5 -26s34.5 -9.5 56.5 -9.5c21.333 0 40.833 1 58.5 3s33.167 4.33301 46.5 7c15.333 2.66699 29.666 6 42.999 10zM113.004 349.001
c-0.666992 -4.66699 -1 -10.8311 -1 -18.498v-23.5v-29h250v28c0 7.33301 -0.166992 15 -0.5 23s-0.5 14.667 -0.5 20c-0.666992 15.333 -4 30.166 -10 44.499s-14.167 26.833 -24.5 37.5s-22.833 19.167 -37.5 25.5s-31 9.5 -49 9.5c-41.333 0 -72.5 -11.333 -93.5 -34
s-32.167 -50.334 -33.5 -83.001zM213.004 575.004l108 125h80l-130 -125h-58z" />
    <glyph glyph-name="ecircumflex" unicode="&#xea;" horiz-adv-x="462" 
d="M395 13c-12 -4.66699 -25.9961 -8.66602 -41.9961 -11.999c-13.333 -3.33301 -29.833 -6 -49.5 -8s-41.5 -3 -65.5 -3c-28.667 0 -53.834 4.16699 -75.501 12.5s-39.834 19.5 -54.501 33.5s-25.834 30.5 -33.501 49.5s-11.834 39.167 -12.501 60.5
c-2 68.667 -2 138 0 208c0.666992 21.333 5 41.5 13 60.5s19.5 35.5 34.5 49.5s33.333 25.167 55 33.5s46.167 12.5 73.5 12.5c26.667 0 50.834 -4.16699 72.501 -12.5s40 -19.5 55 -33.5s26.5 -30.5 34.5 -49.5s12 -39.167 12 -60.5v-120h-300v-31v-27.5
c0 -9.66699 0.333008 -17.834 1 -24.501c0.666992 -15.333 3.66699 -30 9 -44s13 -26.5 23 -37.5s22.833 -19.667 38.5 -26s34.5 -9.5 56.5 -9.5c21.333 0 40.833 1 58.5 3s33.167 4.33301 46.5 7c15.333 2.66699 29.666 6 42.999 10zM113.004 349.001
c-0.666992 -4.66699 -1 -10.8311 -1 -18.498v-23.5v-29h250v28c0 7.33301 -0.166992 15 -0.5 23s-0.5 14.667 -0.5 20c-0.666992 15.333 -4 30.166 -10 44.499s-14.167 26.833 -24.5 37.5s-22.833 19.167 -37.5 25.5s-31 9.5 -49 9.5c-41.333 0 -72.5 -11.333 -93.5 -34
s-32.167 -50.334 -33.5 -83.001zM117.004 575.004l98 125h60l98 -125h-54l-74 77l-74 -77h-54z" />
    <glyph glyph-name="edieresis" unicode="&#xeb;" horiz-adv-x="462" 
d="M395 13c-12 -4.66699 -25.9961 -8.66602 -41.9961 -11.999c-13.333 -3.33301 -29.833 -6 -49.5 -8s-41.5 -3 -65.5 -3c-28.667 0 -53.834 4.16699 -75.501 12.5s-39.834 19.5 -54.501 33.5s-25.834 30.5 -33.501 49.5s-11.834 39.167 -12.501 60.5
c-2 68.667 -2 138 0 208c0.666992 21.333 5 41.5 13 60.5s19.5 35.5 34.5 49.5s33.333 25.167 55 33.5s46.167 12.5 73.5 12.5c26.667 0 50.834 -4.16699 72.501 -12.5s40 -19.5 55 -33.5s26.5 -30.5 34.5 -49.5s12 -39.167 12 -60.5v-120h-300v-31v-27.5
c0 -9.66699 0.333008 -17.834 1 -24.501c0.666992 -15.333 3.66699 -30 9 -44s13 -26.5 23 -37.5s22.833 -19.667 38.5 -26s34.5 -9.5 56.5 -9.5c21.333 0 40.833 1 58.5 3s33.167 4.33301 46.5 7c15.333 2.66699 29.666 6 42.999 10zM113.004 349.001
c-0.666992 -4.66699 -1 -10.8311 -1 -18.498v-23.5v-29h250v28c0 7.33301 -0.166992 15 -0.5 23s-0.5 14.667 -0.5 20c-0.666992 15.333 -4 30.166 -10 44.499s-14.167 26.833 -24.5 37.5s-22.833 19.167 -37.5 25.5s-31 9.5 -49 9.5c-41.333 0 -72.5 -11.333 -93.5 -34
s-32.167 -50.334 -33.5 -83.001zM127.004 670.004h61v-80h-61v80zM297.004 670.004h61v-80h-61v80z" />
    <glyph glyph-name="igrave" unicode="&#xec;" horiz-adv-x="195" 
d="M72 500h50v-500h-50v500zM71 575l-130 125h80l108 -125h-58z" />
    <glyph glyph-name="iacute" unicode="&#xed;" horiz-adv-x="195" 
d="M72 500h50v-500h-50v500zM61 575l108 125h80l-130 -125h-58z" />
    <glyph glyph-name="icircumflex" unicode="&#xee;" horiz-adv-x="195" 
d="M72 500h50v-500h-50v500zM-30 575l98 125h60l98 -125h-54l-74 77l-74 -77h-54z" />
    <glyph glyph-name="idieresis" unicode="&#xef;" horiz-adv-x="195" 
d="M72 500h50v-500h-50v500zM-18 670h61v-80h-61v80zM152 670h61v-80h-61v80z" />
    <glyph glyph-name="eth" unicode="&#xf0;" horiz-adv-x="508" 
d="M443 625l-56.999 -26.001c19.333 -32 32.833 -62.5 40.5 -91.5s12.167 -58.5 13.5 -88.5c1.33301 -44 2 -89.5 2 -136.5s-0.666992 -93.167 -2 -138.5c-0.666992 -21.333 -5.33398 -41.333 -14.001 -60s-21 -35 -37 -49s-35.333 -25 -58 -33s-48 -12 -76 -12
c-30.667 0 -57.5 4 -80.5 12s-42.333 19 -58 33s-27.667 30.333 -36 49s-12.833 38.667 -13.5 60c-0.666992 16.667 -1.16699 31.667 -1.5 45s-0.5 26.166 -0.5 38.499s0.166992 25 0.5 38s0.833008 28.167 1.5 45.5c0.666992 20.667 5.16699 40.334 13.5 59.001
s20.333 35 36 49s35 25.167 58 33.5s49.833 12.5 80.5 12.5c18.667 0 36 -1.83301 52 -5.5s30.333 -7.5 43 -11.5c14 -4.66699 27.333 -10 40 -16c0 6 -1 14.667 -3 26s-5 24 -9 38s-9.16699 28.333 -15.5 43s-13.5 28 -21.5 40l-85 -39v43l63 28
c-22 19.333 -44.5 33.333 -67.5 42s-44.833 13 -65.5 13c-3.33301 0 -6.5 -0.166992 -9.5 -0.5s-5.83301 -0.5 -8.5 -0.5h-8l-4 43c5.33301 0 10.333 0.333008 15 1c4 0 7.83301 0.166992 11.5 0.5s6.16699 0.5 7.5 0.5c36.667 0 69.167 -7.16699 97.5 -21.5
s53.5 -33.166 75.5 -56.499l80 36v-43zM390.001 147.999c2.66699 78.667 2.66895 157.665 0.00195312 236.998c-11.333 6.66699 -24 13 -38 19c-12 4.66699 -26.333 9 -43 13s-35 6 -55 6c-21.333 0 -40.333 -3 -57 -9s-30.834 -14.167 -42.501 -24.5
s-20.667 -22.333 -27 -36s-9.83301 -28.5 -10.5 -44.5s-1.16699 -30.5 -1.5 -43.5s-0.5 -25.5 -0.5 -37.5s0.166992 -24.5 0.5 -37.5s0.833008 -27.5 1.5 -43.5c1.33301 -32 14 -58.833 38 -80.5s57.333 -32.5 100 -32.5c21.333 0 40.166 3.33301 56.499 10
s30.333 15.334 42 26.001s20.5 22.834 26.5 36.501s9.33301 27.5 10 41.5z" />
    <glyph glyph-name="ntilde" unicode="&#xf1;" horiz-adv-x="520" 
d="M70 0v500h46l4 -48c17.333 10.667 35 20 53 28c15.333 7.33301 32.666 13.833 51.999 19.5s38.666 8.5 57.999 8.5c26.667 0 49.667 -4 69 -12s35.166 -19 47.499 -33s21.333 -30.333 27 -49s8.5 -38.667 8.5 -60v-354h-50v348c0 15.333 -1.83301 30 -5.5 44
s-9.66699 26.333 -18 37s-19.166 19.167 -32.499 25.5s-29.333 9.5 -48 9.5c-19.333 0 -38.666 -3.16699 -57.999 -9.5s-36.666 -13.166 -51.999 -20.499c-18 -8.66699 -35 -18.334 -51 -29.001v-405h-50zM114 583c0 8 1.83105 17.167 5.49805 27.5s9 20 16 29
s15.333 16.667 25 23s20.834 9.5 33.501 9.5c14 0 26.667 -2.5 38 -7.5s22 -10.5 32 -16.5s19.667 -11.5 29 -16.5s19 -7.5 29 -7.5c11.333 0 20.166 4.33301 26.499 13s10.166 18.667 11.499 30h45c0 -8 -1.83301 -17.167 -5.5 -27.5s-9 -20 -16 -29
s-15.333 -16.667 -25 -23s-20.834 -9.5 -33.501 -9.5c-14 0 -26.667 2.5 -38 7.5s-22.166 10.5 -32.499 16.5l-29.5 16.5c-9.33301 5 -18.666 7.5 -27.999 7.5c-11.333 0 -20.166 -4.33301 -26.499 -13s-10.166 -18.667 -11.499 -30h-45z" />
    <glyph glyph-name="ograve" unicode="&#xf2;" horiz-adv-x="493" 
d="M431 146c-0.666992 -22 -5.33203 -42.499 -13.999 -61.499s-20.667 -35.5 -36 -49.5s-34.333 -25 -57 -33s-48.334 -12 -77.001 -12c-30.667 0 -57.5 4.16699 -80.5 12.5s-42.167 19.5 -57.5 33.5s-26.833 30.5 -34.5 49.5s-11.834 39.167 -12.501 60.5
c-2 69.333 -2 138.666 0 207.999c0.666992 21.333 4.83398 41.5 12.501 60.5s19.167 35.5 34.5 49.5s34.5 25.167 57.5 33.5s49.833 12.5 80.5 12.5c28.667 0 54.167 -4.16699 76.5 -12.5s41.5 -19.5 57.5 -33.5s28.167 -30.5 36.5 -49.5s12.833 -39.167 13.5 -60.5
c2 -70 2 -139.333 0 -208zM380.002 350.001c-1.33301 33.333 -12.832 60.999 -34.499 82.999s-54.834 33 -99.501 33c-43.333 0 -76 -11.167 -98 -33.5s-33.667 -49.5 -35 -81.5c-1.33301 -32.667 -2 -66.167 -2 -100.5s0.666992 -68.166 2 -101.499
c1.33301 -32 13 -59.167 35 -81.5s55 -33.5 99 -33.5s76.833 11 98.5 33s33.167 49.333 34.5 82s2 66.167 2 100.5s-0.666992 67.833 -2 100.5zM226.003 575l-130 125h80l108 -125h-58z" />
    <glyph glyph-name="oacute" unicode="&#xf3;" horiz-adv-x="493" 
d="M431 146c-0.666992 -22 -5.33203 -42.499 -13.999 -61.499s-20.667 -35.5 -36 -49.5s-34.333 -25 -57 -33s-48.334 -12 -77.001 -12c-30.667 0 -57.5 4.16699 -80.5 12.5s-42.167 19.5 -57.5 33.5s-26.833 30.5 -34.5 49.5s-11.834 39.167 -12.501 60.5
c-2 69.333 -2 138.666 0 207.999c0.666992 21.333 4.83398 41.5 12.501 60.5s19.167 35.5 34.5 49.5s34.5 25.167 57.5 33.5s49.833 12.5 80.5 12.5c28.667 0 54.167 -4.16699 76.5 -12.5s41.5 -19.5 57.5 -33.5s28.167 -30.5 36.5 -49.5s12.833 -39.167 13.5 -60.5
c2 -70 2 -139.333 0 -208zM380.002 350.001c-1.33301 33.333 -12.832 60.999 -34.499 82.999s-54.834 33 -99.501 33c-43.333 0 -76 -11.167 -98 -33.5s-33.667 -49.5 -35 -81.5c-1.33301 -32.667 -2 -66.167 -2 -100.5s0.666992 -68.166 2 -101.499
c1.33301 -32 13 -59.167 35 -81.5s55 -33.5 99 -33.5s76.833 11 98.5 33s33.167 49.333 34.5 82s2 66.167 2 100.5s-0.666992 67.833 -2 100.5zM202.003 575l108 125h80l-130 -125h-58z" />
    <glyph glyph-name="ocircumflex" unicode="&#xf4;" horiz-adv-x="493" 
d="M431 146c-0.666992 -22 -5.33203 -42.499 -13.999 -61.499s-20.667 -35.5 -36 -49.5s-34.333 -25 -57 -33s-48.334 -12 -77.001 -12c-30.667 0 -57.5 4.16699 -80.5 12.5s-42.167 19.5 -57.5 33.5s-26.833 30.5 -34.5 49.5s-11.834 39.167 -12.501 60.5
c-2 69.333 -2 138.666 0 207.999c0.666992 21.333 4.83398 41.5 12.501 60.5s19.167 35.5 34.5 49.5s34.5 25.167 57.5 33.5s49.833 12.5 80.5 12.5c28.667 0 54.167 -4.16699 76.5 -12.5s41.5 -19.5 57.5 -33.5s28.167 -30.5 36.5 -49.5s12.833 -39.167 13.5 -60.5
c2 -70 2 -139.333 0 -208zM380.002 350.001c-1.33301 33.333 -12.832 60.999 -34.499 82.999s-54.834 33 -99.501 33c-43.333 0 -76 -11.167 -98 -33.5s-33.667 -49.5 -35 -81.5c-1.33301 -32.667 -2 -66.167 -2 -100.5s0.666992 -68.166 2 -101.499
c1.33301 -32 13 -59.167 35 -81.5s55 -33.5 99 -33.5s76.833 11 98.5 33s33.167 49.333 34.5 82s2 66.167 2 100.5s-0.666992 67.833 -2 100.5zM118.003 575l98 125h60l98 -125h-54l-74 77l-74 -77h-54z" />
    <glyph glyph-name="otilde" unicode="&#xf5;" horiz-adv-x="493" 
d="M431 146c-0.666992 -22 -5.33203 -42.499 -13.999 -61.499s-20.667 -35.5 -36 -49.5s-34.333 -25 -57 -33s-48.334 -12 -77.001 -12c-30.667 0 -57.5 4.16699 -80.5 12.5s-42.167 19.5 -57.5 33.5s-26.833 30.5 -34.5 49.5s-11.834 39.167 -12.501 60.5
c-2 69.333 -2 138.666 0 207.999c0.666992 21.333 4.83398 41.5 12.501 60.5s19.167 35.5 34.5 49.5s34.5 25.167 57.5 33.5s49.833 12.5 80.5 12.5c28.667 0 54.167 -4.16699 76.5 -12.5s41.5 -19.5 57.5 -33.5s28.167 -30.5 36.5 -49.5s12.833 -39.167 13.5 -60.5
c2 -70 2 -139.333 0 -208zM380.002 350.001c-1.33301 33.333 -12.832 60.999 -34.499 82.999s-54.834 33 -99.501 33c-43.333 0 -76 -11.167 -98 -33.5s-33.667 -49.5 -35 -81.5c-1.33301 -32.667 -2 -66.167 -2 -100.5s0.666992 -68.166 2 -101.499
c1.33301 -32 13 -59.167 35 -81.5s55 -33.5 99 -33.5s76.833 11 98.5 33s33.167 49.333 34.5 82s2 66.167 2 100.5s-0.666992 67.833 -2 100.5zM101.003 583c0 8 1.83105 17.167 5.49805 27.5s9 20 16 29s15.333 16.667 25 23s20.834 9.5 33.501 9.5
c14 0 26.667 -2.5 38 -7.5s22 -10.5 32 -16.5s19.667 -11.5 29 -16.5s19 -7.5 29 -7.5c11.333 0 20.166 4.33301 26.499 13s10.166 18.667 11.499 30h45c0 -8 -1.83301 -17.167 -5.5 -27.5s-9 -20 -16 -29s-15.333 -16.667 -25 -23s-20.834 -9.5 -33.501 -9.5
c-14 0 -26.667 2.5 -38 7.5s-22.166 10.5 -32.499 16.5l-29.5 16.5c-9.33301 5 -18.666 7.5 -27.999 7.5c-11.333 0 -20.166 -4.33301 -26.499 -13s-10.166 -18.667 -11.499 -30h-45z" />
    <glyph glyph-name="odieresis" unicode="&#xf6;" horiz-adv-x="493" 
d="M431 146c-0.666992 -22 -5.33203 -42.499 -13.999 -61.499s-20.667 -35.5 -36 -49.5s-34.333 -25 -57 -33s-48.334 -12 -77.001 -12c-30.667 0 -57.5 4.16699 -80.5 12.5s-42.167 19.5 -57.5 33.5s-26.833 30.5 -34.5 49.5s-11.834 39.167 -12.501 60.5
c-2 69.333 -2 138.666 0 207.999c0.666992 21.333 4.83398 41.5 12.501 60.5s19.167 35.5 34.5 49.5s34.5 25.167 57.5 33.5s49.833 12.5 80.5 12.5c28.667 0 54.167 -4.16699 76.5 -12.5s41.5 -19.5 57.5 -33.5s28.167 -30.5 36.5 -49.5s12.833 -39.167 13.5 -60.5
c2 -70 2 -139.333 0 -208zM380.002 350.001c-1.33301 33.333 -12.832 60.999 -34.499 82.999s-54.834 33 -99.501 33c-43.333 0 -76 -11.167 -98 -33.5s-33.667 -49.5 -35 -81.5c-1.33301 -32.667 -2 -66.167 -2 -100.5s0.666992 -68.166 2 -101.499
c1.33301 -32 13 -59.167 35 -81.5s55 -33.5 99 -33.5s76.833 11 98.5 33s33.167 49.333 34.5 82s2 66.167 2 100.5s-0.666992 67.833 -2 100.5zM131.003 670h61v-80h-61v80zM301.003 670h61v-80h-61v80z" />
    <glyph glyph-name="divide" unicode="&#xf7;" 
d="M246 152h75v-74h-75v74zM246 485h75v-73h-75v73zM499 306v-48h-429v48h429z" />
    <glyph glyph-name="oslash" unicode="&#xf8;" horiz-adv-x="493" 
d="M95 51c-20.667 26 -31.666 57.6689 -32.999 95.002c-2 69.333 -2 138.666 0 207.999c0.666992 21.333 4.83398 41.5 12.501 60.5s19.167 35.5 34.5 49.5s34.5 25.167 57.5 33.5s49.833 12.5 80.5 12.5c24.667 0 46.834 -3 66.501 -9s37.167 -14.667 52.5 -26l16 25h50
l-35 -54c21.333 -26.667 32.666 -57.334 33.999 -92.001c2 -70 2 -139.333 0 -208c-0.666992 -22 -5.33398 -42.5 -14.001 -61.5s-20.667 -35.5 -36 -49.5s-34.333 -25 -57 -33s-48.334 -12 -77.001 -12c-25.333 0 -48 2.83301 -68 8.5s-37.667 13.5 -53 23.5l-14 -22h-50z
M113.001 149.002c0 -9.33301 1.16602 -18.333 3.49902 -27s5.16602 -16.667 8.49902 -24l216 338c-11.333 9.33301 -24.666 16.666 -39.999 21.999s-33.666 8 -54.999 8c-43.333 0 -76 -11.167 -98 -33.5s-33.667 -49.5 -35 -81.5c-1.33301 -32.667 -2 -66.167 -2 -100.5
s0.666992 -68.166 2 -101.499zM380 350.002c-1.33301 18 -5.33301 35 -12 51l-216 -338c23.333 -19.333 55 -29 95 -29c44 0 76.833 11 98.5 33s33.167 49.333 34.5 82s2 66.167 2 100.5s-0.666992 67.833 -2 100.5z" />
    <glyph glyph-name="ugrave" unicode="&#xf9;" horiz-adv-x="500" 
d="M430 500l-0.000976562 -500h-46l-4 48c-17.333 -10.667 -35 -20 -53 -28c-15.333 -7.33301 -32.666 -13.833 -51.999 -19.5s-38.666 -8.5 -57.999 -8.5c-26.667 0 -49.667 4 -69 12s-35.166 19 -47.499 33s-21.333 30.333 -27 49s-8.5 38.667 -8.5 60v354h50v-348
c0 -15.333 1.83301 -30 5.5 -44s9.66699 -26.333 18 -37s19 -19.167 32 -25.5s29.167 -9.5 48.5 -9.5s38.666 3 57.999 9s36.666 12.667 51.999 20c17.333 8.66699 34.333 18.667 51 30v405h50zM238.999 575l-130 125h80l108 -125h-58z" />
    <glyph glyph-name="uacute" unicode="&#xfa;" horiz-adv-x="500" 
d="M430 500l-0.000976562 -500h-46l-4 48c-17.333 -10.667 -35 -20 -53 -28c-15.333 -7.33301 -32.666 -13.833 -51.999 -19.5s-38.666 -8.5 -57.999 -8.5c-26.667 0 -49.667 4 -69 12s-35.166 19 -47.499 33s-21.333 30.333 -27 49s-8.5 38.667 -8.5 60v354h50v-348
c0 -15.333 1.83301 -30 5.5 -44s9.66699 -26.333 18 -37s19 -19.167 32 -25.5s29.167 -9.5 48.5 -9.5s38.666 3 57.999 9s36.666 12.667 51.999 20c17.333 8.66699 34.333 18.667 51 30v405h50zM210.999 575l108 125h80l-130 -125h-58z" />
    <glyph glyph-name="ucircumflex" unicode="&#xfb;" horiz-adv-x="500" 
d="M430 500l-0.000976562 -500h-46l-4 48c-17.333 -10.667 -35 -20 -53 -28c-15.333 -7.33301 -32.666 -13.833 -51.999 -19.5s-38.666 -8.5 -57.999 -8.5c-26.667 0 -49.667 4 -69 12s-35.166 19 -47.499 33s-21.333 30.333 -27 49s-8.5 38.667 -8.5 60v354h50v-348
c0 -15.333 1.83301 -30 5.5 -44s9.66699 -26.333 18 -37s19 -19.167 32 -25.5s29.167 -9.5 48.5 -9.5s38.666 3 57.999 9s36.666 12.667 51.999 20c17.333 8.66699 34.333 18.667 51 30v405h50zM121.999 575l98 125h60l98 -125h-54l-74 77l-74 -77h-54z" />
    <glyph glyph-name="udieresis" unicode="&#xfc;" horiz-adv-x="500" 
d="M430 500l-0.000976562 -500h-46l-4 48c-17.333 -10.667 -35 -20 -53 -28c-15.333 -7.33301 -32.666 -13.833 -51.999 -19.5s-38.666 -8.5 -57.999 -8.5c-26.667 0 -49.667 4 -69 12s-35.166 19 -47.499 33s-21.333 30.333 -27 49s-8.5 38.667 -8.5 60v354h50v-348
c0 -15.333 1.83301 -30 5.5 -44s9.66699 -26.333 18 -37s19 -19.167 32 -25.5s29.167 -9.5 48.5 -9.5s38.666 3 57.999 9s36.666 12.667 51.999 20c17.333 8.66699 34.333 18.667 51 30v405h50zM133.999 670h61v-80h-61v80zM303.999 670h61v-80h-61v80z" />
    <glyph glyph-name="yacute" unicode="&#xfd;" horiz-adv-x="456" 
d="M15 500h54l152 -433h4l163 433h53l-260 -680h-52l76 194l-20 8zM200 575l108 125h80l-130 -125h-58z" />
    <glyph glyph-name="thorn" unicode="&#xfe;" horiz-adv-x="497" 
d="M70 700h50.001v-248c17.333 10.667 35 20.334 53 29.001c15.333 7.33301 32.666 14 51.999 20s38.666 9 57.999 9c26 0 48.5 -3.83301 67.5 -11.5s34.667 -18.334 47 -32.001s21.5 -29.667 27.5 -48s9.33301 -38.166 10 -59.499c2 -70 2 -139.667 0 -209
c-0.666992 -21.333 -4.5 -41.666 -11.5 -60.999s-17.5 -36.333 -31.5 -51s-32 -26.334 -54 -35.001s-48 -13 -78 -13c-18 0 -35.333 1.33301 -52 4s-31.667 5.66699 -45 9c-15.333 3.33301 -29.666 7.66602 -42.999 12.999v-196h-50v880zM384.001 155
c2 66.667 2.00098 132.669 0.000976562 198.002c-0.666992 15.333 -2.83398 29.833 -6.50098 43.5s-9.5 25.667 -17.5 36s-18.5 18.5 -31.5 24.5s-28.833 9 -47.5 9c-20 0 -39.667 -3.33301 -59 -10s-36.666 -13.667 -51.999 -21c-17.333 -8.66699 -34 -18.667 -50 -30v-342
c10 -6 22 -11 36 -15c12 -3.33301 26.667 -6.5 44 -9.5s37.333 -4.5 60 -4.5c21.333 0 39.666 3.5 54.999 10.5s28 16.167 38 27.5s17.5 24.166 22.5 38.499s7.83301 29.166 8.5 44.499z" />
    <glyph glyph-name="ydieresis" unicode="&#xff;" horiz-adv-x="456" 
d="M15 500h54l152 -433h4l163 433h53l-260 -680h-52l76 194l-20 8zM110 670h61v-80h-61v80zM280 670h61v-80h-61v80z" />
    <glyph glyph-name="OE" unicode="&#x152;" horiz-adv-x="899" 
d="M839 651h-333.002v-263h300v-48h-300v-291h343v-49h-531c-37.333 -0 -71.166 5.33301 -101.499 16s-56.5 25.5 -78.5 44.5s-39.167 41.5 -51.5 67.5s-18.833 54 -19.5 84c-2 91.333 -2 183.333 0 276c0.666992 30 7.16699 57.833 19.5 83.5s29.5 48 51.5 67
s48.333 34 79 45s64.334 16.5 101.001 16.5h521v-49zM317.998 651c-30 0 -56.832 -4.16699 -80.499 -12.5s-43.834 -19.833 -60.501 -34.5s-29.334 -32 -38.001 -52s-13.334 -41.333 -14.001 -64c-2 -92 -2 -184 0 -276c0.666992 -22.667 5.33398 -44 14.001 -64
s21.167 -37.333 37.5 -52s36.333 -26.167 60 -34.5s50.834 -12.5 81.501 -12.5h131v602h-131z" />
    <glyph glyph-name="oe" unicode="&#x153;" horiz-adv-x="772" 
d="M705 13c-12 -4.66699 -25.6641 -8.66504 -40.9971 -11.998c-13.333 -3.33301 -29.5 -6 -48.5 -8s-40.5 -3 -64.5 -3c-38 0 -69.333 6.66699 -94 20s-43.667 31 -57 53c-14.667 -22 -35 -39.667 -61 -53s-57.667 -20 -95 -20c-30.667 0 -57.334 4.16699 -80.001 12.5
s-41.5 19.5 -56.5 33.5s-26.167 30.5 -33.5 49.5s-11.333 39.167 -12 60.5c-2 69.333 -2 138.666 0 207.999c0.666992 21.333 4.66699 41.5 12 60.5s18.5 35.5 33.5 49.5s33.833 25.167 56.5 33.5s49.334 12.5 80.001 12.5c37.333 0 69.166 -7 95.499 -21
s46.833 -32.333 61.5 -55c13.333 22.667 32.666 41 57.999 55s56 21 92 21c26.667 0 50.667 -4.16699 72 -12.5s39.333 -19.5 54 -33.5s25.834 -30.5 33.501 -49.5s11.5 -39.167 11.5 -60.5v-120h-294v-31v-27.5c0 -9.66699 0.333008 -17.834 1 -24.501
c0.666992 -15.333 3.5 -30 8.5 -44s12.333 -26.5 22 -37.5s22.167 -19.667 37.5 -26s34 -9.5 56 -9.5c21.333 0 40.666 1 57.999 3s32.666 4.33301 45.999 7c15.333 2.66699 29 6 41 10zM374.003 350.002c-1.33301 33.333 -12.332 60.999 -32.999 82.999
s-53.334 33 -98.001 33c-43.333 0 -75.5 -11.167 -96.5 -33.5s-32.167 -49.5 -33.5 -81.5c-1.33301 -32.667 -2 -66.167 -2 -100.5s0.666992 -68.166 2 -101.499c1.33301 -32 12.5 -59.167 33.5 -81.5s53.5 -33.5 97.5 -33.5s76.333 11 97 33s31.667 49.333 33 82
s2 66.167 2 100.5s-0.666992 67.833 -2 100.5zM429.004 349.001c-0.666992 -4.66699 -0.999023 -10.8311 -0.999023 -18.498v-23.5v-29h244v28c0 7.33301 -0.166992 15 -0.5 23s-0.5 14.667 -0.5 20c-0.666992 15.333 -3.83398 30.166 -9.50098 44.499
s-13.5 26.833 -23.5 37.5s-22.167 19.167 -36.5 25.5s-30.5 9.5 -48.5 9.5c-41.333 0 -72 -11.333 -92 -34s-30.667 -50.334 -32 -83.001z" />
    <glyph glyph-name="Scaron" unicode="&#x160;" horiz-adv-x="549" 
d="M449 642c-18.667 3.33301 -38.332 6.33398 -58.999 9.00098c-17.333 2.66699 -36.666 5 -57.999 7s-42.333 3 -63 3c-24.667 0 -47.167 -2.33301 -67.5 -7s-38 -12.167 -53 -22.5s-26.667 -23.666 -35 -39.999s-12.5 -36.5 -12.5 -60.5
c0 -27.333 5.83301 -49.5 17.5 -66.5s26.834 -31 45.501 -42s40.167 -20 64.5 -27l74 -21c25 -7 49.667 -14.833 74 -23.5s45.833 -20.334 64.5 -35.001s33.834 -33 45.501 -55s17.5 -50 17.5 -84c0 -60 -19.5 -106.167 -58.5 -138.5s-102.833 -48.5 -191.5 -48.5
c-30.667 0 -58 1 -82 3s-44.667 4.33301 -62 7c-20 2.66699 -37.667 6.33398 -53 11.001l3 49c16.667 -4.66699 35 -8.33398 55 -11.001c17.333 -2.66699 37.166 -5 59.499 -7s46.166 -3 71.499 -3c73.333 0 125 10.5 155 31.5s45 55.167 45 102.5
c0 27.333 -5.66699 49.666 -17 66.999s-26.5 31.833 -45.5 43.5s-40.5 21.167 -64.5 28.5l-73.5 21.5c-25 7 -49.5 14.833 -73.5 23.5s-45.5 20.167 -64.5 34.5s-34.167 32.333 -45.5 54s-17 49.167 -17 82.5c0 32 5.5 59.333 16.5 82s26.5 41.5 46.5 56.5s43.667 26 71 33
s57.333 10.5 90 10.5c25.333 0 49.166 -1 71.499 -3s42.166 -4.33301 59.499 -7c20 -2.66699 38.333 -5.66699 55 -9zM402.002 900.001l-98 -125h-60l-98 125h54l74 -77l74 77h54z" />
    <glyph glyph-name="scaron" unicode="&#x161;" horiz-adv-x="423" 
d="M333 451c-12.667 2 -26.002 4.33203 -40.002 6.99902c-12 2 -25.667 3.83301 -41 5.5s-30.666 2.5 -45.999 2.5c-32 0 -58.5 -6.66699 -79.5 -20s-31.5 -36 -31.5 -68c0 -23.333 6.83301 -41.333 20.5 -54s30.834 -22.834 51.501 -30.501s43 -14.5 67 -20.5
s46.333 -14.167 67 -24.5s37.834 -24.5 51.501 -42.5s20.5 -42.667 20.5 -74c0 -46 -13.333 -81.167 -40 -105.5s-72.334 -36.5 -137.001 -36.5c-19.333 0 -37.833 1 -55.5 3s-33.167 4.33301 -46.5 7c-16 2.66699 -30.333 6.33398 -43 11.001l7 44
c13.333 -4.66699 27.666 -8.33398 42.999 -11.001c12.667 -2.66699 27 -5 43 -7s31.667 -3 47 -3c25.333 0 46.333 1.83301 63 5.5s30 9.33398 40 17.001s17 17.334 21 29.001s6 25.5 6 41.5c0 24.667 -6.83301 43.5 -20.5 56.5s-30.667 23.333 -51 31
s-42.5 14.5 -66.5 20.5s-46.167 14.167 -66.5 24.5s-37.333 24.333 -51 42s-20.5 42.5 -20.5 74.5c0 47.333 14.833 81.5 44.5 102.5s68.5 31.5 116.5 31.5c17.333 0 34 -0.833008 50 -2.5s30.333 -3.5 43 -5.5c14.667 -2.66699 28.334 -5 41.001 -7zM338.998 699.999
l-98 -125h-60l-98 125h54l74 -77l74 77h54z" />
    <glyph glyph-name="Ydieresis" unicode="&#x178;" horiz-adv-x="555" 
d="M275 335h4l195 365h66l-234 -422v-278h-57v278l-234 422h66zM162 870h61v-80h-61v80zM332 870h61v-80h-61v80z" />
    <glyph glyph-name="Zcaron" unicode="&#x17d;" horiz-adv-x="562" 
d="M111 53v-4h401v-49h-462v57l391 590v4h-379v49h443v-57zM409 900l-98 -125h-60l-98 125h54l74 -77l74 77h54z" />
    <glyph glyph-name="zcaron" unicode="&#x17e;" horiz-adv-x="409" 
d="M97 48v-4h272v-44h-329v52l269 400v4h-258v44h314v-52zM332 700l-98 -125h-60l-98 125h54l74 -77l74 77h54z" />
    <glyph glyph-name="florin" unicode="&#x192;" horiz-adv-x="407" 
d="M148 -65c-3.33301 -34 -16.334 -63.167 -39.001 -87.5s-53.667 -36.5 -93 -36.5c-16 0 -29 1 -39 3c-6 0.666992 -11.667 1.66699 -17 3l6 42c4.66699 -0.666992 10 -1.33398 16 -2.00098c5.33301 -0.666992 10.833 -1.16699 16.5 -1.5s11.834 -0.5 18.501 -0.5
c22.667 0 41 6.66699 55 20s22.667 37 26 71l46 430h-81l5 44h80l17 157c4 39.333 18.5 71.333 43.5 96s58.833 37 101.5 37c6.66699 0 14 -0.333008 22 -1s15.333 -1.66699 22 -3c7.33301 -1.33301 15 -2.33301 23 -3l-8 -42c-7.33301 0.666992 -14.666 1.66699 -21.999 3
c-6.66699 0.666992 -14 1.33398 -22 2.00098s-16 1 -24 1c-22.667 0 -41.834 -7 -57.501 -21s-25.167 -38 -28.5 -72l-15 -154h144l-5 -44h-144z" />
    <glyph glyph-name="circumflex" unicode="&#x2c6;" horiz-adv-x="256" 
d="M0 575l98 125h60l98 -125h-54l-74 77l-74 -77h-54z" />
    <glyph glyph-name="tilde" unicode="&#x2dc;" horiz-adv-x="291" 
d="M0 583c0 8 1.83105 17.167 5.49805 27.5s9 20 16 29s15.333 16.667 25 23s20.834 9.5 33.501 9.5c14 0 26.667 -2.5 38 -7.5s22 -10.5 32 -16.5s19.667 -11.5 29 -16.5s19 -7.5 29 -7.5c11.333 0 20.166 4.33301 26.499 13s10.166 18.667 11.499 30h45
c0 -8 -1.83301 -17.167 -5.5 -27.5s-9 -20 -16 -29s-15.333 -16.667 -25 -23s-20.834 -9.5 -33.501 -9.5c-14 0 -26.667 2.5 -38 7.5s-22.166 10.5 -32.499 16.5l-29.5 16.5c-9.33301 5 -18.666 7.5 -27.999 7.5c-11.333 0 -20.166 -4.33301 -26.499 -13
s-10.166 -18.667 -11.499 -30h-45z" />
    <glyph glyph-name="endash" unicode="&#x2013;" horiz-adv-x="368" 
d="M368 271h-368v48h368v-48z" />
    <glyph glyph-name="emdash" unicode="&#x2014;" horiz-adv-x="735" 
d="M735 271h-735v48h735v-48z" />
    <glyph glyph-name="quoteleft" unicode="&#x2018;" horiz-adv-x="135" 
d="M83 537l-63 -0.00292969v68c0 20.667 2.5 37.834 7.5 51.501s11 24.5 18 32.5s14.5 13.5 22.5 16.5s15 4.5 21 4.5v-27c-11.333 0 -19.833 -5.66699 -25.5 -17s-8.5 -23.666 -8.5 -36.999v-9c0 -1.33301 0.333008 -2.66602 1 -3.99902h27v-79z" />
    <glyph glyph-name="quoteright" unicode="&#x2019;" horiz-adv-x="135" 
d="M51 700l63 0.00195312v-68c0 -20.667 -2.5 -37.834 -7.5 -51.501s-11 -24.5 -18 -32.5s-14.5 -13.5 -22.5 -16.5s-15 -4.5 -21 -4.5v27c11.333 0 19.833 5.66699 25.5 17s8.5 23.666 8.5 36.999c0 1.33301 -0.166992 2.83301 -0.5 4.5s-0.5 3.16699 -0.5 4.5v4h-27v79z
" />
    <glyph glyph-name="quotesinglbase" unicode="&#x201a;" horiz-adv-x="180" 
d="M51 79l63 0.00195312v-68c0 -20.667 -2.5 -37.834 -7.5 -51.501s-11 -24.5 -18 -32.5s-14.5 -13.5 -22.5 -16.5s-15 -4.5 -21 -4.5v27c11.333 0 19.833 5.66699 25.5 17s8.5 23.666 8.5 36.999c0 1.33301 -0.166992 2.83301 -0.5 4.5s-0.5 3.16699 -0.5 4.5v4h-27v79z
" />
    <glyph glyph-name="quotedblleft" unicode="&#x201c;" horiz-adv-x="250" 
d="M199 537l-63 -0.00292969v68c0 20.667 2.5 37.834 7.5 51.501s11 24.5 18 32.5s14.5 13.5 22.5 16.5s15 4.5 21 4.5v-27c-11.333 0 -19.833 -5.66699 -25.5 -17s-8.5 -23.666 -8.5 -36.999v-9c0 -1.33301 0.333008 -2.66602 1 -3.99902h27v-79zM83 536.997
l-63 -0.00292969v68c0 20.667 2.5 37.834 7.5 51.501s11 24.5 18 32.5s14.5 13.5 22.5 16.5s15 4.5 21 4.5v-27c-11.333 0 -19.833 -5.66699 -25.5 -17s-8.5 -23.666 -8.5 -36.999v-9c0 -1.33301 0.333008 -2.66602 1 -3.99902h27v-79z" />
    <glyph glyph-name="quotedblright" unicode="&#x201d;" horiz-adv-x="250" 
d="M51 700l63 0.00195312v-68c0 -20.667 -2.5 -37.834 -7.5 -51.501s-11 -24.5 -18 -32.5s-14.5 -13.5 -22.5 -16.5s-15 -4.5 -21 -4.5v27c11.333 0 19.833 5.66699 25.5 17s8.5 23.666 8.5 36.999c0 1.33301 -0.166992 2.83301 -0.5 4.5s-0.5 3.16699 -0.5 4.5v4h-27v79z
M167 700.002l63 0.00195312v-68c0 -20.667 -2.5 -37.834 -7.5 -51.501s-11 -24.5 -18 -32.5s-14.5 -13.5 -22.5 -16.5s-15 -4.5 -21 -4.5v27c11.333 0 19.833 5.66699 25.5 17s8.5 23.666 8.5 36.999c0 1.33301 -0.166992 2.83301 -0.5 4.5s-0.5 3.16699 -0.5 4.5v4h-27v79z
" />
    <glyph glyph-name="quotedblbase" unicode="&#x201e;" horiz-adv-x="295" 
d="M51 79l63 0.00195312v-68c0 -20.667 -2.5 -37.834 -7.5 -51.501s-11 -24.5 -18 -32.5s-14.5 -13.5 -22.5 -16.5s-15 -4.5 -21 -4.5v27c11.333 0 19.833 5.66699 25.5 17s8.5 23.666 8.5 36.999c0 1.33301 -0.166992 2.83301 -0.5 4.5s-0.5 3.16699 -0.5 4.5v4h-27v79z
M167 79.002l63 0.00195312v-68c0 -20.667 -2.5 -37.834 -7.5 -51.501s-11 -24.5 -18 -32.5s-14.5 -13.5 -22.5 -16.5s-15 -4.5 -21 -4.5v27c11.333 0 19.833 5.66699 25.5 17s8.5 23.666 8.5 36.999c0 1.33301 -0.166992 2.83301 -0.5 4.5s-0.5 3.16699 -0.5 4.5v4h-27v79z
" />
    <glyph glyph-name="dagger" unicode="&#x2020;" horiz-adv-x="531" 
d="M291 -180h-51v623h-180v44h180v213h51v-213h180v-44h-180v-623z" />
    <glyph glyph-name="daggerdbl" unicode="&#x2021;" horiz-adv-x="532" 
d="M472 33h-180v-213h-51v213h-181v44h181v366h-181v44h181v213h51v-213h180v-44h-180v-366h180v-44z" />
    <glyph glyph-name="bullet" unicode="&#x2022;" horiz-adv-x="425" 
d="M75 360c0 18.667 3.5 36.5 10.5 53.5s16.667 31.667 29 44s26.833 22.166 43.5 29.499s34.667 11 54 11c18.667 0 36.5 -3.66699 53.5 -11s31.667 -17.166 44 -29.499s22.166 -27 29.499 -44s11 -34.833 11 -53.5c0 -19.333 -3.66699 -37.333 -11 -54
s-17.166 -31.334 -29.499 -44.001s-27 -22.5 -44 -29.5s-34.833 -10.5 -53.5 -10.5c-19.333 0 -37.333 3.5 -54 10.5s-31.167 16.833 -43.5 29.5s-22 27.334 -29 44.001s-10.5 34.667 -10.5 54z" />
    <glyph glyph-name="ellipsis" unicode="&#x2026;" horiz-adv-x="663" 
d="M80 79h61v-79h-61v79zM301 79h61v-79h-61v79zM522 79h61v-79h-61v79z" />
    <glyph glyph-name="perthousand" unicode="&#x2030;" horiz-adv-x="1182" 
d="M369 480c0 -20 -3.83301 -38.333 -11.5 -55s-18 -30.834 -31 -42.501s-28.333 -20.667 -46 -27s-36.5 -9.5 -56.5 -9.5s-38.667 3.33301 -56 10s-32.5 15.834 -45.5 27.501s-23.333 25.667 -31 42s-11.5 34.5 -11.5 54.5v94c0 20 3.83301 38.333 11.5 55
s18 30.834 31 42.501s28.167 20.667 45.5 27s36 9.5 56 9.5s38.833 -3.16699 56.5 -9.5s33 -15.333 46 -27s23.333 -25.834 31 -42.501s11.5 -35 11.5 -55v-94zM319 578c0 30 -8.83301 52.332 -26.5 66.999s-40.5 22 -68.5 22c-28.667 0 -51.667 -7.33301 -69 -22
s-26 -37 -26 -67v-102c0 -29.333 8.66699 -51.333 26 -66s40.333 -22 69 -22c28 0 50.833 7.33301 68.5 22s26.5 36.334 26.5 65.001v103zM552 699.999h50l-316 -700h-49zM759 123.999c0 -20 -3.83301 -38.333 -11.5 -55s-18 -30.834 -31 -42.501s-28.333 -20.667 -46 -27
s-36.5 -9.5 -56.5 -9.5s-38.833 3.33301 -56.5 10s-33 15.834 -46 27.501s-23.167 25.667 -30.5 42s-11 34.5 -11 54.5v94c0 20 3.66699 38.333 11 55s17.5 30.834 30.5 42.501s28.333 20.667 46 27s36.5 9.5 56.5 9.5s38.833 -3.16699 56.5 -9.5s33 -15.333 46 -27
s23.333 -25.834 31 -42.501s11.5 -35 11.5 -55v-94zM709 221.999c0 30 -8.83301 52.332 -26.5 66.999s-40.5 22 -68.5 22c-28.667 0 -51.667 -7.33301 -69 -22s-26 -37 -26 -67v-102c0 -29.333 8.66699 -51.333 26 -66s40.333 -22 69 -22c28 0 50.833 7.33301 68.5 22
s26.5 36.334 26.5 65.001v103zM1102 123.998c0 -20 -3.83301 -38.333 -11.5 -55s-18 -30.834 -31 -42.501s-28.333 -20.667 -46 -27s-36.5 -9.5 -56.5 -9.5s-38.833 3.33301 -56.5 10s-33 15.834 -46 27.501s-23.167 25.667 -30.5 42s-11 34.5 -11 54.5v94
c0 20 3.66699 38.333 11 55s17.5 30.834 30.5 42.501s28.333 20.667 46 27s36.5 9.5 56.5 9.5s38.833 -3.16699 56.5 -9.5s33 -15.333 46 -27s23.333 -25.834 31 -42.501s11.5 -35 11.5 -55v-94zM1052 221.998c0 30 -8.83301 52.332 -26.5 66.999s-40.5 22 -68.5 22
c-28.667 0 -51.667 -7.33301 -69 -22s-26 -37 -26 -67v-102c0 -29.333 8.66699 -51.333 26 -66s40.333 -22 69 -22c28 0 50.833 7.33301 68.5 22s26.5 36.334 26.5 65.001v103z" />
    <glyph glyph-name="guilsinglleft" unicode="&#x2039;" horiz-adv-x="315" 
d="M185 137l-120 154l120 153h60l-120 -153l120 -154h-60z" />
    <glyph glyph-name="guilsinglright" unicode="&#x203a;" horiz-adv-x="315" 
d="M70 137l120 154l-120 153h60l120 -153l-120 -154h-60z" />
    <glyph glyph-name="Euro" unicode="&#x20ac;" horiz-adv-x="545" 
d="M385 258l-220.002 0.00195312c0 -5.33301 0.166992 -13 0.5 -23s0.5 -17.667 0.5 -23c0.666992 -22.667 5.16699 -44.334 13.5 -65.001s20.5 -39 36.5 -55s35.833 -28.667 59.5 -38s50.834 -14 81.501 -14c16 0 31.667 0.666992 47 2s28.666 3 39.999 5
c13.333 2 26 4.33301 38 7l3 -49l-41 -8c-12 -2 -25.667 -3.66699 -41 -5s-30.666 -2 -45.999 -2c-37.333 0 -71.166 6 -101.499 18s-56.5 28 -78.5 48s-39.167 43.5 -51.5 70.5s-18.833 55.5 -19.5 85.5c0 5.33301 -0.166992 13 -0.5 23s-0.5 17.667 -0.5 23h-65v45h64v89
h-64v45h65v25.5c0 11 0.333008 19.5 1 25.5c0.666992 30 7.16699 58.5 19.5 85.5s29.5 50.5 51.5 70.5s48.333 36 79 48s64.334 18 101.001 18c14 0 28.167 -0.833008 42.5 -2.5l39.5 -4.5c13.333 -2.66699 26.666 -5 39.999 -7l-3 -50c-12.667 2 -25.667 4.33301 -39 7
l-38.5 4.5c-14.333 1.66699 -28.166 2.5 -41.499 2.5c-30 0 -56.833 -4.66699 -80.5 -14s-43.5 -22 -59.5 -38s-28.333 -34.333 -37 -55s-13.334 -42.334 -14.001 -65.001c-0.666992 -6 -1 -14.5 -1 -25.5v-25.5h245v-45h-246v-89h221v-45z" />
    <glyph glyph-name="trademark" unicode="&#x2122;" horiz-adv-x="679" 
d="M60 700h209v-39h-84v-282h-41v282h-84v39zM599 379h-41v253l-74 -118h-41l-71 118v-253h-42v321h49l85 -146l86 146h49v-321z" />
    <glyph glyph-name=".null" horiz-adv-x="0" 
 />
    </font>
</defs>
</svg>
