<?xml version="1.0" standalone="no"?>
<!DOCTYPE svg PUBLIC "-//W3C//DTD SVG 1.1//EN" "http://www.w3.org/Graphics/SVG/1.1/DTD/svg11.dtd" >
<svg>
<metadata>
Created by FontForge 20090914 at Wed Jun  7 04:43:46 2017
 By www-data
Copyright (c) 2008 by Ramiz Guseynov. All rights reserved.
</metadata>
<defs>
<font id="DecimaNovaW01-Regular" horiz-adv-x="643" >
  <font-face 
    font-family="DecimaNovaW01-Regular"
    font-weight="400"
    font-stretch="normal"
    units-per-em="1000"
    panose-1="2 0 5 6 0 0 0 2 0 4"
    ascent="750"
    descent="-250"
    x-height="500"
    cap-height="700"
    bbox="-65 -210 1165 918"
    underline-thickness="50"
    underline-position="-100"
    unicode-range="U+0002-U+2122"
  />
<missing-glyph horiz-adv-x="220" 
 />
    <glyph glyph-name=".notdef" horiz-adv-x="220" 
 />
    <glyph glyph-name="uni0002" horiz-adv-x="0" 
 />
    <glyph glyph-name="uni0009" unicode="&#x9;" horiz-adv-x="220" 
 />
    <glyph glyph-name="uni000A" unicode="&#xa;" horiz-adv-x="0" 
 />
    <glyph glyph-name="uni000D" unicode="&#xd;" horiz-adv-x="220" 
 />
    <glyph glyph-name="space" unicode=" " horiz-adv-x="220" 
 />
    <glyph glyph-name="exclam" unicode="!" horiz-adv-x="266" 
d="M92 98h82v-98h-82v98zM169 188h-72l-7 512h86z" />
    <glyph glyph-name="quotedbl" unicode="&#x22;" horiz-adv-x="334" 
d="M60 700h71l-10 -225h-61v225zM203 700h71l-10 -225h-61v225z" />
    <glyph glyph-name="numbersign" unicode="#" horiz-adv-x="682" 
d="M96 500h107l29 200h70l-29 -200h179l29 200h70l-29 -200h95v-75h-106l-21 -150h96v-75h-107l-29 -200h-70l29 200h-179l-29 -200h-70l29 200h-95v75h106l21 150h-96v75zM241 275h179l21 150h-179z" />
    <glyph glyph-name="dollar" unicode="$" horiz-adv-x="572" 
d="M238 4c-23.333 1.33301 -44.8311 3.16699 -64.498 5.5s-36.834 5.16602 -51.501 8.49902c-17.333 3.33301 -32.666 7 -45.999 11l3 71c17.333 -4 36 -7.33301 56 -10c17.333 -2.66699 36.833 -5 58.5 -7s44.167 -3 67.5 -3c32 0 58.5 2 79.5 6s37.833 10.333 50.5 19
s21.5 19.667 26.5 33s7.5 29.666 7.5 48.999c0 23.333 -5.16699 42.5 -15.5 57.5s-24 27.333 -41 37s-36.167 17.667 -57.5 24l-66 19c-22.667 6.33301 -44.667 13.833 -66 22.5s-40.5 20 -57.5 34s-30.667 31.667 -41 53s-15.5 48 -15.5 80c0 56 15.5 98.5 46.5 127.5
s73.167 46.5 126.5 52.5v54h79v-53c26 -1.33301 47.833 -3.16602 65.5 -5.49902s32.167 -4.83301 43.5 -7.5c12.667 -2.66699 23 -6 31 -10l-4 -70c-16.667 3.33301 -34.334 6.33301 -53.001 9c-16 2 -34.333 4 -55 6s-41.667 3 -63 3
c-40.667 0 -73.334 -7.66699 -98.001 -23s-37 -42 -37 -80c0 -22.667 5.16699 -41.167 15.5 -55.5s24 -26.166 41 -35.499s36.167 -17 57.5 -23l66 -18.5c22.667 -6.33301 44.667 -13.666 66 -21.999s40.5 -19.5 57.5 -33.5s30.667 -31.667 41 -53s15.5 -48.333 15.5 -81
c0 -54.667 -14.333 -98.334 -43 -131.001s-77.667 -52 -147 -58v-54h-79v52z" />
    <glyph glyph-name="percent" unicode="%" horiz-adv-x="886" 
d="M380 480c0 -21.333 -3.83301 -40.666 -11.5 -57.999s-18.334 -32 -32.001 -44s-29.334 -21.333 -47.001 -28s-36.5 -10 -56.5 -10h-7c-20 0 -38.833 3.33301 -56.5 10s-33.167 16.167 -46.5 28.5s-23.833 27.166 -31.5 44.499s-11.5 36.333 -11.5 57v90
c0 20.667 3.83301 39.667 11.5 57s18.167 32.166 31.5 44.499s28.833 21.833 46.5 28.5s36.5 10 56.5 10h7c20 0 38.833 -3.33301 56.5 -10s33.334 -16.167 47.001 -28.5s24.334 -27.166 32.001 -44.499s11.5 -36.333 11.5 -57v-90zM307 578
c0 23.333 -7.33203 41 -21.999 53s-33.667 18 -57 18c-22 0 -40.167 -6 -54.5 -18s-21.5 -29.667 -21.5 -53v-106c0 -23.333 7.16699 -41 21.5 -53s33.166 -18 56.499 -18c22 0 40.333 5.83301 55 17.5s22 29.167 22 52.5v107zM565.001 700h74l-317 -700h-76zM806.001 129
c0 -21.333 -3.83301 -40.666 -11.5 -57.999s-18.334 -32 -32.001 -44s-29.334 -21.333 -47.001 -28s-36.5 -10 -56.5 -10h-7c-20 0 -38.833 3.33301 -56.5 10s-33.167 16.167 -46.5 28.5s-23.833 27.166 -31.5 44.499s-11.5 36.333 -11.5 57v90
c0 20.667 3.83301 39.667 11.5 57s18.167 32.166 31.5 44.499s28.833 21.833 46.5 28.5s36.5 10 56.5 10h7c20 0 38.833 -3.33301 56.5 -10s33.334 -16.167 47.001 -28.5s24.334 -27.166 32.001 -44.499s11.5 -36.333 11.5 -57v-90zM733.001 227
c0 23.333 -7.33203 41 -21.999 53s-33.667 18 -57 18c-22 0 -40.167 -6 -54.5 -18s-21.5 -29.667 -21.5 -53v-106c0 -23.333 7.16699 -41 21.5 -53s33.166 -18 56.499 -18c22 0 40.333 5.83301 55 17.5s22 29.167 22 52.5v107z" />
    <glyph glyph-name="ampersand" unicode="&#x26;" horiz-adv-x="579" 
d="M447 324h76.998v-99c0 -33.333 -3.83301 -62.333 -11.5 -87s-18.167 -45.667 -31.5 -63l41 -75h-85l-13 23c-21.333 -12 -43.666 -20.5 -66.999 -25.5s-45.333 -7.5 -66 -7.5c-24 0 -49.333 3.33301 -76 10s-51.167 18.834 -73.5 36.501s-40.666 41.667 -54.999 72
s-21.5 69.166 -21.5 116.499c0 59.333 13 105.333 39 138s59.667 54.667 101 66l-99 183v88h380v-77h-297v-6l249 -462c6 20.667 9 44.667 9 72v97zM294.998 66c38.667 0 69.999 7.33398 93.999 22.001l-149 275c-13.333 -2 -25.5 -5.5 -36.5 -10.5s-20.5 -12.667 -28.5 -23
s-14.167 -23.833 -18.5 -40.5s-6.5 -37.334 -6.5 -62.001c0 -23.333 2 -44.833 6 -64.5s11.333 -36.667 22 -51s25.334 -25.5 44.001 -33.5s43 -12 73 -12z" />
    <glyph glyph-name="quotesingle" unicode="'" horiz-adv-x="191" 
d="M60 700h71l-10 -225h-61v225z" />
    <glyph glyph-name="parenleft" unicode="(" horiz-adv-x="327" 
d="M282 -190c-27.333 0 -53 4.83105 -77 14.498s-44.833 22.834 -62.5 39.501s-31.667 36.334 -42 59.001s-15.5 46.667 -15.5 72v532c0 25.333 5.16699 49.166 15.5 71.499s24.333 41.833 42 58.5s38.5 29.834 62.5 39.501s49.667 14.5 77 14.5v-81
c-33.333 0 -60.666 -9.83301 -81.999 -29.5s-32 -44.5 -32 -74.5v-532c0 -30 10.667 -55 32 -75s48.666 -30 81.999 -30v-79z" />
    <glyph glyph-name="parenright" unicode=")" horiz-adv-x="328" 
d="M45 -111c33.333 0 60.5 10.002 81.5 30.002s31.5 45 31.5 75v532c0 30 -10.5 54.833 -31.5 74.5s-48.167 29.5 -81.5 29.5v81c27.333 0 53 -4.83301 77 -14.5s45 -22.834 63 -39.501s32.167 -36.167 42.5 -58.5s15.5 -46.166 15.5 -71.499v-532
c0 -25.333 -5.16699 -49.333 -15.5 -72s-24.5 -42.334 -42.5 -59.001s-39 -29.834 -63 -39.501s-49.667 -14.5 -77 -14.5v79z" />
    <glyph glyph-name="asterisk" unicode="*" horiz-adv-x="450" 
d="M261 575l119 39l20 -67l-118 -38l74 -101l-57 -40l-72 99l-73 -102l-56 42l73 99l-121 40l22 66l120 -39v127h69v-125z" />
    <glyph glyph-name="plus" unicode="+" horiz-adv-x="582" 
d="M330 508v-178h182v-75h-182v-179h-78v179h-182v75h182v178h78z" />
    <glyph glyph-name="comma" unicode="," horiz-adv-x="243" 
d="M78 98l85.002 -0.000976562v-90c0 -26 -3.33301 -47.167 -10 -63.5s-14.834 -29 -24.501 -38s-20 -15.167 -31 -18.5s-20.833 -5 -29.5 -5v38c15.333 0 26.666 6.33301 33.999 19s11 27.334 11 44.001c0 2 -0.166992 4 -0.5 6s-0.5 3.66699 -0.5 5v5h-34v98z" />
    <glyph glyph-name="hyphen" unicode="-" horiz-adv-x="374" 
d="M309 255h-244v75h244v-75z" />
    <glyph glyph-name="period" unicode="." horiz-adv-x="242" 
d="M80 98h82v-98h-82v98z" />
    <glyph glyph-name="slash" unicode="/" horiz-adv-x="320" 
d="M219 700h81l-200 -700h-80z" />
    <glyph glyph-name="zero" unicode="0" horiz-adv-x="593" 
d="M531 492c1.33301 -44 2.00098 -91.333 2.00098 -142s-0.666992 -98 -2 -142c-0.666992 -31.333 -6.83398 -60.333 -18.501 -87s-27.834 -49.667 -48.501 -69s-45.167 -34.5 -73.5 -45.5s-59.5 -16.5 -93.5 -16.5c-34.667 0 -66.334 5.5 -95.001 16.5
s-53.334 26.167 -74.001 45.5s-36.667 42.333 -48 69s-17.333 55.667 -18 87c-1.33301 44 -2 91.333 -2 142s0.666992 98 2 142c0.666992 31.333 6.83398 60.333 18.501 87s27.834 49.667 48.501 69s45.334 34.5 74.001 45.5s60 16.5 94 16.5
c34.667 0 66.167 -5.5 94.5 -16.5s52.666 -26.167 72.999 -45.5s36.333 -42.333 48 -69s17.834 -55.667 18.501 -87zM448.001 208c1.33301 44 2.00098 91.333 2.00098 142s-0.666992 98 -2 142c0 20 -3.5 38.5 -10.5 55.5s-17 31.833 -30 44.5s-28.833 22.667 -47.5 30
s-39.667 11 -63 11s-44.333 -3.66699 -63 -11s-34.834 -17.333 -48.501 -30s-24.167 -27.5 -31.5 -44.5s-11 -35.5 -11 -55.5c-1.33301 -44 -2 -91.333 -2 -142s0.666992 -98 2 -142c0 -20 3.66699 -38.5 11 -55.5s17.666 -31.833 30.999 -44.5s29.333 -22.667 48 -30
s40 -11 64 -11c22.667 0 43.334 3.66699 62.001 11s34.5 17.333 47.5 30s23.167 27.5 30.5 44.5s11 35.5 11 55.5z" />
    <glyph glyph-name="one" unicode="1" horiz-adv-x="320" 
d="M25 645l115 55h90v-700h-84v622l-121 -52v75z" />
    <glyph glyph-name="two" unicode="2" horiz-adv-x="538" 
d="M65 686c15.333 4.66699 32.666 8.66797 51.999 12.001c16.667 3.33301 36.5 6.16602 59.5 8.49902s48.833 3.5 77.5 3.5c32.667 0 63 -3.66699 91 -11s52 -19 72 -35s35.667 -36.667 47 -62s17 -56 17 -92c0 -25.333 -1.83301 -47.166 -5.5 -65.499s-9.5 -35 -17.5 -50
s-18 -29.167 -30 -42.5s-26.333 -27.333 -43 -42l-257 -228v-4h355v-78h-443v106l274 248c16 14.667 29.333 27.834 40 39.501s19.167 23.5 25.5 35.5s10.666 24.5 12.999 37.5s3.5 28.5 3.5 46.5c0 22 -3.83301 40.667 -11.5 56s-18.167 27.666 -31.5 36.999
s-29.166 16.166 -47.499 20.499s-38.166 6.5 -59.499 6.5c-23.333 0 -45.5 -1.16699 -66.5 -3.5s-39.833 -4.83301 -56.5 -7.5c-19.333 -2.66699 -37.333 -6 -54 -10z" />
    <glyph glyph-name="three" unicode="3" horiz-adv-x="528" 
d="M39 700l405.995 0.00195312v-74l-167 -200c20 -1.33301 41.333 -5.33301 64 -12s43.834 -17.667 63.501 -33s35.834 -35.5 48.501 -60.5s19 -56.833 19 -95.5c0 -47.333 -8 -86.166 -24 -116.499s-36 -54.333 -60 -72s-50.167 -29.834 -78.5 -36.501s-54.5 -10 -78.5 -10
c-33.333 0 -62.166 1.16699 -86.499 3.5s-44.833 5.16602 -61.5 8.49902c-19.333 3.33301 -35.666 7.66602 -48.999 12.999l4 75c18 -4.66699 37.333 -8.66699 58 -12c17.333 -3.33301 37.333 -6 60 -8s46.334 -3 71.001 -3c30 0 55.167 4 75.5 12s36.666 19 48.999 33
s21.333 30.833 27 50.5s8.5 41.167 8.5 64.5c0 31.333 -5.33301 55.5 -16 72.5s-24.167 29.333 -40.5 37s-34.166 12.167 -53.499 13.5s-37.333 2 -54 2h-46v72l158 194v4h-297v78z" />
    <glyph glyph-name="four" unicode="4" horiz-adv-x="537" 
d="M20 226l253 474h92l-256 -474h255v183h84v-183h74v-78h-74v-148h-84v148h-344v78z" />
    <glyph glyph-name="five" unicode="5" horiz-adv-x="558" 
d="M68 90c20 -4.66699 40.335 -8.66602 61.002 -11.999c17.333 -3.33301 36.666 -6.16602 57.999 -8.49902s42 -3.5 62 -3.5c32.667 0 60 3.16699 82 9.5s39.333 15.833 52 28.5s21.667 28.834 27 48.501s8 43.167 8 70.5c0 22.667 -2.16699 42.834 -6.5 60.501
s-12.166 32.5 -23.499 44.5s-26.833 21.167 -46.5 27.5s-44.5 9.5 -74.5 9.5c-21.333 0 -42 -2 -62 -6s-38 -8.66699 -54 -14c-18.667 -6 -36.334 -12.667 -53.001 -20l-38 60l23 315h387v-79h-311l-14 -204c12 4.66699 25.333 8.66699 40 12
c12.667 3.33301 27 6.16602 43 8.49902s33 3.5 51 3.5c71.333 0 126.5 -17.5 165.5 -52.5s58.5 -89.833 58.5 -164.5c0 -32.667 -4.33301 -63.334 -13 -92.001s-23 -53.5 -43 -74.5s-46 -37.5 -78 -49.5s-71 -18 -117 -18c-31.333 0 -58.833 1.16699 -82.5 3.5
s-43.167 5.16602 -58.5 8.49902c-18.667 3.33301 -34.334 7.66602 -47.001 12.999z" />
    <glyph glyph-name="six" unicode="6" horiz-adv-x="586" 
d="M476 614c-20 4 -40.334 7.33398 -61.001 10.001c-17.333 2.66699 -36.166 5 -56.499 7s-39.166 3 -56.499 3c-26 0 -48.667 -4.16699 -68 -12.5s-35.5 -19.5 -48.5 -33.5s-22.667 -30.167 -29 -48.5s-9.83301 -37.5 -10.5 -57.5
c-0.666992 -6.66699 -1 -14.334 -1 -23.001v-26v-31c16 6.66699 33 13 51 19c15.333 5.33301 32.666 10 51.999 14s39 6 59 6c73.333 0 129 -18.333 167 -55s57 -91.667 57 -165c0 -37.333 -5.83301 -70.333 -17.5 -99s-27.667 -52.834 -48 -72.501
s-44.833 -34.667 -73.5 -45s-60 -15.5 -94 -15.5c-38 0 -71.5 6 -100.5 18s-53.333 28.5 -73 49.5s-34.834 45.333 -45.501 73s-16.334 57.167 -17.001 88.5c-2 85.333 -2 173.333 0 264c0.666992 30.667 6.33398 59.834 17.001 87.501s26 52 46 73s44.833 37.5 74.5 49.5
s63.834 18 102.501 18c21.333 0 42.333 -1.16699 63 -3.5s39.667 -4.83301 57 -7.5c20 -3.33301 39 -7 57 -11zM300.999 364.001c-20 -1.33301 -39.3311 -3.83203 -57.998 -7.49902s-35.334 -7.83398 -50.001 -12.501c-17.333 -5.33301 -33.333 -11 -48 -17v-42v-35.5
c0 -12.333 0.333008 -22.833 1 -31.5c0.666992 -20 4 -39.167 10 -57.5s15.167 -34.5 27.5 -48.5s27.833 -25.167 46.5 -33.5s41 -12.5 67 -12.5c49.333 0 86.666 12.5 111.999 37.5s38 64.167 38 117.5c0 50.667 -11.833 87.167 -35.5 109.5s-60.5 33.5 -110.5 33.5z" />
    <glyph glyph-name="seven" unicode="7" horiz-adv-x="452" 
d="M22 700h410v-88l-273 -612h-85l275 617v6h-327v77z" />
    <glyph glyph-name="eight" unicode="8" horiz-adv-x="596" 
d="M525 524c0 -42 -8.17188 -75.4961 -24.5049 -100.496s-37.5 -45.833 -63.5 -62.5c32 -20 57.333 -43.167 76 -69.5s28 -61.833 28 -106.5c0 -34.667 -6.5 -64.334 -19.5 -89.001s-30.667 -44.834 -53 -60.501s-48.166 -27.167 -77.499 -34.5s-60 -11 -92 -11
c-33.333 0 -64.666 3.66699 -93.999 11s-55.166 18.833 -77.499 34.5s-40 35.834 -53 60.501s-19.5 54.334 -19.5 89.001c0 44.667 9.33301 80.167 28 106.5s44 49.5 76 69.5c-26 17.333 -47.167 38.666 -63.5 63.999s-24.5 58.333 -24.5 99c0 26.667 5.33301 51.5 16 74.5
s25.834 42.667 45.501 59s43.5 29.166 71.5 38.499s59.667 14 95 14c34 0 65 -4.66699 93 -14s51.833 -22.333 71.5 -39s34.834 -36.334 45.501 -59.001s16 -47.334 16 -74.001zM298.995 67.0039c20 0 39.499 2 58.499 6s35.833 10.833 50.5 20.5s26.5 22.167 35.5 37.5
s13.5 34.333 13.5 57s-4.66699 42.334 -14 59.001s-21.5 30.5 -36.5 41.5s-31.833 19.333 -50.5 25s-37.667 8.5 -57 8.5s-38.666 -2.83301 -57.999 -8.5s-36.5 -14 -51.5 -25s-27.167 -24.833 -36.5 -41.5s-14 -36.334 -14 -59.001s4.5 -41.667 13.5 -57
s21 -27.833 36 -37.5s32 -16.5 51 -20.5s38.833 -6 59.5 -6zM441.994 524.004c0 33.333 -13.167 59.833 -39.5 79.5s-60.833 29.5 -103.5 29.5c-46 0 -81.667 -9.83301 -107 -29.5s-38 -46.167 -38 -79.5c0 -38 12.667 -68.333 38 -91s61 -34 107 -34
c42.667 0 77.167 11.333 103.5 34s39.5 53 39.5 91z" />
    <glyph glyph-name="nine" unicode="9" horiz-adv-x="586" 
d="M110 85c20 -4 40.335 -7.33496 61.002 -10.002c17.333 -2.66699 36.166 -5 56.499 -7s39.166 -3 56.499 -3c26 0 48.667 4.16699 68 12.5s35.5 19.5 48.5 33.5s22.667 30.167 29 48.5s9.83301 37.5 10.5 57.5c0 6 0.166992 13.5 0.5 22.5s0.5 17.833 0.5 26.5v31
c-16 -7.33301 -33 -14 -51 -20c-15.333 -5.33301 -32.833 -9.83301 -52.5 -13.5s-39.167 -5.5 -58.5 -5.5c-73.333 0 -129 18.333 -167 55s-57 91.667 -57 165c0 36.667 5.83301 69.5 17.5 98.5s27.667 53.333 48 73s44.833 34.667 73.5 45s60 15.5 94 15.5
c38 0 71.5 -6 100.5 -18s53.333 -28.5 73 -49.5s34.834 -45.333 45.501 -73s16.334 -57.167 17.001 -88.5c2 -85.333 2 -173.333 0 -264c-0.666992 -31.333 -6.33398 -60.666 -17.001 -87.999s-26 -51.5 -46 -72.5s-44.833 -37.5 -74.5 -49.5s-63.834 -18 -102.501 -18
c-21.333 0 -42.333 1 -63 3s-39.667 4.66699 -57 8c-20 2.66699 -39 6.33398 -57 11.001zM285.002 334.998c19.333 0.666992 38.499 3.00098 57.499 7.00098s35.833 8.33301 50.5 13c17.333 5.33301 33.333 11 48 17v42c0 11.333 -0.166992 23.166 -0.5 35.499
s-0.5 22.833 -0.5 31.5c-0.666992 20 -4 39.167 -10 57.5s-15.167 34.5 -27.5 48.5s-27.833 25.167 -46.5 33.5s-41 12.5 -67 12.5c-49.333 0 -86.666 -12.5 -111.999 -37.5s-38 -64.167 -38 -117.5c0 -50.667 11.833 -87.167 35.5 -109.5s60.5 -33.5 110.5 -33.5z" />
    <glyph glyph-name="colon" unicode=":" horiz-adv-x="242" 
d="M80 98h82v-98h-82v98zM80 500h82v-98h-82v98z" />
    <glyph glyph-name="semicolon" unicode=";" horiz-adv-x="230" 
d="M80 500h82v-98h-82v98zM78 98l85.002 -0.000976562v-90c0 -26 -3.33301 -47.167 -10 -63.5s-14.834 -29 -24.501 -38s-20 -15.167 -31 -18.5s-20.833 -5 -29.5 -5v38c15.333 0 26.666 6.33301 33.999 19s11 27.334 11 44.001c0 2 -0.166992 4 -0.5 6s-0.5 3.66699 -0.5 5
v5h-34v98z" />
    <glyph glyph-name="less" unicode="&#x3c;" horiz-adv-x="588" 
d="M65 329l443 218v-86l-356 -169l356 -168v-86l-443 218v73z" />
    <glyph glyph-name="equal" unicode="=" horiz-adv-x="583" 
d="M513 152h-443v75h443v-75zM513 357h-443v75h443v-75z" />
    <glyph glyph-name="greater" unicode="&#x3e;" horiz-adv-x="588" 
d="M523 256l-443 -218v86l356 169l-356 168v86l443 -218v-73z" />
    <glyph glyph-name="question" unicode="?" horiz-adv-x="526" 
d="M50 686c12 4.66699 27.0029 8.66797 45.0029 12.001c15.333 3.33301 35 6.16602 59 8.49902s53 3.5 87 3.5c33.333 0 64.333 -3.66699 93 -11s53.5 -18.666 74.5 -33.999s37.5 -35 49.5 -59s18 -52.667 18 -86c0 -41.333 -6 -73.333 -18 -96s-26.833 -40.5 -44.5 -53.5
s-36.834 -23.167 -57.501 -30.5s-39.834 -16.5 -57.501 -27.5s-32.5 -25.667 -44.5 -44s-18 -44.833 -18 -79.5h-78c0 44.667 5.66699 79.667 17 105s25.666 45.166 42.999 59.499s36 25.333 56 33s38.667 16.334 56 26.001s31.666 22.667 42.999 39s17 40.166 17 71.499
c0 20 -3.83301 37 -11.5 51s-18.167 25.167 -31.5 33.5s-29 14.5 -47 18.5s-37.667 6 -59 6c-23.333 0 -46.166 -1 -68.499 -3s-42.166 -4.33301 -59.499 -7c-20.667 -2.66699 -40.334 -6 -59.001 -10zM156.003 98.001h82v-98h-82v98z" />
    <glyph glyph-name="at" unicode="@" horiz-adv-x="864" 
d="M659 19c-18.667 0 -34.5029 2.49609 -47.5029 7.49609s-23.5 10.5 -31.5 16.5c-10 7.33301 -18 15.666 -24 24.999c-17.333 -9.33301 -34.666 -17.666 -51.999 -24.999c-15.333 -6 -31.833 -11.5 -49.5 -16.5s-34.5 -7.5 -50.5 -7.5c-24.667 0 -46.167 3.66699 -64.5 11
s-33.666 17.5 -45.999 30.5s-21.666 28.167 -27.999 45.5s-9.83301 36 -10.5 56c-2 58.667 -2 117.334 0 176.001c0.666992 20 4.5 39 11.5 57s17.167 33.5 30.5 46.5s30.333 23.333 51 31s45 11.5 73 11.5c23.333 0 45.666 -1.66699 66.999 -5
s40.666 -6.66602 57.999 -9.99902c20 -4 38.667 -8.66699 56 -14v-308c0 -19.333 4.83301 -35 14.5 -47s23.834 -18 42.501 -18c12 0 21.5 2.5 28.5 7.5s12.333 11.333 16 19s6.16699 16.167 7.5 25.5s2 18.666 2 27.999c0.666992 22.667 1.16699 44.5 1.5 65.5
s0.5 42.333 0.5 64s-0.166992 44.334 -0.5 68.001s-0.833008 50.167 -1.5 79.5c-0.666992 26 -7 51 -19 75s-29.833 45.167 -53.5 63.5s-52.834 33 -87.501 44s-74.667 16.5 -120 16.5c-44 0 -83.333 -5.5 -118 -16.5s-64 -25.667 -88 -44s-42.5 -39.5 -55.5 -63.5
s-19.833 -49 -20.5 -75c-4 -116 -4 -232 0 -348c0.666992 -26 7.33398 -51 20.001 -75s30.834 -45.167 54.501 -63.5s52.834 -33 87.501 -44s74.667 -16.5 120 -16.5c25.333 0 49.666 1 72.999 3s43.666 4.66699 60.999 8c20.667 2.66699 39.667 6.33398 57 11.001l14 -71
c-20 -4.66699 -41 -8.66699 -63 -12c-19.333 -3.33301 -41.166 -6 -65.499 -8s-49.833 -3 -76.5 -3c-54.667 0 -103.834 7.5 -147.501 22.5s-81 35.333 -112 61s-55.167 55.5 -72.5 89.5s-26.666 70.333 -27.999 109c-3.33301 108.667 -3.33301 217.334 0 326.001
c1.33301 38.667 10.833 75 28.5 109s42.167 63.833 73.5 89.5s68.833 46 112.5 61s92.167 22.5 145.5 22.5c54 0 103 -7.5 147 -22.5s81.5 -35.333 112.5 -61s55.167 -55.5 72.5 -89.5s26.333 -70.333 27 -109c0.666992 -27.333 1 -52.166 1 -74.499v-64v-59
c0 -19 -0.333008 -38.5 -1 -58.5c-0.666992 -29.333 -5.16699 -53.833 -13.5 -73.5s-19 -35.334 -32 -47.001s-27.167 -20 -42.5 -25s-30.333 -7.5 -45 -7.5zM324.997 332.996c-2 -55.333 -2.00195 -110.664 -0.00195312 -165.997
c0.666992 -22.667 7.33398 -42.334 20.001 -59.001s32.667 -25 60 -25c14.667 0 29.667 1.83301 45 5.5s29 8.16699 41 13.5c14 5.33301 27.667 11.666 41 18.999v281c-8 3.33301 -17.667 6.33301 -29 9c-9.33301 2 -20.833 4 -34.5 6s-29.5 3 -47.5 3
c-32 0 -55.667 -8.83301 -71 -26.5s-23.666 -37.834 -24.999 -60.501z" />
    <glyph glyph-name="A" unicode="A" horiz-adv-x="607" 
d="M365 700l222 -700h-89l-62 203h-266l-62 -203h-88l220 700h125zM306 624h-7l-107 -346h221z" />
    <glyph glyph-name="B" unicode="B" horiz-adv-x="590" 
d="M333 700c66 0 115.001 -16.5039 147.001 -49.5039s48 -77.833 48 -134.5c0 -29.333 -4.33301 -53.666 -13 -72.999s-18.334 -34.666 -29.001 -45.999c-12 -13.333 -26 -23.666 -42 -30.999c18 -7.33301 34 -18.333 48 -33c12 -12.667 23 -29.667 33 -51
s15 -48.333 15 -81c0 -63.333 -17.667 -112.666 -53 -147.999s-94 -53 -176 -53h-231v700h253zM164.001 622.996v-221h168c34 0 61.667 9.5 83 28.5s32 46.833 32 83.5c0 32.667 -8.66699 59 -26 79s-43 30 -77 30h-180zM164.001 76.9961l152.001 0.000976562
c28 0 51 2.5 69 7.5s32.167 12.667 42.5 23s17.666 23.166 21.999 38.499s6.5 33.666 6.5 54.999c0 16.667 -2 32.5 -6 47.5s-10.667 28.333 -20 40s-22 20.834 -38 27.501s-36 10 -60 10h-168v-249z" />
    <glyph glyph-name="C" unicode="C" horiz-adv-x="547" 
d="M502 14c-19.333 -4.66699 -39.3311 -8.6709 -59.998 -12.0039c-17.333 -3.33301 -36.666 -6.16602 -57.999 -8.49902s-42 -3.5 -62 -3.5c-38.667 0 -73.5 6 -104.5 18s-57.5 28.333 -79.5 49s-39.167 44.834 -51.5 72.501s-18.833 57.167 -19.5 88.5c-2 88 -2 176 0 264
c0.666992 31.333 7.16699 60.833 19.5 88.5s29.666 51.834 51.999 72.501s49 37 80 49s65.5 18 103.5 18c21.333 0 42.333 -1.16699 63 -3.5s39.334 -5.16602 56.001 -8.49902c19.333 -3.33301 38 -7 56 -11l-3 -74l-63 9c-17.333 2.66699 -36 5 -56 7s-37.667 3 -53 3
c-26.667 0 -50.334 -4.16699 -71.001 -12.5s-38.167 -19.333 -52.5 -33s-25.333 -29.5 -33 -47.5s-11.834 -37 -12.501 -57c-2 -88 -2 -176 0 -264c0.666992 -20 4.66699 -39 12 -57s18.166 -33.833 32.499 -47.5s31.833 -24.667 52.5 -33s44.667 -12.5 72 -12.5
c14.667 0 32.167 1 52.5 3s39.833 4.33301 58.5 7c22 2.66699 44 6 66 10z" />
    <glyph glyph-name="D" unicode="D" horiz-adv-x="622" 
d="M75 700h225.001c38 0 72.5 -5.5 103.5 -16.5s57.667 -26.167 80 -45.5s39.666 -42.333 51.999 -69s18.833 -55.667 19.5 -87c2 -88 2 -176 0 -264c-0.666992 -31.333 -7.16699 -60.333 -19.5 -87s-29.5 -49.667 -51.5 -69s-48.5 -34.5 -79.5 -45.5
s-65.833 -16.5 -104.5 -16.5h-225v700zM159.001 622l0.00292969 -543.998h141c26.667 0 50.5 3.66699 71.5 11s38.667 17.166 53 29.499s25.166 27 32.499 44s11.333 35.5 12 55.5c2 88 2 176 0 264c-0.666992 20 -4.83398 38.5 -12.501 55.5s-18.667 31.667 -33 44
s-31.833 22.166 -52.5 29.499s-44.334 11 -71.001 11h-141z" />
    <glyph glyph-name="E" unicode="E" horiz-adv-x="578" 
d="M518 700v-78h-354v-220h323v-77h-323v-246h364v-79h-448v700h438z" />
    <glyph glyph-name="F" unicode="F" horiz-adv-x="553" 
d="M518 700v-78h-354v-232h323v-78h-323v-312h-84v700h438z" />
    <glyph glyph-name="G" unicode="G" horiz-adv-x="621" 
d="M335 360l216.001 -0.00195312v-333c-22 -7.33301 -45.667 -13.666 -71 -18.999c-21.333 -4.66699 -45.666 -8.83398 -72.999 -12.501s-55.666 -5.5 -84.999 -5.5c-38.667 0 -73.5 6 -104.5 18s-57.5 28.333 -79.5 49s-39.167 44.834 -51.5 72.501
s-18.833 57.167 -19.5 88.5c-2 88 -2 176 0 264c0.666992 31.333 7.16699 60.833 19.5 88.5s29.666 51.834 51.999 72.501s49 37 80 49s65.5 18 103.5 18c31.333 0 60 -1.33301 86 -4s48.667 -5.66699 68 -9c22 -3.33301 42.667 -7.33301 62 -12l-4 -74
c-21.333 4 -43.666 7.33301 -66.999 10c-20 2.66699 -42.667 5.16699 -68 7.5s-51 3.5 -77 3.5c-26.667 0 -50.334 -4.16699 -71.001 -12.5s-38.167 -19.333 -52.5 -33s-25.333 -29.5 -33 -47.5s-11.834 -37 -12.501 -57c-2 -88 -2 -176 0 -264
c0.666992 -20 4.66699 -39 12 -57s18.166 -34 32.499 -48s31.833 -25.167 52.5 -33.5s44.667 -12.5 72 -12.5c20 0 38.833 0.666992 56.5 2s33.167 3 46.5 5c15.333 2 29.333 4.33301 42 7v202h-132v77z" />
    <glyph glyph-name="H" unicode="H" horiz-adv-x="656" 
d="M576 700v-700h-84v325h-328v-325h-84v700h84v-298h328v298h84z" />
    <glyph glyph-name="I" unicode="I" horiz-adv-x="244" 
d="M164 0h-84v700h84v-700z" />
    <glyph glyph-name="J" unicode="J" horiz-adv-x="305" 
d="M22 68c6.66699 -0.666992 13.667 -1 21 -1c6 -0.666992 12.5 -1 19.5 -1h18.5c16 0 28.333 2.83301 37 8.5s15.167 13.667 19.5 24s6.83301 22.333 7.5 36s1 28.5 1 44.5v521h84v-549c0 -30.667 -3.66699 -56.334 -11 -77.001s-17 -37.167 -29 -49.5
s-26 -21.166 -42 -26.499s-32.667 -8 -50 -8c-19.333 0 -37.333 1.66699 -54 5c-8.66699 1.33301 -16.667 3 -24 5z" />
    <glyph glyph-name="K" unicode="K" horiz-adv-x="569" 
d="M261 367l288 -367h-103l-282 366l266 334h101zM164 0h-84v700h84v-700z" />
    <glyph glyph-name="L" unicode="L" horiz-adv-x="500" 
d="M165 700v-621h315v-79h-400v700h85z" />
    <glyph glyph-name="M" unicode="M" horiz-adv-x="759" 
d="M679 0h-84v531l3 57l-31 -64l-143 -240h-89l-143 240l-31 64l3 -57v-531h-84v700h100l199 -344l200 344h100v-700z" />
    <glyph glyph-name="N" unicode="N" horiz-adv-x="656" 
d="M576 700v-700h-99l-290 519l-28 65l4 -68v-516h-83v700h99l291 -520l27 -64l-4 67v517h83z" />
    <glyph glyph-name="O" unicode="O" 
d="M576 482c2 -88 2 -176 0 -264c-0.666992 -31.333 -7.16699 -60.833 -19.5 -88.5s-29.666 -51.834 -51.999 -72.501s-48.833 -37 -79.5 -49s-65 -18 -103 -18c-38.667 0 -73.5 6 -104.5 18s-57.5 28.333 -79.5 49s-39.167 44.834 -51.5 72.501s-18.833 57.167 -19.5 88.5
c-2 88 -2 176 0 264c0.666992 31.333 7.16699 60.833 19.5 88.5s29.666 51.834 51.999 72.501s49 37 80 49s65.5 18 103.5 18s72.5 -6 103.5 -18s57.5 -28.333 79.5 -49s39.167 -44.834 51.5 -72.501s18.833 -57.167 19.5 -88.5zM490 217
c2 88.667 1.99902 177.334 -0.000976562 266.001c-0.666992 20 -4.66699 39.167 -12 57.5s-18 34.5 -32 48.5s-31.5 25.167 -52.5 33.5s-44.833 12.5 -71.5 12.5s-50.5 -4.16699 -71.5 -12.5s-38.833 -19.5 -53.5 -33.5s-25.834 -30.167 -33.501 -48.5
s-11.834 -37.5 -12.501 -57.5c-2 -88.667 -2 -177.334 0 -266.001c0.666992 -20 4.83398 -39.167 12.501 -57.5s18.667 -34.5 33 -48.5s32 -25.167 53 -33.5s45.167 -12.5 72.5 -12.5c26.667 0 50.334 4.16699 71.001 12.5s38 19.5 52 33.5s24.833 30.167 32.5 48.5
s11.834 37.5 12.501 57.5z" />
    <glyph glyph-name="P" unicode="P" horiz-adv-x="572" 
d="M80 700h270c28.667 0 53.834 -4 75.501 -12s40 -19 55 -33s26.5 -30.5 34.5 -49.5s12.667 -39.5 14 -61.5c2.66699 -48 2.66699 -96 0 -144c-1.33301 -22 -6 -42.5 -14 -61.5s-19.5 -35.667 -34.5 -50s-33.333 -25.5 -55 -33.5s-46.834 -12 -75.501 -12h-186v-243h-84
v700zM444 397c3.33301 49.333 3.33301 99 0 149c-1.33301 20.667 -8.66602 38.5 -21.999 53.5s-36.666 22.5 -69.999 22.5h-188v-301h188c33.333 0 56.666 7.5 69.999 22.5s20.666 32.833 21.999 53.5z" />
    <glyph glyph-name="Q" unicode="Q" 
d="M576 482c2 -88 2 -176.001 0 -264.001c-0.666992 -45.333 -13.667 -86 -39 -122l59 -69l-61 -46l-51 59c-21.333 -15.333 -45.666 -27.5 -72.999 -36.5s-57 -13.5 -89 -13.5c-38.667 0 -73.5 6 -104.5 18s-57.5 28.333 -79.5 49s-39.167 44.834 -51.5 72.501
s-18.833 57.167 -19.5 88.5c-2 88 -2 176 0 264c0.666992 31.333 7.16699 60.833 19.5 88.5s29.666 51.834 51.999 72.501s49 37 80 49s65.5 18 103.5 18s72.5 -6 103.5 -18s57.5 -28.333 79.5 -49s39.167 -44.834 51.5 -72.501s18.833 -57.167 19.5 -88.5zM491 215.999
c2 88.667 1.99609 177.667 -0.00390625 267c-0.666992 20 -4.66699 39.167 -12 57.5s-18.166 34.5 -32.499 48.5s-32 25.167 -53 33.5s-44.833 12.5 -71.5 12.5s-50.5 -4.16699 -71.5 -12.5s-38.833 -19.5 -53.5 -33.5s-26 -30.167 -34 -48.5s-12.333 -37.5 -13 -57.5
c-2 -89.333 -2 -178.333 0 -267c0 -10.667 1 -20 3 -28s4 -14.667 6 -20c2.66699 -6.66699 5.33398 -12 8.00098 -16c11.333 10 25 19 41 27c13.333 6.66699 29.5 12.834 48.5 18.501s40.833 8.5 65.5 8.5c22 0 42.333 -2.83301 61 -8.5s34.667 -11.834 48 -18.501
c16 -8 30.333 -17 43 -27c2.66699 4 5.33398 9.33301 8.00098 16c2 5.33301 3.83301 12 5.5 20s2.83398 17.333 3.50098 28zM321.996 65.999c14.667 0 28.501 1.5 41.501 4.5s24.167 6.5 33.5 10.5c11.333 4 21.333 9 30 15c-10 6.66699 -20.667 13 -32 19
c-9.33301 5.33301 -20.5 10 -33.5 14s-26.167 6 -39.5 6c-15.333 0 -29.833 -2 -43.5 -6s-25.167 -8.33301 -34.5 -13c-12 -6 -22.333 -12.333 -31 -19c8.66699 -6 18.667 -11.333 30 -16c9.33301 -4 20.666 -7.5 33.999 -10.5s28.333 -4.5 45 -4.5z" />
    <glyph glyph-name="R" unicode="R" horiz-adv-x="604" 
d="M324 255l-160.001 -0.000976562v-255h-84v700h270c28.667 0 53.834 -4 75.501 -12s40 -19 55 -33s26.5 -30.5 34.5 -49.5s12.667 -39.5 14 -61.5c1.33301 -24 2 -46 2 -66s-0.666992 -42 -2 -66c-2 -36 -13 -67.667 -33 -95s-49 -45.666 -87 -54.999l145 -262h-93z
M443.999 408.999c1.33301 24.667 2 47.5 2 68.5s-0.666992 43.833 -2 68.5c-1.33301 20.667 -8.66602 38.5 -21.999 53.5s-36.666 22.5 -69.999 22.5h-188v-289h188c33.333 0 56.666 7.5 69.999 22.5s20.666 32.833 21.999 53.5z" />
    <glyph glyph-name="S" unicode="S" horiz-adv-x="578" 
d="M482 613c-21.333 3.33301 -43 6.33496 -65 9.00195c-19.333 2.66699 -40 5 -62 7s-43.667 3 -65 3s-41 -2 -59 -6s-33.667 -10.167 -47 -18.5s-23.833 -19.5 -31.5 -33.5s-11.5 -31 -11.5 -51c0 -31.333 9.66699 -55.166 29 -71.499s43.5 -29.333 72.5 -39
s60.5 -18.334 94.5 -26.001s65.5 -18.667 94.5 -33s53.167 -34.166 72.5 -59.499s29 -60.333 29 -105c0 -63.333 -20.333 -112.333 -61 -147s-106.334 -52 -197.001 -52c-28 0 -54.333 1.16699 -79 3.5s-46.667 5.16602 -66 8.49902c-22 3.33301 -43 7.66602 -63 12.999
l4 75c19.333 -4.66699 40 -8.33398 62 -11.001c18.667 -3.33301 39.834 -6 63.501 -8s47.5 -3 71.5 -3c33.333 0 61.333 2.16699 84 6.5s41 11 55 20s24.167 20.667 30.5 35s9.5 31.5 9.5 51.5c0 32.667 -9.66699 57.667 -29 75s-43.5 31 -72.5 41s-60.5 19 -94.5 27
s-65.5 19 -94.5 33s-53.167 33.5 -72.5 58.5s-29 59.833 -29 104.5c0 33.333 6 62 18 86s28.5 43.667 49.5 59s45.833 26.666 74.5 33.999s59.667 11 93 11c30.667 0 58 -1.16699 82 -3.5s44.667 -5.16602 62 -8.49902c20 -3.33301 37.333 -7 52 -11z" />
    <glyph glyph-name="T" unicode="T" horiz-adv-x="505" 
d="M20 700h465v-78h-191v-622h-84v622h-190v78z" />
    <glyph glyph-name="U" unicode="U" horiz-adv-x="659" 
d="M584 700l-0.00292969 -482c0 -31.333 -6.16699 -60.833 -18.5 -88.5s-29.666 -51.834 -51.999 -72.501s-49 -37 -80 -49s-65.5 -18 -103.5 -18c-38.667 0 -73.667 6 -105 18s-58.166 28.333 -80.499 49s-39.5 44.834 -51.5 72.501s-18 57.167 -18 88.5v482h84v-482
c0 -20 3.83301 -39 11.5 -57s18.834 -33.833 33.501 -47.5s32.5 -24.667 53.5 -33s45.167 -12.5 72.5 -12.5c26 0 49.5 4.16699 70.5 12.5s38.833 19.333 53.5 33s26 29.5 34 47.5s12 37 12 57v482h84z" />
    <glyph glyph-name="V" unicode="V" horiz-adv-x="587" 
d="M291 76h5l184 624h87l-210 -700h-127l-210 700h87z" />
    <glyph glyph-name="W" unicode="W" horiz-adv-x="885" 
d="M758 700h87l-137 -700h-125l-122 510l-16 110h-5l-15 -110l-123 -510h-125l-137 700h87l104 -558l8 -66h4l12 70l129 554h117l129 -554l12 -70h4l8 66z" />
    <glyph glyph-name="X" unicode="X" horiz-adv-x="608" 
d="M304 430l173 270h95l-219 -341l235 -359h-96l-188 292l-188 -292h-96l235 359l-219 341h95z" />
    <glyph glyph-name="Y" unicode="Y" horiz-adv-x="584" 
d="M292 368l180 332h97l-235 -416v-284h-84v284l-235 416h96z" />
    <glyph glyph-name="Z" unicode="Z" horiz-adv-x="587" 
d="M148 82v-4h389v-78h-487v84l383 534v4h-375v78h475v-84z" />
    <glyph glyph-name="bracketleft" unicode="[" horiz-adv-x="327" 
d="M282 -179h-197v879h197v-81h-114v-719h114v-79z" />
    <glyph glyph-name="backslash" unicode="\" horiz-adv-x="320" 
d="M300 0h-80l-200 700h81z" />
    <glyph glyph-name="bracketright" unicode="]" horiz-adv-x="327" 
d="M45 -100h114v719h-114v81h197v-879h-197v79z" />
    <glyph glyph-name="asciicircum" unicode="^" horiz-adv-x="499" 
d="M284 700l165 -369h-79l-120 274l-121 -274h-79l166 369h68z" />
    <glyph glyph-name="underscore" unicode="_" horiz-adv-x="577" 
d="M577 -75v-67h-577v67h577z" />
    <glyph glyph-name="grave" unicode="`" horiz-adv-x="230" 
d="M141 562l-141 138h114l116 -138h-89z" />
    <glyph glyph-name="a" unicode="a" horiz-adv-x="495" 
d="M354 44c-15.333 -10.667 -31.667 -19.667 -49 -27c-14.667 -7.33301 -31.167 -13.666 -49.5 -18.999s-36.833 -8 -55.5 -8c-48 0 -85 14.5 -111 43.5s-39 66.5 -39 112.5c0 22 3 42.667 9 62s15.167 36.5 27.5 51.5s27.833 26.833 46.5 35.5s41 13 67 13h153v34
c0 12.667 -2.16699 24.834 -6.5 36.501s-10.833 22 -19.5 31s-19 16.167 -31 21.5s-26 8 -42 8c-18.667 0 -38 -1 -58 -3s-38.333 -4 -55 -6c-20 -2.66699 -39.333 -5.66699 -58 -9l-7 68c18 4 37 7.33301 57 10c17.333 2.66699 36.333 5.16699 57 7.5s41.667 3.5 63 3.5
c29.333 0 55 -4.33301 77 -13s40.5 -20.334 55.5 -35.001s26.167 -31.834 33.5 -51.501s11 -40.5 11 -62.5v-348h-71zM202.999 62c18 0 36.001 3.5 54.001 10.5s34 14.833 48 23.5c16.667 10 32.667 21.333 48 34v107h-149c-14.667 0 -26.834 -2.5 -36.501 -7.5
s-17.5 -11.5 -23.5 -19.5s-10.167 -17.5 -12.5 -28.5s-3.5 -22.5 -3.5 -34.5c0 -23.333 5.5 -43.333 16.5 -60s30.5 -25 58.5 -25z" />
    <glyph glyph-name="b" unicode="b" horiz-adv-x="517" 
d="M70 700l77.002 0.000976562v-231c13.333 6.66699 28 13 44 19c13.333 4.66699 28.5 9 45.5 13s34.833 6 53.5 6c27.333 0 51.166 -4.16699 71.499 -12.5s37.333 -19.666 51 -33.999s24 -31.166 31 -50.499s10.833 -40 11.5 -62c2 -65.333 2 -130.666 0 -195.999
c-0.666992 -22.667 -4.83398 -43.834 -12.501 -63.501s-19 -36.834 -34 -51.501s-34 -26.167 -57 -34.5s-49.833 -12.5 -80.5 -12.5c-26 0 -51.167 1.16699 -75.5 3.5s-45.833 5.16602 -64.5 8.49902c-22 3.33301 -42.333 7.66602 -61 12.999v685zM377.002 158.001
c2 61.333 2.00098 122.664 0.000976562 183.997c-1.33301 25.333 -9 47.333 -23 66s-36 28 -66 28c-16.667 0 -33.334 -2.16699 -50.001 -6.5s-31.667 -9.16602 -45 -14.499c-16 -6.66699 -31.333 -13.667 -46 -21v-321c9.33301 -2 20 -4 32 -6
c10.667 -1.33301 23.667 -2.66602 39 -3.99902s33 -2 53 -2c17.333 0 32.5 2.66699 45.5 8s24 12.5 33 21.5s15.667 19.333 20 31s6.83301 23.834 7.5 36.501z" />
    <glyph glyph-name="c" unicode="c" horiz-adv-x="420" 
d="M390 7c-12.667 -3.33301 -26.667 -6.33594 -42 -9.00293c-13.333 -2 -28.666 -3.83301 -45.999 -5.5s-36 -2.5 -56 -2.5c-30 0 -56.167 4.16699 -78.5 12.5s-41.333 19.833 -57 34.5s-27.5 31.834 -35.5 51.501s-12.333 40.834 -13 63.501
c-2 65.333 -2 130.666 0 195.999c0.666992 22 5.16699 42.833 13.5 62.5s20.166 36.834 35.499 51.501s34.333 26.334 57 35.001s49 13 79 13c18.667 0 36 -0.666992 52 -2s30.333 -2.66602 43 -3.99902c14 -2 27.333 -4 40 -6l-7 -71l-42 6
c-12.667 1.33301 -26.5 2.66602 -41.5 3.99902s-30.167 2 -45.5 2c-32.667 0 -58.167 -9.5 -76.5 -28.5s-28.166 -41.167 -29.499 -66.5c-2 -62.667 -2 -125.334 0 -188.001c1.33301 -25.333 11 -47.5 29 -66.5s43.667 -28.5 77 -28.5c20 0 38.167 0.833008 54.5 2.5
s30.5 3.5 42.5 5.5c13.333 2.66699 25.666 5.33398 36.999 8.00098z" />
    <glyph glyph-name="d" unicode="d" horiz-adv-x="517" 
d="M447 0l-72.0029 0.00292969l-5 35c-14 -8.66699 -29 -16.334 -45 -23.001c-13.333 -6 -28.833 -11.333 -46.5 -16s-35.5 -7 -53.5 -7c-27.333 0 -51.166 4.16699 -71.499 12.5s-37.166 19.666 -50.499 33.999s-23.333 31.166 -30 50.499s-10.334 40 -11.001 62
c-2 65.333 -2 130.666 0 195.999c0.666992 22.667 4.83398 43.834 12.501 63.501s19 37 34 52s33.833 26.833 56.5 35.5s49.667 13 81 13c14.667 0 29.334 -1 44.001 -3s28 -4.33301 40 -7c14 -2.66699 27.333 -5.66699 40 -9v211h77v-700zM139.997 338.003
c-2 -61.333 -2 -122.665 0 -183.998c1.33301 -25.333 8.66602 -47.333 21.999 -66s35 -28 65 -28c16 0 32.5 2.5 49.5 7.5s32.5 10.833 46.5 17.5c16.667 7.33301 32.334 15.666 47.001 24.999v306c-9.33301 4 -20 7.33301 -32 10c-10.667 2.66699 -23.667 5.16699 -39 7.5
s-33 3.5 -53 3.5c-17.333 0 -32.5 -2.83301 -45.5 -8.5s-24 -13.167 -33 -22.5s-15.667 -19.833 -20 -31.5s-6.83301 -23.834 -7.5 -36.501z" />
    <glyph glyph-name="e" unicode="e" horiz-adv-x="487" 
d="M418 14c-11.333 -4.66699 -25.665 -8.66895 -42.998 -12.002c-14.667 -3.33301 -32.5 -6.16602 -53.5 -8.49902s-45.5 -3.5 -73.5 -3.5c-30 0 -56.333 4.16699 -79 12.5s-41.667 19.833 -57 34.5s-27.333 31.834 -36 51.501s-13.334 40.834 -14.001 63.501
c-0.666992 16 -1.16699 32.167 -1.5 48.5s-0.5 32.833 -0.5 49.5s0.166992 33 0.5 49s0.833008 32.333 1.5 49c0.666992 22 5.5 42.833 14.5 62.5s21.5 36.834 37.5 51.501s35.167 26.334 57.5 35.001s47.833 13 76.5 13c28 0 53.333 -4.33301 76 -13s42 -20.334 58 -35.001
s28.333 -31.834 37 -51.501s13 -40.5 13 -62.5v-128h-293v-23v-20.5c0 -7 0.333008 -13.167 1 -18.5c0.666992 -12.667 3.5 -24.834 8.5 -36.501s12 -22 21 -31s20 -16.167 33 -21.5s27.833 -8 44.5 -8c20 0 39.667 1 59 3s36.666 4.33301 51.999 7
c17.333 2.66699 34 6 50 10zM140.001 341.998c-0.666992 -4 -0.998047 -9 -0.998047 -15v-17v-19h216v19c0 5.33301 -0.166992 11 -0.5 17s-0.5 11 -0.5 15c-0.666992 12.667 -3.66699 25 -9 37s-12.5 22.333 -21.5 31s-19.833 15.667 -32.5 21s-26.334 8 -41.001 8
c-34.667 0 -61.334 -9.5 -80.001 -28.5s-28.667 -41.833 -30 -68.5z" />
    <glyph glyph-name="f" unicode="f" horiz-adv-x="341" 
d="M20 500l75.999 -0.00292969v72c0 40.667 11.833 73.834 35.5 99.501s57.5 38.5 101.5 38.5c9.33301 0 19.833 -0.5 31.5 -1.5s22.5 -2.16699 32.5 -3.5c12 -1.33301 23.333 -2.66602 34 -3.99902l-5 -68c-8.66699 0.666992 -18.334 1.66699 -29.001 3
c-9.33301 0.666992 -19.666 1.33398 -30.999 2.00098s-22.666 1 -33.999 1c-17.333 0 -31.333 -5.33301 -42 -16s-16 -29.667 -16 -57v-66h143v-71h-143v-429h-78v429h-76v71z" />
    <glyph glyph-name="g" unicode="g" horiz-adv-x="470" 
d="M393 290c0 -35.333 -12.332 -66 -36.999 -92s-58 -42 -100 -48v-26c0 -9.33301 2.33301 -16.166 7 -20.499s9.66699 -8.16602 15 -11.499l97 -53c20 -11.333 35 -24.5 45 -39.5s15 -36.5 15 -64.5c0 -24.667 -6.16699 -45 -18.5 -61s-28.5 -28.833 -48.5 -38.5
s-42.5 -16.334 -67.5 -20.001s-50.167 -5.5 -75.5 -5.5c-30 0 -56.167 2.33301 -78.5 7s-41.5 9.66699 -57.5 15c-18.667 6.66699 -35 14 -49 22l19 64c15.333 -7.33301 31.666 -13.666 48.999 -18.999c15.333 -5.33301 33 -9.83301 53 -13.5s41.333 -5.5 64 -5.5
c40 0 72 3.5 96 10.5s36 21.833 36 44.5c0 14 -2 23.667 -6 29s-10.333 10.333 -19 15l-122 64c-12.667 6.66699 -21.5 16.167 -26.5 28.5s-7.5 27.5 -7.5 45.5v34c-44 6.66699 -77.333 22.834 -100 48.501s-34 55.834 -34 90.501v73c0 20 3.83301 38.667 11.5 56
s19 32.5 34 45.5s33.5 23.167 55.5 30.5s47.333 11 76 11c13.333 0 25 -0.666992 35 -2s20.667 -4 32 -8l25 31c10.667 13.333 22.5 21.666 35.5 24.999s23.833 5 32.5 5c8 0 15.833 -0.333008 23.5 -1s14.167 -1.33398 19.5 -2.00098
c6.66699 -1.33301 12.667 -2.33301 18 -3l-8 -62h-38c-5.33301 0 -11 -1 -17 -3s-10.667 -5.33301 -14 -10l-13 -16c13.333 -12.667 23.833 -27.334 31.5 -44.001s11.5 -34.334 11.5 -53.001v-73zM316.001 360c0 22 -8.66699 40.167 -26 54.5s-41.333 21.5 -72 21.5
c-30 0 -54 -7.16699 -72 -21.5s-27 -32.5 -27 -54.5v-67c0 -21.333 9 -39.166 27 -53.499s42.333 -21.5 73 -21.5c30 0 53.667 7.16699 71 21.5s26 32.166 26 53.499v67z" />
    <glyph glyph-name="h" unicode="h" horiz-adv-x="520" 
d="M70 0l0.000976562 699.999h78v-234c14 7.33301 29.333 14 46 20c14 5.33301 29.667 10.166 47 14.499s35.333 6.5 54 6.5c27.333 0 51.166 -4.16699 71.499 -12.5s37 -19.666 50 -33.999s22.667 -31.166 29 -50.499s9.5 -40 9.5 -62v-348h-78v342
c0 25.333 -6.5 47.333 -19.5 66s-34.5 28 -64.5 28c-16.667 0 -33.5 -2.5 -50.5 -7.5s-32.5 -10.167 -46.5 -15.5c-16.667 -6.66699 -32.667 -14 -48 -22v-391h-78z" />
    <glyph glyph-name="i" unicode="i" horiz-adv-x="223" 
d="M72 500h78v-500h-78v500zM70 700h83v-98h-83v98z" />
    <glyph glyph-name="j" unicode="j" horiz-adv-x="225" 
d="M72 700h83v-98h-83v98zM151 -52c0 -40.667 -11.832 -73.833 -35.499 -99.5s-57.5 -38.5 -101.5 -38.5c-10 0 -19.333 0.333008 -28 1s-16.334 1.66699 -23.001 3c-7.33301 1.33301 -14.333 3 -21 5l5 68c4 -1.33301 9.33301 -2.33301 16 -3c10.667 -2 28 -3 52 -3
c17.333 0 31.5 5.33301 42.5 16s16.5 29.667 16.5 57v546h77v-552z" />
    <glyph glyph-name="k" unicode="k" horiz-adv-x="452" 
d="M70 700h77v-700h-77v700zM147 264l194 236h91l-196 -236l211 -264h-93z" />
    <glyph glyph-name="l" unicode="l" horiz-adv-x="217" 
d="M70 700h77v-700h-77v700z" />
    <glyph glyph-name="m" unicode="m" horiz-adv-x="740" 
d="M335 0l-0.00195312 356.001c0 21.333 -6.16699 40.5 -18.5 57.5s-30.166 25.5 -53.499 25.5c-13.333 0 -26.833 -2.66699 -40.5 -8s-26.167 -11 -37.5 -17c-12.667 -7.33301 -25.334 -15.333 -38.001 -24v-390h-77v500h73l4 -37c12.667 8 26 15.667 40 23
c12 6 25.667 11.5 41 16.5s31 7.5 47 7.5c17.333 0 32.833 -3 46.5 -9s25.167 -12.667 34.5 -20c10.667 -8.66699 19.667 -18.334 27 -29.001c12.667 10.667 26.334 20.334 41.001 29.001c12.667 7.33301 27.167 14 43.5 20s33.5 9 51.5 9c46 0 83.5 -14.333 112.5 -43
s43.5 -68.334 43.5 -119.001v-348h-78v342c0 29.333 -7.66699 52.833 -23 70.5s-35 26.5 -59 26.5c-12.667 0 -25.167 -2.5 -37.5 -7.5s-23.166 -10.5 -32.499 -16.5c-11.333 -7.33301 -22 -15 -32 -23v-392h-78z" />
    <glyph glyph-name="n" unicode="n" horiz-adv-x="520" 
d="M70 0l0.00292969 500.001h73l5 -34c14 8 29 15.333 45 22c13.333 5.33301 28.833 10.333 46.5 15s36.167 7 55.5 7c27.333 0 51.166 -4.33301 71.499 -13s37 -20.334 50 -35.001s22.667 -31.834 29 -51.501s9.5 -40.5 9.5 -62.5v-348h-78v342
c0 12.667 -1.5 24.834 -4.5 36.501s-8 22 -15 31s-15.833 16.167 -26.5 21.5s-23.334 8 -38.001 8c-17.333 0 -34.5 -2.5 -51.5 -7.5s-32.5 -10.5 -46.5 -16.5c-16.667 -7.33301 -32.334 -15.333 -47.001 -24v-391h-78z" />
    <glyph glyph-name="o" unicode="o" horiz-adv-x="514" 
d="M452 152c-0.666992 -22.667 -5.66699 -43.834 -15 -63.501s-22.333 -36.834 -39 -51.501s-36.834 -26.167 -60.501 -34.5s-50.167 -12.5 -79.5 -12.5c-32 0 -60 4.16699 -84 12.5s-44.167 19.833 -60.5 34.5s-28.833 31.834 -37.5 51.501s-13.334 40.834 -14.001 63.501
c-2 65.333 -2 130.666 0 195.999c0.666992 22 5.33398 42.833 14.001 62.5s21.167 36.834 37.5 51.501s36.5 26.334 60.5 35.001s52 13 84 13c29.333 0 55.833 -4.33301 79.5 -13s43.834 -20.334 60.501 -35.001s29.667 -31.834 39 -51.501s14.333 -40.5 15 -62.5
c2 -65.333 2 -130.666 0 -195.999zM374 344c-1.33301 26.667 -11.834 49.167 -31.501 67.5s-48.167 27.5 -85.5 27.5c-36.667 0 -65 -9.16699 -85 -27.5s-30.667 -40.833 -32 -67.5c-3.33301 -62.667 -3.33301 -125.334 0 -188.001c1.33301 -26.667 12 -49.167 32 -67.5
s48.667 -27.5 86 -27.5c36.667 0 64.834 9.16699 84.501 27.5s30.167 40.833 31.5 67.5c3.33301 62.667 3.33301 125.334 0 188.001z" />
    <glyph glyph-name="p" unicode="p" horiz-adv-x="517" 
d="M70 500l72.0039 -0.00195312l5 -35c14 8 29 15.333 45 22c13.333 5.33301 28.666 10.5 45.999 15.5s35.333 7.5 54 7.5c27.333 0 51.166 -4 71.499 -12s37.166 -19.167 50.499 -33.5s23.333 -31.166 30 -50.499s10.334 -40 11.001 -62c2 -65.333 2 -130.666 0 -195.999
c-0.666992 -22.667 -4.83398 -43.834 -12.501 -63.501s-19 -37 -34 -52s-34 -26.833 -57 -35.5s-49.833 -13 -80.5 -13c-14.667 0 -29.334 0.833008 -44.001 2.5s-28 3.83398 -40 6.50098c-14 2.66699 -27.333 6 -40 10v-191h-77v680zM377.004 161.998
c2 61.333 2.00098 122.668 0.000976562 184.001c-1.33301 25.333 -8.66602 47.166 -21.999 65.499s-35 27.5 -65 27.5c-16.667 0 -33.334 -2.66699 -50.001 -8s-32 -11 -46 -17c-16.667 -7.33301 -32.334 -15.333 -47.001 -24v-306c9.33301 -4.66699 20 -8.33398 32 -11.001
c10.667 -2.66699 23.667 -5 39 -7s33 -3 53 -3c17.333 0 32.5 2.83301 45.5 8.5s24 13.167 33 22.5s15.667 19.833 20 31.5s6.83301 23.834 7.5 36.501z" />
    <glyph glyph-name="q" unicode="q" horiz-adv-x="517" 
d="M447 -180h-77.0029v211c-13.333 -7.33301 -28 -13.666 -44 -18.999c-13.333 -5.33301 -28.666 -9.83301 -45.999 -13.5s-35 -5.5 -53 -5.5c-27.333 0 -51.166 4.16699 -71.499 12.5s-37.333 19.666 -51 33.999s-24 31.166 -31 50.499s-10.833 40 -11.5 62
c-2 65.333 -2 130.666 0 195.999c0.666992 22.667 4.83398 43.834 12.501 63.501s19 36.834 34 51.501s33.833 26.167 56.5 34.5s49.667 12.5 81 12.5c26 0 51 -1.33301 75 -4s45.333 -5.66699 64 -9c22 -3.33301 42.667 -7.33301 62 -12v-665zM139.997 342
c-2 -61.333 -2 -122.664 0 -183.997c1.33301 -25.333 9 -47.333 23 -66s36 -28 66 -28c16 0 32.5 2.16699 49.5 6.5s32.167 9.16602 45.5 14.499c16 6 31.333 13 46 21v321c-9.33301 2 -20 4 -32 6c-10.667 1.33301 -23.667 2.66602 -39 3.99902s-33 2 -53 2
c-17.333 0 -32.5 -2.66699 -45.5 -8s-24 -12.5 -33 -21.5s-15.667 -19.333 -20 -31s-6.83301 -23.834 -7.5 -36.501z" />
    <glyph glyph-name="r" unicode="r" horiz-adv-x="315" 
d="M305 439c-23.333 0 -44.499 -4.50098 -63.499 -13.501s-35.5 -18.833 -49.5 -29.5c-16.667 -12.667 -31.334 -27 -44.001 -43v-353h-78v500h73l3 -61c12 12.667 26.333 24.334 43 35.001c14 9.33301 30.833 17.5 50.5 24.5s41.5 10.833 65.5 11.5v-71z" />
    <glyph glyph-name="s" unicode="s" horiz-adv-x="441" 
d="M362 423l-46.0029 8.00488c-13.333 2 -28.5 3.83301 -45.5 5.5s-33.167 2.5 -48.5 2.5c-26 0 -48.167 -5.33301 -66.5 -16s-27.5 -28.334 -27.5 -53.001c0 -19.333 6.66699 -34 20 -44s30.166 -18.333 50.499 -25s42.333 -12.834 66 -18.501s45.667 -13.834 66 -24.501
s37.166 -25.334 50.499 -44.001s20 -43.667 20 -75c0 -47.333 -14.833 -84 -44.5 -110s-77.5 -39 -143.5 -39c-21.333 0 -41.5 1.16699 -60.5 3.5s-35.833 5.16602 -50.5 8.49902c-17.333 3.33301 -33 7.33301 -47 12l10 68c14.667 -4.66699 30 -8.33398 46 -11.001
c13.333 -2.66699 28.5 -5 45.5 -7s34.167 -3 51.5 -3c42.667 0 72.334 6 89.001 18s25 30.333 25 55c0 20 -6.66699 35.333 -20 46s-30.166 19.5 -50.499 26.5s-42.166 13.333 -65.499 19s-45.166 13.834 -65.499 24.501s-37.166 25 -50.499 43s-20 43 -20 75
c0 24.667 4.33301 46 13 64s20.667 32.667 36 44s33.5 19.833 54.5 25.5s43.833 8.5 68.5 8.5c20.667 0 40 -1 58 -3s33.667 -4 47 -6c16 -2.66699 30.333 -5.66699 43 -9z" />
    <glyph glyph-name="t" unicode="t" horiz-adv-x="337" 
d="M20 500l76 -0.000976562v120h78v-120h143v-71h-143v-295c0 -27.333 4.5 -46.333 13.5 -57s22.167 -16 39.5 -16c24 0 43.667 1 59 3c8.66699 0.666992 16.667 1.66699 24 3l5 -68c-9.33301 -2 -19.333 -3.66699 -30 -5c-9.33301 -1.33301 -19.5 -2.33301 -30.5 -3
s-22.167 -1 -33.5 -1c-21.333 0 -39.833 3.33301 -55.5 10s-28.667 15.834 -39 27.501s-18 25.5 -23 41.5s-7.5 33 -7.5 51v309h-76v71z" />
    <glyph glyph-name="u" unicode="u" horiz-adv-x="520" 
d="M450 500l-0.000976562 -500.001h-73l-5 34c-14 -8 -29 -15.333 -45 -22c-13.333 -5.33301 -28.833 -10.333 -46.5 -15s-36.167 -7 -55.5 -7c-27.333 0 -51.166 4.33301 -71.499 13s-37 20.334 -50 35.001s-22.667 31.834 -29 51.501s-9.5 40.5 -9.5 62.5v348h78v-342
c0 -12.667 1.5 -24.834 4.5 -36.501s8 -22 15 -31s15.667 -16.167 26 -21.5s23.166 -8 38.499 -8c17.333 0 34.5 2.5 51.5 7.5s32.5 10.5 46.5 16.5c16.667 7.33301 32.334 15.333 47.001 24v391h78z" />
    <glyph glyph-name="v" unicode="v" horiz-adv-x="456" 
d="M226 59h4l130 441h81l-153 -500h-120l-153 500h82z" />
    <glyph glyph-name="w" unicode="w" horiz-adv-x="666" 
d="M554 500h82l-83 -500h-124l-94 409h-4l-94 -409h-124l-83 500h82l63 -438h4l102 438h104l102 -438h4z" />
    <glyph glyph-name="x" unicode="x" horiz-adv-x="466" 
d="M233 321l113 179h89l-157 -240l168 -260h-88l-125 196l-125 -196h-88l168 260l-157 240h89z" />
    <glyph glyph-name="y" unicode="y" horiz-adv-x="486" 
d="M15 500h87l135 -397h4l147 397h83l-261 -680h-81l75 193l-19 7z" />
    <glyph glyph-name="z" unicode="z" horiz-adv-x="433" 
d="M133 75v-4h260v-71h-353v73l257 352v4h-246v71h338v-72z" />
    <glyph glyph-name="braceleft" unicode="{" horiz-adv-x="335" 
d="M290 -190c-27.333 0 -52.835 4.83203 -76.502 14.499s-44.334 22.834 -62.001 39.501s-31.667 36.334 -42 59.001s-15.5 46.667 -15.5 72v189c0 11.333 -5.16699 21.5 -15.5 30.5s-23.166 13.5 -38.499 13.5v75c14.667 0 27.334 4.33301 38.001 13s16 18.667 16 30v181
c0 25.333 5.16699 49.166 15.5 71.499s24.333 41.833 42 58.5s38.334 29.834 62.001 39.501s49.167 14.5 76.5 14.5v-81c-32.667 0 -59.5 -10 -80.5 -30s-31.5 -44.667 -31.5 -74v-170c0 -22 -6.33301 -40.833 -19 -56.5s-25.667 -27.5 -39 -35.5
c13.333 -7.33301 26.333 -18.666 39 -33.999s19 -34.333 19 -57v-179c0 -14.667 2.83301 -28.334 8.5 -41.001s13.5 -23.834 23.5 -33.501s21.833 -17.167 35.5 -22.5s28.5 -8 44.5 -8v-79z" />
    <glyph glyph-name="bar" unicode="|" horiz-adv-x="235" 
d="M85 700h65v-880h-65v880z" />
    <glyph glyph-name="braceright" unicode="}" horiz-adv-x="335" 
d="M45 -111c16 0 30.8311 2.66797 44.498 8.00098s25.5 12.833 35.5 22.5s17.833 20.834 23.5 33.501s8.5 26.334 8.5 41.001v179c0 22.667 6.33301 41.667 19 57s25.667 26.666 39 33.999c-13.333 8 -26.333 19.833 -39 35.5s-19 34.5 -19 56.5v170
c0 29.333 -10.5 54 -31.5 74s-47.833 30 -80.5 30v81c27.333 0 52.833 -4.83301 76.5 -14.5s44.334 -22.834 62.001 -39.501s31.667 -36.167 42 -58.5s15.5 -46.166 15.5 -71.499v-181c0 -11.333 5.33301 -21.333 16 -30s23.334 -13 38.001 -13v-75
c-15.333 0 -28.166 -4.5 -38.499 -13.5s-15.5 -19.167 -15.5 -30.5v-189c0 -25.333 -5.16699 -49.333 -15.5 -72s-24.333 -42.334 -42 -59.001s-38.334 -29.834 -62.001 -39.501s-49.167 -14.5 -76.5 -14.5v79z" />
    <glyph glyph-name="asciitilde" unicode="~" horiz-adv-x="596" 
d="M205 366c18 0 35.333 -3.83301 52 -11.5s32.834 -16 48.501 -25s31 -17.333 46 -25s30.167 -11.5 45.5 -11.5c10 0 18.833 2.33301 26.5 7s14.667 10.667 21 18s12.166 15.333 17.499 24s11 17 17 25l57 -37c-5.33301 -8 -11.833 -18.333 -19.5 -31
s-17.167 -25 -28.5 -37s-24.833 -22.333 -40.5 -31s-34.5 -13 -56.5 -13c-18 0 -35.333 3.83301 -52 11.5s-32.834 16 -48.501 25s-31 17.333 -46 25s-30.167 11.5 -45.5 11.5c-10 0 -18.833 -2.33301 -26.5 -7s-14.667 -10.667 -21 -18s-12.166 -15.333 -17.499 -24
s-11 -17 -17 -25l-57 37c5.33301 8 11.833 18.333 19.5 31s17.167 25 28.5 37s24.833 22.333 40.5 31s34.5 13 56.5 13z" />
    <glyph glyph-name="uni00A0" unicode="&#xa0;" horiz-adv-x="220" 
 />
    <glyph glyph-name="exclamdown" unicode="&#xa1;" horiz-adv-x="266" 
d="M174 402h-82v98h82v-98zM97 312h72l7 -512h-86z" />
    <glyph glyph-name="cent" unicode="&#xa2;" horiz-adv-x="460" 
d="M217 2c-48.667 6 -85.498 24.001 -110.498 54.001s-38.167 65.333 -39.5 106c-2 65.333 -2 130.666 0 195.999c1.33301 40 14.5 75 39.5 105s61.833 48.333 110.5 55v52h78v-51c13.333 -1.33301 25.666 -2.5 36.999 -3.5s21 -2.16699 29 -3.5
c9.33301 -1.33301 18 -2.66602 26 -3.99902l-7 -71l-42 6c-12.667 1.33301 -26.5 2.66602 -41.5 3.99902s-30.167 2 -45.5 2c-32.667 0 -58.167 -9.5 -76.5 -28.5s-28.166 -41.167 -29.499 -66.5c-2 -62.667 -2 -125.334 0 -188.001c1.33301 -25.333 11 -47.5 29 -66.5
s43.667 -28.5 77 -28.5c20 0 38.167 0.833008 54.5 2.5s30.5 3.5 42.5 5.5c13.333 2.66699 25.666 5.33398 36.999 8.00098l10 -70c-8.66699 -2 -18.334 -4 -29.001 -6c-9.33301 -1.33301 -20 -3 -32 -5s-25 -3.66699 -39 -5v-51h-78v52z" />
    <glyph glyph-name="sterling" unicode="&#xa3;" horiz-adv-x="563" 
d="M75 393l49 0.000976562c-4.66699 17.333 -8.83398 37.166 -12.501 59.499s-5.5 45.166 -5.5 68.499c0 35.333 6 65.166 18 89.499s28.5 43.833 49.5 58.5s45.833 25.167 74.5 31.5s59.667 9.5 93 9.5c19.333 0 38 -0.833008 56 -2.5s34 -3.5 48 -5.5
c16.667 -2.66699 32.334 -5 47.001 -7l-4 -74c-14.667 1.33301 -30 3 -46 5c-14 1.33301 -29.667 2.66602 -47 3.99902s-35.333 2 -54 2c-21.333 0 -41.166 -1.83301 -59.499 -5.5s-34.333 -9.66699 -48 -18s-24.334 -19.666 -32.001 -33.999s-11.5 -32.166 -11.5 -53.499
c0 -27.333 2.33301 -51.5 7 -72.5s9.66699 -39.5 15 -55.5h261v-68h-241c2.66699 -10.667 4.66699 -22.167 6 -34.5s2 -26.166 2 -41.499c0 -23.333 -3.33301 -45.5 -10 -66.5s-14 -39.167 -22 -54.5c-9.33301 -18 -19.666 -34.667 -30.999 -50h336v-78h-435v82
c14 10.667 27 24 39 40c9.33301 13.333 18.166 30.5 26.499 51.5s12.5 46.167 12.5 75.5c0 12 -1.33301 24.167 -4 36.5s-6 25.5 -10 39.5h-67v68z" />
    <glyph glyph-name="currency" unicode="&#xa4;" horiz-adv-x="579" 
d="M125 512l53 -54c30 24.667 67 37 111 37c44.667 0 82 -12.333 112 -37l54 54l53 -54l-64 -63c6.66699 -18.667 10 -36.667 10 -54v-99c0 -19.333 -3 -36.333 -9 -51l64 -63l-54 -54l-53 54c-14.667 -12 -31.667 -21.333 -51 -28s-40 -10 -62 -10
c-46 0 -83.333 12.333 -112 37l-54 -53l-53 53l63 62c-6 16 -9 33.667 -9 53v99c0 9.33301 1 18.5 3 27.5s4.33301 17.5 7 25.5l-63 64zM374 350c0 25.333 -8.16699 44.666 -24.5 57.999s-37.166 20 -62.499 20c-24.667 0 -44.834 -6.66699 -60.501 -20
s-23.5 -32.666 -23.5 -57.999v-116c0 -26 8 -45.333 24 -58s36.667 -19 62 -19c24 0 44.167 6.33301 60.5 19s24.5 31.667 24.5 57v117z" />
    <glyph glyph-name="yen" unicode="&#xa5;" horiz-adv-x="594" 
d="M497 182h-158v-182h-84v182h-158v67h150l-35 76h-115v68h84l-141 307h96l161 -380l161 380h96l-141 -307h84v-68h-116l-35 -76h151v-67z" />
    <glyph glyph-name="brokenbar" unicode="&#xa6;" horiz-adv-x="236" 
d="M85 701h66v-364h-66v364zM85 182h66v-362h-66v362z" />
    <glyph glyph-name="section" unicode="&#xa7;" horiz-adv-x="570" 
d="M434 143c16.667 -11.333 30.167 -25.832 40.5 -43.499s15.5 -42.5 15.5 -74.5c0 -58 -18.833 -100.833 -56.5 -128.5s-89.5 -41.5 -155.5 -41.5c-20.667 0 -41.334 0.833008 -62.001 2.5s-39.667 3.83398 -57 6.50098c-20 2.66699 -39 5.66699 -57 9l4 68
c22 -3.33301 43.667 -6.33301 65 -9c18 -2 36.5 -3.83301 55.5 -5.5s35.167 -2.5 48.5 -2.5c46 0 79.5 8 100.5 24s31.5 41 31.5 75c0 27.333 -8.16699 47.333 -24.5 60s-36.833 22.5 -61.5 29.5s-51.334 12.667 -80.001 17s-55.334 11.666 -80.001 21.999
s-45.167 25.666 -61.5 45.999s-24.5 49.5 -24.5 87.5c0 18 3 35.167 9 51.5s12.667 31.166 20 44.499c8 14.667 17.667 28.667 29 42c-15.333 11.333 -28 25.833 -38 43.5s-15 42.5 -15 74.5c0 58 18.833 100.833 56.5 128.5s89.5 41.5 155.5 41.5
c20.667 0 41.334 -1 62.001 -3s39.667 -4 57 -6c20 -2.66699 39 -5.66699 57 -9l-4 -68l-65 8l-56 6c-19.333 2 -35.333 3 -48 3c-46 0 -79.5 -8 -100.5 -24s-31.5 -41 -31.5 -75c0 -27.333 8.16699 -47.333 24.5 -60s36.833 -22.5 61.5 -29.5s51.334 -12.667 80.001 -17
s55.334 -11.666 80.001 -21.999s45.167 -25.666 61.5 -45.999s24.5 -49.5 24.5 -87.5c0 -18 -3.33301 -35.333 -10 -52s-13.667 -31.334 -21 -44.001c-8.66699 -15.333 -18.667 -29.333 -30 -42zM197 392.001c-8 -8.66699 -14.999 -18.334 -20.999 -29.001
c-5.33301 -9.33301 -10 -19.666 -14 -30.999s-6 -23.666 -6 -36.999c0 -26.667 7.83301 -46.5 23.5 -59.5s34.834 -22.667 57.501 -29s46.5 -11.333 71.5 -15s46.5 -9.5 64.5 -17.5c7.33301 8.66699 14 18.334 20 29.001c5.33301 9.33301 10.166 19.666 14.499 30.999
s6.5 23.666 6.5 36.999c0 26.667 -8 46.5 -24 59.5s-35.333 22.667 -58 29s-46.334 11.333 -71.001 15s-46 9.5 -64 17.5z" />
    <glyph glyph-name="dieresis" unicode="&#xa8;" horiz-adv-x="252" 
d="M0 688h82v-98h-82v98zM170 688h82v-98h-82v98z" />
    <glyph glyph-name="copyright" unicode="&#xa9;" horiz-adv-x="840" 
d="M60 350c0 50 9.5 96.833 28.5 140.5s44.667 81.667 77 114s70.333 58 114 77s90.5 28.5 140.5 28.5s96.833 -9.5 140.5 -28.5s81.667 -44.667 114 -77s58 -70.333 77 -114s28.5 -90.5 28.5 -140.5s-9.5 -96.833 -28.5 -140.5s-44.667 -81.667 -77 -114
s-70.333 -58 -114 -77s-90.5 -28.5 -140.5 -28.5s-96.833 9.5 -140.5 28.5s-81.667 44.667 -114 77s-58 70.333 -77 114s-28.5 90.5 -28.5 140.5zM126 350c0 -40.667 7.66699 -78.834 23 -114.501s36.333 -66.834 63 -93.501s57.834 -47.667 93.501 -63
s73.834 -23 114.501 -23s78.834 7.66699 114.501 23s66.834 36.333 93.501 63s47.667 57.834 63 93.501s23 73.834 23 114.501s-7.66699 78.834 -23 114.501s-36.333 66.834 -63 93.501s-57.834 47.667 -93.501 63s-73.834 23 -114.501 23s-78.834 -7.66699 -114.501 -23
s-66.834 -36.333 -93.501 -63s-47.667 -57.834 -63 -93.501s-23 -73.834 -23 -114.501zM525 164c-8.66699 -2.66699 -19.0029 -5 -31.0029 -7c-10 -2 -21.833 -3.66699 -35.5 -5s-28.5 -2 -44.5 -2c-24 0 -45.167 3.5 -63.5 10.5s-33.833 16.5 -46.5 28.5
s-22.167 26 -28.5 42s-9.83301 33 -10.5 51c-1.33301 26 -2 49 -2 69s0.666992 43 2 69c0.666992 18 4.33398 35 11.001 51s16.334 30 29.001 42s28.167 21.5 46.5 28.5s39.5 10.5 63.5 10.5c14.667 0 28.334 -0.5 41.001 -1.5s23.667 -2.16699 33 -3.5
c11.333 -2 21.333 -3.66699 30 -5l-6 -58c-10 1.33301 -20.333 3 -31 5c-9.33301 1.33301 -19.833 2.5 -31.5 3.5s-23.834 1.5 -36.501 1.5c-26.667 0 -47.5 -7.66699 -62.5 -23s-22.833 -33.333 -23.5 -54c-0.666992 -24.667 -1 -46.667 -1 -66s0.333008 -41.666 1 -66.999
c0.666992 -20 8.33398 -37.667 23.001 -53s35.667 -23 63 -23c16 0 30.333 0.666992 43 2s23.667 2.66602 33 3.99902c10.667 2 19.667 4.33301 27 7z" />
    <glyph glyph-name="ordfeminine" unicode="&#xaa;" horiz-adv-x="369" 
d="M248 404c-2 -1.33301 -6.33203 -3.83398 -12.999 -7.50098s-14.5 -7.33398 -23.5 -11.001s-18.833 -7 -29.5 -10s-21.667 -4.5 -33 -4.5c-31.333 0 -55.666 9.5 -72.999 28.5s-26 43.5 -26 73.5c0 14.667 2 28.5 6 41.5s10.167 24.333 18.5 34
s18.666 17.334 30.999 23.001s26.833 8.5 43.5 8.5h97v20c0 15.333 -5.33301 29.333 -16 42s-26 19 -46 19c-12.667 0 -25.334 -0.666992 -38.001 -2s-24.667 -2.66602 -36 -3.99902l-38 -6l-5 47c12 2 24.333 4.33301 37 7l37.5 4.5c13.667 1.66699 27.5 2.5 41.5 2.5
c38.667 0 67.667 -10.167 87 -30.5s29 -45.5 29 -75.5v-227h-49zM151.001 421.999c10.667 0 21.499 2.16699 32.499 6.5s21.167 9.16602 30.5 14.499c10.667 6 21.334 13 32.001 21v67h-94c-17.333 0 -29.5 -5.66699 -36.5 -17s-10.5 -24.666 -10.5 -39.999
s3.33301 -27.833 10 -37.5s18.667 -14.5 36 -14.5zM60 323.999h239v-47h-239v47z" />
    <glyph glyph-name="guillemotleft" unicode="&#xab;" horiz-adv-x="525" 
d="M187 133l-122 158l122 159h88l-123 -159l124 -158h-89zM366 133l-122 158l122 159h88l-123 -159l124 -158h-89z" />
    <glyph glyph-name="logicalnot" unicode="&#xac;" horiz-adv-x="583" 
d="M513 76h-80v179h-363v75h443v-254z" />
    <glyph glyph-name="uni00AD" unicode="&#xad;" horiz-adv-x="833" 
 />
    <glyph glyph-name="registered" unicode="&#xae;" horiz-adv-x="544" 
d="M279 452l-42 -0.00195312v-80h-38v235h92c19.333 0 34.5 -5.33301 45.5 -16s16.5 -23.667 16.5 -39v-43c0 -11.333 -3 -21.666 -9 -30.999s-14.667 -16.666 -26 -21.999l51 -84h-46zM315 552.998c0 3.33301 -1.66699 6.66699 -5 10s-9.66602 5 -18.999 5h-54v-78h54
c9.33301 0 15.666 1.66699 18.999 5s5 7.33301 5 12v46zM50 488.999c0 30.667 5.83301 59.5 17.5 86.5s27.5 50.5 47.5 70.5s43.5 35.833 70.5 47.5s55.833 17.5 86.5 17.5s59.5 -5.83301 86.5 -17.5s50.5 -27.5 70.5 -47.5s35.833 -43.5 47.5 -70.5
s17.5 -55.833 17.5 -86.5s-5.83301 -59.5 -17.5 -86.5s-27.5 -50.5 -47.5 -70.5s-43.5 -35.833 -70.5 -47.5s-55.833 -17.5 -86.5 -17.5s-59.5 5.83301 -86.5 17.5s-50.5 27.5 -70.5 47.5s-35.833 43.5 -47.5 70.5s-17.5 55.833 -17.5 86.5zM99 488.999
c0 -24 4.5 -46.667 13.5 -68s21.167 -39.666 36.5 -54.999s33.666 -27.5 54.999 -36.5s44 -13.5 68 -13.5s46.667 4.5 68 13.5s39.666 21.167 54.999 36.5s27.5 33.666 36.5 54.999s13.5 44 13.5 68s-4.5 46.667 -13.5 68s-21.167 39.666 -36.5 54.999
s-33.666 27.5 -54.999 36.5s-44 13.5 -68 13.5s-46.667 -4.5 -68 -13.5s-39.666 -21.167 -54.999 -36.5s-27.5 -33.666 -36.5 -54.999s-13.5 -44 -13.5 -68z" />
    <glyph glyph-name="macron" unicode="&#xaf;" horiz-adv-x="302" 
d="M0 665h302v-71h-302v71z" />
    <glyph glyph-name="degree" unicode="&#xb0;" horiz-adv-x="402" 
d="M55 565c0 20 3.83301 38.833 11.5 56.5s18.167 33.167 31.5 46.5s28.833 23.833 46.5 31.5s36.5 11.5 56.5 11.5s38.833 -3.83301 56.5 -11.5s33.167 -18.167 46.5 -31.5s23.833 -28.833 31.5 -46.5s11.5 -36.5 11.5 -56.5s-3.83301 -38.833 -11.5 -56.5
s-18.167 -33.167 -31.5 -46.5s-28.833 -23.833 -46.5 -31.5s-36.5 -11.5 -56.5 -11.5s-38.833 3.83301 -56.5 11.5s-33.167 18.167 -46.5 31.5s-23.833 28.833 -31.5 46.5s-11.5 36.5 -11.5 56.5zM120 565c0 -22 7.83301 -41 23.5 -57s34.5 -24 56.5 -24
c22.667 0 41.834 8 57.501 24s23.5 35 23.5 57s-7.83301 41 -23.5 57s-34.834 24 -57.501 24c-22 0 -40.833 -8 -56.5 -24s-23.5 -35 -23.5 -57z" />
    <glyph glyph-name="plusminus" unicode="&#xb1;" horiz-adv-x="582" 
d="M512 0h-442v74h442v-74zM330 500v-148h182v-75h-182v-149h-78v149h-182v75h182v148h78z" />
    <glyph glyph-name="uni00B2" unicode="&#xb2;" horiz-adv-x="392" 
d="M74 694c10 2.66699 20.998 5.33398 32.998 8.00098c10.667 2 23 3.83301 37 5.5s29.667 2.5 47 2.5c40.667 0 74.334 -10 101.001 -30s40 -53 40 -99c0 -15.333 -1.33301 -29 -4 -41s-6.5 -23 -11.5 -33s-11.167 -19.333 -18.5 -28s-15.666 -17.334 -24.999 -26.001
l-139 -131h197v-61h-271v71l161 157c8.66699 8.66699 16 16.667 22 24s10.833 14.5 14.5 21.5s6.16699 14.333 7.5 22s2 16.5 2 26.5c0 24 -7.66699 41 -23 51s-34.666 15 -57.999 15c-13.333 0 -26.333 -0.833008 -39 -2.5s-24.334 -3.5 -35.001 -5.5
c-12 -2.66699 -24 -5 -36 -7z" />
    <glyph glyph-name="uni00B3" unicode="&#xb3;" horiz-adv-x="388" 
d="M62 700l251.002 -0.000976562v-60l-93 -110c11.333 -2 23.333 -5.16699 36 -9.5s24.334 -11.333 35.001 -21s19.5 -22.334 26.5 -38.001s10.5 -35.834 10.5 -60.501c0 -30.667 -4.83301 -55.667 -14.5 -75s-21.834 -34.666 -36.501 -45.999s-30.667 -19.166 -48 -23.499
s-33.333 -6.5 -48 -6.5c-19.333 0 -36.333 0.833008 -51 2.5s-27.334 3.83398 -38.001 6.50098c-12 2.66699 -22.667 6 -32 10l2 58c12 -3.33301 24.333 -6.33301 37 -9c11.333 -2 23.833 -3.83301 37.5 -5.5s27.5 -2.5 41.5 -2.5c33.333 0 56.166 8.5 68.499 25.5
s18.5 39.5 18.5 67.5c0 17.333 -2.83301 30.666 -8.5 39.999s-13 16.333 -22 21s-18.667 7.33398 -29 8.00098s-19.833 1 -28.5 1h-33v52l94 116h-176v59z" />
    <glyph glyph-name="acute" unicode="&#xb4;" horiz-adv-x="229" 
d="M0 562l116 138h114l-141 -138h-89z" />
    <glyph glyph-name="mu" unicode="&#xb5;" horiz-adv-x="525" 
d="M70 500h78v-342c0 -12.667 1.5 -24.834 4.5 -36.501s8 -22 15 -31s15.667 -16.167 26 -21.5s23.166 -8 38.499 -8c17.333 0 34.5 2.5 51.5 7.5s32.5 10.5 46.5 16.5c16.667 7.33301 32.334 15.333 47.001 24v391h78v-500h-73l-5 34c-14 -8 -29 -15.333 -45 -22
c-13.333 -5.33301 -28.833 -10.333 -46.5 -15s-36.167 -7 -55.5 -7c-14 0 -26 1 -36 3s-18.667 4.66699 -26 8c-8 2.66699 -14.667 6.33398 -20 11.001v-192h-78v680z" />
    <glyph glyph-name="paragraph" unicode="&#xb6;" horiz-adv-x="529" 
d="M248 312c-27.333 0 -52.999 5.33105 -76.999 15.998s-45 24.834 -63 42.501s-32.167 38 -42.5 61s-15.5 47.167 -15.5 72.5c0 27.333 5.16699 52.833 15.5 76.5s24.5 44.334 42.5 62.001s39.167 31.667 63.5 42s50.166 15.5 77.499 15.5h200v-880h-67v806h-67v-806h-67
v492z" />
    <glyph glyph-name="periodcentered" unicode="&#xb7;" horiz-adv-x="242" 
d="M80 340h82v-98h-82v98z" />
    <glyph glyph-name="cedilla" unicode="&#xb8;" horiz-adv-x="222" 
d="M222 -109c0 -28.667 -7.83301 -49.3311 -23.5 -61.998s-36.167 -19 -61.5 -19c-21.333 0 -39 1 -53 3c-8 0.666992 -16 1.66699 -24 3l3 43c6 -0.666992 12.667 -1.33398 20 -2.00098c6 -0.666992 12.5 -1.16699 19.5 -1.5s13.5 -0.5 19.5 -0.5c26.667 0 40 12 40 36
c0 11.333 -3.5 19.166 -10.5 23.499s-16.833 6.5 -29.5 6.5h-40l17 79h55l-8 -40c10.667 0 20.5 -1 29.5 -3s17 -5.5 24 -10.5s12.5 -12 16.5 -21s6 -20.5 6 -34.5z" />
    <glyph glyph-name="uni00B9" unicode="&#xb9;" horiz-adv-x="251" 
d="M47 663l74 37h60v-440h-62v376l-72 -31v58z" />
    <glyph glyph-name="ordmasculine" unicode="&#xba;" horiz-adv-x="359" 
d="M308 477c-1.33301 -29.333 -13.166 -54.333 -35.499 -75s-52.833 -31 -91.5 -31c-41.333 0 -72.833 10.5 -94.5 31.5s-33.167 45.833 -34.5 74.5c-2 42 -2 84.333 0 127c1.33301 29.333 12.833 54.333 34.5 75s53.167 31 94.5 31c38.667 0 69.167 -10.167 91.5 -30.5
s34.166 -45.5 35.499 -75.5c0.666992 -42.667 0.666992 -85 0 -127zM254 601c-1.33301 17.333 -8.16797 31.668 -20.501 43.001s-30.166 17 -53.499 17c-22 0 -39.333 -5.83301 -52 -17.5s-19.667 -25.834 -21 -42.501c-3.33301 -40.667 -3.33301 -81 0 -121
c1.33301 -16.667 8.33301 -30.667 21 -42s30.334 -17 53.001 -17s40.167 5.66699 52.5 17s19.166 25.333 20.499 42c1.33301 19.333 2 39.333 2 60s-0.666992 41 -2 61zM57.998 324.002h243v-47h-243v47z" />
    <glyph glyph-name="guillemotright" unicode="&#xbb;" horiz-adv-x="525" 
d="M249 133l124 158l-123 159h88l122 -159l-122 -158h-89zM70 133l124 158l-123 159h88l122 -159l-122 -158h-89z" />
    <glyph glyph-name="onequarter" unicode="&#xbc;" horiz-adv-x="761" 
d="M384 147l148 294h70l-146 -288h129v112h62v-112h44v-61h-44v-92h-62v92h-201v55zM449 700h69l-317 -700h-71zM47 663l74 37h60v-440h-62v376l-72 -31v58z" />
    <glyph glyph-name="onehalf" unicode="&#xbd;" horiz-adv-x="791" 
d="M449 700h69l-317 -700h-71zM463 433c10 2.66699 20.998 5.33398 32.998 8.00098c10.667 2 23 3.83301 37 5.5s29.667 2.5 47 2.5c40.667 0 74.334 -10 101.001 -30s40 -53 40 -99c0 -15.333 -1.33301 -29 -4 -41s-6.5 -23 -11.5 -33s-11.167 -19.333 -18.5 -28
s-15.666 -17.334 -24.999 -26.001l-139 -131h197v-61h-271v71l161 157c8.66699 8.66699 16 16.667 22 24s10.833 14.5 14.5 21.5s6.16699 14.333 7.5 22s2 16.5 2 26.5c0 24 -7.66699 41 -23 51s-34.666 15 -57.999 15c-13.333 0 -26.333 -0.833008 -39 -2.5
s-24.334 -3.5 -35.001 -5.5c-12 -2.66699 -24 -5 -36 -7zM46.998 663l74 37h60v-440h-62v376l-72 -31v58z" />
    <glyph glyph-name="threequarters" unicode="&#xbe;" horiz-adv-x="891" 
d="M514 147l148 294h70l-146 -288h129v112h62v-112h44v-61h-44v-92h-62v92h-201v55zM579 700h69l-317 -700h-71zM72 700l251.002 -0.000976562v-60l-93 -110c11.333 -2 23.333 -5.16699 36 -9.5s24.334 -11.333 35.001 -21s19.5 -22.334 26.5 -38.001
s10.5 -35.834 10.5 -60.501c0 -30.667 -4.83301 -55.667 -14.5 -75s-21.834 -34.666 -36.501 -45.999s-30.667 -19.166 -48 -23.499s-33.333 -6.5 -48 -6.5c-19.333 0 -36.333 0.833008 -51 2.5s-27.334 3.83398 -38.001 6.50098c-12 2.66699 -22.667 6 -32 10l2 58
c12 -3.33301 24.333 -6.33301 37 -9c11.333 -2 23.833 -3.83301 37.5 -5.5s27.5 -2.5 41.5 -2.5c33.333 0 56.166 8.5 68.499 25.5s18.5 39.5 18.5 67.5c0 17.333 -2.83301 30.666 -8.5 39.999s-13 16.333 -22 21s-18.667 7.33398 -29 8.00098s-19.833 1 -28.5 1h-33v52
l94 116h-176v59z" />
    <glyph glyph-name="questiondown" unicode="&#xbf;" horiz-adv-x="526" 
d="M476 -186c-12 -4.66699 -27.0059 -8.66797 -45.0059 -12.001c-15.333 -3.33301 -35 -6.16602 -59 -8.49902s-53 -3.5 -87 -3.5c-33.333 0 -64.333 3.66699 -93 11s-53.5 18.666 -74.5 33.999s-37.5 35 -49.5 59s-18 52.667 -18 86c0 41.333 6 73.333 18 96
s26.833 40.5 44.5 53.5s36.834 23.167 57.501 30.5s39.834 16.5 57.501 27.5s32.5 25.667 44.5 44s18 44.833 18 79.5h78c0 -44.667 -5.66699 -79.667 -17 -105s-25.666 -45.166 -42.999 -59.499s-36 -25.333 -56 -33s-38.667 -16.334 -56 -26.001
s-31.666 -22.667 -42.999 -39s-17 -40.166 -17 -71.499c0 -20 3.83301 -37 11.5 -51s18.167 -25.167 31.5 -33.5s29 -14.5 47 -18.5s37.667 -6 59 -6c22.667 0 45.334 1 68.001 3s42.667 4.33301 60 7c20.667 2.66699 40.334 6 59.001 10zM369.994 401.999h-82v98h82v-98z
" />
    <glyph glyph-name="Agrave" unicode="&#xc0;" horiz-adv-x="607" 
d="M365 700l222 -700h-89l-62 203h-266l-62 -203h-88l220 700h125zM306 624h-7l-107 -346h221zM259 762l-141 138h114l116 -138h-89z" />
    <glyph glyph-name="Aacute" unicode="&#xc1;" horiz-adv-x="607" 
d="M365 700l222 -700h-89l-62 203h-266l-62 -203h-88l220 700h125zM306 624h-7l-107 -346h221zM255 762l116 138h114l-141 -138h-89z" />
    <glyph glyph-name="Acircumflex" unicode="&#xc2;" horiz-adv-x="607" 
d="M365 700l222 -700h-89l-62 203h-266l-62 -203h-88l220 700h125zM306 624h-7l-107 -346h221zM158 762l103 138h82l105 -138h-73l-74 75l-71 -75h-72z" />
    <glyph glyph-name="Atilde" unicode="&#xc3;" horiz-adv-x="607" 
d="M365 700l222 -700h-89l-62 203h-266l-62 -203h-88l220 700h125zM306 624h-7l-107 -346h221zM148 779c0 12.667 2.33398 25.3359 7.00098 38.0029s11 24 19 34s17.5 18 28.5 24s23.167 9 36.5 9c12 0 23.667 -2.16699 35 -6.5s22.5 -9.16602 33.5 -14.499l30.5 -14.5
c9.33301 -4.33301 18 -6.5 26 -6.5c7.33301 0 13 4.16699 17 12.5s6 16.166 6 23.499h72c0 -12.667 -2.16699 -25.334 -6.5 -38.001s-10.5 -24 -18.5 -34s-17.5 -18 -28.5 -24s-22.833 -9 -35.5 -9c-12 0 -23.833 2.16699 -35.5 6.5s-22.834 9.16602 -33.501 14.499
s-20.834 10.166 -30.501 14.499s-18.167 6.5 -25.5 6.5c-8 0 -14.167 -4 -18.5 -12s-7.16602 -16 -8.49902 -24h-70z" />
    <glyph glyph-name="Adieresis" unicode="&#xc4;" horiz-adv-x="607" 
d="M365 700l222 -700h-89l-62 203h-266l-62 -203h-88l220 700h125zM306 624h-7l-107 -346h221zM177 888h82v-98h-82v98zM347 888h82v-98h-82v98z" />
    <glyph glyph-name="Aring" unicode="&#xc5;" horiz-adv-x="607" 
d="M365 700l222 -700h-89l-62 203h-266l-62 -203h-88l220 700h125zM306 624h-7l-107 -346h221zM216 830c0 24.667 8.16699 45.5 24.5 62.5s36.833 25.5 61.5 25.5c24 0 44.667 -8.5 62 -25.5s26 -37.833 26 -62.5c0 -24 -8.66699 -44.5 -26 -61.5s-38 -25.5 -62 -25.5
c-24.667 0 -45.167 8.5 -61.5 25.5s-24.5 37.5 -24.5 61.5zM267 831c0 -10 3.16699 -18.333 9.5 -25s14.833 -10 25.5 -10s19.334 3.33301 26.001 10s10 15 10 25c0 10.667 -3.33301 19.334 -10 26.001s-15.334 10 -26.001 10s-19.167 -3.33301 -25.5 -10
s-9.5 -15.334 -9.5 -26.001z" />
    <glyph glyph-name="AE" unicode="&#xc6;" horiz-adv-x="954" 
d="M894 700v-78h-333v-220h302v-77h-302v-246h343v-79h-428v203h-271l-115 -203h-90l398 700h496zM476 622h-32l-195 -344h227v344z" />
    <glyph glyph-name="Ccedilla" unicode="&#xc7;" horiz-adv-x="547" 
d="M502 14c-15.333 -4 -31.6611 -7.33203 -48.9941 -9.99902c-14.667 -2.66699 -31.167 -5.16699 -49.5 -7.5s-36.833 -4.16602 -55.5 -5.49902l-6 -31c10.667 0 20.5 -1 29.5 -3s17 -5.5 24 -10.5s12.5 -12 16.5 -21s6 -20.5 6 -34.5
c0 -28.667 -7.83301 -49.334 -23.5 -62.001s-36.167 -19 -61.5 -19c-21.333 0 -39 1 -53 3c-8 0.666992 -16 1.66699 -24 3l3 43c6 -0.666992 12.667 -1.33398 20 -2.00098c6 -0.666992 12.5 -1.16699 19.5 -1.5s13.5 -0.5 19.5 -0.5c26.667 0 40 12 40 36
c0 11.333 -3.5 19.166 -10.5 23.499s-16.833 6.5 -29.5 6.5h-40l15 70c-34 2.66699 -64.833 10.667 -92.5 24s-51.334 30.166 -71.001 50.499s-34.834 43.5 -45.501 69.5s-16.334 53.667 -17.001 83c-2 88 -2 176 0 264c0.666992 31.333 7.16699 60.833 19.5 88.5
s29.666 51.834 51.999 72.501s49 37 80 49s65.5 18 103.5 18c21.333 0 42.333 -1.16699 63 -3.5s39.334 -5.16602 56.001 -8.49902c19.333 -3.33301 38 -7 56 -11l-3 -74l-63 9c-17.333 2.66699 -36 5 -56 7s-37.667 3 -53 3c-26.667 0 -50.334 -4.16699 -71.001 -12.5
s-38.167 -19.333 -52.5 -33s-25.333 -29.5 -33 -47.5s-11.834 -37 -12.501 -57c-2 -88 -2 -176 0 -264c0.666992 -20 4.66699 -39 12 -57s18.166 -33.833 32.499 -47.5s31.833 -24.667 52.5 -33s44.667 -12.5 72 -12.5c14.667 0 32.167 1 52.5 3s39.833 4.33301 58.5 7
c22 2.66699 44 6 66 10z" />
    <glyph glyph-name="Egrave" unicode="&#xc8;" horiz-adv-x="578" 
d="M518 700v-78h-354v-220h323v-77h-323v-246h364v-79h-448v700h438zM272 762l-141 138h114l116 -138h-89z" />
    <glyph glyph-name="Eacute" unicode="&#xc9;" horiz-adv-x="578" 
d="M518 700v-78h-354v-220h323v-77h-323v-246h364v-79h-448v700h438zM246 762l116 138h114l-141 -138h-89z" />
    <glyph glyph-name="Ecircumflex" unicode="&#xca;" horiz-adv-x="578" 
d="M518 700v-78h-354v-220h323v-77h-323v-246h364v-79h-448v700h438zM166 762l103 138h82l105 -138h-73l-74 75l-71 -75h-72z" />
    <glyph glyph-name="Edieresis" unicode="&#xcb;" horiz-adv-x="578" 
d="M518 700v-78h-354v-220h323v-77h-323v-246h364v-79h-448v700h438zM185 888h82v-98h-82v98zM355 888h82v-98h-82v98z" />
    <glyph glyph-name="Igrave" unicode="&#xcc;" horiz-adv-x="244" 
d="M164 0h-84v700h84v-700zM77 762l-141 138h114l116 -138h-89z" />
    <glyph glyph-name="Iacute" unicode="&#xcd;" horiz-adv-x="244" 
d="M164 0h-84v700h84v-700zM75 762l116 138h114l-141 -138h-89z" />
    <glyph glyph-name="Icircumflex" unicode="&#xce;" horiz-adv-x="244" 
d="M164 0h-84v700h84v-700zM-23 762l103 138h82l105 -138h-73l-74 75l-71 -75h-72z" />
    <glyph glyph-name="Idieresis" unicode="&#xcf;" horiz-adv-x="244" 
d="M164 0h-84v700h84v-700zM-4 888h82v-98h-82v98zM166 888h82v-98h-82v98z" />
    <glyph glyph-name="Eth" unicode="&#xd0;" horiz-adv-x="628" 
d="M81 325h-60.999v78h61v297h225c38 0 72.5 -5.5 103.5 -16.5s57.667 -26.167 80 -45.5s39.666 -42.333 51.999 -69s18.833 -55.667 19.5 -87c2 -88 2 -176 0 -264c-0.666992 -31.333 -7.16699 -60.333 -19.5 -87s-29.5 -49.667 -51.5 -69s-48.5 -34.5 -79.5 -45.5
s-65.833 -16.5 -104.5 -16.5h-225v325zM311.001 325l-145.997 0.00195312v-247h141c26.667 0 50.5 3.66699 71.5 11s38.667 17.166 53 29.499s25.166 27 32.499 44s11.333 35.5 12 55.5c2 88 2 176 0 264c-0.666992 20 -4.83398 38.5 -12.501 55.5s-18.667 31.667 -33 44
s-31.833 22.166 -52.5 29.499s-44.334 11 -71.001 11h-141v-219h146v-78z" />
    <glyph glyph-name="Ntilde" unicode="&#xd1;" horiz-adv-x="656" 
d="M576 700v-700h-99l-290 519l-28 65l4 -68v-516h-83v700h99l291 -520l27 -64l-4 67v517h83zM172 779c0 12.667 2.33398 25.3359 7.00098 38.0029s11 24 19 34s17.5 18 28.5 24s23.167 9 36.5 9c12 0 23.667 -2.16699 35 -6.5s22.5 -9.16602 33.5 -14.499l30.5 -14.5
c9.33301 -4.33301 18 -6.5 26 -6.5c7.33301 0 13 4.16699 17 12.5s6 16.166 6 23.499h72c0 -12.667 -2.16699 -25.334 -6.5 -38.001s-10.5 -24 -18.5 -34s-17.5 -18 -28.5 -24s-22.833 -9 -35.5 -9c-12 0 -23.833 2.16699 -35.5 6.5s-22.834 9.16602 -33.501 14.499
s-20.834 10.166 -30.501 14.499s-18.167 6.5 -25.5 6.5c-8 0 -14.167 -4 -18.5 -12s-7.16602 -16 -8.49902 -24h-70z" />
    <glyph glyph-name="Ograve" unicode="&#xd2;" 
d="M576 482c2 -88 2 -176 0 -264c-0.666992 -31.333 -7.16699 -60.833 -19.5 -88.5s-29.666 -51.834 -51.999 -72.501s-48.833 -37 -79.5 -49s-65 -18 -103 -18c-38.667 0 -73.5 6 -104.5 18s-57.5 28.333 -79.5 49s-39.167 44.834 -51.5 72.501s-18.833 57.167 -19.5 88.5
c-2 88 -2 176 0 264c0.666992 31.333 7.16699 60.833 19.5 88.5s29.666 51.834 51.999 72.501s49 37 80 49s65.5 18 103.5 18s72.5 -6 103.5 -18s57.5 -28.333 79.5 -49s39.167 -44.834 51.5 -72.501s18.833 -57.167 19.5 -88.5zM490 217
c2 88.667 1.99902 177.334 -0.000976562 266.001c-0.666992 20 -4.66699 39.167 -12 57.5s-18 34.5 -32 48.5s-31.5 25.167 -52.5 33.5s-44.833 12.5 -71.5 12.5s-50.5 -4.16699 -71.5 -12.5s-38.833 -19.5 -53.5 -33.5s-25.834 -30.167 -33.501 -48.5
s-11.834 -37.5 -12.501 -57.5c-2 -88.667 -2 -177.334 0 -266.001c0.666992 -20 4.83398 -39.167 12.501 -57.5s18.667 -34.5 33 -48.5s32 -25.167 53 -33.5s45.167 -12.5 72.5 -12.5c26.667 0 50.334 4.16699 71.001 12.5s38 19.5 52 33.5s24.833 30.167 32.5 48.5
s11.834 37.5 12.501 57.5zM275.999 762l-141 138h114l116 -138h-89z" />
    <glyph glyph-name="Oacute" unicode="&#xd3;" 
d="M576 482c2 -88 2 -176 0 -264c-0.666992 -31.333 -7.16699 -60.833 -19.5 -88.5s-29.666 -51.834 -51.999 -72.501s-48.833 -37 -79.5 -49s-65 -18 -103 -18c-38.667 0 -73.5 6 -104.5 18s-57.5 28.333 -79.5 49s-39.167 44.834 -51.5 72.501s-18.833 57.167 -19.5 88.5
c-2 88 -2 176 0 264c0.666992 31.333 7.16699 60.833 19.5 88.5s29.666 51.834 51.999 72.501s49 37 80 49s65.5 18 103.5 18s72.5 -6 103.5 -18s57.5 -28.333 79.5 -49s39.167 -44.834 51.5 -72.501s18.833 -57.167 19.5 -88.5zM490 217
c2 88.667 1.99902 177.334 -0.000976562 266.001c-0.666992 20 -4.66699 39.167 -12 57.5s-18 34.5 -32 48.5s-31.5 25.167 -52.5 33.5s-44.833 12.5 -71.5 12.5s-50.5 -4.16699 -71.5 -12.5s-38.833 -19.5 -53.5 -33.5s-25.834 -30.167 -33.501 -48.5
s-11.834 -37.5 -12.501 -57.5c-2 -88.667 -2 -177.334 0 -266.001c0.666992 -20 4.83398 -39.167 12.501 -57.5s18.667 -34.5 33 -48.5s32 -25.167 53 -33.5s45.167 -12.5 72.5 -12.5c26.667 0 50.334 4.16699 71.001 12.5s38 19.5 52 33.5s24.833 30.167 32.5 48.5
s11.834 37.5 12.501 57.5zM271.999 762l116 138h114l-141 -138h-89z" />
    <glyph glyph-name="Ocircumflex" unicode="&#xd4;" 
d="M576 482c2 -88 2 -176 0 -264c-0.666992 -31.333 -7.16699 -60.833 -19.5 -88.5s-29.666 -51.834 -51.999 -72.501s-48.833 -37 -79.5 -49s-65 -18 -103 -18c-38.667 0 -73.5 6 -104.5 18s-57.5 28.333 -79.5 49s-39.167 44.834 -51.5 72.501s-18.833 57.167 -19.5 88.5
c-2 88 -2 176 0 264c0.666992 31.333 7.16699 60.833 19.5 88.5s29.666 51.834 51.999 72.501s49 37 80 49s65.5 18 103.5 18s72.5 -6 103.5 -18s57.5 -28.333 79.5 -49s39.167 -44.834 51.5 -72.501s18.833 -57.167 19.5 -88.5zM490 217
c2 88.667 1.99902 177.334 -0.000976562 266.001c-0.666992 20 -4.66699 39.167 -12 57.5s-18 34.5 -32 48.5s-31.5 25.167 -52.5 33.5s-44.833 12.5 -71.5 12.5s-50.5 -4.16699 -71.5 -12.5s-38.833 -19.5 -53.5 -33.5s-25.834 -30.167 -33.501 -48.5
s-11.834 -37.5 -12.501 -57.5c-2 -88.667 -2 -177.334 0 -266.001c0.666992 -20 4.83398 -39.167 12.501 -57.5s18.667 -34.5 33 -48.5s32 -25.167 53 -33.5s45.167 -12.5 72.5 -12.5c26.667 0 50.334 4.16699 71.001 12.5s38 19.5 52 33.5s24.833 30.167 32.5 48.5
s11.834 37.5 12.501 57.5zM175.999 762l103 138h82l105 -138h-73l-74 75l-71 -75h-72z" />
    <glyph glyph-name="Otilde" unicode="&#xd5;" 
d="M576 482c2 -88 2 -176 0 -264c-0.666992 -31.333 -7.16699 -60.833 -19.5 -88.5s-29.666 -51.834 -51.999 -72.501s-48.833 -37 -79.5 -49s-65 -18 -103 -18c-38.667 0 -73.5 6 -104.5 18s-57.5 28.333 -79.5 49s-39.167 44.834 -51.5 72.501s-18.833 57.167 -19.5 88.5
c-2 88 -2 176 0 264c0.666992 31.333 7.16699 60.833 19.5 88.5s29.666 51.834 51.999 72.501s49 37 80 49s65.5 18 103.5 18s72.5 -6 103.5 -18s57.5 -28.333 79.5 -49s39.167 -44.834 51.5 -72.501s18.833 -57.167 19.5 -88.5zM490 217
c2 88.667 1.99902 177.334 -0.000976562 266.001c-0.666992 20 -4.66699 39.167 -12 57.5s-18 34.5 -32 48.5s-31.5 25.167 -52.5 33.5s-44.833 12.5 -71.5 12.5s-50.5 -4.16699 -71.5 -12.5s-38.833 -19.5 -53.5 -33.5s-25.834 -30.167 -33.501 -48.5
s-11.834 -37.5 -12.501 -57.5c-2 -88.667 -2 -177.334 0 -266.001c0.666992 -20 4.83398 -39.167 12.501 -57.5s18.667 -34.5 33 -48.5s32 -25.167 53 -33.5s45.167 -12.5 72.5 -12.5c26.667 0 50.334 4.16699 71.001 12.5s38 19.5 52 33.5s24.833 30.167 32.5 48.5
s11.834 37.5 12.501 57.5zM165.999 779c0 12.667 2.33398 25.3359 7.00098 38.0029s11 24 19 34s17.5 18 28.5 24s23.167 9 36.5 9c12 0 23.667 -2.16699 35 -6.5s22.5 -9.16602 33.5 -14.499l30.5 -14.5c9.33301 -4.33301 18 -6.5 26 -6.5c7.33301 0 13 4.16699 17 12.5
s6 16.166 6 23.499h72c0 -12.667 -2.16699 -25.334 -6.5 -38.001s-10.5 -24 -18.5 -34s-17.5 -18 -28.5 -24s-22.833 -9 -35.5 -9c-12 0 -23.833 2.16699 -35.5 6.5s-22.834 9.16602 -33.501 14.499s-20.834 10.166 -30.501 14.499s-18.167 6.5 -25.5 6.5
c-8 0 -14.167 -4 -18.5 -12s-7.16602 -16 -8.49902 -24h-70z" />
    <glyph glyph-name="Odieresis" unicode="&#xd6;" 
d="M576 482c2 -88 2 -176 0 -264c-0.666992 -31.333 -7.16699 -60.833 -19.5 -88.5s-29.666 -51.834 -51.999 -72.501s-48.833 -37 -79.5 -49s-65 -18 -103 -18c-38.667 0 -73.5 6 -104.5 18s-57.5 28.333 -79.5 49s-39.167 44.834 -51.5 72.501s-18.833 57.167 -19.5 88.5
c-2 88 -2 176 0 264c0.666992 31.333 7.16699 60.833 19.5 88.5s29.666 51.834 51.999 72.501s49 37 80 49s65.5 18 103.5 18s72.5 -6 103.5 -18s57.5 -28.333 79.5 -49s39.167 -44.834 51.5 -72.501s18.833 -57.167 19.5 -88.5zM490 217
c2 88.667 1.99902 177.334 -0.000976562 266.001c-0.666992 20 -4.66699 39.167 -12 57.5s-18 34.5 -32 48.5s-31.5 25.167 -52.5 33.5s-44.833 12.5 -71.5 12.5s-50.5 -4.16699 -71.5 -12.5s-38.833 -19.5 -53.5 -33.5s-25.834 -30.167 -33.501 -48.5
s-11.834 -37.5 -12.501 -57.5c-2 -88.667 -2 -177.334 0 -266.001c0.666992 -20 4.83398 -39.167 12.501 -57.5s18.667 -34.5 33 -48.5s32 -25.167 53 -33.5s45.167 -12.5 72.5 -12.5c26.667 0 50.334 4.16699 71.001 12.5s38 19.5 52 33.5s24.833 30.167 32.5 48.5
s11.834 37.5 12.501 57.5zM194.999 888h82v-98h-82v98zM364.999 888h82v-98h-82v98z" />
    <glyph glyph-name="multiply" unicode="&#xd7;" horiz-adv-x="527" 
d="M72 152l139 138l-141 141l53 53l141 -141l140 140l53 -53l-140 -140l138 -138l-53 -53l-138 138l-139 -138z" />
    <glyph glyph-name="Oslash" unicode="&#xd8;" 
d="M116 80c-31.333 40 -47.668 86 -49.001 138c-2 88 -2 176 0 264c0.666992 31.333 7.16699 60.833 19.5 88.5s29.666 51.834 51.999 72.501s49 37 80 49s65.5 18 103.5 18c30 0 57.667 -3.83301 83 -11.5s48.333 -18.167 69 -31.5l20 33h81l-49 -80
c15.333 -19.333 27.333 -40.833 36 -64.5s13.334 -48.167 14.001 -73.5c2 -88 2 -176 0 -264c-0.666992 -31.333 -7.16699 -60.833 -19.5 -88.5s-29.666 -51.834 -51.999 -72.501s-48.833 -37 -79.5 -49s-65 -18 -103 -18c-30.667 0 -59 3.83301 -85 11.5
s-49.333 18.167 -70 31.5l-20 -33h-80zM150.998 217c0 -20.667 4.00098 -40.332 12.001 -58.999l270 442c-14 10.667 -30.167 19.167 -48.5 25.5s-39.166 9.5 -62.499 9.5c-26.667 0 -50.5 -4.16699 -71.5 -12.5s-38.833 -19.5 -53.5 -33.5s-25.834 -30.167 -33.501 -48.5
s-11.834 -37.5 -12.501 -57.5c-2 -88.667 -2 -177.334 0 -266.001zM489.999 217.002c2 88.667 1.99805 177.333 -0.00195312 266c-1.33301 20.667 -5.33301 40 -12 58l-270 -441c14 -11.333 30.5 -20 49.5 -26s40.5 -9 64.5 -9c26.667 0 50.334 4.16699 71.001 12.5
s38 19.5 52 33.5s24.833 30.167 32.5 48.5s11.834 37.5 12.501 57.5z" />
    <glyph glyph-name="Ugrave" unicode="&#xd9;" horiz-adv-x="659" 
d="M584 700l-0.00292969 -482c0 -31.333 -6.16699 -60.833 -18.5 -88.5s-29.666 -51.834 -51.999 -72.501s-49 -37 -80 -49s-65.5 -18 -103.5 -18c-38.667 0 -73.667 6 -105 18s-58.166 28.333 -80.499 49s-39.5 44.834 -51.5 72.501s-18 57.167 -18 88.5v482h84v-482
c0 -20 3.83301 -39 11.5 -57s18.834 -33.833 33.501 -47.5s32.5 -24.667 53.5 -33s45.167 -12.5 72.5 -12.5c26 0 49.5 4.16699 70.5 12.5s38.833 19.333 53.5 33s26 29.5 34 47.5s12 37 12 57v482h84zM307.997 762l-141 138h114l116 -138h-89z" />
    <glyph glyph-name="Uacute" unicode="&#xda;" horiz-adv-x="659" 
d="M584 700l-0.00292969 -482c0 -31.333 -6.16699 -60.833 -18.5 -88.5s-29.666 -51.834 -51.999 -72.501s-49 -37 -80 -49s-65.5 -18 -103.5 -18c-38.667 0 -73.667 6 -105 18s-58.166 28.333 -80.499 49s-39.5 44.834 -51.5 72.501s-18 57.167 -18 88.5v482h84v-482
c0 -20 3.83301 -39 11.5 -57s18.834 -33.833 33.501 -47.5s32.5 -24.667 53.5 -33s45.167 -12.5 72.5 -12.5c26 0 49.5 4.16699 70.5 12.5s38.833 19.333 53.5 33s26 29.5 34 47.5s12 37 12 57v482h84zM276.997 762l116 138h114l-141 -138h-89z" />
    <glyph glyph-name="Ucircumflex" unicode="&#xdb;" horiz-adv-x="659" 
d="M584 700l-0.00292969 -482c0 -31.333 -6.16699 -60.833 -18.5 -88.5s-29.666 -51.834 -51.999 -72.501s-49 -37 -80 -49s-65.5 -18 -103.5 -18c-38.667 0 -73.667 6 -105 18s-58.166 28.333 -80.499 49s-39.5 44.834 -51.5 72.501s-18 57.167 -18 88.5v482h84v-482
c0 -20 3.83301 -39 11.5 -57s18.834 -33.833 33.501 -47.5s32.5 -24.667 53.5 -33s45.167 -12.5 72.5 -12.5c26 0 49.5 4.16699 70.5 12.5s38.833 19.333 53.5 33s26 29.5 34 47.5s12 37 12 57v482h84zM183.997 762l103 138h82l105 -138h-73l-74 75l-71 -75h-72z" />
    <glyph glyph-name="Udieresis" unicode="&#xdc;" horiz-adv-x="659" 
d="M584 700l-0.00292969 -482c0 -31.333 -6.16699 -60.833 -18.5 -88.5s-29.666 -51.834 -51.999 -72.501s-49 -37 -80 -49s-65.5 -18 -103.5 -18c-38.667 0 -73.667 6 -105 18s-58.166 28.333 -80.499 49s-39.5 44.834 -51.5 72.501s-18 57.167 -18 88.5v482h84v-482
c0 -20 3.83301 -39 11.5 -57s18.834 -33.833 33.501 -47.5s32.5 -24.667 53.5 -33s45.167 -12.5 72.5 -12.5c26 0 49.5 4.16699 70.5 12.5s38.833 19.333 53.5 33s26 29.5 34 47.5s12 37 12 57v482h84zM202.997 888h82v-98h-82v98zM372.997 888h82v-98h-82v98z" />
    <glyph glyph-name="Yacute" unicode="&#xdd;" horiz-adv-x="584" 
d="M292 368l180 332h97l-235 -416v-284h-84v284l-235 416h96zM235 762l116 138h114l-141 -138h-89z" />
    <glyph glyph-name="Thorn" unicode="&#xde;" horiz-adv-x="572" 
d="M80 700h84v-90h186c28.667 0 53.834 -4 75.501 -12s40 -19 55 -33s26.5 -30.5 34.5 -49.5s12.667 -39.5 14 -61.5c2.66699 -48 2.66699 -96 0 -144c-1.33301 -22 -6 -42.5 -14 -61.5s-19.5 -35.667 -34.5 -50s-33.333 -25.5 -55 -33.5s-46.834 -12 -75.501 -12h-186v-153
h-84v700zM444 307c3.33301 49.333 3.33301 99 0 149c-1.33301 20.667 -8.66602 38.5 -21.999 53.5s-36.666 22.5 -69.999 22.5h-188v-301h188c33.333 0 56.666 7.5 69.999 22.5s20.666 32.833 21.999 53.5z" />
    <glyph glyph-name="germandbls" unicode="&#xdf;" horiz-adv-x="539" 
d="M213 74l33.999 -6c9.33301 -1.33301 19.5 -2.5 30.5 -3.5s20.5 -1.5 28.5 -1.5c42.667 0 72.334 5.66699 89.001 17s25 29.333 25 54c0 20 -4 36.5 -12 49.5s-18 24.167 -30 33.5s-25 18 -39 26s-27 17.667 -39 29s-22 25 -30 41s-12 36.667 -12 62
c0 24 5.83301 45 17.5 63s24.834 33.333 39.501 46c17.333 14.667 36.666 27.334 57.999 38.001v19c0 28.667 -10.167 52.167 -30.5 70.5s-48.5 27.5 -84.5 27.5c-36.667 0 -64.167 -9.33301 -82.5 -28s-27.5 -42 -27.5 -70v-541h-78v548c0 22 3.83301 42.833 11.5 62.5
s19.334 36.834 35.001 51.501s35.334 26.334 59.001 35.001s51.5 13 83.5 13c27.333 0 52.666 -4.16699 75.999 -12.5s43.333 -19.833 60 -34.5s29.667 -31.834 39 -51.501s14 -40.834 14 -63.501v-61c-20.667 -9.33301 -39.334 -19.666 -56.001 -30.999
c-14 -9.33301 -26.833 -20.5 -38.5 -33.5s-17.5 -27.167 -17.5 -42.5s4 -28.333 12 -39s18 -20.334 30 -29.001s25.167 -17.334 39.5 -26.001s27.5 -19.334 39.5 -32.001s22 -28.167 30 -46.5s12 -41.166 12 -68.499c0 -47.333 -14.833 -83.5 -44.5 -108.5
s-77.5 -37.5 -143.5 -37.5c-10.667 0 -22.167 0.666992 -34.5 2l-35.5 4l-39 6z" />
    <glyph glyph-name="agrave" unicode="&#xe0;" horiz-adv-x="495" 
d="M354 44c-15.333 -10.667 -31.667 -19.667 -49 -27c-14.667 -7.33301 -31.167 -13.666 -49.5 -18.999s-36.833 -8 -55.5 -8c-48 0 -85 14.5 -111 43.5s-39 66.5 -39 112.5c0 22 3 42.667 9 62s15.167 36.5 27.5 51.5s27.833 26.833 46.5 35.5s41 13 67 13h153v34
c0 12.667 -2.16699 24.834 -6.5 36.501s-10.833 22 -19.5 31s-19 16.167 -31 21.5s-26 8 -42 8c-18.667 0 -38 -1 -58 -3s-38.333 -4 -55 -6c-20 -2.66699 -39.333 -5.66699 -58 -9l-7 68c18 4 37 7.33301 57 10c17.333 2.66699 36.333 5.16699 57 7.5s41.667 3.5 63 3.5
c29.333 0 55 -4.33301 77 -13s40.5 -20.334 55.5 -35.001s26.167 -31.834 33.5 -51.501s11 -40.5 11 -62.5v-348h-71zM202.999 62c18 0 36.001 3.5 54.001 10.5s34 14.833 48 23.5c16.667 10 32.667 21.333 48 34v107h-149c-14.667 0 -26.834 -2.5 -36.501 -7.5
s-17.5 -11.5 -23.5 -19.5s-10.167 -17.5 -12.5 -28.5s-3.5 -22.5 -3.5 -34.5c0 -23.333 5.5 -43.333 16.5 -60s30.5 -25 58.5 -25zM204 562l-141 138h114l116 -138h-89z" />
    <glyph glyph-name="aacute" unicode="&#xe1;" horiz-adv-x="495" 
d="M354 44c-15.333 -10.667 -31.667 -19.667 -49 -27c-14.667 -7.33301 -31.167 -13.666 -49.5 -18.999s-36.833 -8 -55.5 -8c-48 0 -85 14.5 -111 43.5s-39 66.5 -39 112.5c0 22 3 42.667 9 62s15.167 36.5 27.5 51.5s27.833 26.833 46.5 35.5s41 13 67 13h153v34
c0 12.667 -2.16699 24.834 -6.5 36.501s-10.833 22 -19.5 31s-19 16.167 -31 21.5s-26 8 -42 8c-18.667 0 -38 -1 -58 -3s-38.333 -4 -55 -6c-20 -2.66699 -39.333 -5.66699 -58 -9l-7 68c18 4 37 7.33301 57 10c17.333 2.66699 36.333 5.16699 57 7.5s41.667 3.5 63 3.5
c29.333 0 55 -4.33301 77 -13s40.5 -20.334 55.5 -35.001s26.167 -31.834 33.5 -51.501s11 -40.5 11 -62.5v-348h-71zM202.999 62c18 0 36.001 3.5 54.001 10.5s34 14.833 48 23.5c16.667 10 32.667 21.333 48 34v107h-149c-14.667 0 -26.834 -2.5 -36.501 -7.5
s-17.5 -11.5 -23.5 -19.5s-10.167 -17.5 -12.5 -28.5s-3.5 -22.5 -3.5 -34.5c0 -23.333 5.5 -43.333 16.5 -60s30.5 -25 58.5 -25zM198 562l116 138h114l-141 -138h-89z" />
    <glyph glyph-name="acircumflex" unicode="&#xe2;" horiz-adv-x="495" 
d="M354 44c-15.333 -10.667 -31.667 -19.667 -49 -27c-14.667 -7.33301 -31.167 -13.666 -49.5 -18.999s-36.833 -8 -55.5 -8c-48 0 -85 14.5 -111 43.5s-39 66.5 -39 112.5c0 22 3 42.667 9 62s15.167 36.5 27.5 51.5s27.833 26.833 46.5 35.5s41 13 67 13h153v34
c0 12.667 -2.16699 24.834 -6.5 36.501s-10.833 22 -19.5 31s-19 16.167 -31 21.5s-26 8 -42 8c-18.667 0 -38 -1 -58 -3s-38.333 -4 -55 -6c-20 -2.66699 -39.333 -5.66699 -58 -9l-7 68c18 4 37 7.33301 57 10c17.333 2.66699 36.333 5.16699 57 7.5s41.667 3.5 63 3.5
c29.333 0 55 -4.33301 77 -13s40.5 -20.334 55.5 -35.001s26.167 -31.834 33.5 -51.501s11 -40.5 11 -62.5v-348h-71zM202.999 62c18 0 36.001 3.5 54.001 10.5s34 14.833 48 23.5c16.667 10 32.667 21.333 48 34v107h-149c-14.667 0 -26.834 -2.5 -36.501 -7.5
s-17.5 -11.5 -23.5 -19.5s-10.167 -17.5 -12.5 -28.5s-3.5 -22.5 -3.5 -34.5c0 -23.333 5.5 -43.333 16.5 -60s30.5 -25 58.5 -25zM102 562l103 138h82l105 -138h-73l-74 75l-71 -75h-72z" />
    <glyph glyph-name="atilde" unicode="&#xe3;" horiz-adv-x="495" 
d="M354 44c-15.333 -10.667 -31.667 -19.667 -49 -27c-14.667 -7.33301 -31.167 -13.666 -49.5 -18.999s-36.833 -8 -55.5 -8c-48 0 -85 14.5 -111 43.5s-39 66.5 -39 112.5c0 22 3 42.667 9 62s15.167 36.5 27.5 51.5s27.833 26.833 46.5 35.5s41 13 67 13h153v34
c0 12.667 -2.16699 24.834 -6.5 36.501s-10.833 22 -19.5 31s-19 16.167 -31 21.5s-26 8 -42 8c-18.667 0 -38 -1 -58 -3s-38.333 -4 -55 -6c-20 -2.66699 -39.333 -5.66699 -58 -9l-7 68c18 4 37 7.33301 57 10c17.333 2.66699 36.333 5.16699 57 7.5s41.667 3.5 63 3.5
c29.333 0 55 -4.33301 77 -13s40.5 -20.334 55.5 -35.001s26.167 -31.834 33.5 -51.501s11 -40.5 11 -62.5v-348h-71zM202.999 62c18 0 36.001 3.5 54.001 10.5s34 14.833 48 23.5c16.667 10 32.667 21.333 48 34v107h-149c-14.667 0 -26.834 -2.5 -36.501 -7.5
s-17.5 -11.5 -23.5 -19.5s-10.167 -17.5 -12.5 -28.5s-3.5 -22.5 -3.5 -34.5c0 -23.333 5.5 -43.333 16.5 -60s30.5 -25 58.5 -25zM92 579c0 12.667 2.33398 25.3359 7.00098 38.0029s11 24 19 34s17.5 18 28.5 24s23.167 9 36.5 9c12 0 23.667 -2.16699 35 -6.5
s22.5 -9.16602 33.5 -14.499l30.5 -14.5c9.33301 -4.33301 18 -6.5 26 -6.5c7.33301 0 13 4.16699 17 12.5s6 16.166 6 23.499h72c0 -12.667 -2.16699 -25.334 -6.5 -38.001s-10.5 -24 -18.5 -34s-17.5 -18 -28.5 -24s-22.833 -9 -35.5 -9c-12 0 -23.833 2.16699 -35.5 6.5
s-22.834 9.16602 -33.501 14.499s-20.834 10.166 -30.501 14.499s-18.167 6.5 -25.5 6.5c-8 0 -14.167 -4 -18.5 -12s-7.16602 -16 -8.49902 -24h-70z" />
    <glyph glyph-name="adieresis" unicode="&#xe4;" horiz-adv-x="495" 
d="M354 44c-15.333 -10.667 -31.667 -19.667 -49 -27c-14.667 -7.33301 -31.167 -13.666 -49.5 -18.999s-36.833 -8 -55.5 -8c-48 0 -85 14.5 -111 43.5s-39 66.5 -39 112.5c0 22 3 42.667 9 62s15.167 36.5 27.5 51.5s27.833 26.833 46.5 35.5s41 13 67 13h153v34
c0 12.667 -2.16699 24.834 -6.5 36.501s-10.833 22 -19.5 31s-19 16.167 -31 21.5s-26 8 -42 8c-18.667 0 -38 -1 -58 -3s-38.333 -4 -55 -6c-20 -2.66699 -39.333 -5.66699 -58 -9l-7 68c18 4 37 7.33301 57 10c17.333 2.66699 36.333 5.16699 57 7.5s41.667 3.5 63 3.5
c29.333 0 55 -4.33301 77 -13s40.5 -20.334 55.5 -35.001s26.167 -31.834 33.5 -51.501s11 -40.5 11 -62.5v-348h-71zM202.999 62c18 0 36.001 3.5 54.001 10.5s34 14.833 48 23.5c16.667 10 32.667 21.333 48 34v107h-149c-14.667 0 -26.834 -2.5 -36.501 -7.5
s-17.5 -11.5 -23.5 -19.5s-10.167 -17.5 -12.5 -28.5s-3.5 -22.5 -3.5 -34.5c0 -23.333 5.5 -43.333 16.5 -60s30.5 -25 58.5 -25zM121 688h82v-98h-82v98zM291 688h82v-98h-82v98z" />
    <glyph glyph-name="aring" unicode="&#xe5;" horiz-adv-x="495" 
d="M354 44c-15.333 -10.667 -31.667 -19.667 -49 -27c-14.667 -7.33301 -31.167 -13.666 -49.5 -18.999s-36.833 -8 -55.5 -8c-48 0 -85 14.5 -111 43.5s-39 66.5 -39 112.5c0 22 3 42.667 9 62s15.167 36.5 27.5 51.5s27.833 26.833 46.5 35.5s41 13 67 13h153v34
c0 12.667 -2.16699 24.834 -6.5 36.501s-10.833 22 -19.5 31s-19 16.167 -31 21.5s-26 8 -42 8c-18.667 0 -38 -1 -58 -3s-38.333 -4 -55 -6c-20 -2.66699 -39.333 -5.66699 -58 -9l-7 68c18 4 37 7.33301 57 10c17.333 2.66699 36.333 5.16699 57 7.5s41.667 3.5 63 3.5
c29.333 0 55 -4.33301 77 -13s40.5 -20.334 55.5 -35.001s26.167 -31.834 33.5 -51.501s11 -40.5 11 -62.5v-348h-71zM202.999 62c18 0 36.001 3.5 54.001 10.5s34 14.833 48 23.5c16.667 10 32.667 21.333 48 34v107h-149c-14.667 0 -26.834 -2.5 -36.501 -7.5
s-17.5 -11.5 -23.5 -19.5s-10.167 -17.5 -12.5 -28.5s-3.5 -22.5 -3.5 -34.5c0 -23.333 5.5 -43.333 16.5 -60s30.5 -25 58.5 -25zM160 630c0 24.667 8.16699 45.5 24.5 62.5s36.833 25.5 61.5 25.5c24 0 44.667 -8.5 62 -25.5s26 -37.833 26 -62.5
c0 -24 -8.66699 -44.5 -26 -61.5s-38 -25.5 -62 -25.5c-24.667 0 -45.167 8.5 -61.5 25.5s-24.5 37.5 -24.5 61.5zM211 631c0 -10 3.16699 -18.333 9.5 -25s14.833 -10 25.5 -10s19.334 3.33301 26.001 10s10 15 10 25c0 10.667 -3.33301 19.334 -10 26.001
s-15.334 10 -26.001 10s-19.167 -3.33301 -25.5 -10s-9.5 -15.334 -9.5 -26.001z" />
    <glyph glyph-name="ae" unicode="&#xe6;" horiz-adv-x="779" 
d="M710 14c-11.333 -4.66699 -25.6641 -8.66504 -42.9971 -11.998c-14.667 -3.33301 -32.5 -6.16602 -53.5 -8.49902s-45.5 -3.5 -73.5 -3.5c-38 0 -70 6.5 -96 19.5s-46.667 30.167 -62 51.5l-30 -19c-12.667 -8 -27.167 -15.833 -43.5 -23.5
s-33.833 -14.334 -52.5 -20.001s-37.334 -8.5 -56.001 -8.5c-48 0 -85 14.5 -111 43.5s-39 66.5 -39 112.5c0 22 3 42.167 9 60.5s15.167 34.166 27.5 47.499s27.833 23.666 46.5 30.999s41 11 67 11h153v13c0 4 -0.166992 8.83301 -0.5 14.5s-0.5 11.834 -0.5 18.501
c-0.666992 12.667 -3.16699 24.834 -7.5 36.501s-10.5 22 -18.5 31s-18 16.167 -30 21.5s-26 8 -42 8c-18.667 0 -38 -1 -58 -3s-38.333 -4 -55 -6c-20 -2.66699 -39.333 -5.66699 -58 -9l-7 68c18 4 37 7.33301 57 10c17.333 2.66699 36.333 5.16699 57 7.5
s41.667 3.5 63 3.5c32.667 0 60.667 -5.33301 84 -16s42.666 -25 57.999 -43c16 18 36.167 32.333 60.5 43s52.5 16 84.5 16c28 0 53.333 -4.33301 76 -13s42 -20.334 58 -35.001s28.333 -31.834 37 -51.501s13 -40.5 13 -62.5v-123h-293v-26v-22
c0 -7.33301 0.333008 -13.666 1 -18.999c0.666992 -12.667 3.5 -24.834 8.5 -36.501s12 -22 21 -31s20 -16.167 33 -21.5s27.833 -8 44.5 -8c20 0 39.667 1 59 3s36.666 4.33301 51.999 7c17.333 2.66699 34 6 50 10zM203.002 62.002c18 0 36.168 3.50098 54.501 10.501
s34.833 15.167 49.5 24.5c17.333 10.667 33.666 22.667 48.999 36c-1.33301 8 -2.33301 17.333 -3 28s-1 20.667 -1 30c-0.666992 11.333 -0.666992 22.666 0 33.999h-148c-29.333 0 -49.333 -7 -60 -21s-16 -33 -16 -57c0 -23.333 5.5 -43.333 16.5 -60s30.5 -25 58.5 -25z
M432.003 342.003c-0.666992 -4 -0.998047 -8.66699 -0.998047 -14v-15v-17h216v17c0 4.66699 -0.166992 9.66699 -0.5 15s-0.5 10 -0.5 14c-0.666992 12.667 -3.66699 25 -9 37s-12.5 22.333 -21.5 31s-19.833 15.667 -32.5 21s-26.334 8 -41.001 8
c-34.667 0 -61.334 -9.5 -80.001 -28.5s-28.667 -41.833 -30 -68.5z" />
    <glyph glyph-name="ccedilla" unicode="&#xe7;" horiz-adv-x="420" 
d="M390 7c-11.333 -2 -22.9971 -4.3291 -34.9971 -6.99609c-11.333 -2 -24 -3.83301 -38 -5.5s-29.667 -2.83398 -47 -3.50098l-6 -31c10.667 0 20.5 -1 29.5 -3s17 -5.5 24 -10.5s12.5 -12 16.5 -21s6 -20.5 6 -34.5c0 -28.667 -7.83301 -49.334 -23.5 -62.001
s-36.167 -19 -61.5 -19c-21.333 0 -39 1 -53 3c-8 0.666992 -16 1.66699 -24 3l3 43c6 -0.666992 12.667 -1.33398 20 -2.00098c6 -0.666992 12.5 -1.16699 19.5 -1.5s13.5 -0.5 19.5 -0.5c26.667 0 40 12 40 36c0 11.333 -3.5 19.166 -10.5 23.499s-16.833 6.5 -29.5 6.5
h-40l15 71c-24.667 2.66699 -46.5 8.66699 -65.5 18s-34.833 21.166 -47.5 35.499s-22.334 30.5 -29.001 48.5s-10.334 37.333 -11.001 58c-2 65.333 -2 130.666 0 195.999c0.666992 22 5.16699 42.833 13.5 62.5s20.166 36.834 35.499 51.501s34.333 26.334 57 35.001
s49 13 79 13c18.667 0 36 -0.666992 52 -2s30.333 -2.66602 43 -3.99902c14 -2 27.333 -4 40 -6l-7 -71l-42 6c-12.667 1.33301 -26.5 2.66602 -41.5 3.99902s-30.167 2 -45.5 2c-32.667 0 -58.167 -9.5 -76.5 -28.5s-28.166 -41.167 -29.499 -66.5
c-2 -62.667 -2 -125.334 0 -188.001c1.33301 -25.333 11 -47.5 29 -66.5s43.667 -28.5 77 -28.5c20 0 38.167 0.833008 54.5 2.5s30.5 3.5 42.5 5.5c13.333 2.66699 25.666 5.33398 36.999 8.00098z" />
    <glyph glyph-name="egrave" unicode="&#xe8;" horiz-adv-x="487" 
d="M418 14c-11.333 -4.66699 -25.665 -8.66895 -42.998 -12.002c-14.667 -3.33301 -32.5 -6.16602 -53.5 -8.49902s-45.5 -3.5 -73.5 -3.5c-30 0 -56.333 4.16699 -79 12.5s-41.667 19.833 -57 34.5s-27.333 31.834 -36 51.501s-13.334 40.834 -14.001 63.501
c-0.666992 16 -1.16699 32.167 -1.5 48.5s-0.5 32.833 -0.5 49.5s0.166992 33 0.5 49s0.833008 32.333 1.5 49c0.666992 22 5.5 42.833 14.5 62.5s21.5 36.834 37.5 51.501s35.167 26.334 57.5 35.001s47.833 13 76.5 13c28 0 53.333 -4.33301 76 -13s42 -20.334 58 -35.001
s28.333 -31.834 37 -51.501s13 -40.5 13 -62.5v-128h-293v-23v-20.5c0 -7 0.333008 -13.167 1 -18.5c0.666992 -12.667 3.5 -24.834 8.5 -36.501s12 -22 21 -31s20 -16.167 33 -21.5s27.833 -8 44.5 -8c20 0 39.667 1 59 3s36.666 4.33301 51.999 7
c17.333 2.66699 34 6 50 10zM140.001 341.998c-0.666992 -4 -0.998047 -9 -0.998047 -15v-17v-19h216v19c0 5.33301 -0.166992 11 -0.5 17s-0.5 11 -0.5 15c-0.666992 12.667 -3.66699 25 -9 37s-12.5 22.333 -21.5 31s-19.833 15.667 -32.5 21s-26.334 8 -41.001 8
c-34.667 0 -61.334 -9.5 -80.001 -28.5s-28.667 -41.833 -30 -68.5zM210.003 561.998l-141 138h114l116 -138h-89z" />
    <glyph glyph-name="eacute" unicode="&#xe9;" horiz-adv-x="487" 
d="M418 14c-11.333 -4.66699 -25.665 -8.66895 -42.998 -12.002c-14.667 -3.33301 -32.5 -6.16602 -53.5 -8.49902s-45.5 -3.5 -73.5 -3.5c-30 0 -56.333 4.16699 -79 12.5s-41.667 19.833 -57 34.5s-27.333 31.834 -36 51.501s-13.334 40.834 -14.001 63.501
c-0.666992 16 -1.16699 32.167 -1.5 48.5s-0.5 32.833 -0.5 49.5s0.166992 33 0.5 49s0.833008 32.333 1.5 49c0.666992 22 5.5 42.833 14.5 62.5s21.5 36.834 37.5 51.501s35.167 26.334 57.5 35.001s47.833 13 76.5 13c28 0 53.333 -4.33301 76 -13s42 -20.334 58 -35.001
s28.333 -31.834 37 -51.501s13 -40.5 13 -62.5v-128h-293v-23v-20.5c0 -7 0.333008 -13.167 1 -18.5c0.666992 -12.667 3.5 -24.834 8.5 -36.501s12 -22 21 -31s20 -16.167 33 -21.5s27.833 -8 44.5 -8c20 0 39.667 1 59 3s36.666 4.33301 51.999 7
c17.333 2.66699 34 6 50 10zM140.001 341.998c-0.666992 -4 -0.998047 -9 -0.998047 -15v-17v-19h216v19c0 5.33301 -0.166992 11 -0.5 17s-0.5 11 -0.5 15c-0.666992 12.667 -3.66699 25 -9 37s-12.5 22.333 -21.5 31s-19.833 15.667 -32.5 21s-26.334 8 -41.001 8
c-34.667 0 -61.334 -9.5 -80.001 -28.5s-28.667 -41.833 -30 -68.5zM192.003 561.998l116 138h114l-141 -138h-89z" />
    <glyph glyph-name="ecircumflex" unicode="&#xea;" horiz-adv-x="487" 
d="M418 14c-11.333 -4.66699 -25.665 -8.66895 -42.998 -12.002c-14.667 -3.33301 -32.5 -6.16602 -53.5 -8.49902s-45.5 -3.5 -73.5 -3.5c-30 0 -56.333 4.16699 -79 12.5s-41.667 19.833 -57 34.5s-27.333 31.834 -36 51.501s-13.334 40.834 -14.001 63.501
c-0.666992 16 -1.16699 32.167 -1.5 48.5s-0.5 32.833 -0.5 49.5s0.166992 33 0.5 49s0.833008 32.333 1.5 49c0.666992 22 5.5 42.833 14.5 62.5s21.5 36.834 37.5 51.501s35.167 26.334 57.5 35.001s47.833 13 76.5 13c28 0 53.333 -4.33301 76 -13s42 -20.334 58 -35.001
s28.333 -31.834 37 -51.501s13 -40.5 13 -62.5v-128h-293v-23v-20.5c0 -7 0.333008 -13.167 1 -18.5c0.666992 -12.667 3.5 -24.834 8.5 -36.501s12 -22 21 -31s20 -16.167 33 -21.5s27.833 -8 44.5 -8c20 0 39.667 1 59 3s36.666 4.33301 51.999 7
c17.333 2.66699 34 6 50 10zM140.001 341.998c-0.666992 -4 -0.998047 -9 -0.998047 -15v-17v-19h216v19c0 5.33301 -0.166992 11 -0.5 17s-0.5 11 -0.5 15c-0.666992 12.667 -3.66699 25 -9 37s-12.5 22.333 -21.5 31s-19.833 15.667 -32.5 21s-26.334 8 -41.001 8
c-34.667 0 -61.334 -9.5 -80.001 -28.5s-28.667 -41.833 -30 -68.5zM98.0029 561.998l103 138h82l105 -138h-73l-74 75l-71 -75h-72z" />
    <glyph glyph-name="edieresis" unicode="&#xeb;" horiz-adv-x="487" 
d="M418 14c-11.333 -4.66699 -25.665 -8.66895 -42.998 -12.002c-14.667 -3.33301 -32.5 -6.16602 -53.5 -8.49902s-45.5 -3.5 -73.5 -3.5c-30 0 -56.333 4.16699 -79 12.5s-41.667 19.833 -57 34.5s-27.333 31.834 -36 51.501s-13.334 40.834 -14.001 63.501
c-0.666992 16 -1.16699 32.167 -1.5 48.5s-0.5 32.833 -0.5 49.5s0.166992 33 0.5 49s0.833008 32.333 1.5 49c0.666992 22 5.5 42.833 14.5 62.5s21.5 36.834 37.5 51.501s35.167 26.334 57.5 35.001s47.833 13 76.5 13c28 0 53.333 -4.33301 76 -13s42 -20.334 58 -35.001
s28.333 -31.834 37 -51.501s13 -40.5 13 -62.5v-128h-293v-23v-20.5c0 -7 0.333008 -13.167 1 -18.5c0.666992 -12.667 3.5 -24.834 8.5 -36.501s12 -22 21 -31s20 -16.167 33 -21.5s27.833 -8 44.5 -8c20 0 39.667 1 59 3s36.666 4.33301 51.999 7
c17.333 2.66699 34 6 50 10zM140.001 341.998c-0.666992 -4 -0.998047 -9 -0.998047 -15v-17v-19h216v19c0 5.33301 -0.166992 11 -0.5 17s-0.5 11 -0.5 15c-0.666992 12.667 -3.66699 25 -9 37s-12.5 22.333 -21.5 31s-19.833 15.667 -32.5 21s-26.334 8 -41.001 8
c-34.667 0 -61.334 -9.5 -80.001 -28.5s-28.667 -41.833 -30 -68.5zM117.003 687.998h82v-98h-82v98zM287.003 687.998h82v-98h-82v98z" />
    <glyph glyph-name="igrave" unicode="&#xec;" horiz-adv-x="223" 
d="M72 500h78v-500h-78v500zM76 562l-141 138h114l116 -138h-89z" />
    <glyph glyph-name="iacute" unicode="&#xed;" horiz-adv-x="223" 
d="M72 500h78v-500h-78v500zM47 562l116 138h114l-141 -138h-89z" />
    <glyph glyph-name="icircumflex" unicode="&#xee;" horiz-adv-x="223" 
d="M72 500h78v-500h-78v500zM-33 562l103 138h82l105 -138h-73l-74 75l-71 -75h-72z" />
    <glyph glyph-name="idieresis" unicode="&#xef;" horiz-adv-x="223" 
d="M72 500h78v-500h-78v500zM-14 688h82v-98h-82v98zM156 688h82v-98h-82v98z" />
    <glyph glyph-name="eth" unicode="&#xf0;" horiz-adv-x="515" 
d="M455 603l-47.999 -22.0039c15.333 -28 26.666 -56.833 33.999 -86.5s11 -58.5 11 -86.5c0.666992 -38 1 -73.667 1 -107v-43v-42c0 -13.333 -0.166992 -25.666 -0.5 -36.999s-0.5 -20.333 -0.5 -27c-0.666992 -22.667 -5.66699 -43.834 -15 -63.501
s-22.333 -36.834 -39 -51.501s-36.834 -26.167 -60.501 -34.5s-50.167 -12.5 -79.5 -12.5c-32 0 -60 4.16699 -84 12.5s-44.167 19.833 -60.5 34.5s-28.833 31.834 -37.5 51.501s-13.334 40.834 -14.001 63.501c-0.666992 16 -1.16699 30.333 -1.5 43s-0.5 25 -0.5 37
s0.166992 24.5 0.5 37.5s0.833008 27.5 1.5 43.5c0.666992 22 5.33398 42.833 14.001 62.5s21.167 36.834 37.5 51.501s36.5 26.334 60.5 35.001s52 13 84 13c13.333 0 26.833 -1.16699 40.5 -3.5s26.167 -4.83301 37.5 -7.5c12.667 -2.66699 25.334 -6 38.001 -10
c0 16 -2.83301 32.5 -8.5 49.5s-13.5 33.167 -23.5 48.5l-88 -39v75l40 18c-13.333 9.33301 -27.333 16.833 -42 22.5s-30 8.5 -46 8.5c-6 0 -12.167 -0.166992 -18.5 -0.5s-12.166 -0.5 -17.499 -0.5h-18l-5 71c7.33301 0 14.333 0.333008 21 1
c5.33301 0.666992 10.666 1.16699 15.999 1.5s9.33301 0.5 12 0.5c36.667 0 69.167 -6.66699 97.5 -20s52.5 -30.666 72.5 -51.999l89 40v-75zM374.001 380.996c-8.66699 4 -19 7.66797 -31 11.001c-10 3.33301 -22.167 6.16602 -36.5 8.49902s-30.833 3.5 -49.5 3.5
c-36.667 0 -65 -9.16699 -85 -27.5s-30.667 -40.833 -32 -67.5c-0.666992 -15.333 -1.16699 -29 -1.5 -41s-0.5 -23.833 -0.5 -35.5s0.166992 -23.5 0.5 -35.5s0.833008 -25.667 1.5 -41c1.33301 -26.667 12 -49.167 32 -67.5s48.667 -27.5 86 -27.5
c18 0 34.167 2.66699 48.5 8s26.5 12.5 36.5 21.5s17.667 19.167 23 30.5s8 23 8 35v225z" />
    <glyph glyph-name="ntilde" unicode="&#xf1;" horiz-adv-x="520" 
d="M70 0l0.00292969 500.001h73l5 -34c14 8 29 15.333 45 22c13.333 5.33301 28.833 10.333 46.5 15s36.167 7 55.5 7c27.333 0 51.166 -4.33301 71.499 -13s37 -20.334 50 -35.001s22.667 -31.834 29 -51.501s9.5 -40.5 9.5 -62.5v-348h-78v342
c0 12.667 -1.5 24.834 -4.5 36.501s-8 22 -15 31s-15.833 16.167 -26.5 21.5s-23.334 8 -38.001 8c-17.333 0 -34.5 -2.5 -51.5 -7.5s-32.5 -10.5 -46.5 -16.5c-16.667 -7.33301 -32.334 -15.333 -47.001 -24v-391h-78zM104.003 579.001
c0 12.667 2.33398 25.3359 7.00098 38.0029s11 24 19 34s17.5 18 28.5 24s23.167 9 36.5 9c12 0 23.667 -2.16699 35 -6.5s22.5 -9.16602 33.5 -14.499l30.5 -14.5c9.33301 -4.33301 18 -6.5 26 -6.5c7.33301 0 13 4.16699 17 12.5s6 16.166 6 23.499h72
c0 -12.667 -2.16699 -25.334 -6.5 -38.001s-10.5 -24 -18.5 -34s-17.5 -18 -28.5 -24s-22.833 -9 -35.5 -9c-12 0 -23.833 2.16699 -35.5 6.5s-22.834 9.16602 -33.501 14.499s-20.834 10.166 -30.501 14.499s-18.167 6.5 -25.5 6.5c-8 0 -14.167 -4 -18.5 -12
s-7.16602 -16 -8.49902 -24h-70z" />
    <glyph glyph-name="ograve" unicode="&#xf2;" horiz-adv-x="514" 
d="M452 152c-0.666992 -22.667 -5.66699 -43.834 -15 -63.501s-22.333 -36.834 -39 -51.501s-36.834 -26.167 -60.501 -34.5s-50.167 -12.5 -79.5 -12.5c-32 0 -60 4.16699 -84 12.5s-44.167 19.833 -60.5 34.5s-28.833 31.834 -37.5 51.501s-13.334 40.834 -14.001 63.501
c-2 65.333 -2 130.666 0 195.999c0.666992 22 5.33398 42.833 14.001 62.5s21.167 36.834 37.5 51.501s36.5 26.334 60.5 35.001s52 13 84 13c29.333 0 55.833 -4.33301 79.5 -13s43.834 -20.334 60.501 -35.001s29.667 -31.834 39 -51.501s14.333 -40.5 15 -62.5
c2 -65.333 2 -130.666 0 -195.999zM374 344c-1.33301 26.667 -11.834 49.167 -31.501 67.5s-48.167 27.5 -85.5 27.5c-36.667 0 -65 -9.16699 -85 -27.5s-30.667 -40.833 -32 -67.5c-3.33301 -62.667 -3.33301 -125.334 0 -188.001c1.33301 -26.667 12 -49.167 32 -67.5
s48.667 -27.5 86 -27.5c36.667 0 64.834 9.16699 84.501 27.5s30.167 40.833 31.5 67.5c3.33301 62.667 3.33301 125.334 0 188.001zM218.999 562l-141 138h114l116 -138h-89z" />
    <glyph glyph-name="oacute" unicode="&#xf3;" horiz-adv-x="514" 
d="M452 152c-0.666992 -22.667 -5.66699 -43.834 -15 -63.501s-22.333 -36.834 -39 -51.501s-36.834 -26.167 -60.501 -34.5s-50.167 -12.5 -79.5 -12.5c-32 0 -60 4.16699 -84 12.5s-44.167 19.833 -60.5 34.5s-28.833 31.834 -37.5 51.501s-13.334 40.834 -14.001 63.501
c-2 65.333 -2 130.666 0 195.999c0.666992 22 5.33398 42.833 14.001 62.5s21.167 36.834 37.5 51.501s36.5 26.334 60.5 35.001s52 13 84 13c29.333 0 55.833 -4.33301 79.5 -13s43.834 -20.334 60.501 -35.001s29.667 -31.834 39 -51.501s14.333 -40.5 15 -62.5
c2 -65.333 2 -130.666 0 -195.999zM374 344c-1.33301 26.667 -11.834 49.167 -31.501 67.5s-48.167 27.5 -85.5 27.5c-36.667 0 -65 -9.16699 -85 -27.5s-30.667 -40.833 -32 -67.5c-3.33301 -62.667 -3.33301 -125.334 0 -188.001c1.33301 -26.667 12 -49.167 32 -67.5
s48.667 -27.5 86 -27.5c36.667 0 64.834 9.16699 84.501 27.5s30.167 40.833 31.5 67.5c3.33301 62.667 3.33301 125.334 0 188.001zM191.999 562l116 138h114l-141 -138h-89z" />
    <glyph glyph-name="ocircumflex" unicode="&#xf4;" horiz-adv-x="514" 
d="M452 152c-0.666992 -22.667 -5.66699 -43.834 -15 -63.501s-22.333 -36.834 -39 -51.501s-36.834 -26.167 -60.501 -34.5s-50.167 -12.5 -79.5 -12.5c-32 0 -60 4.16699 -84 12.5s-44.167 19.833 -60.5 34.5s-28.833 31.834 -37.5 51.501s-13.334 40.834 -14.001 63.501
c-2 65.333 -2 130.666 0 195.999c0.666992 22 5.33398 42.833 14.001 62.5s21.167 36.834 37.5 51.501s36.5 26.334 60.5 35.001s52 13 84 13c29.333 0 55.833 -4.33301 79.5 -13s43.834 -20.334 60.501 -35.001s29.667 -31.834 39 -51.501s14.333 -40.5 15 -62.5
c2 -65.333 2 -130.666 0 -195.999zM374 344c-1.33301 26.667 -11.834 49.167 -31.501 67.5s-48.167 27.5 -85.5 27.5c-36.667 0 -65 -9.16699 -85 -27.5s-30.667 -40.833 -32 -67.5c-3.33301 -62.667 -3.33301 -125.334 0 -188.001c1.33301 -26.667 12 -49.167 32 -67.5
s48.667 -27.5 86 -27.5c36.667 0 64.834 9.16699 84.501 27.5s30.167 40.833 31.5 67.5c3.33301 62.667 3.33301 125.334 0 188.001zM111.999 562l103 138h82l105 -138h-73l-74 75l-71 -75h-72z" />
    <glyph glyph-name="otilde" unicode="&#xf5;" horiz-adv-x="514" 
d="M452 152c-0.666992 -22.667 -5.66699 -43.834 -15 -63.501s-22.333 -36.834 -39 -51.501s-36.834 -26.167 -60.501 -34.5s-50.167 -12.5 -79.5 -12.5c-32 0 -60 4.16699 -84 12.5s-44.167 19.833 -60.5 34.5s-28.833 31.834 -37.5 51.501s-13.334 40.834 -14.001 63.501
c-2 65.333 -2 130.666 0 195.999c0.666992 22 5.33398 42.833 14.001 62.5s21.167 36.834 37.5 51.501s36.5 26.334 60.5 35.001s52 13 84 13c29.333 0 55.833 -4.33301 79.5 -13s43.834 -20.334 60.501 -35.001s29.667 -31.834 39 -51.501s14.333 -40.5 15 -62.5
c2 -65.333 2 -130.666 0 -195.999zM374 344c-1.33301 26.667 -11.834 49.167 -31.501 67.5s-48.167 27.5 -85.5 27.5c-36.667 0 -65 -9.16699 -85 -27.5s-30.667 -40.833 -32 -67.5c-3.33301 -62.667 -3.33301 -125.334 0 -188.001c1.33301 -26.667 12 -49.167 32 -67.5
s48.667 -27.5 86 -27.5c36.667 0 64.834 9.16699 84.501 27.5s30.167 40.833 31.5 67.5c3.33301 62.667 3.33301 125.334 0 188.001zM100.999 579c0 12.667 2.33398 25.3359 7.00098 38.0029s11 24 19 34s17.5 18 28.5 24s23.167 9 36.5 9c12 0 23.667 -2.16699 35 -6.5
s22.5 -9.16602 33.5 -14.499l30.5 -14.5c9.33301 -4.33301 18 -6.5 26 -6.5c7.33301 0 13 4.16699 17 12.5s6 16.166 6 23.499h72c0 -12.667 -2.16699 -25.334 -6.5 -38.001s-10.5 -24 -18.5 -34s-17.5 -18 -28.5 -24s-22.833 -9 -35.5 -9c-12 0 -23.833 2.16699 -35.5 6.5
s-22.834 9.16602 -33.501 14.499s-20.834 10.166 -30.501 14.499s-18.167 6.5 -25.5 6.5c-8 0 -14.167 -4 -18.5 -12s-7.16602 -16 -8.49902 -24h-70z" />
    <glyph glyph-name="odieresis" unicode="&#xf6;" horiz-adv-x="514" 
d="M452 152c-0.666992 -22.667 -5.66699 -43.834 -15 -63.501s-22.333 -36.834 -39 -51.501s-36.834 -26.167 -60.501 -34.5s-50.167 -12.5 -79.5 -12.5c-32 0 -60 4.16699 -84 12.5s-44.167 19.833 -60.5 34.5s-28.833 31.834 -37.5 51.501s-13.334 40.834 -14.001 63.501
c-2 65.333 -2 130.666 0 195.999c0.666992 22 5.33398 42.833 14.001 62.5s21.167 36.834 37.5 51.501s36.5 26.334 60.5 35.001s52 13 84 13c29.333 0 55.833 -4.33301 79.5 -13s43.834 -20.334 60.501 -35.001s29.667 -31.834 39 -51.501s14.333 -40.5 15 -62.5
c2 -65.333 2 -130.666 0 -195.999zM374 344c-1.33301 26.667 -11.834 49.167 -31.501 67.5s-48.167 27.5 -85.5 27.5c-36.667 0 -65 -9.16699 -85 -27.5s-30.667 -40.833 -32 -67.5c-3.33301 -62.667 -3.33301 -125.334 0 -188.001c1.33301 -26.667 12 -49.167 32 -67.5
s48.667 -27.5 86 -27.5c36.667 0 64.834 9.16699 84.501 27.5s30.167 40.833 31.5 67.5c3.33301 62.667 3.33301 125.334 0 188.001zM130.999 688h82v-98h-82v98zM300.999 688h82v-98h-82v98z" />
    <glyph glyph-name="divide" unicode="&#xf7;" horiz-adv-x="582" 
d="M241 185h100v-99h-100v99zM241 504h100v-99h-100v99zM512 330v-75h-442v75h442z" />
    <glyph glyph-name="oslash" unicode="&#xf8;" horiz-adv-x="514" 
d="M452 152c-0.666992 -22.667 -5.66699 -43.833 -15 -63.5s-22.333 -36.834 -39 -51.501s-36.834 -26.167 -60.501 -34.5s-50.167 -12.5 -79.5 -12.5c-22.667 0 -43.167 2.16699 -61.5 6.5s-34.833 10.166 -49.5 17.499l-9 -14h-75l34 54c-22 27.333 -33.667 60 -35 98
c-2 65.333 -2 130.666 0 195.999c0.666992 22 5.33398 42.833 14.001 62.5s21.167 36.834 37.5 51.501s36.5 26.334 60.5 35.001s52 13 84 13c21.333 0 41 -2.33301 59 -7s34.667 -11.334 50 -20.001l11 17h76l-37 -58c22 -27.333 33.667 -58.666 35 -93.999
c2 -65.333 2 -130.666 0 -195.999zM140 156.001c0 -8.66699 1.66699 -17.332 5 -25.999l183 291c-19.333 12 -43 18 -71 18c-36.667 0 -65 -9.16699 -85 -27.5s-30.667 -40.833 -32 -67.5c-3.33301 -62.667 -3.33301 -125.334 0 -188.001zM374 344.003
c-0.666992 4 -1.16895 7.83203 -1.50195 11.499s-1.16602 7.5 -2.49902 11.5l-183 -289c19.333 -11.333 43 -17 71 -17c36.667 0 64.834 9.16699 84.501 27.5s30.167 40.833 31.5 67.5c3.33301 62.667 3.33301 125.334 0 188.001z" />
    <glyph glyph-name="ugrave" unicode="&#xf9;" horiz-adv-x="520" 
d="M450 500l-0.000976562 -500.001h-73l-5 34c-14 -8 -29 -15.333 -45 -22c-13.333 -5.33301 -28.833 -10.333 -46.5 -15s-36.167 -7 -55.5 -7c-27.333 0 -51.166 4.33301 -71.499 13s-37 20.334 -50 35.001s-22.667 31.834 -29 51.501s-9.5 40.5 -9.5 62.5v348h78v-342
c0 -12.667 1.5 -24.834 4.5 -36.501s8 -22 15 -31s15.667 -16.167 26 -21.5s23.166 -8 38.499 -8c17.333 0 34.5 2.5 51.5 7.5s32.5 10.5 46.5 16.5c16.667 7.33301 32.334 15.333 47.001 24v391h78zM229.999 561.999l-141 138h114l116 -138h-89z" />
    <glyph glyph-name="uacute" unicode="&#xfa;" horiz-adv-x="520" 
d="M450 500l-0.000976562 -500.001h-73l-5 34c-14 -8 -29 -15.333 -45 -22c-13.333 -5.33301 -28.833 -10.333 -46.5 -15s-36.167 -7 -55.5 -7c-27.333 0 -51.166 4.33301 -71.499 13s-37 20.334 -50 35.001s-22.667 31.834 -29 51.501s-9.5 40.5 -9.5 62.5v348h78v-342
c0 -12.667 1.5 -24.834 4.5 -36.501s8 -22 15 -31s15.667 -16.167 26 -21.5s23.166 -8 38.499 -8c17.333 0 34.5 2.5 51.5 7.5s32.5 10.5 46.5 16.5c16.667 7.33301 32.334 15.333 47.001 24v391h78zM195.999 561.999l116 138h114l-141 -138h-89z" />
    <glyph glyph-name="ucircumflex" unicode="&#xfb;" horiz-adv-x="520" 
d="M450 500l-0.000976562 -500.001h-73l-5 34c-14 -8 -29 -15.333 -45 -22c-13.333 -5.33301 -28.833 -10.333 -46.5 -15s-36.167 -7 -55.5 -7c-27.333 0 -51.166 4.33301 -71.499 13s-37 20.334 -50 35.001s-22.667 31.834 -29 51.501s-9.5 40.5 -9.5 62.5v348h78v-342
c0 -12.667 1.5 -24.834 4.5 -36.501s8 -22 15 -31s15.667 -16.167 26 -21.5s23.166 -8 38.499 -8c17.333 0 34.5 2.5 51.5 7.5s32.5 10.5 46.5 16.5c16.667 7.33301 32.334 15.333 47.001 24v391h78zM114.999 561.999l103 138h82l105 -138h-73l-74 75l-71 -75h-72z" />
    <glyph glyph-name="udieresis" unicode="&#xfc;" horiz-adv-x="520" 
d="M450 500l-0.000976562 -500.001h-73l-5 34c-14 -8 -29 -15.333 -45 -22c-13.333 -5.33301 -28.833 -10.333 -46.5 -15s-36.167 -7 -55.5 -7c-27.333 0 -51.166 4.33301 -71.499 13s-37 20.334 -50 35.001s-22.667 31.834 -29 51.501s-9.5 40.5 -9.5 62.5v348h78v-342
c0 -12.667 1.5 -24.834 4.5 -36.501s8 -22 15 -31s15.667 -16.167 26 -21.5s23.166 -8 38.499 -8c17.333 0 34.5 2.5 51.5 7.5s32.5 10.5 46.5 16.5c16.667 7.33301 32.334 15.333 47.001 24v391h78zM133.999 687.999h82v-98h-82v98zM303.999 687.999h82v-98h-82v98z" />
    <glyph glyph-name="yacute" unicode="&#xfd;" horiz-adv-x="486" 
d="M15 500h87l135 -397h4l147 397h83l-261 -680h-81l75 193l-19 7zM187 562l116 138h114l-141 -138h-89z" />
    <glyph glyph-name="thorn" unicode="&#xfe;" horiz-adv-x="517" 
d="M70 701l77.0039 -0.00195312v-236c14 8 29 15.333 45 22c13.333 5.33301 28.666 10.5 45.999 15.5s35.333 7.5 54 7.5c27.333 0 51.166 -4 71.499 -12s37.166 -19.167 50.499 -33.5s23.333 -31.166 30 -50.499s10.334 -40 11.001 -62c2 -65.333 2 -130.666 0 -195.999
c-0.666992 -22.667 -4.83398 -43.834 -12.501 -63.501s-19 -37 -34 -52s-34 -26.833 -57 -35.5s-49.833 -13 -80.5 -13c-14.667 0 -29.334 0.833008 -44.001 2.5s-28 3.83398 -40 6.50098c-14 2.66699 -27.333 6 -40 10v-191h-77v881zM377.004 161.998
c2 61.333 2.00098 122.668 0.000976562 184.001c-1.33301 25.333 -8.66602 47.166 -21.999 65.499s-35 27.5 -65 27.5c-16.667 0 -33.334 -2.66699 -50.001 -8s-32 -11 -46 -17c-16.667 -7.33301 -32.334 -15.333 -47.001 -24v-306c9.33301 -4.66699 20 -8.33398 32 -11.001
c10.667 -2.66699 23.667 -5 39 -7s33 -3 53 -3c17.333 0 32.5 2.83301 45.5 8.5s24 13.167 33 22.5s15.667 19.833 20 31.5s6.83301 23.834 7.5 36.501z" />
    <glyph glyph-name="ydieresis" unicode="&#xff;" horiz-adv-x="486" 
d="M15 500h87l135 -397h4l147 397h83l-261 -680h-81l75 193l-19 7zM116 688h82v-98h-82v98zM286 688h82v-98h-82v98z" />
    <glyph glyph-name="OE" unicode="&#x152;" horiz-adv-x="920" 
d="M860 700l0.000976562 -78h-333v-220h302v-77h-302v-246h343v-79h-548c-38.667 0 -73.5 5.5 -104.5 16.5s-57.5 26.167 -79.5 45.5s-39.167 42.333 -51.5 69s-18.833 55.667 -19.5 87c-2 88 -2 176 0 264c0.666992 31.333 7.16699 60.333 19.5 87s29.666 49.667 51.999 69
s49 34.5 80 45.5s65.5 16.5 103.5 16.5h538zM153.001 218c0.666992 -20 4.66992 -38.502 12.0029 -55.502s18.166 -31.667 32.499 -44s31.833 -22.166 52.5 -29.499s44.667 -11 72 -11h120v544h-120c-26.667 0 -50.334 -3.66699 -71.001 -11s-38.167 -17.166 -52.5 -29.499
s-25.333 -27 -33 -44s-11.834 -35.5 -12.501 -55.5c-2 -88 -2 -176 0 -264z" />
    <glyph glyph-name="oe" unicode="&#x153;" horiz-adv-x="799" 
d="M730 14c-11.333 -4.66699 -25.667 -8.66797 -43 -12.001c-14.667 -3.33301 -32.5 -6.16602 -53.5 -8.49902s-45.5 -3.5 -73.5 -3.5c-34.667 0 -64.5 5.5 -89.5 16.5s-45.167 25.833 -60.5 44.5c-16 -18.667 -36.833 -33.5 -62.5 -44.5s-55.5 -16.5 -89.5 -16.5
c-32 0 -60 4.16699 -84 12.5s-44.167 19.833 -60.5 34.5s-28.833 31.834 -37.5 51.501s-13.334 40.834 -14.001 63.501c-2 65.333 -2 130.666 0 195.999c0.666992 22 5.33398 42.833 14.001 62.5s21.167 36.834 37.5 51.501s36.5 26.334 60.5 35.001s52 13 84 13
c34 0 63.833 -5.66699 89.5 -17s46.834 -26.666 63.501 -45.999c15.333 19.333 35.5 34.666 60.5 45.999s54.5 17 88.5 17c28 0 53.333 -4.33301 76 -13s42 -20.334 58 -35.001s28.333 -31.834 37 -51.501s13 -40.5 13 -62.5v-128h-293v-23v-20.5
c0 -7 0.333008 -13.167 1 -18.5c0.666992 -12.667 3.5 -24.834 8.5 -36.501s12 -22 21 -31s20 -16.167 33 -21.5s27.833 -8 44.5 -8c20 0 39.667 1 59 3s36.666 4.33301 51.999 7c17.333 2.66699 34 6 50 10zM257.999 60.999c36 0 64.334 9.00098 85.001 27.001s31 40 31 66
v191c0 26.667 -10.333 49 -31 67s-49.334 27 -86.001 27s-65 -9.16699 -85 -27.5s-30.667 -40.833 -32 -67.5c-3.33301 -62.667 -3.33301 -125.334 0 -188.001c1.33301 -26.667 12 -49.167 32 -67.5s48.667 -27.5 86 -27.5zM452 342
c-0.666992 -4 -0.998047 -9 -0.998047 -15v-17v-19h216v19c0 5.33301 -0.166992 11 -0.5 17s-0.5 11 -0.5 15c-0.666992 12.667 -3.66699 25 -9 37s-12.5 22.333 -21.5 31s-19.833 15.667 -32.5 21s-26.334 8 -41.001 8c-34.667 0 -61.334 -9.5 -80.001 -28.5
s-28.667 -41.833 -30 -68.5z" />
    <glyph glyph-name="Scaron" unicode="&#x160;" horiz-adv-x="578" 
d="M482 613c-21.333 3.33301 -43 6.33496 -65 9.00195c-19.333 2.66699 -40 5 -62 7s-43.667 3 -65 3s-41 -2 -59 -6s-33.667 -10.167 -47 -18.5s-23.833 -19.5 -31.5 -33.5s-11.5 -31 -11.5 -51c0 -31.333 9.66699 -55.166 29 -71.499s43.5 -29.333 72.5 -39
s60.5 -18.334 94.5 -26.001s65.5 -18.667 94.5 -33s53.167 -34.166 72.5 -59.499s29 -60.333 29 -105c0 -63.333 -20.333 -112.333 -61 -147s-106.334 -52 -197.001 -52c-28 0 -54.333 1.16699 -79 3.5s-46.667 5.16602 -66 8.49902c-22 3.33301 -43 7.66602 -63 12.999
l4 75c19.333 -4.66699 40 -8.33398 62 -11.001c18.667 -3.33301 39.834 -6 63.501 -8s47.5 -3 71.5 -3c33.333 0 61.333 2.16699 84 6.5s41 11 55 20s24.167 20.667 30.5 35s9.5 31.5 9.5 51.5c0 32.667 -9.66699 57.667 -29 75s-43.5 31 -72.5 41s-60.5 19 -94.5 27
s-65.5 19 -94.5 33s-53.167 33.5 -72.5 58.5s-29 59.833 -29 104.5c0 33.333 6 62 18 86s28.5 43.667 49.5 59s45.833 26.666 74.5 33.999s59.667 11 93 11c30.667 0 58 -1.16699 82 -3.5s44.667 -5.16602 62 -8.49902c20 -3.33301 37.333 -7 52 -11zM216 900.002l71 -75
l74 75h73l-105 -138h-82l-103 138h72z" />
    <glyph glyph-name="scaron" unicode="&#x161;" horiz-adv-x="441" 
d="M362 423l-46.0029 8.00391c-13.333 2 -28.5 3.83301 -45.5 5.5s-33.167 2.5 -48.5 2.5c-26 0 -48.167 -5.33301 -66.5 -16s-27.5 -28.334 -27.5 -53.001c0 -19.333 6.66699 -34 20 -44s30.166 -18.333 50.499 -25s42.333 -12.834 66 -18.501s45.667 -13.834 66 -24.501
s37.166 -25.334 50.499 -44.001s20 -43.667 20 -75c0 -47.333 -14.833 -84 -44.5 -110s-77.5 -39 -143.5 -39c-21.333 0 -41.5 1.16699 -60.5 3.5s-35.833 5.16602 -50.5 8.49902c-17.333 3.33301 -33 7.33301 -47 12l10 68c14.667 -4.66699 30 -8.33398 46 -11.001
c13.333 -2.66699 28.5 -5 45.5 -7s34.167 -3 51.5 -3c42.667 0 72.334 6 89.001 18s25 30.333 25 55c0 20 -6.66699 35.5 -20 46.5s-30.166 19.833 -50.499 26.5s-42.166 12.834 -65.499 18.501s-45.166 13.834 -65.499 24.501s-37.166 25 -50.499 43s-20 43 -20 75
c0 24.667 4.33301 46 13 64s20.667 32.667 36 44s33.5 19.833 54.5 25.5s43.833 8.5 68.5 8.5c20.667 0 40 -1 58 -3s33.667 -4 47 -6c16 -2.66699 30.333 -5.66699 43 -9zM146.997 700.004l71 -75l74 75h73l-105 -138h-82l-103 138h72z" />
    <glyph glyph-name="Ydieresis" unicode="&#x178;" horiz-adv-x="584" 
d="M292 368l180 332h97l-235 -416v-284h-84v284l-235 416h96zM166 888h82v-98h-82v98zM336 888h82v-98h-82v98z" />
    <glyph glyph-name="Zcaron" unicode="&#x17d;" horiz-adv-x="587" 
d="M148 82v-4h389v-78h-487v84l383 534v4h-375v78h475v-84zM220 900l71 -75l74 75h73l-105 -138h-82l-103 138h72z" />
    <glyph glyph-name="zcaron" unicode="&#x17e;" horiz-adv-x="433" 
d="M133 75v-4h260v-71h-353v73l257 352v4h-246v71h338v-72zM143 700l71 -75l74 75h73l-105 -138h-82l-103 138h72z" />
    <glyph glyph-name="florin" unicode="&#x192;" horiz-adv-x="439" 
d="M182 -59c-4 -36.667 -17.5049 -67.502 -40.5049 -92.502s-55.833 -37.5 -98.5 -37.5c-11.333 0 -22.166 0.333008 -32.499 1s-19.166 1.66699 -26.499 3c-8.66699 1.33301 -16.667 3 -24 5l12 68c4.66699 -1.33301 10.667 -2.33301 18 -3c12 -2 30 -3 54 -3
c17.333 0 31 5.33301 41 16s16.667 29.667 20 57l43 404h-76l7 71h76l15 142c4 40.667 19.167 73.834 45.5 99.501s61.5 38.5 105.5 38.5c9.33301 0 19.333 -0.5 30 -1.5s20.334 -2.16699 29.001 -3.5l29 -4l-13 -68c-7.33301 0.666992 -15.333 1.66699 -24 3
c-7.33301 0.666992 -16.166 1.33398 -26.499 2.00098s-21.166 1 -32.499 1c-17.333 0 -31.833 -5.33301 -43.5 -16s-19.167 -29.667 -22.5 -57l-14 -136h143l-7 -71h-143z" />
    <glyph glyph-name="circumflex" unicode="&#x2c6;" horiz-adv-x="290" 
d="M0 562l103 138h82l105 -138h-73l-74 75l-71 -75h-72z" />
    <glyph glyph-name="tilde" unicode="&#x2dc;" horiz-adv-x="311" 
d="M0 579c0 12.667 2.33398 25.3359 7.00098 38.0029s11 24 19 34s17.5 18 28.5 24s23.167 9 36.5 9c12 0 23.667 -2.16699 35 -6.5s22.5 -9.16602 33.5 -14.499l30.5 -14.5c9.33301 -4.33301 18 -6.5 26 -6.5c7.33301 0 13 4.16699 17 12.5s6 16.166 6 23.499h72
c0 -12.667 -2.16699 -25.334 -6.5 -38.001s-10.5 -24 -18.5 -34s-17.5 -18 -28.5 -24s-22.833 -9 -35.5 -9c-12 0 -23.833 2.16699 -35.5 6.5s-22.834 9.16602 -33.501 14.499s-20.834 10.166 -30.501 14.499s-18.167 6.5 -25.5 6.5c-8 0 -14.167 -4 -18.5 -12
s-7.16602 -16 -8.49902 -24h-70z" />
    <glyph glyph-name="endash" unicode="&#x2013;" horiz-adv-x="390" 
d="M390 255h-390v75h390v-75z" />
    <glyph glyph-name="emdash" unicode="&#x2014;" horiz-adv-x="780" 
d="M780 255h-780v75h780v-75z" />
    <glyph glyph-name="quoteleft" unicode="&#x2018;" horiz-adv-x="161" 
d="M105 496l-85.002 0.000976562v90c0 26 3.33301 47.167 10 63.5s14.834 29 24.501 38s20 15.167 31 18.5s20.833 5 29.5 5v-38c-15.333 0 -26.666 -6.33301 -33.999 -19s-11 -27.334 -11 -44.001v-11c0 -2 0.333008 -3.66699 1 -5h34v-98z" />
    <glyph glyph-name="quoteright" unicode="&#x2019;" horiz-adv-x="161" 
d="M56 700l85.002 -0.000976562v-90c0 -26 -3.33301 -47.167 -10 -63.5s-14.834 -29 -24.501 -38s-20 -15.167 -31 -18.5s-20.833 -5 -29.5 -5v38c15.333 0 26.666 6.33301 33.999 19s11 27.334 11 44.001c0 2 -0.166992 4 -0.5 6s-0.5 3.66699 -0.5 5v5h-34v98z" />
    <glyph glyph-name="quotesinglbase" unicode="&#x201a;" horiz-adv-x="206" 
d="M56 98l85.002 -0.000976562v-90c0 -26 -3.33301 -47.167 -10 -63.5s-14.834 -29 -24.501 -38s-20 -15.167 -31 -18.5s-20.833 -5 -29.5 -5v38c15.333 0 26.666 6.33301 33.999 19s11 27.334 11 44.001c0 2 -0.166992 4 -0.5 6s-0.5 3.66699 -0.5 5v5h-34v98z" />
    <glyph glyph-name="quotedblleft" unicode="&#x201c;" horiz-adv-x="313" 
d="M257 496l-85.002 0.000976562v90c0 26 3.33301 47.167 10 63.5s14.834 29 24.501 38s20 15.167 31 18.5s20.833 5 29.5 5v-38c-15.333 0 -26.666 -6.33301 -33.999 -19s-11 -27.334 -11 -44.001v-11c0 -2 0.333008 -3.66699 1 -5h34v-98zM104.998 496.001
l-85.002 0.000976562v90c0 26 3.33301 47.167 10 63.5s14.834 29 24.501 38s20 15.167 31 18.5s20.833 5 29.5 5v-38c-15.333 0 -26.666 -6.33301 -33.999 -19s-11 -27.334 -11 -44.001v-11c0 -2 0.333008 -3.66699 1 -5h34v-98z" />
    <glyph glyph-name="quotedblright" unicode="&#x201d;" horiz-adv-x="313" 
d="M56 700l85.002 -0.000976562v-90c0 -26 -3.33301 -47.167 -10 -63.5s-14.834 -29 -24.501 -38s-20 -15.167 -31 -18.5s-20.833 -5 -29.5 -5v38c15.333 0 26.666 6.33301 33.999 19s11 27.334 11 44.001c0 2 -0.166992 4 -0.5 6s-0.5 3.66699 -0.5 5v5h-34v98z
M208.002 699.999l85.002 -0.000976562v-90c0 -26 -3.33301 -47.167 -10 -63.5s-14.834 -29 -24.501 -38s-20 -15.167 -31 -18.5s-20.833 -5 -29.5 -5v38c15.333 0 26.666 6.33301 33.999 19s11 27.334 11 44.001c0 2 -0.166992 4 -0.5 6s-0.5 3.66699 -0.5 5v5h-34v98z" />
    <glyph glyph-name="quotedblbase" unicode="&#x201e;" horiz-adv-x="358" 
d="M56 98l85.002 -0.000976562v-90c0 -26 -3.33301 -47.167 -10 -63.5s-14.834 -29 -24.501 -38s-20 -15.167 -31 -18.5s-20.833 -5 -29.5 -5v38c15.333 0 26.666 6.33301 33.999 19s11 27.334 11 44.001c0 2 -0.166992 4 -0.5 6s-0.5 3.66699 -0.5 5v5h-34v98z
M208.002 97.999l85.002 -0.000976562v-90c0 -26 -3.33301 -47.167 -10 -63.5s-14.834 -29 -24.501 -38s-20 -15.167 -31 -18.5s-20.833 -5 -29.5 -5v38c15.333 0 26.666 6.33301 33.999 19s11 27.334 11 44.001c0 2 -0.166992 4 -0.5 6s-0.5 3.66699 -0.5 5v5h-34v98z" />
    <glyph glyph-name="dagger" unicode="&#x2020;" horiz-adv-x="564" 
d="M317 -180h-78v609h-179v71h179v200h78v-200h187v-71h-187v-609z" />
    <glyph glyph-name="daggerdbl" unicode="&#x2021;" horiz-adv-x="564" 
d="M504 20h-187v-200h-78v200h-179v71h179v338h-179v71h179v200h78v-200h187v-71h-187v-338h187v-71z" />
    <glyph glyph-name="bullet" unicode="&#x2022;" horiz-adv-x="452" 
d="M75 359c0 20.667 4 40.167 12 58.5s18.667 34.333 32 48s29.166 24.5 47.499 32.5s38.166 12 59.499 12c20.667 0 40.167 -4 58.5 -12s34.333 -18.833 48 -32.5s24.5 -29.667 32.5 -48s12 -37.833 12 -58.5c0 -21.333 -4 -41.166 -12 -59.499
s-18.833 -34.166 -32.5 -47.499s-29.667 -24 -48 -32s-37.833 -12 -58.5 -12c-21.333 0 -41.166 4 -59.499 12s-34.166 18.667 -47.499 32s-24 29.166 -32 47.499s-12 38.166 -12 59.499z" />
    <glyph glyph-name="ellipsis" unicode="&#x2026;" horiz-adv-x="726" 
d="M80 98h82v-98h-82v98zM322 98h82v-98h-82v98zM564 98h82v-98h-82v98z" />
    <glyph glyph-name="perthousand" unicode="&#x2030;" horiz-adv-x="1245" 
d="M380 480c0 -21.333 -3.83301 -40.666 -11.5 -57.999s-18.334 -32 -32.001 -44s-29.334 -21.333 -47.001 -28s-36.5 -10 -56.5 -10h-7c-20 0 -38.833 3.33301 -56.5 10s-33.167 16.167 -46.5 28.5s-23.833 27.166 -31.5 44.499s-11.5 36.333 -11.5 57v90
c0 20.667 3.83301 39.667 11.5 57s18.167 32.166 31.5 44.499s28.833 21.833 46.5 28.5s36.5 10 56.5 10h7c20 0 38.833 -3.33301 56.5 -10s33.334 -16.167 47.001 -28.5s24.334 -27.166 32.001 -44.499s11.5 -36.333 11.5 -57v-90zM307 578
c0 23.333 -7.33203 41 -21.999 53s-33.667 18 -57 18c-22 0 -40.167 -6 -54.5 -18s-21.5 -29.667 -21.5 -53v-106c0 -23.333 7.16699 -41 21.5 -53s33.166 -18 56.499 -18c22 0 40.333 5.83301 55 17.5s22 29.167 22 52.5v107zM565.001 700h74l-317 -700h-76zM806.001 129
c0 -21.333 -3.83301 -40.666 -11.5 -57.999s-18.334 -32 -32.001 -44s-29.334 -21.333 -47.001 -28s-36.5 -10 -56.5 -10h-7c-20 0 -38.833 3.33301 -56.5 10s-33.167 16.167 -46.5 28.5s-23.833 27.166 -31.5 44.499s-11.5 36.333 -11.5 57v90
c0 20.667 3.83301 39.667 11.5 57s18.167 32.166 31.5 44.499s28.833 21.833 46.5 28.5s36.5 10 56.5 10h7c20 0 38.833 -3.33301 56.5 -10s33.334 -16.167 47.001 -28.5s24.334 -27.166 32.001 -44.499s11.5 -36.333 11.5 -57v-90zM733.001 227
c0 23.333 -7.33203 41 -21.999 53s-33.667 18 -57 18c-22 0 -40.167 -6 -54.5 -18s-21.5 -29.667 -21.5 -53v-106c0 -23.333 7.16699 -41 21.5 -53s33.166 -18 56.499 -18c22 0 40.333 5.83301 55 17.5s22 29.167 22 52.5v107zM1165 129
c0 -21.333 -3.83301 -40.666 -11.5 -57.999s-18.334 -32 -32.001 -44s-29.334 -21.333 -47.001 -28s-36.5 -10 -56.5 -10h-7c-20 0 -38.833 3.33301 -56.5 10s-33.167 16.167 -46.5 28.5s-23.833 27.166 -31.5 44.499s-11.5 36.333 -11.5 57v90
c0 20.667 3.83301 39.667 11.5 57s18.167 32.166 31.5 44.499s28.833 21.833 46.5 28.5s36.5 10 56.5 10h7c20 0 38.833 -3.33301 56.5 -10s33.334 -16.167 47.001 -28.5s24.334 -27.166 32.001 -44.499s11.5 -36.333 11.5 -57v-90zM1092 227
c0 23.333 -7.33203 41 -21.999 53s-33.667 18 -57 18c-22 0 -40.167 -6 -54.5 -18s-21.5 -29.667 -21.5 -53v-106c0 -23.333 7.16699 -41 21.5 -53s33.166 -18 56.499 -18c22 0 40.333 5.83301 55 17.5s22 29.167 22 52.5v107z" />
    <glyph glyph-name="guilsinglleft" unicode="&#x2039;" horiz-adv-x="346" 
d="M187 133l-122 158l122 159h88l-123 -159l124 -158h-89z" />
    <glyph glyph-name="guilsinglright" unicode="&#x203a;" horiz-adv-x="346" 
d="M71 133l123 158l-124 159h89l122 -159l-122 -158h-88z" />
    <glyph glyph-name="Euro" unicode="&#x20ac;" horiz-adv-x="569" 
d="M413 242h-221c0 -2.66699 0.166992 -6.83398 0.5 -12.501s0.5 -9.5 0.5 -11.5c0.666992 -20 4.66699 -39 12 -57s18.166 -33.833 32.499 -47.5s31.833 -24.667 52.5 -33s44.667 -12.5 72 -12.5c14.667 0 30.334 0.666992 47.001 2s32.334 3 47.001 5
c17.333 2 34 4.33301 50 7l3 -74c-12.667 -3.33301 -27 -6.33301 -43 -9c-13.333 -2.66699 -29 -4.83398 -47 -6.50098s-37 -2.5 -57 -2.5c-38.667 0 -73.5 6 -104.5 18s-57.5 28.333 -79.5 49s-39.167 44.834 -51.5 72.501s-18.833 57.167 -19.5 88.5
c0 2 -0.166992 5.83301 -0.5 11.5s-0.5 9.83398 -0.5 12.501h-66v67h65v77h-65v68h66c0 3.33301 0.166992 8 0.5 14s0.5 10.667 0.5 14c0.666992 31.333 7.16699 60.833 19.5 88.5s29.666 51.834 51.999 72.501s49 37 80 49s65.5 18 103.5 18c21.333 0 40.5 -1 57.5 -3
s32.167 -4 45.5 -6c14.667 -2.66699 28.334 -5.33398 41.001 -8.00098l-3 -74l-48 6l-45.5 4.5c-16.333 1.66699 -32.166 2.5 -47.499 2.5c-26.667 0 -50.334 -4.16699 -71.001 -12.5s-38.167 -19.333 -52.5 -33s-25.333 -29.5 -33 -47.5s-11.834 -37 -12.501 -57
c0 -3.33301 -0.166992 -8 -0.5 -14s-0.5 -10.667 -0.5 -14h247v-68h-248v-77h222v-67z" />
    <glyph glyph-name="trademark" unicode="&#x2122;" horiz-adv-x="758" 
d="M70 700h239v-53h-92v-296h-56v296h-91v53zM668 351h-56v249l-72 -113h-51l-68 113v-249h-57v349h62l90 -153l90 153h62v-349z" />
    <glyph glyph-name=".null" horiz-adv-x="0" 
 />
    </font>
</defs>
</svg>
