<?xml version="1.0" standalone="no"?>
<!DOCTYPE svg PUBLIC "-//W3C//DTD SVG 1.1//EN" "http://www.w3.org/Graphics/SVG/1.1/DTD/svg11.dtd" >
<svg xmlns="http://www.w3.org/2000/svg" xmlns:xlink="http://www.w3.org/1999/xlink" version="1.1">
<metadata></metadata>
<defs>
<font id="decoyregular" horiz-adv-x="992" >
<font-face units-per-em="2048" ascent="1638" descent="-410" />
<missing-glyph horiz-adv-x="498" />
<glyph horiz-adv-x="0" />
<glyph unicode="&#xd;" horiz-adv-x="838" />
<glyph horiz-adv-x="0" />
<glyph horiz-adv-x="0" />
<glyph unicode=" "  horiz-adv-x="498" />
<glyph unicode="&#x09;" horiz-adv-x="498" />
<glyph unicode="&#xa0;" horiz-adv-x="498" />
<glyph unicode="!" horiz-adv-x="324" d="M82 82q0 34 25 58t59 24q33 0 58 -23q24 -23 24 -59q0 -34 -24 -58t-58 -24t-59 24t-25 58zM114 304v956h102v-956h-102z" />
<glyph unicode="&#x22;" horiz-adv-x="462" d="M48 1304q0 34 24 58t60 24q34 0 59 -24t25 -58q0 -6 -1 -10q-1 -6 -6 -30q-10 -54 -13 -73q-2 -14 -9.5 -59.5t-12.5 -77.5h-84q-12 64 -23 137q-7 47 -12 73q-3 16 -6 31q-1 5 -1 9zM242 1304q0 33 23 58q23 24 59 24q34 0 58 -24t24 -58q0 -6 -1 -10q0 -1 -4 -29 q-3 -23 -12 -72q-2 -10 -10.5 -57t-14.5 -82h-82q-11 72 -23 136q-9 48 -12 72q-4 29 -4 31q-1 5 -1 11z" />
<glyph unicode="#" horiz-adv-x="968" d="M80 0l106 384h-82v100h110l80 298h-102v102h130l102 372h106l-100 -372h236l102 372h106l-100 -372h60v-102h-88l-82 -298h98v-100h-126l-104 -384h-108l104 384h-236l-104 -384h-108zM320 484h238l80 298h-238z" />
<glyph unicode="$" horiz-adv-x="1014" d="M106 206q2 1 7.5 4.5t9.5 6.5l24 16q18 12 27 17q13 8 22 16q0 -1 1 -3.5l2 -5t2.5 -6.5t2.5 -7q35 -57 94 -92q60 -36 128 -48v672q-85 25 -138 89q-52 62 -52 147q0 87 53 154q53 66 137 86v80h104v-78q104 -20 160 -110l-86 -56q-31 42 -74 60v-286q184 -34 287 -148 q103 -113 103 -280q0 -87 -31 -161q-33 -78 -83 -134q-52 -59 -123 -96q-68 -36 -153 -47v-84h-104v86q-104 14 -183 69q-78 55 -137 139zM342 1012q0 -46 24 -77q23 -30 60 -47v256q-38 -18 -61 -53t-23 -79zM530 104q58 6 112 35q51 28 91 74q38 43 61 101q22 54 22 120 q0 124 -75 209t-211 115v-654z" />
<glyph unicode="%" horiz-adv-x="1230" d="M74 902q0 49 16 91q17 44 50 79q35 37 78 56q47 20 94 21q45 1 91 -16q42 -16 79 -50t56 -79q20 -47 21 -94q1 -46 -16 -92q-17 -44 -50 -79q-35 -37 -79 -55q-47 -20 -94 -21q-45 -1 -91 16q-43 16 -78 50q-35 33 -57 79q-20 48 -20 94zM182 0l760 1260h106l-762 -1260 h-104zM186 956q-20 -55 2 -106q12 -26 34 -45q21 -18 46 -29q23 -10 51 -10q27 0 53 12q52 24 73 78t-3 106q-22 52 -76 73t-106 -3q-55 -23 -74 -76zM665 350q-1 45 16 91q16 43 50 78q33 35 79 57q48 20 94 20q49 0 91 -16q45 -17 78 -50q35 -34 57 -78q20 -48 20 -94 q0 -50 -16 -92q-17 -46 -49 -79q-35 -37 -79 -55q-47 -20 -94 -21q-46 -1 -92 16q-44 17 -79 50q-37 35 -55 79q-20 47 -21 94zM768 351q0 -27 12 -53q23 -51 78 -74q53 -22 106 4q52 22 72 75q20 54 -2 107q-22 54 -76 73t-106 -3q-25 -12 -45 -32q-18 -18 -29 -45 q-10 -24 -10 -52z" />
<glyph unicode="&#x26;" horiz-adv-x="1060" d="M72 434q0 126 65 227q64 100 169 155q-45 37 -79 90q-33 53 -39 116q0 47 20 92q20 43 53 77q32 32 77 52q42 19 94 19q49 0 93 -19q47 -20 77 -52q33 -35 52 -77q20 -45 20 -92q0 -66 -34 -121q-35 -56 -86 -87q-15 -9 -26 -18q30 -23 52 -45q35 -35 54 -55 q39 -45 84 -104q38 -50 82 -122q12 -20 56 -96q13 31 14 54t4 26v110h104v-112v-2q-1 -3 -1.5 -8t-0.5 -10q-1 -14 -8 -45q-6 -26 -20 -59q-14 -32 -38 -64q25 -65 47 -127q23 -66 23 -137q-1 -69 -52 -118q-50 -48 -120 -48v104q30 0 49 19t19 47q0 32 -10 71 q-13 52 -26 85q-60 -74 -147 -117q-86 -43 -189 -43q-91 0 -168 34q-79 35 -137 93q-59 59 -93 138q-34 78 -34 169zM176 434q0 -66 26 -129q25 -60 70 -105t104 -70q61 -26 128 -26q93 0 169 47q75 46 119 121q-6 11 -18.5 34.5t-19.5 36.5q-18 35 -42 73q-79 125 -156 211 q-81 90 -144 121q-51 -16 -95 -45q-40 -26 -74 -70q-30 -39 -49 -92q-18 -51 -18 -107zM294 1022q0 -4 3 -20q3 -15 17 -39t39 -50q27 -28 69 -53q30 12 52 24q25 14 46 34q20 20 33 45q14 26 15 59q0 56 -40 96t-96 40q-58 0 -98 -40t-40 -96z" />
<glyph unicode="'" horiz-adv-x="250" d="M48 1304q0 33 23 58q23 24 59 24q34 0 58 -24t24 -58q0 -6 -1 -10q0 -2 -1.5 -11.5t-3.5 -17.5q-4 -23 -12 -72q-7 -47 -24 -139h-82z" />
<glyph unicode="(" horiz-adv-x="430" d="M88 606q0 401 154 772l96 -38q-148 -354 -150 -734q0 -382 150 -734l-96 -38q-154 369 -154 772z" />
<glyph unicode=")" horiz-adv-x="422" d="M84 -128q74 176 110 359q36 185 36 375t-36 374q-36 182 -110 360l96 38q154 -369 154 -772t-154 -772z" />
<glyph unicode="*" horiz-adv-x="890" d="M78 898v104h256q-12 62 -45 119q-33 58 -85 99l66 80q68 -53 113 -133q43 -75 55 -165h4q6 76 40 148q47 89 118 150l66 -80q-50 -44 -81 -99q-32 -56 -39 -119h262v-104h-260q11 -63 43 -119q33 -58 85 -99l-66 -78q-69 54 -113 132q-43 76 -55 164h-4q-7 -74 -40 -144 q-19 -45 -51 -83q-31 -37 -67 -67l-66 76q50 42 81 99t39 119h-256z" />
<glyph unicode="+" horiz-adv-x="1044" d="M150 508v100h316v314h100v-314h314v-100h-314v-316h-100v316h-316z" />
<glyph unicode="," horiz-adv-x="292" d="M68 82q0 34 25 58t59 24t58 -24t24 -58l-2.5 -10t-1.5 -9q0 -2 -10 -33q-8 -27 -24 -68q-6 -16 -21 -59.5t-23 -64.5h-84v244z" />
<glyph unicode="-" horiz-adv-x="868" d="M68 398v104h730v-104h-730z" />
<glyph unicode="." horiz-adv-x="272" d="M56 82q0 34 24 58t60 24q33 0 58 -23q24 -23 24 -59q0 -34 -24 -58t-58 -24t-59 24t-25 58z" />
<glyph unicode="/" horiz-adv-x="906" d="M22 0l764 1260h104l-762 -1260h-106z" />
<glyph unicode="0" horiz-adv-x="1002" d="M90 406v446q0 111 55 203q56 94 143 147q46 27 101 43q54 15 108 14q57 -2 109 -16q56 -15 102 -43q90 -53 144 -145q54 -93 54 -203v-446q0 -64 -20 -127q-20 -61 -57 -111q-40 -53 -88 -88q-52 -38 -109 -60q-61 -21 -133 -23q-67 -1 -133 23q-62 20 -112 59t-86 89 t-57 111t-21 127zM192 406q0 -42 12 -81q11 -37 32 -75l436 852l-15 9q-5 3 -13 9q-61 31 -131 36q-67 4 -131 -22q-25 -11 -52 -29q-24 -17 -48 -39q-39 -39 -65 -96q-25 -54 -25 -118v-446zM312 166q14 -13 29 -20q27 -13 33 -16q59 -28 125 -28t123 28q80 35 131 108 q51 74 51 168v446q0 48 -15 92q-15 43 -41 80z" />
<glyph unicode="1" horiz-adv-x="458" d="M72 1022q0 50 19 92q20 45 52 77t77 52q42 19 94 19h52v-1262h-104v1150q-39 -17 -62 -50q-24 -34 -24 -78h-104z" />
<glyph unicode="2" horiz-adv-x="984" d="M76 50q0 120 41 207q39 83 100 136q58 51 125 75q67 25 116 26q75 6 140 33q63 26 109 71q43 42 70 103q25 57 25 127q0 68 -27 130q-28 63 -72 106q-46 45 -106 71q-62 27 -131 27q-76 0 -142 -32q42 -19 68 -61q26 -41 26 -91q0 -72 -50 -122t-122 -50q-74 0 -122 50 t-48 122q0 24 6 47q6 22 20 41q61 94 158 147t206 53q89 0 170 -35q80 -35 139 -94q58 -58 93 -139q34 -78 34 -170t-31 -167q-32 -78 -89 -135q-59 -59 -139 -93q-82 -35 -177 -41q-4 0 -23 -3q-21 -3 -49 -13q-33 -12 -64 -29q-32 -18 -65 -51q-31 -31 -54 -79t-29 -113 h672v-104h-728q-19 0 -35 14q-15 14 -15 36zM178 978q0 -29 19 -48q20 -20 49 -20q28 0 48 20t20 48t-20 48t-48 20q-17 0 -31 -8q-11 -6 -25 -20q0 -2 -1 -2t-1 -2q-4 -6 -7 -18q-3 -10 -3 -18z" />
<glyph unicode="3" horiz-adv-x="982" d="M86 196l88 58q47 -73 119 -111q73 -39 157 -39q70 0 130 27q59 27 106 72t72 106q26 63 26 129q0 134 -90 222q-89 88 -256 112q-20 2 -31 16t-11 34q0 21 13 34q13 14 33 18q32 5 55 14q29 11 48 29q21 19 34 43q13 23 13 56q0 60 -42 100q-41 40 -100 40q-36 0 -68 -17 q-33 -17 -52 -47l-86 56q35 55 88 83q55 29 118 29q51 0 95 -19q47 -20 78 -53q32 -34 52 -78q19 -42 19 -94q0 -110 -88 -182q132 -50 207 -153t75 -243q0 -89 -35 -170q-34 -79 -94 -140q-57 -58 -139 -94q-78 -34 -170 -34q-110 0 -207 52t-157 144z" />
<glyph unicode="4" horiz-adv-x="956" d="M76 598l176 662h106l-146 -560h238v122h104v-122h316v-102h-316v-598h-104v598h-374z" />
<glyph unicode="5" horiz-adv-x="988" d="M90 196l84 58q47 -72 121 -111q75 -39 157 -39q70 0 131 27t106 72t72 106t27 129q0 70 -25 127q-27 61 -70 103q-46 44 -108 71q-63 27 -139 33h-38h-51h-52h-39q-30 0 -42 18q-16 19 -10 46l100 384q5 19 18 29q14 11 32 11h280v-106h-240l-74 -280q46 0 69 1 q27 1 53 -1q94 -6 178 -41q81 -34 140 -93q58 -58 90 -135q32 -78 32 -167t-35 -170q-34 -79 -94 -140q-57 -59 -140 -94q-80 -34 -171 -34q-111 0 -206 52q-96 52 -156 144z" />
<glyph unicode="6" horiz-adv-x="1010" d="M72 434q0 57 4 128q5 81 18 172q14 92 42 186t76 170q47 76 120 124q72 48 174 48q194 0 306 -186l-88 -52q-84 136 -218 136q-71 0 -124 -38q-51 -36 -88 -98q-35 -58 -58 -134q-21 -70 -34 -150q57 57 136 92q77 34 168 34t169 -34t137 -93q58 -59 93 -138 q35 -81 35 -167q0 -88 -35 -169q-35 -79 -93 -138t-138 -93q-78 -34 -168 -34q-91 0 -169 34q-79 34 -138 93t-93 138q-34 78 -34 169zM176 434q0 -66 26 -129q25 -60 70 -105t105 -70q63 -26 129 -26q67 0 128 26q58 25 105 70q46 44 71 105q26 63 26 129q0 67 -26 127 q-26 59 -71 104q-46 46 -105 71q-61 26 -128 26q-66 0 -129 -26q-61 -25 -105 -71q-45 -46 -70 -104q-26 -60 -26 -127z" />
<glyph unicode="7" horiz-adv-x="944" d="M82 1154v106h608q71 0 121 -50q49 -49 49 -124q0 -63 -18 -118t-50 -113q-27 -49 -73 -117q-13 -19 -41.5 -60.5t-43.5 -63.5q-68 -98 -135 -198q-66 -98 -113 -218q-14 -34 -30 -99q-16 -63 -16 -137q49 38 108 38q74 0 123 -49t49 -123q0 -72 -49 -121t-123 -49 q-38 0 -71 15q-32 15 -57 41q-41 43 -61 99q-18 52 -23 112q-4 57 3 111q8 55 18 98q11 45 21 71q12 30 12 31q46 120 119 233q71 109 141 207q5 7 34.5 49.5t44.5 63.5q35 48 66 103q29 51 47 98q18 48 18 96q0 30 -21 49q-20 19 -49 19h-608zM382 -172q0 -28 19 -47 t47 -19q31 0 50 19q20 20 20 47q0 29 -20 49q-19 19 -50 19q-28 0 -47 -19t-19 -49z" />
<glyph unicode="8" horiz-adv-x="1004" d="M66 434q0 68 21 131t58 115q38 53 88 93q52 42 111 65q-40 34 -63 81q-23 48 -23 103q0 47 20 93q19 44 52 77q31 31 76 51q42 19 94 19q49 0 93 -19q45 -19 78 -51q32 -30 52 -77q19 -44 19 -93q0 -55 -23 -103q-23 -47 -63 -81q59 -23 111 -65q50 -40 88 -93 q37 -52 58 -115t21 -131q0 -91 -34 -169q-35 -80 -94 -138q-60 -59 -138 -93q-77 -34 -168 -34t-168 34q-78 34 -138 93q-59 58 -94 138q-34 78 -34 169zM172 434q0 -69 25 -129q26 -62 70 -105q47 -45 105 -70q61 -26 128 -26t128 26q59 25 104 70t70 105q26 63 26 129 q0 67 -26 127q-25 58 -70 104q-44 45 -104 71q-61 26 -128 26t-128 -26q-59 -25 -105 -71q-44 -44 -70 -104q-25 -57 -25 -127zM362 1022q0 -57 41 -98q40 -40 97 -40t97 40q41 41 41 98t-41 98q-40 40 -97 40t-97 -40q-41 -41 -41 -98z" />
<glyph unicode="9" horiz-adv-x="1022" d="M68 828q0 92 34 170q35 80 94 138q58 57 138 92q77 34 168 34t169 -34q81 -35 138 -92q59 -58 93 -138q34 -78 34 -170q0 -57 -4 -128q-5 -84 -19 -171q-16 -95 -43 -186q-29 -96 -76 -171t-119 -124q-71 -48 -173 -48q-92 0 -168 46q-41 24 -69 38q-41 21 -69 28 l-20 118q41 -12 73 -26q38 -17 68 -31q31 -15 53 -28q27 -16 28 -17q27 -15 49 -19q28 -5 55 -5q71 0 123 38q49 36 88 98q35 56 59 134q22 72 36 148q-61 -61 -138 -92q-79 -32 -168 -32q-91 0 -168 34q-80 35 -138 92q-60 58 -94 137q-34 78 -34 167zM174 828 q0 -69 25 -128q26 -61 70 -105t105 -70q59 -25 128 -25t128 25q61 26 105 70q46 46 71 105q26 61 26 128q0 66 -26 129q-25 60 -71 106t-105 71q-61 26 -128 26t-128 -26q-59 -25 -105 -71q-44 -44 -70 -105q-25 -59 -25 -130z" />
<glyph unicode=":" horiz-adv-x="316" d="M78 84q0 34 24 58t58 24t59 -24t25 -58t-25 -59t-59 -25t-58 24t-24 60zM78 746q0 34 24 58t58 24q33 0 59 -23q25 -22 25 -59q0 -34 -25 -59t-59 -25t-58 25t-24 59z" />
<glyph unicode=";" horiz-adv-x="318" d="M78 82q0 34 24 58t58 24t59 -24t25 -58q0 -6 -1 -11q-1 -7 -9 -30q-2 -7 -10.5 -30.5t-14.5 -40.5q-6 -16 -49 -132h-82v244zM78 746q0 34 24 58t58 24q33 0 59 -23q25 -22 25 -59q0 -34 -25 -59t-59 -25t-58 25t-24 59z" />
<glyph unicode="&#x3c;" horiz-adv-x="542" d="M72 560q0 38 16 71q17 36 46 59l264 218l66 -80l-264 -216q-24 -20 -26 -52q0 -34 28 -56l262 -216l-66 -78l-260 214q-30 24 -48 60t-18 76z" />
<glyph unicode="=" horiz-adv-x="1042" d="M156 398v104h728v-104h-728zM156 738v104h728v-104h-728z" />
<glyph unicode="&#x3e;" horiz-adv-x="538" d="M80 274l264 218q25 25 26 54q0 34 -28 56l-262 214l66 80l260 -214q29 -25 48 -61q18 -35 18 -75q0 -37 -17 -73t-45 -61l-264 -216z" />
<glyph unicode="?" horiz-adv-x="800" d="M64 1098q48 74 130 119q79 43 172 43q78 0 141 -28q66 -29 114 -77t77 -115q28 -65 28 -142q0 -145 -95 -242q-95 -96 -259 -116q-40 -6 -74 -31t-34 -71q0 -44 30 -73q31 -29 72 -29q26 0 49 12q24 13 37 36l88 -56q-30 -46 -75 -72q-46 -26 -99 -26q-41 0 -80 17 q-38 17 -66 45q-27 27 -44 66q-16 36 -16 80q0 78 55 136t143 70q125 17 193 83q69 67 69 171q0 51 -20 100q-19 47 -54 82q-34 34 -81 54q-48 20 -99 20q-66 0 -122 -30t-92 -84zM272 82q0 34 25 58t59 24q33 0 58 -23q24 -23 24 -59q0 -34 -24 -58t-58 -24t-59 24t-25 58z " />
<glyph unicode="@" horiz-adv-x="1472" d="M54 646q0 139 52 264q48 113 148 216q48 50 101 84q54 35 115 64q60 28 129 40q67 12 135 12q152 0 266 -52q66 -30 116 -64q54 -36 104 -86q76 -79 142 -216q30 -62 42 -129q12 -68 12 -133q0 -54 -4 -122q-5 -97 -20 -152q-19 -74 -46 -116q-23 -39 -53 -53 q-27 -13 -51 -13q-52 0 -98 46q-17 17 -30 41q-11 21 -24 53q-10 26 -14 38q-10 30 -10 42l-2 2v2q-59 -79 -145 -125q-88 -47 -189 -47q-85 0 -161 32q-72 30 -130 88q-54 54 -88 130q-33 74 -33 158q0 86 33 160q34 76 88 130q57 57 130 89q75 33 161 33q104 0 192 -49 t144 -129q0 14 2 22l12 32q2 5 4 14t4 13q4 13 6 21q2 9 6 16q4 6 6 14q2 10 4 10q9 -5 30 -26q7 -7 25 -29q9 -11 23 -33q-8 -19 -14 -42q-7 -34 -10 -40q-4 -10 -9 -39q-7 -47 -10 -71q-5 -47 -5 -98q-1 -64 6 -112q6 -37 10 -54l12 -56q14 -62 30 -92q22 -40 44 -40 q6 0 22 22q9 14 26 82q12 49 18 112q8 69 8 136q0 117 -47 222t-126 184q-80 80 -185 126t-224 46q-118 0 -224 -45t-185 -124t-124 -185t-45 -224q0 -120 45 -226t124 -185t185 -125q105 -46 224 -46h2h2q10 0 70 4q72 5 186 38q72 21 120 25q52 4 89 3q36 -1 56 -9 q5 -2 10.5 -4t8.5 -3.5t4 -1.5l-42 -94q-18 5 -54 10q-28 1 -68 -3t-94 -21q-109 -32 -178 -38q-72 -6 -98 -6h-16q-122 0 -262 54q-64 25 -116 61q-56 39 -100 83q-99 99 -148 218q-52 125 -52 266zM424 650q0 -62 24 -117q23 -54 65 -97q40 -41 97 -66q56 -24 120 -24 q61 0 115 23q53 23 94 62t65 92q23 51 28 113v26q-1 61 -26 115t-66 94q-42 41 -96 63q-53 22 -114 22q-62 0 -119 -24t-98 -65t-65 -97t-24 -120z" />
<glyph unicode="A" horiz-adv-x="1098" d="M104 596v104h88v222q0 69 26 129q26 59 72 105q49 49 109 74q63 26 127 26q70 0 130 -25q62 -25 108 -75q45 -45 71 -105q25 -57 25 -129v-442v-292q0 -32 9 -58q8 -24 20 -47q10 -20 21 -34q10 -13 12 -15l74 -74l-70 -74l-80 80q-7 7 -16 18q-14 18 -30 46 q-14 26 -29 70q-13 39 -13 88v292v116h-460v-596h-106v596h-88zM298 700h460v222q0 50 -19 89q-21 44 -50 73q-33 33 -73 49q-43 17 -90 17t-89 -17q-39 -16 -72 -49q-30 -30 -49 -74q-18 -42 -18 -88v-222z" />
<glyph unicode="B" horiz-adv-x="950" d="M94 172v756v158q0 33 14 66q13 32 38 56q24 23 55 37q30 13 67 13l162 2q68 0 129 -27q59 -26 107 -71q46 -44 72 -105q26 -63 26 -129q0 -77 -32 -144q-31 -64 -86 -112q92 -42 151 -128t59 -194q0 -75 -28 -138q-29 -65 -76 -111q-49 -48 -112 -74q-64 -27 -136 -27 h-236q-74 0 -124 50t-50 122zM198 172q0 -28 20 -48t50 -20h236q51 0 96 19q47 19 79 52q33 33 52 79q19 45 19 96t-19 95q-20 45 -52 79q-32 33 -79 53q-45 19 -96 19q-61 0 -118 -23q-55 -23 -98 -65q-42 -42 -66 -98t-24 -120v-118zM198 564q50 54 116 89q68 36 142 43 q42 6 81 26q37 19 64 51q27 31 43 71q16 39 16 84q0 49 -19 90q-20 43 -49 72q-31 31 -72 47q-43 17 -90 17l-162 -2q-31 0 -50 -19q-20 -20 -20 -47v-158v-364z" />
<glyph unicode="C" horiz-adv-x="1004" d="M106 408v442q0 84 33 158q34 76 88 130q57 57 130 89q75 33 159 33q83 0 158 -32q74 -32 132 -90l-74 -72q-42 43 -98 66q-54 22 -118 22q-61 0 -118 -23q-55 -23 -98 -65q-42 -42 -66 -98t-24 -118v-442q0 -62 24 -118t66 -98q43 -43 97 -65q57 -23 119 -23q36 0 68 7 q33 7 74 27q38 22 78 42q40 21 76 35q49 19 82 29l-26 -118q-54 -18 -102 -48q-45 -28 -104 -52q-32 -11 -71 -19q-35 -7 -75 -7q-83 0 -159 32q-74 31 -130 87q-55 55 -88 130t-33 159z" />
<glyph unicode="D" horiz-adv-x="1048" d="M80 38l44 94q34 -15 68 -22v1038q-29 -6 -68 -26l-44 96q90 42 180 42h234q77 0 158 -32q79 -31 146 -92q66 -60 111 -147q46 -88 53 -195v-4v-326q-6 -107 -50 -195q-44 -87 -111 -147q-66 -59 -147 -91q-78 -31 -160 -31h-234q-87 0 -180 38zM296 104h198q62 0 125 24 q62 24 114 71q50 45 85 116q33 67 38 153v320q-6 86 -41 154t-86 116t-113 72q-61 24 -122 24h-198v-1050z" />
<glyph unicode="E" d="M94 596v104h94v558h668v-106h-564v-452h230v-104h-230v-492h564v-104h-668v596h-94z" />
<glyph unicode="F" horiz-adv-x="974" d="M104 596v104h94v382q0 74 50 124t122 50h496v-106h-496q-29 0 -48 -19q-20 -20 -20 -49v-382h226v-104h-226v-596h-104v596h-94z" />
<glyph unicode="G" horiz-adv-x="1008" d="M94 406v444q0 84 33 158q34 76 88 130q56 56 129 89t160 33q81 0 157 -32q74 -31 133 -90l-74 -72q-89 88 -211 88h-5q-61 0 -119 -23q-56 -22 -99 -65q-43 -42 -65 -98q-23 -57 -23 -118v-444q0 -92 49 -165t127 -109q28 -16 62 -22q35 -7 68 -8q30 1 67 8q34 6 63 22 q79 37 128 109q50 74 50 165q0 30 -21 50q-22 20 -49 20t-47 -20q-19 -19 -19 -50h-106q0 73 50 123q49 49 122 49q74 0 122 -49t48 -123q0 -83 -32 -158t-87 -130q-58 -58 -130 -88q-76 -32 -159 -32q-85 0 -160 32q-72 31 -129 88q-54 54 -88 130q-33 74 -33 158z" />
<glyph unicode="H" horiz-adv-x="898" d="M90 0v1260h102v-556h514v556h106v-1260h-106v600h-514v-600h-102z" />
<glyph unicode="I" horiz-adv-x="488" d="M90 0v104h98v1050h-98v106h296v-106h-96v-1050h96v-104h-296z" />
<glyph unicode="J" horiz-adv-x="842" d="M78 334q0 72 50 122t122 50q74 0 124 -50t50 -122q0 -35 -13 -65q-14 -33 -35 -54q-25 -25 -53 -37q-34 -15 -65 -16q65 -58 154 -58q48 0 90 18t73 49q30 30 50 73q19 41 19 90v820h-94v106h196v-926q0 -69 -26 -130q-25 -58 -71 -106q-45 -47 -106 -72 q-63 -26 -131 -26q-66 0 -129 26q-61 25 -106 72t-72 106q-27 60 -27 130zM184 334q0 -29 19 -48q20 -20 47 -20q29 0 49 20q19 19 19 48t-19 48q-20 20 -49 20q-27 0 -47 -20q-19 -19 -19 -48z" />
<glyph unicode="K" horiz-adv-x="974" d="M96 0v1260h102v-556h226q48 0 89 18q43 19 73 49q33 33 49 73q17 43 17 90v242h106v-242q0 -91 -43 -164q-44 -75 -113 -120q68 -42 113 -118q43 -73 43 -162v-182q0 -31 8 -58q7 -24 19 -46q11 -21 21 -32t10 -14l78 -74l-76 -74l-76 78q-3 2 -16 19q-15 18 -31 46 q-17 29 -30 69q-13 39 -13 86v182q0 47 -17 87q-16 38 -48 70q-30 30 -73 50q-39 18 -90 23h-226v-600h-102z" />
<glyph unicode="L" horiz-adv-x="850" d="M100 172v1088h102v-1088q0 -28 20 -48t50 -20h476v-104h-476q-72 0 -122 50t-50 122z" />
<glyph unicode="M" horiz-adv-x="1334" d="M110 0v1258h114l410 -720l406 720h112v-892v-142v-36q0 -32 9 -58t20 -46q10 -19 20 -32q9 -12 11 -14l40 -38h-142q-22 33 -40 76q-20 49 -20 112v36v142v694l-360 -628h-118l-356 628v-1060h-106z" />
<glyph unicode="N" horiz-adv-x="1042" d="M104 2v1256h110l604 -1066v1066h106v-1262h-110l-608 1066v-1060h-102z" />
<glyph unicode="O" horiz-adv-x="1006" d="M92 408v444q0 103 50 194t132 146q46 32 109 50q57 16 120 16t120 -16q63 -18 109 -50q80 -54 131 -146q49 -89 49 -194v-444q0 -62 -18 -118q-19 -58 -48 -103q-31 -49 -73 -86q-44 -39 -97 -63q-83 -40 -174 -40t-174 40q-104 50 -170 149t-66 221zM196 408 q0 -92 51 -166q52 -74 129 -110q59 -28 126 -28q68 0 128 28q79 37 128 109q50 74 50 167v444q0 62 -24 117t-66 97q-13 13 -35 31q-11 9 -35 23q-65 34 -145 34t-145 -34q-20 -8 -37 -23q-5 -5 -17 -15t-18 -16q-42 -40 -66 -96t-24 -118v-444z" />
<glyph unicode="P" horiz-adv-x="874" d="M104 0v1090h2q0 33 14 66q14 32 38 55t55 36q30 13 65 13h162q67 0 130 -26q62 -26 107 -71q46 -46 71 -106q26 -63 26 -131q0 -69 -26 -130q-25 -59 -71 -105q-45 -45 -107 -72t-130 -27h-162q-32 0 -68 14v-606h-106zM212 766q0 -31 19 -50q20 -20 47 -20h162 q48 0 90 18q40 17 73 50q29 29 50 74q19 41 19 88q0 49 -19 90q-21 45 -50 74q-33 33 -73 49q-43 17 -90 17h-162q-28 0 -47 -19t-19 -47v-164v-160z" />
<glyph unicode="Q" horiz-adv-x="1114" d="M94 406v448q0 105 49 193q51 91 133 145q49 34 109 51t119 17q60 0 118 -18q55 -17 110 -50q83 -55 132 -145q48 -88 48 -193v-448q0 -38 -6 -72q56 -14 92 -59t36 -105q0 -74 -50 -124t-124 -50q-41 0 -75 19q-36 20 -57 47q-61 -37 -134 -56q-46 -9 -90 -9q-22 0 -44 2 q-70 8 -130 37q-104 50 -170 149t-66 221zM198 406q0 -92 50 -166t130 -110q60 -28 128 -28t128 28q1 0 12 7q13 8 18 10t18 10q8 5 8 7v6q0 54 30 98q30 43 80 60q10 36 10 78v448q0 63 -25 117q-26 55 -65 95q-32 32 -72 56q-65 34 -145 34t-145 -34q-42 -24 -72 -56 q-43 -42 -65 -95q-23 -57 -23 -117v-448zM794 170q0 -30 19 -49t47 -19q31 0 50 19q20 20 20 49q0 27 -20 47q-19 19 -50 19q-28 0 -47 -19t-19 -47z" />
<glyph unicode="R" horiz-adv-x="980" d="M92 -2v766v162v162q0 72 50 122t122 50h162q68 0 130 -27t107 -72q46 -46 71 -106q26 -63 26 -129q0 -64 -23 -124q-21 -56 -65 -104q40 -45 61 -102q21 -56 21 -116v-292q0 -32 9 -58q8 -24 20 -47q10 -20 21 -34q10 -13 12 -15l74 -76l-74 -72l-78 78q-2 2 -16 19 q-13 15 -30 47q-14 26 -29 70q-13 39 -13 88v292q0 89 -60 154q-71 -42 -156 -42h-8h-230v-594h-104zM196 694h230q49 0 90 19q43 20 73 50q31 31 49 73t18 90t-18 89q-19 43 -49 73q-33 33 -73 49q-43 17 -90 17h-162q-29 0 -48 -19q-20 -20 -20 -47v-162v-162v-70z" />
<glyph unicode="S" horiz-adv-x="1014" d="M88 286q0 73 50 123q49 49 120 49q74 0 124 -50t50 -122q0 -49 -25 -89q-26 -41 -67 -63q31 -15 68 -23q32 -7 72 -7q68 0 129 27t106 72t72 106t27 129q0 136 -90 222q-91 86 -252 110q-52 6 -97 27q-44 21 -76 54q-31 32 -49 75q-18 42 -18 88q0 49 20 95q19 44 53 78 t78 53q46 20 97 20q62 0 117 -30t91 -84l-90 -56q-19 31 -52 48q-31 16 -66 16q-62 0 -102 -40t-40 -100q0 -32 12 -56t33 -42q20 -17 47 -30q24 -11 54 -16q96 -13 181 -49q78 -33 136 -91q54 -54 85 -130q30 -74 30 -162q0 -92 -34 -170q-35 -80 -93 -140 q-57 -58 -139 -94q-78 -34 -170 -34q-53 0 -122 20q-65 19 -128 58q-61 38 -101 90q-41 53 -41 118zM190 286q0 -23 20 -46q19 -22 48 -22q30 0 50 20t20 48q0 30 -20 50t-50 20q-28 0 -48 -21q-20 -22 -20 -49z" />
<glyph unicode="T" horiz-adv-x="938" d="M78 1154v106h778v-106h-346v-1158h-104v1158h-328z" />
<glyph unicode="U" horiz-adv-x="1124" d="M102 410v850h102v-850q0 -62 24 -119q24 -58 66 -98q43 -41 98 -65q56 -24 118 -24t119 24t98 65t65 97t24 120v850h104v-862q0 -50 3 -88q4 -44 7 -66q3 -16 12 -53q6 -27 18 -65t26 -67q17 -34 36 -59h-124q-18 34 -33 81q-16 50 -23 87q-55 -77 -142 -123 q-86 -45 -190 -45q-85 0 -160 32q-74 32 -129 87q-56 56 -87 131q-32 78 -32 160z" />
<glyph unicode="V" horiz-adv-x="1184" d="M98 1260h108l382 -1102l380 1102h108l-434 -1260h-110z" />
<glyph unicode="W" horiz-adv-x="1750" d="M98 1260h108l380 -1100l230 660h110l226 -660l380 1100h112l-436 -1258h-110l-228 660l-228 -660h-110z" />
<glyph unicode="X" horiz-adv-x="1060" d="M104 -2l358 664l-322 598h118l264 -488l264 488h116l-322 -598l358 -664h-120l-296 554l-298 -554h-120z" />
<glyph unicode="Y" horiz-adv-x="988" d="M104 1258h118l268 -498l270 498h116l-334 -620v-642h-104v642z" />
<glyph unicode="Z" horiz-adv-x="1170" d="M126 2v136l806 1016h-806v106h912v-138l-806 -1018h806v-102h-912z" />
<glyph unicode="[" horiz-adv-x="430" d="M98 -168v1548h232v-106h-128v-1336h128v-106h-232z" />
<glyph unicode="\" horiz-adv-x="906" d="M20 1260h104l762 -1260h-104z" />
<glyph unicode="]" horiz-adv-x="432" d="M96 -62h130v1336h-130v106h232v-1548h-232v106z" />
<glyph unicode="^" horiz-adv-x="620" d="M56 968l112 142q23 29 60 49q35 19 76 19q37 0 73 -17q35 -17 61 -47l114 -146l-78 -66l-118 148q-20 24 -52 24q-34 0 -56 -28l-114 -144z" />
<glyph unicode="_" horiz-adv-x="1546" d="M-2 0h1556v-104h-1556v104z" />
<glyph unicode="`" horiz-adv-x="486" d="M68 1492l36 80l300 -128l-34 -80z" />
<glyph unicode="a" horiz-adv-x="1102" d="M78 410q0 84 33 158t88 129t129 87q75 32 158 32q103 0 192 -47q88 -46 144 -125q13 51 25 89q15 47 39 83q0 -1 23 -29t41 -81q-33 -87 -46 -173q-10 -67 -10 -135q0 -24 1 -48q5 -92 33 -182q29 -91 82 -168h-124q-18 38 -36 83q-16 38 -30 91q-55 -77 -142 -126 q-86 -48 -192 -48q-83 0 -158 32q-74 32 -129 87t-88 131t-33 160zM182 410q0 -62 24 -119q24 -58 66 -98q43 -42 97 -65q55 -24 117 -24q63 0 116 22q57 24 95 62q41 40 66 93q24 50 29 115q0 61 -22 117q-23 58 -62 103q-40 46 -96 73t-126 27q-63 0 -117 -25 q-55 -25 -97 -66q-41 -40 -66 -97q-24 -56 -24 -118z" />
<glyph unicode="b" horiz-adv-x="1148" d="M104 0q23 30 43 72q19 39 31 79q10 32 19 74l11 55q9 56 10 98v798h102v-496q59 62 137 99t171 37q83 0 158 -32q74 -32 129 -87t88 -129t33 -158t-33 -160t-88 -131t-129 -87q-75 -32 -158 -32q-104 0 -193 47q-90 47 -145 129q0 -14 -5 -39q-5 -24 -15 -49 q-1 -3 -8.5 -21.5t-11.5 -27.5q-13 -28 -20 -39h-126zM322 410q0 -62 24 -119t65 -98t98 -65t119 -24q63 0 118 24q56 24 97 65q40 40 66 97q25 54 25 120q0 64 -25 118q-26 57 -66 97t-97 66q-54 25 -118 25q-63 0 -119 -25q-58 -26 -98 -66q-41 -41 -65 -97t-24 -118z" />
<glyph unicode="c" horiz-adv-x="902" d="M84 410q0 83 32 158q32 74 87 129q56 56 130 87q76 32 159 32q84 0 158 -30t132 -88l-74 -74q-43 46 -100 69t-116 23q-64 0 -118 -25q-57 -26 -97 -66q-41 -41 -65 -97t-24 -118t24 -119t65 -98t96 -65t119 -24q70 0 133 29q59 27 107 83l80 -66q-62 -72 -144 -111 t-176 -39q-83 0 -159 32q-74 31 -130 87t-87 131q-32 78 -32 160z" />
<glyph unicode="d" horiz-adv-x="1114" d="M84 410q0 83 32 158q31 72 88 129q55 55 131 87t159 32q92 0 171 -36q80 -36 135 -100v496h102v-768l2 2q0 -23 2 -61q2 -30 6 -55q1 -8 8 -49q7 -38 19 -78q15 -50 32 -88q20 -46 47 -79h-124q-14 18 -24 42q-11 25 -18 49q-11 36 -13 48q-5 23 -9 39q-55 -82 -144 -130 q-88 -48 -192 -48q-83 0 -159 32t-131 87q-58 58 -88 131q-32 78 -32 160zM188 410q0 -62 24 -119q24 -58 66 -98q43 -41 98 -65t118 -24q62 0 118 24q55 24 98 65q41 40 66 97q24 56 24 120q0 62 -24 118q-25 57 -66 97q-42 40 -98 66q-54 25 -118 25t-118 -25 q-56 -26 -98 -66q-41 -40 -66 -97q-24 -56 -24 -118z" />
<glyph unicode="e" horiz-adv-x="1032" d="M102 412q0 96 45 180t120 141t170 78q39 9 79 9q57 0 116 -18q57 -18 108 -50q49 -31 89 -76q38 -42 61 -99q21 -53 26 -115q2 -31 1 -43q-1 -19 -3 -33q-1 -6 -2.5 -16t-1.5 -12h-700v-2l3 -9q1 -3 3 -11q11 -45 35 -83q27 -42 64 -74q40 -33 88 -54q50 -21 107 -21 q74 0 138 34q58 29 101 52q64 34 139 54l-26 -116q-56 -19 -101 -49q-46 -31 -101 -51q-72 -25 -141 -25h-5q-75 2 -142 24q-66 22 -125 70q-57 46 -95 115q-23 45 -37 97q-13 49 -13 103zM210 462h596q-18 96 -84 165q-65 68 -162 85q-26 4 -53 4l-35 -2q-48 -6 -90 -28 q-47 -24 -82 -55q-38 -33 -62 -77q-23 -42 -28 -92z" />
<glyph unicode="f" horiz-adv-x="862" d="M98 714v102h90v106q0 70 27 130q27 59 72 106t106 72q63 26 129 26q68 0 128 -25q63 -26 110 -73l-72 -74q-68 68 -166 68q-48 0 -89 -18t-73 -50t-50 -74t-18 -88v-106h230v-102h-230v-714h-104v714h-90z" />
<glyph unicode="g" horiz-adv-x="1058" d="M78 484q0 70 27 131q26 60 72 107q45 47 106 72q63 26 129 26q83 0 153 -35q69 -35 113 -95q5 29 17 65q11 34 27 65h114q-39 -74 -59 -161q-18 -77 -29 -175q0 -67 -26 -128q-25 -60 -71 -107q-46 -48 -107 -73q-63 -26 -132 -26q-42 0 -83 11q-37 10 -75 29 q-34 -36 -48 -86q-9 -29 -9 -58q0 -10 1 -20q4 -39 18 -74q56 68 144 110t182 42q83 0 158 -32q74 -32 129 -87t88 -128t33 -157t-33 -159t-88 -130t-129 -87q-75 -32 -158 -32t-158 32q-74 32 -129 87q-56 56 -87 130q-32 76 -32 159q0 73 24 140q-46 62 -60 138 q-6 34 -6 67q0 44 10 87q23 73 68 124q-44 47 -69 104t-25 124zM184 484q0 -48 18 -89t49 -72t73 -49t88 -18q48 0 91 18t74 49q30 30 50 73q19 41 19 88q0 49 -19 91q-20 44 -50 74q-31 31 -74 50q-42 19 -91 19q-50 0 -89 -19q-42 -20 -72 -50q-31 -31 -49 -74t-18 -91z M240 -300q0 -61 23 -118q23 -56 65 -98t97 -66t117 -24t118 24t98 66q43 43 65 97q23 57 23 119q0 60 -23 117q-22 55 -65 96q-43 42 -97 65q-55 24 -119 24q-96 0 -176 -56q-58 -42 -91 -107q-35 -68 -35 -139z" />
<glyph unicode="h" horiz-adv-x="914" d="M112 0v1176h104v-454q44 43 104 68q61 26 126 26t128 -26q61 -26 110 -74q46 -46 71 -107q25 -60 25 -129v-480h-104v480q0 48 -18 90t-49 73t-73 49t-90 18t-90 -18t-73 -49t-49 -73t-18 -90v-480h-104z" />
<glyph unicode="i" horiz-adv-x="356" d="M98 996q0 34 24 58t58 24t58 -24t24 -58q0 -33 -23 -59q-22 -25 -59 -25q-34 0 -58 24t-24 60zM128 0v818h102v-818h-102z" />
<glyph unicode="j" horiz-adv-x="710" d="M78 -526q0 71 50 121q49 49 122 49q37 0 71 -14q33 -14 56 -41q24 -28 35 -61q10 -28 10 -61v-11q40 31 63 77t23 101v1190h100v-1190q0 -78 -31 -141q-31 -65 -84 -111q-50 -45 -122 -68q-44 -14 -91 -14q-26 0 -52 4q-62 8 -106 56q-44 49 -44 114zM184 -526 q0 -30 18 -49t46 -19q26 0 48 19t22 49q0 29 -19 48q-20 20 -49 20q-27 0 -47 -20q-19 -19 -19 -48zM476 1002q0 34 25 58t59 24q33 0 58 -23q24 -23 24 -59q0 -34 -24 -58t-58 -24t-59 24t-25 58z" />
<glyph unicode="k" horiz-adv-x="876" d="M104 0v1176h102v-690h226q48 0 90 18q40 17 73 50q31 31 49 75q18 43 18 89v98h104v-98q0 -91 -43 -164q-44 -75 -115 -116q72 -46 115 -121q43 -74 43 -165v-686h-104v686q-2 94 -66 159q-66 66 -164 73h-226v-384h-102z" />
<glyph unicode="l" horiz-adv-x="362" d="M132 0v1176h102v-1176h-102z" />
<glyph unicode="m" horiz-adv-x="1412" d="M98 818h114q25 -48 36 -116q1 2 3.5 5t4.5 4q6 7 8 7q41 41 92 66q54 26 108 32h2q10 2 17 1q6 -1 17 -1h16h18h2q58 -6 109 -31q53 -26 93 -67q47 47 110 73q60 25 128 25q66 0 129 -26q61 -25 108 -71q49 -47 73 -106q26 -63 26 -131v-482h-106v482q0 48 -18 90t-49 73 q-30 30 -73 50q-41 19 -90 19q-104 0 -176 -82q34 -69 34 -150v-482h-102v482q0 47 -19 88q-20 44 -49 74q-30 32 -72 51q-41 19 -92 19q-47 0 -88 -18q-40 -18 -71 -49q-30 -30 -50 -73q-19 -41 -19 -92v-482h-106v482q0 46 -3 91q-3 49 -13 89q-5 25 -20 76q-12 41 -32 80 z" />
<glyph unicode="n" horiz-adv-x="930" d="M90 816h112q19 -33 23 -62q4 -25 11 -52q51 51 113 82q64 32 141 32q65 0 125 -25q61 -25 113 -73q46 -46 71 -107q25 -60 25 -129v-482h-104v482q0 46 -18 88q-19 44 -49 74q-32 32 -73 51t-90 19q-46 0 -87 -18t-72 -49q-32 -32 -51 -73q-21 -44 -22 -92v-482h-102v482 q0 49 -4 90q-4 46 -12 90q-6 28 -20 75q-13 43 -30 79z" />
<glyph unicode="o" d="M86 410q0 83 32 158q32 74 87 129q56 56 131 87q78 32 158 32q83 0 159 -32q74 -31 130 -87q55 -55 87 -129q32 -75 32 -158q0 -82 -32 -160q-31 -75 -87 -131t-130 -87q-76 -32 -159 -32t-159 32q-74 31 -130 87t-87 131q-32 78 -32 160zM188 410q0 -62 24 -119 q24 -58 66 -98q43 -41 98 -65t118 -24q62 0 119 24t98 65q40 40 66 97q25 54 25 120q0 63 -25 117q-25 55 -66 97q-40 42 -98 66q-57 24 -119 24t-118 -24t-98 -66t-66 -97t-24 -117z" />
<glyph unicode="p" horiz-adv-x="1128" d="M92 818h124q11 -11 21 -32q13 -28 19 -48q10 -34 14 -51q1 -6 4.5 -21t5.5 -22q55 78 143 126q87 48 191 48q85 0 160 -32q74 -32 129 -87t88 -130t33 -159t-33 -160t-88 -131t-129 -87q-75 -32 -160 -32q-88 0 -169 38q-78 37 -135 100v-672h-106v972l-4 52q-1 28 -8 66 q-1 3 -4.5 23.5t-6.5 33.5q-9 42 -20 70q-21 53 -29 71q-17 36 -40 64zM310 410q0 -61 23 -118q23 -55 65 -98q42 -42 98 -66t118 -24t118 24t98 66t66 97t24 119q0 62 -24 118q-25 57 -66 97q-42 40 -98 66q-54 25 -118 25t-118 -25q-56 -26 -98 -66q-42 -41 -65 -97 q-23 -57 -23 -118z" />
<glyph unicode="q" horiz-adv-x="1250" d="M94 410q0 84 33 159t88 130t129 87q75 32 160 32q104 0 191 -48q88 -48 143 -126q6 48 25 90q7 16 19.5 44.5t17.5 39.5h124q-63 -78 -85 -180q-23 -104 -27 -204v-810q37 14 70 14q35 0 65 -13q32 -14 54 -37q23 -24 36 -55q13 -30 13 -67q0 -38 -13 -68 q-14 -33 -36 -55q-23 -23 -54 -36q-30 -13 -65 -13q-72 0 -122 50t-50 122v672q-61 -64 -137 -100q-81 -38 -169 -38q-85 0 -160 32q-74 32 -129 87t-88 131t-33 160zM198 410q0 -61 23 -118q22 -55 65 -98q42 -42 99 -66t119 -24t118 24q57 25 97 66q41 42 66 97 q25 54 25 119q0 64 -25 118q-26 57 -66 97t-97 66q-54 25 -118 25q-63 0 -119 -25q-57 -25 -99 -66t-65 -97q-23 -57 -23 -118zM912 -534q0 -30 20 -50t50 -20q28 0 48 20t20 50q0 28 -20 48t-48 20q-29 0 -48 -19q-21 -21 -22 -49z" />
<glyph unicode="r" horiz-adv-x="846" d="M90 816h112q7 -19 19 -55l19 -57q5 5 7 8q3 5 7 6q41 41 91 66q52 26 107 32l32 2q71 0 137 -30q82 -36 137 -102l-82 -64q-23 25 -34 34q-36 32 -82 47q-34 11 -68 11q-13 0 -26 -2q-44 -6 -82 -26t-65 -50q-26 -29 -43 -70q-16 -39 -16 -86v-480h-104v480q0 22 -2 76 q-2 12 -4.5 36.5t-3.5 35.5q-5 45 -14 76q-8 28 -18 57q-12 32 -24 55z" />
<glyph unicode="s" horiz-adv-x="688" d="M72 132l86 56q24 -39 68 -62q41 -22 88 -22q38 0 73 15q34 15 60 41q24 24 40 59q15 33 15 71q0 78 -51 127t-141 63q-73 7 -120 56q-46 47 -46 112q0 74 50 124t120 50q46 0 85 -21q38 -20 61 -59l-88 -54q-19 30 -54 30h-4q-29 0 -49 -20q-19 -19 -19 -50q0 -30 24 -47 t52 -21q132 -16 208 -94q76 -77 76 -196q0 -63 -22 -114q-22 -52 -63 -91t-94 -62q-54 -23 -113 -23q-73 0 -138 35q-62 33 -104 97z" />
<glyph unicode="t" horiz-adv-x="646" d="M106 714v102h164v360h102v-360h162v-102h-162v-714h-102v714h-164z" />
<glyph unicode="u" horiz-adv-x="934" d="M90 336v480h104v-480q0 -46 18 -88t49 -73q32 -32 73 -51q43 -20 90 -20q48 0 91 21t74 55q31 33 49 75q16 35 16 73v8v480h106v-480v-12q1 -49 7 -105q1 -11 3 -25.5t3 -24.5t1 -17q8 -34 21 -75q14 -42 33 -77h-114q-13 32 -20 57q-16 59 -16 61q-6 -11 -16 -18 q-46 -48 -107 -73q-60 -25 -131 -25q-132 0 -236 98q-47 47 -72 106q-26 61 -26 130z" />
<glyph unicode="v" horiz-adv-x="862" d="M88 816h108l228 -658l226 658h112l-282 -816h-110z" />
<glyph unicode="w" horiz-adv-x="1348" d="M90 816h112l226 -658l182 532h112l182 -532l228 658h110l-282 -816h-110l-184 528l-184 -528h-108z" />
<glyph unicode="x" horiz-adv-x="820" d="M120 0l234 430l-210 386h116l152 -278l152 278h116l-210 -386l234 -430h-120l-172 320l-174 -320h-118z" />
<glyph unicode="y" horiz-adv-x="1176" d="M122 840h118l380 -702l304 702h112l-510 -1176q72 0 122 -50t50 -122q0 -73 -50 -123q-49 -49 -122 -49q-46 0 -82 21q-37 22 -59 55q-24 37 -28 77q-1 11 -1 21q0 34 12 64l198 460zM458 -508q0 -29 20 -49q19 -19 48 -19t49 20q19 19 19 48t-19 49q-19 21 -49 21 q-23 0 -46 -20q-22 -19 -22 -50z" />
<glyph unicode="z" horiz-adv-x="834" d="M132 0v136l460 578h-460v102h566v-134l-458 -578h458v-104h-566z" />
<glyph unicode="{" horiz-adv-x="696" d="M70 606q0 61 41 111q40 49 103 57q19 241 100 480q16 51 60 86q43 34 104 34q35 0 65 -13q31 -13 55 -37l-74 -72q-20 20 -46 22q-23 0 -42 -14q-16 -13 -24 -34q-39 -111 -64 -230q-23 -110 -34 -236q-4 -29 -21 -49q-14 -17 -35 -29q-23 -12 -52 -18q-14 -8 -23 -23 t-9 -35t9 -35t23 -23q30 -6 52 -16q21 -11 36 -29t20 -51q11 -125 34 -236q25 -119 64 -230q6 -20 23 -34t43 -14q27 0 46 22l74 -72q-23 -24 -55 -37q-30 -13 -65 -13q-50 0 -91 26q-40 25 -63 68q-46 119 -72 248q-26 132 -38 258q-62 8 -103 56q-41 49 -41 112z" />
<glyph unicode="|" horiz-adv-x="298" d="M98 -168v1548h104v-1548h-104z" />
<glyph unicode="}" horiz-adv-x="710" d="M88 -112l72 72q25 -21 48 -22q21 0 41 14q18 12 23 34q38 116 63 231q24 108 35 235q5 34 22 52q17 17 36 28q21 10 52 16q14 8 23 24t9 34q0 20 -9 35t-23 23q-30 6 -54 18q-20 10 -36 30q-15 18 -20 48q-11 123 -34 235q-25 119 -64 231q-6 21 -24 34q-19 14 -40 14 q-25 0 -48 -22l-72 72q47 50 120 50q59 0 103 -34q46 -35 59 -86q80 -230 102 -480q61 -7 102 -56q40 -47 40 -112t-40 -111q-40 -47 -102 -57q-6 -62 -13 -117q-8 -61 -23 -143q-14 -74 -33 -141q-20 -69 -43 -105q-19 -42 -61 -68q-41 -26 -91 -26q-76 0 -120 50z" />
<glyph unicode="~" horiz-adv-x="634" d="M50 630l38 46q24 30 60 48t76 18q35 0 71 -17q35 -17 61 -47q24 -28 56 -28q28 0 54 26l54 64l64 -80l-38 -50q-52 -61 -134 -60q-82 0 -136 64q-20 26 -52 26q-34 0 -58 -30l-50 -60z" />
<glyph unicode="&#xa1;" horiz-adv-x="324" d="M80 1178q0 34 24 58t58 24t59 -24t25 -58t-24 -59t-60 -25q-34 0 -58 24t-24 60zM112 0v954h104v-954h-104z" />
<glyph unicode="&#xa2;" horiz-adv-x="902" d="M88 406q0 78 27 147q27 68 75 124q48 55 114 90q67 35 140 47v84h106v-84q64 -7 127 -38q62 -30 111 -82l-74 -74q-34 34 -77 56t-87 30v-602q53 7 101 37q45 28 81 73l84 -66q-51 -63 -119 -100q-69 -38 -147 -48v-88h-106v88q-75 7 -141 44q-65 37 -113 90 q-48 54 -75 124q-27 71 -27 148zM190 406q0 -55 20 -107q18 -48 55 -91q34 -40 81 -67q46 -27 98 -37v602q-49 -7 -98 -34q-45 -25 -81 -67t-55 -91q-20 -51 -20 -108z" />
<glyph unicode="&#xa3;" horiz-adv-x="850" d="M30 54q1 2 17 25q16 22 43 45q52 48 104 64q16 6 36 16q25 12 47 36q24 26 40 59q17 36 17 85q0 30 -6 56q-5 22 -14 52h-226v100h172q-2 2 -4.5 6t-2.5 5t-2.5 5t-4.5 6q-32 54 -47 83q-25 48 -41 95q-4 11 -4 13q-1 8 -4 11q-8 46 -8 82q0 70 27 133t73 109t108 73 t134 27q77 0 147 -32q68 -31 117 -92l-78 -64q-35 43 -82 65q-49 23 -104 23q-50 0 -92 -19q-45 -20 -77 -52t-52 -77q-19 -42 -19 -94q0 -38 12 -72q14 -44 35 -82q36 -65 43 -76q16 -24 23 -37t23 -39h236v-100h-194q14 -54 14 -108q0 -71 -23 -120q-21 -46 -53 -82 q27 -7 51 -20q7 -4 22 -11t21 -11q34 -21 61 -31q30 -11 73 -11q61 0 102 56q17 18 28 44q7 12 8 20l96 -28q0 -5 -10 -31q-11 -29 -38 -63q-35 -50 -82 -75t-104 -25q-60 0 -105 17q-35 13 -77 37q-34 18 -68 31q-33 13 -84 13q-22 0 -38 -6q-22 -8 -39 -24 q-6 -6 -16.5 -16t-14.5 -14q-16 -17 -28 -34z" />
<glyph unicode="&#xa4;" horiz-adv-x="1186" d="M80 306q0 63 40 109q41 47 98 59q-17 34 -25 78q-7 39 -7 88q0 43 8 89q7 39 28 83q-62 10 -102 57q-40 46 -40 113q0 35 13 65q14 32 37 54q24 23 55 36q30 13 69 13q62 0 110 -39t60 -99q39 17 82 28q40 10 86 10t86 -10q47 -12 82 -26q11 61 58 98q49 38 110 38 q36 0 66 -13q32 -14 56 -36q23 -22 37 -54q13 -30 13 -65q0 -61 -38 -110q-38 -48 -96 -60q18 -41 27 -83q9 -44 9 -89q0 -46 -9 -88q-9 -44 -25 -78q57 -14 94 -60q38 -47 38 -108q0 -74 -50 -124t-122 -50q-61 0 -108 38q-46 38 -60 96q-40 -18 -81 -27t-87 -9 q-91 0 -170 40q-13 -59 -61 -99q-46 -39 -107 -39q-74 0 -124 50t-50 124zM186 306q0 -31 19 -50q20 -20 49 -20q27 0 47 20q19 19 19 50q0 26 -18 46t-48 20t-49 -19t-19 -47zM186 982q0 -31 19 -50q20 -20 49 -20q27 0 47 20q19 19 19 50q0 28 -19 47t-47 19 q-30 0 -49 -19t-19 -47zM286 640q0 -61 25 -115t66 -98q38 -41 97 -68q54 -25 118 -25q60 0 115 24q53 23 98 65q41 38 68 97q25 54 25 120q0 58 -23 115q-22 54 -65 97q-41 41 -98 67q-54 25 -120 25q-61 0 -118 -23q-56 -23 -97 -65q-40 -42 -66 -98q-25 -54 -25 -118z M858 306q0 -30 20 -50t50 -20q28 0 48 20t20 50q0 27 -20 47q-19 19 -48 19q-24 0 -47 -20t-23 -46zM858 982q0 -27 20 -49q20 -21 50 -21q28 0 48 20t20 50q0 27 -20 47q-19 19 -48 19q-31 0 -50 -19q-20 -20 -20 -47z" />
<glyph unicode="&#xa5;" horiz-adv-x="988" d="M104 1258h118l268 -498l270 498h116l-334 -620v-32h316v-102h-316v-86h316v-104h-316v-318h-104v318h-306v104h306v86h-306v102h306v32z" />
<glyph unicode="&#xa7;" horiz-adv-x="668" d="M84 606q-2 46 8 80q11 40 32 72q22 34 52 58q-21 18 -40 42q-20 25 -32 52q-20 48 -20 94t17 91q15 41 49 79q30 35 80 58q48 20 96 18v-102q-30 0 -54 -12q-27 -13 -46 -33q-21 -22 -29 -46q-9 -25 -9 -52t12 -53q18 -40 52 -61t74 -21q72 0 133 -39t91 -105 q19 -42 20 -80q2 -43 -8 -79q-11 -40 -31 -73t-53 -58q47 -37 72 -94q20 -48 20 -94q0 -47 -17 -92q-17 -44 -50 -79t-79 -57q-32 -10 -49 -14q-24 -6 -49 -4v102q32 0 58 14q52 22 72 75t-4 107q-18 40 -52 62t-74 22q-69 0 -131 38q-60 37 -91 104q-19 39 -20 80zM197 676 q-21 -54 3 -108q23 -50 76 -71q55 -21 108 1q52 24 72 78q20 55 -4 108q-11 27 -31 44q-21 18 -45 27t-51 9t-53 -12q-54 -23 -75 -76z" />
<glyph unicode="&#xa8;" horiz-adv-x="564" d="M56 1010q0 34 24 58t60 24q34 0 58 -24t24 -58t-24 -59t-58 -25t-59 25t-25 59zM350 1010q0 34 24 58t60 24q34 0 58 -24t24 -58t-24 -59t-58 -25t-59 25t-25 59z" />
<glyph unicode="&#xa9;" horiz-adv-x="1532" d="M76 636q0 134 56 266q26 62 62 118t84 102q48 48 102 84q51 34 114 64q126 52 268 52q139 0 268 -52q64 -30 117 -64t101 -84q47 -45 85 -102q36 -54 63 -118q52 -125 52 -266t-52 -266q-54 -124 -148 -220q-44 -43 -102 -83q-52 -36 -116 -61q-126 -54 -268 -54 q-70 0 -135 13q-71 14 -133 41q-65 25 -115 61q-58 42 -101 83q-93 95 -146 220q-55 133 -56 266zM180 636q0 -121 46 -226q46 -106 125 -185t185 -125q105 -46 226 -46q122 0 227 46q108 47 186 125q78 79 125 185q46 105 46 226q0 122 -46 227q-47 108 -125 186t-186 125 q-105 46 -227 46q-121 0 -226 -46q-106 -46 -185 -125t-125 -185q-46 -105 -46 -228zM356 636q0 84 33 159t89 131q57 56 130 88q75 32 160 32q84 0 156 -31q75 -32 132 -89l-74 -74q-44 44 -99 66q-54 22 -115 22t-119 -23q-56 -22 -99 -65t-65 -97q-23 -57 -23 -119 q0 -61 23 -118q23 -56 65 -97q42 -40 98 -66q54 -25 120 -25q68 0 129 30q60 29 107 84l80 -64q-61 -75 -142 -113q-82 -39 -174 -39q-85 0 -160 32t-130 87q-57 57 -89 130q-33 75 -33 159z" />
<glyph unicode="&#xaa;" horiz-adv-x="604" d="M44 696v56h506v-56h-506zM46 1036q0 44 17 86q16 40 47 69q31 30 70 47q40 18 86 18q59 0 105 -25q48 -26 77 -67q8 30 13 47q7 25 21 45q7 -7 12 -16q4 -5 12 -19q4 -7 12 -25q-34 -90 -30 -193q5 -104 62 -187h-68q-21 40 -34 92q-29 -41 -78 -67q-47 -25 -104 -25 q-44 0 -86 17q-39 16 -70 47t-47 70q-17 42 -17 86zM102 1036q0 -35 13 -65q14 -32 35 -52q24 -22 52 -35q31 -14 64 -14q36 0 63 13q30 14 51 34q22 21 36 50q15 31 16 61q0 33 -11 64q-10 29 -33 55q-22 25 -53 40t-69 15q-35 0 -64 -13t-52 -36q-21 -21 -35 -54 q-13 -30 -13 -63z" />
<glyph unicode="&#xab;" horiz-adv-x="836" d="M76 646q0 39 16 72q16 34 46 58l264 218l64 -80l-264 -216q-24 -20 -24 -52q0 -34 28 -56l260 -216l-64 -78l-260 214q-30 24 -48 60t-18 76zM352 646q0 80 60 130l264 218l66 -80l-262 -216q-28 -19 -28 -52q0 -34 28 -56l262 -216l-66 -78l-260 214q-32 24 -48 60 q-16 35 -16 76z" />
<glyph unicode="&#xad;" horiz-adv-x="868" d="M68 398v104h730v-104h-730z" />
<glyph unicode="&#xae;" horiz-adv-x="1510" d="M58 634q0 141 52 264q31 68 64 118q36 56 84 102q47 49 101 85q55 37 117 63q126 52 266 52q142 0 268 -52q125 -54 220 -148q46 -46 83 -101t61 -119q54 -130 54 -264t-54 -268q-24 -61 -62 -116q-35 -51 -82 -104q-46 -44 -103 -83q-54 -36 -117 -61q-124 -54 -268 -54 q-140 0 -266 54q-122 50 -218 144q-49 49 -84 103q-34 53 -64 117q-52 126 -52 268zM160 634q0 -122 46 -227q48 -109 125 -185q81 -79 184 -125q106 -47 227 -47q119 0 227 47q106 46 186 125q78 77 125 184q46 105 46 228q0 122 -46 227q-48 109 -125 185q-80 79 -186 125 q-108 47 -227 47q-118 0 -226 -47q-104 -45 -185 -125q-77 -76 -125 -185q-46 -105 -46 -227zM524 274v646q0 6 6 34t30 52q10 12 31 22q20 10 55 10h116h4q4 0 31 -6q25 -5 61 -26q100 -60 100 -174q0 -44 -11 -82q-10 -34 -31 -60q13 -16 29 -49q13 -27 13 -63v-200 q0 -2 2 -6.5t5 -13t6 -16.5q10 -29 57 -70l-68 -78q-37 36 -57 64q-20 29 -31 55q-10 24 -13 40q-3 15 -3 19v2v204q0 13 -5 25q-3 7 -13 21q-19 -9 -43 -14q-19 -4 -37 -4h-130v-332h-104zM628 706q47 0 72 1t58 1q8 0 25 6t33 18q40 36 40 100q-1 52 -44 82q-22 15 -33 19 q-15 5 -23 5h-110q-16 0 -18 -20v-212z" />
<glyph unicode="&#xaf;" horiz-adv-x="676" d="M74 970v102h528v-102h-528z" />
<glyph unicode="&#xb0;" horiz-adv-x="514" d="M80 1252q0 74 50 124t122 50q73 0 123 -50q49 -49 49 -124q0 -73 -49 -122q-50 -50 -123 -50q-72 0 -122 50t-50 122zM186 1252q0 -28 19 -47t47 -19q30 0 49 19t19 47q0 30 -19 49t-49 19q-28 0 -47 -19t-19 -49z" />
<glyph unicode="&#xb1;" horiz-adv-x="900" d="M84 196v104h730v-104h-730zM84 690v104h314v314h102v-314h314v-104h-314v-312h-102v312h-314z" />
<glyph unicode="&#xb2;" horiz-adv-x="378" d="M57 859q0 39 14 69q13 27 34 45q22 19 41 25q27 9 39 9q25 1 47 11q23 10 37 24t23 34q8 17 8 43q0 22 -9 43t-24 36q-14 14 -35 23t-44 9q-28 0 -48 -10q13 -6 23 -21q9 -13 9 -30q0 -24 -17 -41t-41 -17t-41 17q-16 16 -16 41q0 6 2 16q1 5 7 13q20 30 53 49 q31 18 69 18q30 0 57 -12t46 -31t31 -46t12 -57q0 -29 -11 -56t-29 -45t-47 -31q-28 -13 -59 -14q-4 0 -8 -1l-16 -4q-5 -1 -22 -10q-8 -4 -21 -17q-10 -10 -18 -26q-9 -17 -10 -38h225v-35h-244q-7 0 -12 5t-5 12zM92 1169q0 -10 6 -16q7 -7 16 -7t16 7t7 16t-7 16t-16 7 q-6 0 -10 -3q-3 -2 -8 -7h-1v-1q-1 -1 -1 -3t-1 -3q-1 -2 -1 -6z" />
<glyph unicode="&#xb3;" horiz-adv-x="336" d="M34 912l29 19q14 -22 39 -36q23 -13 51 -13q23 0 42 9q22 10 35 23t23 35q9 19 9 42q0 45 -30 73q-31 30 -83 37q-7 0 -10 5q-4 6 -4 11q0 7 4 11t11 6q6 1 18 5q8 3 16 9q5 4 11 14q4 7 4 19q0 20 -13 33t-33 13q-11 0 -22 -6q-13 -7 -17 -15l-28 18q11 18 28 27 q20 10 39 10q16 0 31 -6q12 -5 25 -18q12 -12 17 -25q6 -15 6 -31q0 -36 -28 -60q42 -16 67 -50t25 -80q0 -29 -12 -55q-14 -30 -30 -46q-20 -21 -46 -31q-27 -11 -55 -11q-36 0 -68 17q-31 16 -51 47z" />
<glyph unicode="&#xb4;" horiz-adv-x="436" d="M46 1046l300 128l36 -80l-304 -128z" />
<glyph unicode="&#xb5;" horiz-adv-x="918" d="M90 -174v510v112v368h104v-368v-112q0 -46 18 -88t49 -73q32 -32 73 -51q43 -20 90 -20q48 0 91 21t74 55q31 33 49 75q18 39 16 81v480h106v-480v-12q1 -49 7 -105q1 -11 3 -25.5t3 -24.5t1 -17q8 -34 21 -75q14 -42 33 -77h-114q-13 32 -20 57q-16 59 -16 61 q-6 -11 -16 -18q-46 -48 -107 -73q-60 -25 -131 -25q-127 0 -230 92v-268h-104z" />
<glyph unicode="&#xb6;" horiz-adv-x="976" d="M94 832q0 72 27 135q26 61 74 109q44 44 110 74q62 28 133 28h102h214h102v-104v-1074h-102v1074h-214v-1074h-102v486q-74 0 -134 28q-63 29 -109 75q-47 47 -74 109t-27 134z" />
<glyph unicode="&#xb7;" horiz-adv-x="278" d="M56 454q0 34 24 58t60 24q33 0 58 -23q24 -22 24 -59q0 -34 -24 -58t-58 -24t-59 24t-25 58z" />
<glyph unicode="&#xb8;" horiz-adv-x="410" d="M58 -336l72 74q23 -20 48 -20q30 0 49 19t19 49q0 29 -19 48q-20 20 -49 20h-52v148h104v-52q54 -17 88 -62q34 -46 34 -102q0 -35 -14 -68q-14 -32 -38 -55t-55 -36q-30 -13 -67 -13q-73 0 -120 50z" />
<glyph unicode="&#xb9;" horiz-adv-x="158" d="M30 1183q0 13 7 31q5 13 17 25q13 13 26 18q15 6 32 6h17v-421h-35v384q-14 -6 -21 -17q-8 -13 -8 -26h-35z" />
<glyph unicode="&#xba;" horiz-adv-x="548" d="M44 696h446v56h-446v-56zM44 1036q0 45 17 85q16 38 47 69t70 47q42 17 86 17t86 -17q39 -16 70 -47t47 -70q17 -42 17 -84q0 -44 -17 -86q-16 -39 -47 -70t-70 -47q-42 -17 -86 -17t-86 17q-39 16 -70 47t-47 70q-17 42 -17 86zM100 1036q0 -35 13 -65q14 -32 35 -52 q24 -22 52 -35q31 -14 64 -14t64 14q28 13 52 35q21 19 35 51q13 29 13 66q0 68 -48 115q-49 47 -116 47t-116 -47q-48 -47 -48 -115z" />
<glyph unicode="&#xbb;" horiz-adv-x="864" d="M104 374l262 218q26 23 26 54q0 34 -28 56l-260 212l64 80l260 -214q33 -25 49 -59q17 -36 17 -75q0 -38 -15 -73t-45 -59l-2 -2l-264 -216zM378 374l264 218q22 25 22 54q0 33 -26 56l-260 212l62 80l262 -214q32 -24 50 -59t18 -75q0 -37 -17 -73q-17 -35 -47 -59v-2 l-266 -216z" />
<glyph unicode="&#xbc;" horiz-adv-x="1266" d="M62 1115q0 29 12 56q13 29 31 47q19 19 48 32q27 12 57 12h32v-772h-64v703q-25 -12 -38 -30q-14 -20 -14 -48h-64zM84 0l764 1260h104l-762 -1260h-106zM714 356l106 399h64l-88 -337h143v73h63v-73h190v-62h-190v-360h-63v360h-225z" />
<glyph unicode="&#xbd;" horiz-adv-x="1258" d="M64 1115q0 29 12 56q13 29 31 47q19 19 48 32q27 12 57 12h32v-772h-64v703q-25 -12 -38 -30q-14 -20 -14 -48h-64zM86 0l764 1260h104l-762 -1260h-106zM706 30q0 73 24 124q25 53 60 82q36 30 75 45q37 14 70 16q44 3 84 20t65 42q29 29 43 62q15 36 15 76q0 39 -17 78 q-17 37 -43 64q-25 25 -64 43q-35 16 -78 16q-47 0 -85 -19q24 -11 40 -37t16 -55q0 -43 -30 -73t-73 -30q-46 0 -74 30q-28 29 -28 73q0 15 3 29t12 24q38 57 95 89q56 31 124 31q54 0 102 -21t83 -56t56 -83t21 -103q0 -51 -19 -100q-18 -46 -53 -81q-34 -34 -84 -56 t-106 -25q-6 0 -14 -1t-29 -8q-18 -6 -39 -18q-24 -14 -39 -30q-19 -21 -32 -48q-15 -32 -18 -68h404v-62h-437q-13 0 -21 8q-9 9 -9 22zM767 587q0 -17 11 -28q12 -12 30 -12q17 0 29 12t12 28q0 17 -12 29t-29 12q-12 0 -19 -4t-15 -12l-1 -2v-1q-2 -3 -4 -11t-2 -11z" />
<glyph unicode="&#xbe;" horiz-adv-x="1476" d="M68 620l52 35q26 -41 72 -67q42 -23 94 -23q43 0 78 16q39 18 64 43q28 28 43 64q16 38 16 78q0 80 -54 133t-154 68q-14 2 -19 9q-6 9 -6 21q0 10 8 20q7 8 19 11q22 4 33 8q17 6 29 18q16 16 21 26q7 14 7 33q0 37 -25 61q-26 24 -60 24q-22 0 -41 -10q-18 -10 -31 -29 l-52 34q21 32 53 50q31 17 71 17q32 0 57 -11q29 -13 47 -32q19 -21 31 -47q12 -27 12 -57q0 -65 -53 -109q78 -30 124 -92q45 -62 45 -146q0 -55 -21 -103q-22 -50 -56 -84q-36 -36 -84 -57q-46 -20 -102 -20q-66 0 -124 31t-94 87zM306 0l764 1260h104l-762 -1260h-106z M930 362l105 398h64l-88 -337h143v73h63v-73h189v-61h-189v-360h-63v360h-224z" />
<glyph unicode="&#xbf;" horiz-adv-x="800" d="M64 362q0 145 95 242q95 96 259 116q40 6 74 31t34 71q0 44 -30 73q-31 29 -72 29q-26 0 -49 -12q-24 -13 -37 -36l-88 56q30 46 75 72q46 26 99 26q41 0 80 -17q38 -17 66 -45q27 -27 44 -66q16 -36 16 -80q0 -78 -55 -136t-143 -70q-125 -17 -193 -83q-69 -67 -69 -171 q0 -51 20 -100q19 -47 54 -82q34 -34 81 -54q48 -20 99 -20q66 0 122 30t92 84l88 -58q-48 -74 -130 -119q-79 -43 -172 -43q-78 0 -141 28q-66 29 -114 77t-77 115q-28 65 -28 142zM352 1178q0 34 24 58t58 24t59 -24t25 -58t-25 -58t-59 -24q-33 0 -58 23q-24 23 -24 59z " />
<glyph unicode="&#xc0;" horiz-adv-x="1098" d="M104 596v104h88v222q0 69 26 129q26 59 72 105q49 49 109 74q63 26 127 26q70 0 130 -25q62 -25 108 -75q45 -45 71 -105q25 -57 25 -129v-442v-292q0 -32 9 -58q8 -24 20 -47q10 -20 21 -34q10 -13 12 -15l74 -74l-70 -74l-80 80q-7 7 -16 18q-14 18 -30 46 q-14 26 -29 70q-13 39 -13 88v292v116h-460v-596h-106v596h-88zM298 700h460v222q0 50 -19 89q-21 44 -50 73q-33 33 -73 49q-43 17 -90 17t-89 -17q-39 -16 -72 -49q-30 -30 -49 -74q-18 -42 -18 -88v-222zM366 1492l34 80l302 -128l-34 -80z" />
<glyph unicode="&#xc1;" horiz-adv-x="1098" d="M104 596v104h88v222q0 69 26 129q26 59 72 105q49 49 109 74q63 26 127 26q70 0 130 -25q62 -25 108 -75q45 -45 71 -105q25 -57 25 -129v-442v-292q0 -32 9 -58q8 -24 20 -47q10 -20 21 -34q10 -13 12 -15l74 -74l-70 -74l-80 80q-7 7 -16 18q-14 18 -30 46 q-14 26 -29 70q-13 39 -13 88v292v116h-460v-596h-106v596h-88zM298 700h460v222q0 50 -19 89q-21 44 -50 73q-33 33 -73 49q-43 17 -90 17t-89 -17q-39 -16 -72 -49q-30 -30 -49 -74q-18 -42 -18 -88v-222zM354 1442l34 -80l302 128l-36 80z" />
<glyph unicode="&#xc2;" horiz-adv-x="1098" d="M104 596v104h88v222q0 69 26 129q26 59 72 105q49 49 109 74q63 26 127 26q70 0 130 -25q62 -25 108 -75q45 -45 71 -105q25 -57 25 -129v-442v-292q0 -32 9 -58q8 -24 20 -47q10 -20 21 -34q10 -13 12 -15l74 -74l-70 -74l-80 80q-7 7 -16 18q-14 18 -30 46 q-14 26 -29 70q-13 39 -13 88v292v116h-460v-596h-106v596h-88zM272 1424l114 142q23 29 60 49q35 19 74 19q37 0 73 -17q35 -17 61 -47l114 -146l-78 -66l-116 148q-20 24 -54 24q-17 0 -30 -7q-14 -7 -24 -21l-116 -144zM298 700h460v222q0 50 -19 89q-21 44 -50 73 q-33 33 -73 49q-43 17 -90 17t-89 -17q-39 -16 -72 -49q-30 -30 -49 -74q-18 -42 -18 -88v-222z" />
<glyph unicode="&#xc3;" horiz-adv-x="1098" d="M104 596v104h88v222q0 69 26 129q26 59 72 105q49 49 109 74q63 26 127 26q70 0 130 -25q62 -25 108 -75q45 -45 71 -105q25 -57 25 -129v-442v-292q0 -32 9 -58q8 -24 20 -47q10 -20 21 -34q10 -13 12 -15l74 -74l-70 -74l-80 80q-7 7 -16 18q-14 18 -30 46 q-14 26 -29 70q-13 39 -13 88v292v116h-460v-596h-106v596h-88zM266 1442l38 46q24 30 60 48t76 18q35 0 71 -17q35 -17 61 -47q24 -28 56 -28q28 0 54 26l54 64l64 -80l-38 -50q-52 -61 -134 -60q-82 0 -136 64q-20 26 -52 26q-34 0 -58 -30l-50 -60zM298 700h460v222 q0 50 -19 89q-21 44 -50 73q-33 33 -73 49q-43 17 -90 17t-89 -17q-39 -16 -72 -49q-30 -30 -49 -74q-18 -42 -18 -88v-222z" />
<glyph unicode="&#xc4;" horiz-adv-x="1098" d="M104 596v104h88v222q0 69 26 129q26 59 72 105q49 49 109 74q63 26 127 26q70 0 130 -25q62 -25 108 -75q45 -45 71 -105q25 -57 25 -129v-442v-292q0 -32 9 -58q8 -24 20 -47q10 -20 21 -34q10 -13 12 -15l74 -74l-70 -74l-80 80q-7 7 -16 18q-14 18 -30 46 q-14 26 -29 70q-13 39 -13 88v292v116h-460v-596h-106v596h-88zM298 700h460v222q0 50 -19 89q-21 44 -50 73q-33 33 -73 49q-43 17 -90 17t-89 -17q-39 -16 -72 -49q-30 -30 -49 -74q-18 -42 -18 -88v-222zM302 1448q0 34 24 58t60 24q34 0 58 -24t24 -58t-24 -59t-58 -25 t-59 25t-25 59zM596 1448q0 34 24 58t60 24q34 0 58 -24t24 -58t-24 -59t-58 -25t-59 25t-25 59z" />
<glyph unicode="&#xc5;" horiz-adv-x="1098" d="M104 596h88v-596h106v596h460v-116v-292q0 -49 13 -88q15 -44 29 -70q17 -32 30 -47q14 -17 16 -17l80 -80l70 74l-74 74q-2 2 -12 15q-11 14 -21 34q-12 23 -20 47q-9 25 -9 58v292v442q0 72 -25 129q-26 60 -71 105q-49 49 -109 74q-63 26 -129 26q-67 0 -126 -25 q-61 -26 -110 -75q-46 -46 -72 -105q-26 -60 -26 -129v-222h-88v-104zM298 700v222q0 48 18 89q19 43 49 73q33 33 73 49q43 17 88 17q47 0 90 -17q40 -16 73 -49q29 -29 50 -74q19 -41 19 -88v-222h-460zM354 1524q0 72 49 121t121 49q73 0 122 -49q50 -50 50 -121 q0 -74 -50 -124t-122 -50q-71 0 -121 50q-49 49 -49 124zM456 1524q0 -31 19 -50q20 -20 49 -20t49 20q19 19 19 50q0 29 -19 48q-20 20 -49 20t-49 -20q-19 -19 -19 -48z" />
<glyph unicode="&#xc6;" horiz-adv-x="1294" d="M88 596v104h90v226q0 69 26 129q25 56 70 105v2q47 47 111 73q62 25 129 25h104h564v-106h-564v-454h228v-104h-228v-492h564v-104h-564h-104v596h-232v-596h-104v596h-90zM282 700h232v454q-48 0 -89 -18q-40 -18 -74 -50q-32 -31 -51 -73q-18 -41 -18 -87v-226z" />
<glyph unicode="&#xc7;" horiz-adv-x="1004" d="M106 408v442q0 84 33 158q34 76 88 130q57 57 130 89q75 33 159 33q83 0 158 -32q74 -32 132 -90l-74 -72q-42 43 -98 66q-54 22 -118 22q-61 0 -118 -23q-55 -23 -98 -65q-42 -42 -66 -98t-24 -118v-442q0 -62 24 -118t66 -98q43 -43 97 -65q57 -23 119 -23q36 0 68 7 q33 7 74 27q38 22 78 42q40 21 76 35q49 19 82 29l-26 -118q-54 -18 -102 -48q-45 -28 -104 -52q-35 -12 -70 -18q-19 -4 -38 -6v-46q54 -17 88 -62q34 -46 34 -102q0 -35 -14 -68q-14 -32 -38 -55t-55 -36q-30 -13 -67 -13q-73 0 -120 50l72 74q23 -20 48 -20q30 0 49 19 t19 49q0 29 -19 48q-20 20 -49 20h-52v146q-46 6 -94 26q-74 32 -129 87t-88 130t-33 159z" />
<glyph unicode="&#xc8;" d="M94 596v104h94v558h668v-106h-564v-452h230v-104h-230v-492h564v-104h-668v596h-94zM366 1492l34 80l302 -128l-34 -80z" />
<glyph unicode="&#xc9;" d="M94 596v104h94v558h668v-106h-564v-452h230v-104h-230v-492h564v-104h-668v596h-94zM354 1442l34 -80l302 128l-36 80z" />
<glyph unicode="&#xca;" d="M94 596v104h94v558h668v-106h-564v-452h230v-104h-230v-492h564v-104h-668v596h-94zM248 1426l114 142q23 29 60 49q35 19 74 19q37 0 73 -17q35 -17 61 -47l114 -146l-78 -66l-116 148q-20 24 -54 24q-17 0 -30 -7q-14 -7 -24 -21l-116 -144z" />
<glyph unicode="&#xcb;" d="M94 596v104h94v558h668v-106h-564v-452h230v-104h-230v-492h564v-104h-668v596h-94zM290 1448q0 34 24 58t60 24q34 0 58 -24t24 -58t-24 -59t-58 -25t-59 25t-25 59zM584 1448q0 34 24 58t60 24q34 0 58 -24t24 -58t-24 -59t-58 -25t-59 25t-25 59z" />
<glyph unicode="&#xcc;" horiz-adv-x="488" d="M80 1492l36 80l300 -128l-32 -80zM90 0v104h98v1050h-98v106h296v-106h-96v-1050h96v-104h-296z" />
<glyph unicode="&#xcd;" horiz-adv-x="488" d="M68 1442l34 -80l302 128l-36 80zM90 0v104h98v1050h-98v106h296v-106h-96v-1050h96v-104h-296z" />
<glyph unicode="&#xce;" horiz-adv-x="488" d="M-4 1424l114 142q23 29 60 49q35 19 74 19q37 0 73 -17q35 -17 61 -47l114 -146l-78 -66l-116 148q-20 24 -54 24q-17 0 -30 -7q-14 -7 -24 -21l-116 -144zM90 0v104h98v1050h-98v106h296v-106h-96v-1050h96v-104h-296z" />
<glyph unicode="&#xcf;" horiz-adv-x="488" d="M10 1448q0 34 24 58t60 24q34 0 58 -24t24 -58t-24 -59t-58 -25t-59 25t-25 59zM90 0v104h98v1050h-98v106h296v-106h-96v-1050h96v-104h-296zM304 1448q0 34 24 58t60 24q34 0 58 -24t24 -58t-24 -59t-58 -25t-59 25t-25 59z" />
<glyph unicode="&#xd0;" horiz-adv-x="1258" d="M74 602v102h320v444q-23 -5 -36 -10q-17 -6 -34 -16l-44 96q90 42 180 42h232q77 0 159 -32q80 -31 147 -92t110 -147q44 -87 54 -195v-4v-326q-6 -108 -51 -195q-45 -86 -110 -147q-63 -59 -146 -91q-80 -31 -163 -31h-232q-87 0 -180 38l44 94q35 -15 70 -22v492h-320z M494 104h198q62 0 126 24t114 71q51 48 85 116q35 70 41 153v320q-7 84 -43 154q-35 68 -86 116t-113 72q-61 24 -124 24h-198v-450h308v-102h-308v-498z" />
<glyph unicode="&#xd1;" horiz-adv-x="1042" d="M104 2v1256h110l604 -1066v1066h106v-1262h-110l-608 1066v-1060h-102zM252 1442l38 46q24 30 60 48t76 18q35 0 71 -17q35 -17 61 -47q24 -28 56 -28q28 0 54 26l54 64l64 -80l-38 -50q-52 -61 -134 -60q-82 0 -136 64q-20 26 -52 26q-34 0 -58 -30l-50 -60z" />
<glyph unicode="&#xd2;" horiz-adv-x="1006" d="M92 408v444q0 103 50 194t132 146q46 32 109 50q57 16 120 16t120 -16q63 -18 109 -50q80 -54 131 -146q49 -89 49 -194v-444q0 -62 -18 -118q-19 -58 -48 -103q-31 -49 -73 -86q-44 -39 -97 -63q-83 -40 -174 -40t-174 40q-104 50 -170 149t-66 221zM196 408 q0 -92 51 -166q52 -74 129 -110q59 -28 126 -28q68 0 128 28q79 37 128 109q50 74 50 167v444q0 62 -24 117t-66 97q-13 13 -35 31q-11 9 -35 23q-65 34 -145 34t-145 -34q-20 -8 -37 -23q-5 -5 -17 -15t-18 -16q-42 -40 -66 -96t-24 -118v-444zM360 1492l38 80l298 -128 l-34 -80z" />
<glyph unicode="&#xd3;" horiz-adv-x="1006" d="M92 408v444q0 103 50 194t132 146q46 32 109 50q57 16 120 16t120 -16q63 -18 109 -50q80 -54 131 -146q49 -89 49 -194v-444q0 -62 -18 -118q-19 -58 -48 -103q-31 -49 -73 -86q-44 -39 -97 -63q-83 -40 -174 -40t-174 40q-104 50 -170 149t-66 221zM196 408 q0 -92 51 -166q52 -74 129 -110q59 -28 126 -28q68 0 128 28q79 37 128 109q50 74 50 167v444q0 62 -24 117t-66 97q-13 13 -35 31q-11 9 -35 23q-65 34 -145 34t-145 -34q-20 -8 -37 -23q-5 -5 -17 -15t-18 -16q-42 -40 -66 -96t-24 -118v-444zM316 1442l34 -80l302 128 l-36 80z" />
<glyph unicode="&#xd4;" horiz-adv-x="1006" d="M92 408v444q0 103 50 194t132 146q46 32 109 50q57 16 120 16t120 -16q63 -18 109 -50q80 -54 131 -146q49 -89 49 -194v-444q0 -62 -18 -118q-19 -58 -48 -103q-31 -49 -73 -86q-44 -39 -97 -63q-83 -40 -174 -40t-174 40q-104 50 -170 149t-66 221zM196 408 q0 -92 51 -166q52 -74 129 -110q59 -28 126 -28q68 0 128 28q79 37 128 109q50 74 50 167v444q0 62 -24 117t-66 97q-13 13 -35 31q-11 9 -35 23q-65 34 -145 34t-145 -34q-20 -8 -37 -23q-5 -5 -17 -15t-18 -16q-42 -40 -66 -96t-24 -118v-444zM256 1424l114 142 q23 29 60 49q35 19 74 19q37 0 73 -17q35 -17 61 -47l114 -146l-78 -66l-116 148q-20 24 -54 24q-17 0 -30 -7q-14 -7 -24 -21l-116 -144z" />
<glyph unicode="&#xd5;" horiz-adv-x="1006" d="M92 408v444q0 103 50 194t132 146q46 32 109 50q57 16 120 16t120 -16q63 -18 109 -50q80 -54 131 -146q49 -89 49 -194v-444q0 -62 -18 -118q-19 -58 -48 -103q-31 -49 -73 -86q-44 -39 -97 -63q-83 -40 -174 -40t-174 40q-104 50 -170 149t-66 221zM196 408 q0 -92 51 -166q52 -74 129 -110q59 -28 126 -28q68 0 128 28q79 37 128 109q50 74 50 167v444q0 62 -24 117t-66 97q-13 13 -35 31q-11 9 -35 23q-65 34 -145 34t-145 -34q-20 -8 -37 -23q-5 -5 -17 -15t-18 -16q-42 -40 -66 -96t-24 -118v-444zM238 1442l38 46q24 30 60 48 t76 18q35 0 71 -17q35 -17 61 -47q24 -28 56 -28q28 0 54 26l54 64l64 -80l-38 -50q-52 -61 -134 -60q-82 0 -136 64q-20 26 -52 26q-34 0 -58 -30l-50 -60z" />
<glyph unicode="&#xd6;" horiz-adv-x="1006" d="M92 408v444q0 103 50 194t132 146q46 32 109 50q57 16 120 16t120 -16q63 -18 109 -50q80 -54 131 -146q49 -89 49 -194v-444q0 -62 -18 -118q-19 -58 -48 -103q-31 -49 -73 -86q-44 -39 -97 -63q-83 -40 -174 -40t-174 40q-104 50 -170 149t-66 221zM196 408 q0 -92 51 -166q52 -74 129 -110q59 -28 126 -28q68 0 128 28q79 37 128 109q50 74 50 167v444q0 62 -24 117t-66 97q-13 13 -35 31q-11 9 -35 23q-65 34 -145 34t-145 -34q-20 -8 -37 -23q-5 -5 -17 -15t-18 -16q-42 -40 -66 -96t-24 -118v-444zM274 1448q0 34 24 58t60 24 q34 0 58 -24t24 -58t-24 -59t-58 -25t-59 25t-25 59zM568 1448q0 34 24 58t60 24q34 0 58 -24t24 -58t-24 -59t-58 -25t-59 25t-25 59z" />
<glyph unicode="&#xd7;" horiz-adv-x="730" d="M64 424l222 222l-222 220l74 74l220 -222l222 222l72 -74l-220 -220l220 -222l-72 -72l-222 220l-220 -220z" />
<glyph unicode="&#xd8;" horiz-adv-x="1006" d="M70 0l102 168q-13 18 -14 20q-66 98 -66 220v444q0 103 50 194t132 146q46 32 109 50q57 16 120 16t120 -16q63 -18 109 -50q21 -13 42 -32l60 100h104l-102 -170q17 -25 28 -44q48 -90 48 -194v-444q0 -62 -18 -118q-19 -58 -48 -103q-31 -49 -73 -86q-44 -39 -97 -63 q-83 -40 -174 -40t-174 40q-51 25 -92 60l-60 -98h-106zM196 408q0 -76 36 -142l484 802q-17 17 -32 28q-18 14 -36 24q-65 34 -145 34t-145 -34q-20 -8 -37 -23q-5 -5 -17 -15t-18 -16q-42 -40 -66 -96t-24 -118v-444zM290 190q36 -35 86 -58q59 -28 126 -28q68 0 128 28 q79 37 128 109q50 74 50 167v444q0 62 -24 116q-5 13 -10 22z" />
<glyph unicode="&#xd9;" horiz-adv-x="1124" d="M102 410v850h102v-850q0 -62 24 -119q24 -58 66 -98q43 -41 98 -65q56 -24 118 -24t119 24t98 65t65 97t24 120v850h104v-862q0 -50 3 -88q4 -44 7 -66q3 -16 12 -53q6 -27 18 -65t26 -67q17 -34 36 -59h-124q-18 34 -33 81q-16 50 -23 87q-55 -77 -142 -123 q-86 -45 -190 -45q-85 0 -160 32q-74 32 -129 87q-56 56 -87 131q-32 78 -32 160zM360 1492l38 80l298 -128l-34 -80z" />
<glyph unicode="&#xda;" horiz-adv-x="1124" d="M102 410v850h102v-850q0 -62 24 -119q24 -58 66 -98q43 -41 98 -65q56 -24 118 -24t119 24t98 65t65 97t24 120v850h104v-862q0 -50 3 -88q4 -44 7 -66q3 -16 12 -53q6 -27 18 -65t26 -67q17 -34 36 -59h-124q-18 34 -33 81q-16 50 -23 87q-55 -77 -142 -123 q-86 -45 -190 -45q-85 0 -160 32q-74 32 -129 87q-56 56 -87 131q-32 78 -32 160zM316 1442l34 -80l302 128l-36 80z" />
<glyph unicode="&#xdb;" horiz-adv-x="1124" d="M102 410v850h102v-850q0 -62 24 -119q24 -58 66 -98q43 -41 98 -65q56 -24 118 -24t119 24t98 65t65 97t24 120v850h104v-862q0 -50 3 -88q4 -44 7 -66q3 -16 12 -53q6 -27 18 -65t26 -67q17 -34 36 -59h-124q-18 34 -33 81q-16 50 -23 87q-55 -77 -142 -123 q-86 -45 -190 -45q-85 0 -160 32q-74 32 -129 87q-56 56 -87 131q-32 78 -32 160zM258 1424l114 142q23 29 60 49q35 19 74 19q37 0 73 -17q35 -17 61 -47l114 -146l-78 -66l-116 148q-20 24 -54 24q-17 0 -30 -7q-14 -7 -24 -21l-116 -144z" />
<glyph unicode="&#xdc;" horiz-adv-x="1124" d="M102 410v850h102v-850q0 -62 24 -119q24 -58 66 -98q43 -41 98 -65q56 -24 118 -24t119 24t98 65t65 97t24 120v850h104v-862q0 -50 3 -88q4 -44 7 -66q3 -16 12 -53q6 -27 18 -65t26 -67q17 -34 36 -59h-124q-18 34 -33 81q-16 50 -23 87q-55 -77 -142 -123 q-86 -45 -190 -45q-85 0 -160 32q-74 32 -129 87q-56 56 -87 131q-32 78 -32 160zM284 1448q0 34 24 58t60 24q34 0 58 -24t24 -58t-24 -59t-58 -25t-59 25t-25 59zM578 1448q0 34 24 58t60 24q34 0 58 -24t24 -58t-24 -59t-58 -25t-59 25t-25 59z" />
<glyph unicode="&#xdd;" horiz-adv-x="988" d="M104 1258h118l268 -498l270 498h116l-334 -620v-642h-104v642zM324 1442l34 -80l302 128l-36 80z" />
<glyph unicode="&#xde;" horiz-adv-x="1016" d="M60 142l42 94l33 -12q18 -7 35 -8v748q-24 -8 -35 -11q-15 -4 -31 -13l-44 94q57 27 110 34v110h102v-104h200q77 0 158 -32q78 -31 146 -91q66 -59 110 -146t54 -195v-44q-6 -109 -51 -194q-45 -86 -110 -146q-63 -59 -146 -91q-80 -31 -161 -31h-200v-104h-102v108 q-30 5 -56 13q-28 9 -54 21zM272 206h200q61 0 125 26q62 25 113 73q50 47 84 114t42 153v34q-8 87 -42 154q-36 71 -86 115q-54 48 -113 71q-61 24 -123 24h-200v-582v-182z" />
<glyph unicode="&#xdf;" horiz-adv-x="1000" d="M50 -110q22 29 43 71q19 37 31 79q11 37 19 74q3 14 7 34t4 22q3 17 7 46q3 24 3 52l2 826q0 71 50 121q49 49 122 49h160h2q66 0 129 -26q59 -24 107 -71q46 -45 72 -107q26 -63 26 -130q0 -76 -32 -145q-30 -64 -88 -113q94 -40 152 -127q58 -86 58 -195 q0 -72 -27 -136t-75 -111t-111 -75q-62 -28 -137 -28h-196v104h196q48 0 96 20q45 19 79 53q32 32 52 78q19 44 19 95t-19 96q-19 46 -52 80q-33 35 -79 54q-48 20 -96 20h-31q-19 0 -35 3q-15 3 -28 14q-12 11 -12 31q0 34 21 44t35 12q92 11 149 74q59 65 59 152 q0 49 -19 90q-20 43 -50 73q-31 31 -73 49t-90 18h-162q-29 0 -48 -19q-20 -20 -20 -47v-164v-624q0 -81 -11 -144q-10 -55 -29 -126q-2 -5 -4.5 -15l-3.5 -14l-3.5 -14t-4.5 -15q-10 -26 -15 -37q-1 -2 -11 -29q-7 -16 -12 -22h-126z" />
<glyph unicode="&#xe0;" horiz-adv-x="1102" d="M78 410q0 84 33 158t88 129t129 87q75 32 158 32q103 0 192 -47q88 -46 144 -125q13 51 25 89q15 47 39 83q0 -1 23 -29t41 -81q-33 -87 -46 -173q-14 -91 -9 -183t33 -182q29 -91 82 -168h-124q-18 38 -36 83q-16 38 -30 91q-55 -77 -142 -126q-86 -48 -192 -48 q-83 0 -158 32q-74 32 -129 87t-88 131t-33 160zM182 410q0 -62 24 -119q24 -58 66 -98q43 -42 97 -65q55 -24 117 -24q63 0 116 22q57 24 95 62q41 40 66 93q24 50 29 115q0 61 -22 117q-23 58 -62 103q-40 46 -96 73t-126 27q-63 0 -117 -25q-55 -25 -97 -66 q-41 -40 -66 -97q-24 -56 -24 -118zM382 1094l36 80l300 -128l-34 -80z" />
<glyph unicode="&#xe1;" horiz-adv-x="1102" d="M78 410q0 84 33 158t88 129t129 87q75 32 158 32q103 0 192 -47q88 -46 144 -125q13 51 25 89q15 47 39 83q0 -1 23 -29t41 -81q-33 -87 -46 -173q-14 -91 -9 -183t33 -182q29 -91 82 -168h-124q-18 38 -36 83q-16 38 -30 91q-55 -77 -142 -126q-86 -48 -192 -48 q-83 0 -158 32q-74 32 -129 87t-88 131t-33 160zM182 410q0 -62 24 -119q24 -58 66 -98q43 -42 97 -65q55 -24 117 -24q63 0 116 22q57 24 95 62q41 40 66 93q24 50 29 115q0 61 -22 117q-23 58 -62 103q-40 46 -96 73t-126 27q-63 0 -117 -25q-55 -25 -97 -66 q-41 -40 -66 -97q-24 -56 -24 -118zM384 1046l34 -80l302 128l-36 80z" />
<glyph unicode="&#xe2;" horiz-adv-x="1102" d="M78 410q0 84 33 158t88 129t129 87q75 32 158 32q103 0 192 -47q88 -46 144 -125q13 51 25 89q15 47 39 83q0 -1 23 -29t41 -81q-33 -87 -46 -173q-14 -91 -9 -183t33 -182q29 -91 82 -168h-124q-18 38 -36 83q-16 38 -30 91q-55 -77 -142 -126q-86 -48 -192 -48 q-83 0 -158 32q-74 32 -129 87t-88 131t-33 160zM182 410q0 -62 24 -119q24 -58 66 -98q43 -42 97 -65q55 -24 117 -24q63 0 116 22q57 24 95 62q41 40 66 93q24 50 29 115q0 61 -22 117q-23 58 -62 103q-40 46 -96 73t-126 27q-63 0 -117 -25q-55 -25 -97 -66 q-41 -40 -66 -97q-24 -56 -24 -118zM228 1002l114 142q23 29 60 49q35 19 74 19q37 0 73 -17q35 -17 61 -47l114 -146l-78 -66l-116 148q-20 24 -54 24q-17 0 -30 -7q-14 -7 -24 -21l-116 -144z" />
<glyph unicode="&#xe3;" horiz-adv-x="1102" d="M78 410q0 84 33 158t88 129t129 87q75 32 158 32q103 0 192 -47q88 -46 144 -125q13 51 25 89q15 47 39 83q0 -1 23 -29t41 -81q-33 -87 -46 -173q-14 -91 -9 -183t33 -182q29 -91 82 -168h-124q-18 38 -36 83q-16 38 -30 91q-55 -77 -142 -126q-86 -48 -192 -48 q-83 0 -158 32q-74 32 -129 87t-88 131t-33 160zM182 410q0 -62 24 -119q24 -58 66 -98q43 -42 97 -65q55 -24 117 -24q63 0 116 22q57 24 95 62q41 40 66 93q24 50 29 115q0 61 -22 117q-23 58 -62 103q-40 46 -96 73t-126 27q-63 0 -117 -25q-55 -25 -97 -66 q-41 -40 -66 -97q-24 -56 -24 -118zM238 1022l38 46q24 30 60 48t76 18q35 0 71 -17q35 -17 61 -47q24 -28 56 -28q28 0 54 26l54 64l64 -80l-38 -50q-52 -61 -134 -60q-82 0 -136 64q-20 26 -52 26q-34 0 -58 -30l-50 -60z" />
<glyph unicode="&#xe4;" horiz-adv-x="1102" d="M78 410q0 84 33 158t88 129t129 87q75 32 158 32q103 0 192 -47q88 -46 144 -125q13 51 25 89q15 47 39 83q0 -1 23 -29t41 -81q-33 -87 -46 -173q-14 -91 -9 -183t33 -182q29 -91 82 -168h-124q-18 38 -36 83q-16 38 -30 91q-55 -77 -142 -126q-86 -48 -192 -48 q-83 0 -158 32q-74 32 -129 87t-88 131t-33 160zM182 410q0 -62 24 -119q24 -58 66 -98q43 -42 97 -65q55 -24 117 -24q63 0 116 22q57 24 95 62q41 40 66 93q24 50 29 115q0 61 -22 117q-23 58 -62 103q-40 46 -96 73t-126 27q-63 0 -117 -25q-55 -25 -97 -66 q-41 -40 -66 -97q-24 -56 -24 -118zM286 1010q0 34 24 58t60 24q34 0 58 -24t24 -58t-24 -59t-58 -25t-59 25t-25 59zM580 1010q0 34 24 58t60 24q34 0 58 -24t24 -58t-24 -59t-58 -25t-59 25t-25 59z" />
<glyph unicode="&#xe5;" horiz-adv-x="1102" d="M78 410q0 -84 33 -160t88 -131t129 -87q75 -32 158 -32q103 0 191 47q87 46 143 127q14 -48 30 -90t36 -84h124q-53 77 -82 168q-28 90 -33 182t9 183q13 86 46 173q-18 52 -42 82l-22 28q-24 -36 -39 -83q-12 -38 -25 -89q-56 78 -143 125q-88 47 -193 47 q-83 0 -158 -32q-74 -32 -129 -87t-88 -129t-33 -158zM182 410q0 62 24 118q25 57 66 97q42 41 97 66q54 25 117 25q70 0 126 -27t96 -73q39 -45 62 -104q22 -57 22 -116q-5 -65 -29 -115q-25 -53 -66 -93q-38 -38 -95 -62q-53 -22 -116 -22q-62 0 -117 24q-54 23 -97 65 q-41 40 -66 97q-24 56 -24 120zM354 1086q0 75 49 124q50 50 121 50q72 0 122 -50t50 -124t-50 -124t-122 -50q-71 0 -121 50q-49 49 -49 124zM456 1086q0 -29 19 -48q20 -20 49 -20t49 20q19 19 19 48t-19 48q-20 20 -49 20t-49 -20q-19 -19 -19 -48z" />
<glyph unicode="&#xe6;" horiz-adv-x="1678" d="M73 318q-3 37 8 68q10 30 40 50q28 19 79 24h562q-11 56 -37 101q-27 47 -67 81q-41 35 -91 54q-52 20 -107 20q-67 0 -126 -28q-61 -29 -102 -76l-74 74q57 63 134 97q79 35 168 35q117 0 211 -58q95 -59 147 -154q35 63 86 108q53 47 116 72q68 27 135 31q71 5 141 -15 q58 -18 109 -51q53 -34 89 -76q40 -47 61 -98q23 -56 27 -115q2 -42 1 -53q-1 -18 -3 -31q-2 -15 -6 -22h-700q2 -6 3 -10l3 -12q12 -46 37 -86q25 -39 60 -70q33 -29 78 -49q42 -19 91 -25h30q76 0 138 32q73 38 99 52q60 32 141 56l-28 -118q-55 -18 -101 -48 q-43 -28 -101 -52q-75 -26 -145 -25q-73 1 -142 24q-68 22 -125 70q-54 45 -96 115q-53 -93 -146 -149q-91 -55 -210 -61q-3 0 -5 -1t-11 -1q-14 0 -40 3q-28 3 -60 13q-33 10 -73 30q-39 19 -77 56l-12 9q-4 3 -10 11q-22 22 -46 57q-22 32 -34 67q-16 35 -19 74zM176 352 q-11 -20 12 -70q8 -25 24 -47q28 -39 32 -43q41 -39 98 -64q55 -24 118 -24q55 0 107 20q50 19 91 54t67 80q27 46 37 98h-562q-20 0 -24 -4zM874 462h596q-18 94 -84 163q-65 68 -162 85q-44 6 -88 2q-87 -11 -148 -64q-38 -30 -68 -75q-28 -42 -40 -93q-1 -4 -3 -10 q-1 -1 -2 -4t-1 -4z" />
<glyph unicode="&#xe7;" horiz-adv-x="902" d="M84 406q0 83 32 159q31 74 87 130q55 55 130 88t159 33q86 0 158 -31q74 -32 132 -91l-74 -74q-43 46 -100 69t-116 23q-64 0 -118 -25q-57 -26 -97 -66q-41 -41 -65 -97t-24 -118t24 -118q24 -55 65 -98t96 -65q57 -23 119 -23q70 0 133 29q58 27 107 85l80 -68 q-53 -65 -122 -102q-73 -39 -154 -46v-50q53 -17 87 -62q35 -47 35 -102q0 -73 -50 -123q-49 -49 -124 -49q-70 0 -120 50l74 74q20 -20 46 -20q31 0 50 19q20 20 20 49q0 28 -20 48t-50 20h-50v148q-76 10 -140 46t-111 89q-48 54 -73 122q-26 70 -26 147z" />
<glyph unicode="&#xe8;" horiz-adv-x="1032" d="M102 412q0 96 45 180t120 141t170 78t195 -9q57 -18 108 -50q49 -31 89 -76q38 -42 61 -99q21 -53 26 -115q2 -31 1 -43q-1 -19 -3 -33q-1 -6 -2.5 -16t-1.5 -12h-700v-2l3 -9q1 -3 3 -11q11 -45 35 -83q27 -42 64 -74q40 -33 88 -54q50 -21 107 -21q74 0 138 34 q58 29 101 52q64 34 139 54l-26 -116q-56 -19 -101 -49q-46 -31 -101 -51q-75 -26 -146 -25q-75 2 -142 24q-66 22 -125 70q-57 46 -95 115q-23 45 -37 97q-13 49 -13 103zM210 462h596q-18 96 -84 165q-65 68 -162 85q-44 6 -88 2q-48 -6 -90 -28q-47 -24 -82 -55 q-38 -33 -62 -77q-23 -42 -28 -92zM348 1094l36 80l300 -128l-34 -80z" />
<glyph unicode="&#xe9;" horiz-adv-x="1032" d="M102 412q0 96 45 180t120 141t170 78t195 -9q57 -18 108 -50q49 -31 89 -76q38 -42 61 -99q21 -53 26 -115q2 -31 1 -43q-1 -19 -3 -33q-1 -6 -2.5 -16t-1.5 -12h-700v-2l3 -9q1 -3 3 -11q11 -45 35 -83q27 -42 64 -74q40 -33 88 -54q50 -21 107 -21q74 0 138 34 q58 29 101 52q64 34 139 54l-26 -116q-56 -19 -101 -49q-46 -31 -101 -51q-75 -26 -146 -25q-75 2 -142 24q-66 22 -125 70q-57 46 -95 115q-23 45 -37 97q-13 49 -13 103zM210 462h596q-18 96 -84 165q-65 68 -162 85q-44 6 -88 2q-48 -6 -90 -28q-47 -24 -82 -55 q-38 -33 -62 -77q-23 -42 -28 -92zM328 1046l34 -80l302 128l-36 80z" />
<glyph unicode="&#xea;" horiz-adv-x="1032" d="M102 412q0 96 45 180t120 141t170 78t195 -9q57 -18 108 -50q49 -31 89 -76q38 -42 61 -99q21 -53 26 -115q2 -31 1 -43q-1 -19 -3 -33q-1 -6 -2.5 -16t-1.5 -12h-700v-2l3 -9q1 -3 3 -11q11 -45 35 -83q27 -42 64 -74q40 -33 88 -54q50 -21 107 -21q74 0 138 34 q58 29 101 52q64 34 139 54l-26 -116q-56 -19 -101 -49q-46 -31 -101 -51q-75 -26 -146 -25q-75 2 -142 24q-66 22 -125 70q-57 46 -95 115q-23 45 -37 97q-13 49 -13 103zM210 462h596q-18 96 -84 165q-65 68 -162 85q-44 6 -88 2q-48 -6 -90 -28q-47 -24 -82 -55 q-38 -33 -62 -77q-23 -42 -28 -92zM268 1002l114 142q23 29 60 49q35 19 74 19q37 0 73 -17q35 -17 61 -47l114 -146l-78 -66l-116 148q-20 24 -54 24q-17 0 -30 -7q-14 -7 -24 -21l-116 -144z" />
<glyph unicode="&#xeb;" horiz-adv-x="1032" d="M102 412q0 96 45 180t120 141t170 78t195 -9q57 -18 108 -50q49 -31 89 -76q38 -42 61 -99q21 -53 26 -115q2 -31 1 -43q-1 -19 -3 -33q-1 -6 -2.5 -16t-1.5 -12h-700v-2l3 -9q1 -3 3 -11q11 -45 35 -83q27 -42 64 -74q40 -33 88 -54q50 -21 107 -21q74 0 138 34 q58 29 101 52q64 34 139 54l-26 -116q-56 -19 -101 -49q-46 -31 -101 -51q-75 -26 -146 -25q-75 2 -142 24q-66 22 -125 70q-57 46 -95 115q-23 45 -37 97q-13 49 -13 103zM210 462h596q-18 96 -84 165q-65 68 -162 85q-44 6 -88 2q-48 -6 -90 -28q-47 -24 -82 -55 q-38 -33 -62 -77q-23 -42 -28 -92zM286 1010q0 34 24 58t60 24q34 0 58 -24t24 -58t-24 -59t-58 -25t-59 25t-25 59zM580 1010q0 34 24 58t60 24q34 0 58 -24t24 -58t-24 -59t-58 -25t-59 25t-25 59z" />
<glyph unicode="&#xec;" horiz-adv-x="356" d="M10 1094l38 82l298 -128l-32 -80zM128 0v818h102v-818h-102z" />
<glyph unicode="&#xed;" horiz-adv-x="362" d="M12 1048l300 128l36 -82l-302 -126zM128 0h102v818h-102v-818z" />
<glyph unicode="&#xee;" horiz-adv-x="356" d="M-70 1002l114 144q24 30 60 48t74 18q37 0 73 -17t61 -45l114 -148l-78 -64l-116 146q-20 24 -54 24q-17 0 -31 -7q-16 -8 -23 -21l-116 -142zM128 0v818h102v-818h-102z" />
<glyph unicode="&#xef;" horiz-adv-x="356" d="M-48 1010q0 34 24 58t60 24q34 0 58 -24t24 -58t-24 -59t-58 -25t-59 25t-25 59zM128 0v818h102v-818h-102zM246 1010q0 34 24 58t60 24q34 0 58 -24t24 -58t-24 -59t-58 -25t-59 25t-25 59z" />
<glyph unicode="&#xf0;" horiz-adv-x="1022" d="M102 410q0 78 27 147t75 123q49 55 114 89q67 35 140 47l-116 82l-46 -70h-126l86 126l-154 108v126l212 -148l46 68h126l-88 -126l340 -234q83 -55 133 -144q49 -88 49 -194q0 -82 -32 -160q-30 -73 -88 -131q-55 -55 -131 -87t-159 -32t-159 32q-74 31 -130 87t-87 131 q-32 78 -32 160zM204 410q0 -63 25 -119q26 -58 66 -98q41 -41 97 -65t118 -24q63 0 118 24t98 65q41 40 66 97q24 56 24 120q0 62 -24 117t-66 97t-97 66t-119 24q-62 0 -118 -24q-57 -25 -97 -66q-41 -42 -66 -97q-25 -54 -25 -117z" />
<glyph unicode="&#xf1;" horiz-adv-x="930" d="M90 816h112q19 -33 23 -62q4 -25 11 -52q51 51 113 82q64 32 141 32q65 0 125 -25q61 -25 113 -73q46 -46 71 -107q25 -60 25 -129v-482h-104v482q0 46 -18 88q-19 44 -49 74q-32 32 -73 51t-90 19q-46 0 -87 -18t-72 -49q-32 -32 -51 -73q-21 -44 -22 -92v-482h-102v482 q0 49 -4 90q-4 46 -12 90q-6 28 -20 75q-13 43 -30 79zM212 1022l38 46q24 30 60 48t76 18q35 0 71 -17q35 -17 61 -47q24 -28 56 -28q28 0 54 26l54 64l64 -80l-38 -50q-52 -61 -134 -60q-82 0 -136 64q-20 26 -52 26q-34 0 -58 -30l-50 -60z" />
<glyph unicode="&#xf2;" d="M86 410q0 83 32 158q32 74 87 129q56 56 131 87q78 32 158 32q83 0 159 -32q74 -31 130 -87q55 -55 87 -129q32 -75 32 -158q0 -82 -32 -160q-31 -75 -87 -131t-130 -87q-76 -32 -159 -32t-159 32q-74 31 -130 87t-87 131q-32 78 -32 160zM188 410q0 -62 24 -119 q24 -58 66 -98q43 -41 98 -65t118 -24q62 0 119 24t98 65q40 40 66 97q25 54 25 120q0 63 -25 117q-25 55 -66 97q-40 42 -98 66q-57 24 -119 24t-118 -24t-98 -66t-66 -97t-24 -117zM328 1094l36 80l300 -128l-34 -80z" />
<glyph unicode="&#xf3;" d="M86 410q0 83 32 158q32 74 87 129q56 56 131 87q78 32 158 32q83 0 159 -32q74 -31 130 -87q55 -55 87 -129q32 -75 32 -158q0 -82 -32 -160q-31 -75 -87 -131t-130 -87q-76 -32 -159 -32t-159 32q-74 31 -130 87t-87 131q-32 78 -32 160zM188 410q0 -62 24 -119 q24 -58 66 -98q43 -41 98 -65t118 -24q62 0 119 24t98 65q40 40 66 97q25 54 25 120q0 63 -25 117q-25 55 -66 97q-40 42 -98 66q-57 24 -119 24t-118 -24t-98 -66t-66 -97t-24 -117zM328 1046l34 -80l302 128l-36 80z" />
<glyph unicode="&#xf4;" d="M86 410q0 83 32 158q32 74 87 129q56 56 131 87q78 32 158 32q83 0 159 -32q74 -31 130 -87q55 -55 87 -129q32 -75 32 -158q0 -82 -32 -160q-31 -75 -87 -131t-130 -87q-76 -32 -159 -32t-159 32q-74 31 -130 87t-87 131q-32 78 -32 160zM188 410q0 -62 24 -119 q24 -58 66 -98q43 -41 98 -65t118 -24q62 0 119 24t98 65q40 40 66 97q25 54 25 120q0 63 -25 117q-25 55 -66 97q-40 42 -98 66q-57 24 -119 24t-118 -24t-98 -66t-66 -97t-24 -117zM248 1004l114 142q23 29 60 49q35 19 74 19q37 0 73 -17q35 -17 61 -47l114 -146l-78 -66 l-116 148q-20 24 -54 24q-17 0 -30 -7q-14 -7 -24 -21l-116 -144z" />
<glyph unicode="&#xf5;" d="M86 410q0 83 32 158q32 74 87 129q56 56 131 87q78 32 158 32q83 0 159 -32q74 -31 130 -87q55 -55 87 -129q32 -75 32 -158q0 -82 -32 -160q-31 -75 -87 -131t-130 -87q-76 -32 -159 -32t-159 32q-74 31 -130 87t-87 131q-32 78 -32 160zM188 410q0 -62 24 -119 q24 -58 66 -98q43 -41 98 -65t118 -24q62 0 119 24t98 65q40 40 66 97q25 54 25 120q0 63 -25 117q-25 55 -66 97q-40 42 -98 66q-57 24 -119 24t-118 -24t-98 -66t-66 -97t-24 -117zM230 1022l38 46q24 30 60 48t76 18q35 0 71 -17q35 -17 61 -47q24 -28 56 -28q28 0 54 26 l54 64l64 -80l-38 -50q-52 -61 -134 -60q-82 0 -136 64q-20 26 -52 26q-34 0 -58 -30l-50 -60z" />
<glyph unicode="&#xf6;" d="M86 410q0 83 32 158q32 74 87 129q56 56 131 87q78 32 158 32q83 0 159 -32q74 -31 130 -87q55 -55 87 -129q32 -75 32 -158q0 -82 -32 -160q-31 -75 -87 -131t-130 -87q-76 -32 -159 -32t-159 32q-74 31 -130 87t-87 131q-32 78 -32 160zM188 410q0 -62 24 -119 q24 -58 66 -98q43 -41 98 -65t118 -24q62 0 119 24t98 65q40 40 66 97q25 54 25 120q0 63 -25 117q-25 55 -66 97q-40 42 -98 66q-57 24 -119 24t-118 -24t-98 -66t-66 -97t-24 -117zM268 1010q0 34 24 58t60 24q34 0 58 -24t24 -58t-24 -59t-58 -25t-59 25t-25 59z M562 1010q0 34 24 58t60 24q34 0 58 -24t24 -58t-24 -59t-58 -25t-59 25t-25 59z" />
<glyph unicode="&#xf7;" horiz-adv-x="898" d="M84 398v104h730v-104h-730zM344 148q0 34 24 58t58 24q33 0 58 -23q24 -23 24 -59q0 -34 -24 -59t-58 -25t-58 26q-24 25 -24 58zM344 754q0 34 24 58t58 24t58 -24t24 -58t-24 -59t-58 -25t-58 24t-24 60z" />
<glyph unicode="&#xf8;" d="M86 410q0 83 32 158q32 74 87 129q56 56 131 87q78 32 158 32q83 0 158 -32q16 -7 18 -8l28 44h104l-56 -90q26 -22 38 -34q55 -54 86 -128q32 -75 32 -158q0 -82 -32 -160q-31 -75 -87 -131t-130 -87q-76 -32 -159 -32t-158 32l-12 4l-24 -40h-106l52 86q-20 16 -42 38 q-55 55 -86 130q-32 78 -32 160zM188 410q0 -62 24 -119t66 -99l24 -20l316 516q-2 2 -6 2q-56 24 -118 24t-118 -24t-98 -66t-66 -97t-24 -117zM380 126q53 -22 114 -22q62 0 119 24t98 65q40 40 66 97q25 54 25 120q0 63 -25 117q-26 57 -65 97l-20 16z" />
<glyph unicode="&#xf9;" horiz-adv-x="934" d="M90 336v480h104v-480q0 -46 18 -88t49 -73q32 -32 73 -51q43 -20 90 -20q48 0 91 21t74 55q31 33 49 75q18 39 16 81v480h106v-480v-12q1 -49 7 -105q1 -11 3 -25.5t3 -24.5t1 -17q8 -34 21 -75q14 -42 33 -77h-114q-13 32 -20 57q-16 59 -16 61q-6 -11 -16 -18 q-46 -48 -107 -73q-60 -25 -131 -25q-132 0 -236 98q-47 47 -72 106q-26 61 -26 130zM254 1094l36 80l300 -128l-34 -80z" />
<glyph unicode="&#xfa;" horiz-adv-x="934" d="M90 336v480h104v-480q0 -46 18 -88t49 -73q32 -32 73 -51q43 -20 90 -20q48 0 91 21t74 55q31 33 49 75q18 39 16 81v480h106v-480v-12q1 -49 7 -105q1 -11 3 -25.5t3 -24.5t1 -17q8 -34 21 -75q14 -42 33 -77h-114q-13 32 -20 57q-16 59 -16 61q-6 -11 -16 -18 q-46 -48 -107 -73q-60 -25 -131 -25q-132 0 -236 98q-47 47 -72 106q-26 61 -26 130zM254 1046l34 -80l302 128l-36 80z" />
<glyph unicode="&#xfb;" horiz-adv-x="934" d="M90 336v480h104v-480q0 -46 18 -88t49 -73q32 -32 73 -51q43 -20 90 -20q48 0 91 21t74 55q31 33 49 75q18 39 16 81v480h106v-480v-12q1 -49 7 -105q1 -11 3 -25.5t3 -24.5t1 -17q8 -34 21 -75q14 -42 33 -77h-114q-13 32 -20 57q-16 59 -16 61q-6 -11 -16 -18 q-46 -48 -107 -73q-60 -25 -131 -25q-132 0 -236 98q-47 47 -72 106q-26 61 -26 130zM172 1004l114 142q23 29 60 49q35 19 74 19q37 0 73 -17q35 -17 61 -47l114 -146l-78 -66l-116 148q-20 24 -54 24q-17 0 -30 -7q-14 -7 -24 -21l-116 -144z" />
<glyph unicode="&#xfc;" horiz-adv-x="934" d="M90 336v480h104v-480q0 -46 18 -88t49 -73q32 -32 73 -51q43 -20 90 -20q48 0 91 21t74 55q31 33 49 75q18 39 16 81v480h106v-480v-12q1 -49 7 -105q1 -11 3 -25.5t3 -24.5t1 -17q8 -34 21 -75q14 -42 33 -77h-114q-13 32 -20 57q-16 59 -16 61q-6 -11 -16 -18 q-46 -48 -107 -73q-60 -25 -131 -25q-132 0 -236 98q-47 47 -72 106q-26 61 -26 130zM200 1010q0 34 24 58t60 24q34 0 58 -24t24 -58t-24 -59t-58 -25t-59 25t-25 59zM494 1010q0 34 24 58t60 24q34 0 58 -24t24 -58t-24 -59t-58 -25t-59 25t-25 59z" />
<glyph unicode="&#xfd;" horiz-adv-x="1176" d="M122 840h118l380 -702l304 702h112l-510 -1176q72 0 122 -50t50 -122q0 -73 -50 -123q-49 -49 -122 -49q-46 0 -82 21q-37 22 -59 55q-24 37 -28 77q-5 45 11 85l198 460zM430 1046l34 -80l302 128l-36 80zM458 -508q0 -29 20 -49q19 -19 48 -19t49 20q19 19 19 48 t-19 49q-19 21 -49 21q-23 0 -46 -20q-22 -19 -22 -50z" />
<glyph unicode="&#xfe;" horiz-adv-x="954" d="M64 -532v1712h106v-498q56 62 136 98q79 36 170 36q83 0 158 -32t130 -87q57 -57 88 -129q32 -75 32 -158q0 -82 -32 -160q-30 -73 -88 -131q-55 -55 -130 -87t-158 -32q-89 0 -170 38q-80 38 -136 100v-670h-106zM170 410q0 -62 24 -119t65 -98t98 -65t119 -24t117 24 q54 23 97 65q41 40 66 97q24 56 24 120q0 62 -24 118q-25 57 -66 97q-42 41 -97 66q-54 25 -117 25t-119 -25q-58 -26 -98 -66q-41 -41 -65 -97t-24 -118z" />
<glyph unicode="&#xff;" horiz-adv-x="1176" d="M122 840h118l380 -702l304 702h112l-510 -1176q72 0 122 -50t50 -122q0 -73 -50 -123q-49 -49 -122 -49q-46 0 -82 21q-37 22 -59 55q-24 37 -28 77q-5 45 11 85l198 460zM354 1010q0 34 24 58t60 24q34 0 58 -24t24 -58t-24 -59t-58 -25t-59 25t-25 59zM458 -508 q0 -29 20 -49q19 -19 48 -19t49 20q19 19 19 48t-19 49q-19 21 -49 21q-23 0 -46 -20q-22 -19 -22 -50zM648 1010q0 34 24 58t60 24q34 0 58 -24t24 -58t-24 -59t-58 -25t-59 25t-25 59z" />
<glyph unicode="&#x152;" horiz-adv-x="1574" d="M92 408v444q0 103 50 194t132 146q46 32 109 50q57 16 120 16t120 -16q63 -18 109 -50q45 -31 78 -70v136h668v-106h-566v-300v-152h228v-104h-228v-188v-304h566v-104h-668v138l-38 -38q-43 -38 -96 -62q-83 -40 -174 -40t-174 40q-104 50 -170 149t-66 221zM196 408 q0 -92 51 -166q52 -74 129 -110q59 -28 126 -28q68 0 128 28q79 37 128 109q50 74 50 167v444q0 62 -24 117t-66 97q-13 13 -35 31q-11 9 -35 23q-65 34 -145 34t-145 -34q-20 -8 -37 -23q-5 -5 -17 -15t-18 -16q-42 -40 -66 -96t-24 -118v-444z" />
<glyph unicode="&#x153;" horiz-adv-x="1732" d="M86 410q0 83 32 158q32 74 87 129q56 56 131 87q78 32 158 32q83 0 159 -32q74 -31 131 -88q40 -40 70 -94q42 78 112 130q72 58 170 79q96 21 194 -9q56 -17 109 -50q49 -30 90 -76q38 -42 61 -99q21 -53 26 -115q2 -31 1 -43q-1 -19 -3 -33q-1 -6 -2.5 -16t-1.5 -12 h-700v-2q2 -6 2 -9t2 -11q11 -43 36 -83t64 -74q37 -32 88 -54q50 -21 108 -21q75 0 136 34q58 29 101 52q65 34 141 54l-26 -116q-56 -19 -101 -49q-45 -31 -103 -51q-75 -26 -145 -25q-73 1 -141 24q-66 22 -125 70q-57 46 -95 115q-28 -53 -68 -92q-57 -57 -131 -88 q-76 -32 -159 -32t-159 32q-74 31 -130 87t-87 131q-32 78 -32 160zM188 410q0 -62 24 -119q24 -58 66 -98q43 -41 98 -65t118 -24q62 0 119 24t98 65q40 40 66 97q25 54 25 120q0 63 -25 117q-25 55 -66 97q-40 42 -98 66q-57 24 -119 24t-118 -24t-98 -66t-66 -97 t-24 -117zM910 462h596q-18 96 -84 165q-65 68 -162 85q-44 6 -88 2q-48 -6 -90 -28q-47 -24 -82 -55q-37 -32 -63 -77q-25 -43 -27 -92z" />
<glyph unicode="&#x178;" horiz-adv-x="988" d="M104 1258h118l268 -498l270 498h116l-334 -620v-642h-104v642zM262 1448q0 34 24 58t60 24q34 0 58 -24t24 -58t-24 -59t-58 -25t-59 25t-25 59zM556 1448q0 34 24 58t60 24q34 0 58 -24t24 -58t-24 -59t-58 -25t-59 25t-25 59z" />
<glyph unicode="&#x2c6;" horiz-adv-x="640" d="M68 968l114 142q23 29 60 49q35 19 74 19q37 0 73 -17q35 -17 61 -47l114 -146l-78 -66l-116 148q-20 24 -54 24q-17 0 -30 -7q-14 -7 -24 -21l-116 -144z" />
<glyph unicode="&#x2dc;" horiz-adv-x="630" d="M50 630l38 46q24 30 60 48t76 18q35 0 71 -17q35 -17 61 -47q24 -28 56 -28q28 0 54 26l54 64l64 -80l-38 -50q-52 -61 -134 -60q-82 0 -136 64q-20 26 -52 26q-34 0 -58 -30l-50 -60z" />
<glyph unicode="&#x2000;" horiz-adv-x="847" />
<glyph unicode="&#x2001;" horiz-adv-x="1694" />
<glyph unicode="&#x2002;" horiz-adv-x="847" />
<glyph unicode="&#x2003;" horiz-adv-x="1694" />
<glyph unicode="&#x2004;" horiz-adv-x="564" />
<glyph unicode="&#x2005;" horiz-adv-x="423" />
<glyph unicode="&#x2006;" horiz-adv-x="282" />
<glyph unicode="&#x2007;" horiz-adv-x="282" />
<glyph unicode="&#x2008;" horiz-adv-x="211" />
<glyph unicode="&#x2009;" horiz-adv-x="338" />
<glyph unicode="&#x200a;" horiz-adv-x="94" />
<glyph unicode="&#x2010;" horiz-adv-x="868" d="M68 398v104h730v-104h-730z" />
<glyph unicode="&#x2011;" horiz-adv-x="868" d="M68 398v104h730v-104h-730z" />
<glyph unicode="&#x2012;" horiz-adv-x="868" d="M68 398v104h730v-104h-730z" />
<glyph unicode="&#x2013;" horiz-adv-x="974" d="M68 398v104h814v-104h-814z" />
<glyph unicode="&#x2014;" horiz-adv-x="1208" d="M68 398v104h1066v-104h-1066z" />
<glyph unicode="&#x2018;" horiz-adv-x="264" d="M48 1140l2.5 10t1.5 9q0 2 10 33q1 3 23 67q10 29 45 127h84v-246q0 -34 -25 -58t-59 -24t-58 24t-24 58z" />
<glyph unicode="&#x2019;" horiz-adv-x="246" d="M46 1056v246q0 34 24 58t60 24q34 0 58 -24t24 -58q-1 -7 -5 -19l-11 -33l-23 -69q-24 -72 -43 -125h-84z" />
<glyph unicode="&#x201a;" horiz-adv-x="246" d="M46 82q0 34 24 58t60 24q34 0 58 -24t24 -58q-1 -7 -5 -19l-11 -33q-4 -14 -23 -68q-37 -106 -43 -124h-84v244z" />
<glyph unicode="&#x201c;" horiz-adv-x="462" d="M48 1140l2.5 10t1.5 9q0 2 10 33q1 3 23 67q10 29 45 127h84v-246q0 -34 -25 -58t-59 -24t-58 24t-24 58zM242 1140l2.5 10t1.5 9q0 2 10 33q1 3 23 67q10 29 45 127h84v-246q0 -34 -25 -58t-59 -24t-58 24t-24 58z" />
<glyph unicode="&#x201d;" horiz-adv-x="450" d="M46 1056v246q0 34 24 58t60 24q34 0 58 -24t24 -58q-1 -7 -5 -19l-11 -33l-23 -69q-24 -72 -43 -125h-84zM240 1056v246q0 34 24 58t60 24q34 0 58 -24t24 -58q-1 -7 -5 -19q-1 -3 -4 -14t-6 -19q-13 -42 -23 -69q-5 -15 -19.5 -56.5t-24.5 -68.5h-84z" />
<glyph unicode="&#x201e;" horiz-adv-x="452" d="M46 82q0 34 24 58t60 24q34 0 58 -24t24 -58q-1 -7 -5 -19l-11 -33q-4 -14 -23 -68q-37 -106 -43 -124h-84v244zM240 82q0 34 24 58t60 24q34 0 58 -24t24 -58q-1 -7 -5 -19q-1 -3 -4 -14t-6 -19q-13 -42 -23 -68q-6 -16 -21 -59.5t-23 -64.5h-84v244z" />
<glyph unicode="&#x2022;" horiz-adv-x="708" d="M108 627q-2 50 16 92t50 78q32 35 78 57q48 20 95 20q50 0 92 -16q44 -17 78 -49q34 -33 57 -77q20 -49 20 -96q0 -50 -16 -92q-17 -46 -49 -79q-35 -37 -79 -55q-47 -20 -94 -21q-46 -1 -92 16q-43 16 -79 49t-55 78q-21 49 -22 95zM223 682q-21 -54 3 -108 q23 -50 76 -72t106 2q54 24 74 77q20 54 -2 107q-24 53 -79 72q-57 20 -105 -2q-52 -22 -73 -76z" />
<glyph unicode="&#x2026;" horiz-adv-x="820" d="M56 82q0 34 24 58t60 24q33 0 58 -23q24 -23 24 -59q0 -34 -24 -58t-58 -24t-59 24t-25 58zM328 82q0 34 25 58t59 24q33 0 58 -23q24 -23 24 -59q0 -34 -24 -58t-58 -24t-59 24t-25 58zM604 82q0 34 24 58t60 24q33 0 58 -23q24 -23 24 -59q0 -34 -24 -58t-58 -24 t-59 24t-25 58z" />
<glyph unicode="&#x202f;" horiz-adv-x="338" />
<glyph unicode="&#x2039;" horiz-adv-x="522" d="M56 646q0 80 60 130h2l264 218l64 -80l-262 -216q-28 -19 -28 -52q0 -34 30 -56l260 -216l-64 -78l-262 214q-32 24 -48 60q-16 35 -16 76z" />
<glyph unicode="&#x203a;" horiz-adv-x="568" d="M96 374l262 218q26 23 26 54q0 34 -28 56l-260 212l64 80l262 -214q31 -24 48 -59q16 -33 16 -75q0 -38 -15 -73t-45 -59l-2 -2l-264 -216z" />
<glyph unicode="&#x205f;" horiz-adv-x="423" />
<glyph unicode="&#x20ac;" horiz-adv-x="1002" d="M74 482v104h138v104h-138v100h138v76q0 85 32 160q31 72 88 129q55 55 130 87t158 32q84 0 159 -30q74 -30 133 -90l-74 -72q-90 90 -218 90q-62 0 -118 -24q-57 -25 -97 -66q-40 -42 -66 -98q-25 -54 -25 -118v-76h490v-100h-490v-104h490v-104h-490v-74q0 -63 25 -119 q26 -58 66 -98q41 -41 97 -64q57 -23 118 -23q64 0 118 22q58 24 100 64l74 -72q-59 -60 -133 -90q-75 -30 -159 -30q-83 0 -158 32q-74 31 -130 88q-57 57 -88 131q-32 76 -32 159v74h-138z" />
<glyph unicode="&#x2122;" horiz-adv-x="844" d="M46 1222v38h272v-38h-122v-406h-36v406h-114zM386 816v444h38l144 -254l144 254h40v-316v-48v-12q0 -20 10 -36t12 -18l14 -14h-52q-5 6 -13 26q-7 17 -7 42v12v48v246l-126 -222h-42l-124 222v-374h-38z" />
<glyph unicode="&#x25fc;" horiz-adv-x="820" d="M0 0v820h820v-820h-820z" />
<glyph unicode="&#xfb01;" horiz-adv-x="1062" d="M98 714v102h90v106q0 70 27 130q27 59 72 106t106 72q63 26 129 26q68 0 128 -25q63 -26 110 -73l-72 -74q-68 68 -166 68q-48 0 -89 -18t-73 -50t-50 -74t-18 -88v-106h230h104v-816h-104v714h-230v-714h-104v714h-90z" />
<glyph unicode="&#xfb02;" horiz-adv-x="946" d="M98 714v102h90v106q0 70 27 130q27 59 72 106t106 72q63 26 129 26q74 0 128 -24q52 -24 90 -56h50v-1176h-102v1084q-68 68 -166 68q-48 0 -89 -18t-73 -50t-50 -74t-18 -88v-106h230v-102h-230v-714h-104v714h-90z" />
</font>
</defs>
</svg>
